<?xml version="1.0" encoding="UTF-8"?>
<svg xmlns="http://www.w3.org/2000/svg" version="1.1" viewBox="0 0 604.6 254.1">
  <defs>
    <style>
      .cls-1 {
        fill: #231815;
      }
    </style>
  </defs>
  <!-- Generator: Adobe Illustrator 28.7.1, SVG Export Plug-In . SVG Version: 1.2.0 Build 142)  -->
  <g>
    <g id="_レイヤー_1" data-name="レイヤー_1">
      <g id="_レイヤー_3">
        <g id="_レイヤー_1-2">
          <g>
            <g>
              <path class="cls-1" d="M185,208.5s11.4-10.5,20.6-21.9,19.5-23.7,19.5-23.7h-40s-5,11.4-13.4,23.6c-8.4,12.1-18.7,22.1-18.7,22.1,0,0,10.3,9.9,18.7,22.1,8.4,12.1,13.4,23.6,13.4,23.6h40s-10.3-12.3-19.5-23.7c-9.2-11.4-20.6-21.9-20.6-21.9h0Z"/>
              <path class="cls-1" d="M449.8,231.4c0-11.6,4.2-30.2-11.9-38.7-10.9-5.7-22.3-2.6-30.5,4.2,5.3-18.1,10-34,10-34h-35.7s-3.5,22.9-9.5,47.1c-6,24.2-13.4,44.1-13.4,44.1h30s7.6-19.5,14-41.4h0c3.5-11.6,14.6-8.9,14.6-.4v18.8c0,12.5,8.1,23.1,21.9,23.1h21.4s-11-11.2-11-22.8h0Z"/>
              <path class="cls-1" d="M344.4,231.4c0-11.6,4.2-30.2-11.9-38.7-4.9-2.6-9.7-3.4-14.3-3.2h-.1c-.1,0-.3,0-.5,0h0c0,0-.2,0-.3,0-.4,0-.9,0-1.3.1-6,.6-11.2,1.7-16.8,3.9,11-9.3,21.1-16.8,21.1-16.8h-33.9c.4-8.9.9-13.8.9-13.8h-27.5s-.4,4.5-.8,13.8h-9.3c-.2,4.9-.5,11-.6,18.2h9.5c0,3.6,0,7.6,0,11.8s0,2.3,0,3.5c-13.4,17.2-19.1,28.7-19.1,28.7,0,0,8.6-6.4,19.5-13.6.8,18.3,2.5,28.9,2.5,28.9h25.9s-1.7-18.6-1.6-44.9c17.4-8.6,26.5-6.5,26.5,3v18.8c0,12.5,8.1,23.1,21.9,23.1h21.4s-11-11.2-11-22.8h0Z"/>
              <g>
                <path class="cls-1" d="M136.3,191.2c-5.5-14.8-12.4-28.3-12.4-28.3h-25.2s6.2,12.8,11.2,28.5c5.1,15.6,8,30.4,8,30.4h30s-6.2-15.8-11.7-30.6Z"/>
                <path class="cls-1" d="M93.2,179.4c-4.4-2.3-8.8-3.3-13.1-3.3h-14.2c2.1-8,3.5-13.3,3.5-13.3h-30.5s0,5.3-.8,13.3h-20.1c-.2,4.9-.5,11-.6,18.2h17.7c-1.1,5-2.6,10.3-4.5,15.6C20.7,237.2,0,254.1,0,254.1h44.2s7.2-21,12.9-43.9c1.3-5.3,2.7-10.7,4-15.9h5c6.1,0,10.7,2,10.7,10.3v13.1c0,34.6-18.9,36.3-18.9,36.3,12.7,0,41.5,0,47-36,1.8-11.4,4.2-30.2-11.8-38.7h0Z"/>
              </g>
              <g>
                <path class="cls-1" d="M468.6,162.9h27.5s-1.6,16.2-1.6,43.9,4.8,47.4,4.8,47.4h-29s-2.9-17.8-2.9-47.4,1.3-43.9,1.3-43.9h0Z"/>
                <path class="cls-1" d="M553.3,218.8c0-3.7,0-7.4,0-11.1h13.7v-.9c0-6.4-.2-12.2-.3-17.3h-14.1c-.2-3-.4-5.8-.7-8.3h7.2c4.7,0,9-2.7,12-7,.3-.5,1-.5,1.4,0,3,3.6,6.9,5.8,11.1,5.8,9.2,0,16.7-10.2,16.7-22.8s-7.5-22.8-16.7-22.8-9,2.7-12,7c-.3.5-1,.5-1.4,0-3-3.6-6.9-5.8-11.1-5.8-9.2,0-16.7,10.2-16.7,22.8s.1,3.1.3,4.5h-41s-.6,6.5-1,18.2h26.2c.2,2.7.5,5.5.7,8.3h-27.2c-.1,5.1-.3,10.9-.3,17.3v.9h28.5c0,1.9,0,3.6.1,5.2-13.2-.5-21.7,4.2-25.2,8.9-8.2,10.9-6.7,34,22.9,34s19.2-5.5,22.9-13.7c8.6,6.8,11.6,12.1,11.6,12.1h43.6c-19.8-18.5-36.9-29.5-51.2-35.4h0ZM581,141.3c5,0,9.1,5.6,9.1,12.5s-4.1,12.5-9.1,12.5-9.1-5.6-9.1-12.5,4.1-12.5,9.1-12.5ZM528.1,230.7c-.9,7.4-10.8,8.3-12.2,3.1-1.2-4.5,3.4-7.6,12.3-4.3,0,.4,0,.8-.1,1.2h0ZM546.3,155.5c0-6.9,4.1-12.5,9.1-12.5s9.1,5.6,9.1,12.5-4.1,12.5-9.1,12.5-9.1-5.6-9.1-12.5Z"/>
                <path class="cls-1" d="M583.3,153.1l-4-1.6c-.3-.1-.3-.6,0-.7l1.8-.3,2-.4c.2,0,.3-.2.3-.4-.6-2.7-2.5-4.7-4.7-4.7s-4.9,3-4.9,6.7,2.2,6.7,4.9,6.7,4.1-2.1,4.7-4.9c0-.2,0-.3-.2-.4h0Z"/>
                <path class="cls-1" d="M557.7,154.8l-4-1.6c-.3-.1-.3-.6,0-.7l1.8-.3,2-.4c.2,0,.3-.2.3-.4-.6-2.7-2.5-4.7-4.7-4.7s-4.9,3-4.9,6.7,2.2,6.7,4.9,6.7,4.1-2.1,4.7-4.9c0-.2,0-.3-.2-.4h0Z"/>
              </g>
            </g>
            <g>
              <path class="cls-1" d="M305.5,99.7h-17.5c6.6-9.4,12.6-17.5,12.6-17.5h-26.3s-3.9,4.4-8.5,10.8h0s0,0,0,0c-.2.3-.4.6-.6.8-2.5,3.5-5,5.8-9.4,5.8h-19.1c-2.1,0-3.7,1.7-3.7,3.7s1.7,3.7,3.7,3.7h20.1c-.3.6-.7,1.2-1,1.8-7.2,14-22.8,29.1-22.8,29.1h20.9s11.7-5.5,20.3-17.7h0c5.1-6.7,9.8-13.2,14.9-13.2h16.3c2,0,3.7-1.7,3.7-3.7s-1.7-3.7-3.7-3.7h0Z"/>
              <path class="cls-1" d="M219.1,130l-29.6-23.5c1.9-1.8,3.7-3.6,5.4-5.3,17.8-18.2,8.5-24.8,1.7-22.7l-67,21.2c-1.9.6-3,2.7-2.4,4.7.5,1.6,2,2.6,3.5,2.6s.8,0,1.1-.2l24.4-7.7c.4-.1,9.7-1.6-.9,12.8-10.6,14.4-32.7,27.9-32.7,27.9h28.8s11.4-9.1,24.3-20.5l14.6,17.2c.9,1,2.1,1.6,3.4,1.6h22.5c4.3,0,6.1-5.4,2.8-8h0Z"/>
              <path class="cls-1" d="M351.6,119.9c-8.9,10.3-17.4,18.2-17.4,18.2h21s9.1-6.8,18.2-15.9c9-9.1,17.1-19.5,17.1-19.5h-26.3s-3.7,7-12.6,17.2h0Z"/>
              <circle class="cls-1" cx="327.6" cy="111.3" r="6.7"/>
              <circle class="cls-1" cx="343.6" cy="111.3" r="6.7" transform="translate(21.9 275.5) rotate(-45)"/>
              <path class="cls-1" d="M471.9,81.1h-34.2c-4.5,0-13-.1-23.9,10.3-10.9,10.5-16.9,20.2-16.9,20.2,5.3,0,13.1,0,22.6-4.4s14.4-9.8,19.7-14.3c5.3-4.4,14.1-.6,7.8,6.6-6.3,7.2-43.2,37.9-43.2,37.9h26.9c28.9-16.9,45.2-32.6,50.2-40.4,5-7.8,1.8-15.9-9.1-15.9h0Z"/>
            </g>
            <g>
              <rect class="cls-1" x="274.5" y="22.9" width="4.5" height="1.2" transform="translate(-.9 15.2) rotate(-3.1)"/>
              <rect class="cls-1" x="274.7" y="26.6" width="4.5" height="1.1" transform="translate(-1.1 15.2) rotate(-3.1)"/>
              <rect class="cls-1" x="278.2" y="19.1" width="4.6" height=".9" transform="translate(-.6 15.4) rotate(-3.1)"/>
              <rect class="cls-1" x="217.3" y="29.7" width="2.1" height="1.5" transform="translate(-2 36.2) rotate(-9.4)"/>
              <path class="cls-1" d="M407.9,15.8c-5.1-5.3-12-8.2-19.4-8.2s-17.7,4.6-22.7,12.4c-.6.9-1.7,1.4-2.8,1.2s-2-.9-2.3-2C357.3,7.9,346.6,0,334.8,0s-19.7,5.8-24.3,15.2c-.5,1-1.5,1.6-2.5,1.6s-2-.6-2.5-1.6C300.9,5.8,291.5,0,281.1,0s-22.5,7.9-25.9,19.3c-.3,1-1.2,1.8-2.3,2-1.1.1-2.1-.3-2.8-1.2-5-7.7-13.5-12.4-22.7-12.4s-14.3,2.9-19.4,8.2c-5.1,5.3-7.9,12.3-7.6,19.6.4,13.9,11.6,25.4,25.4,26.2,12.6.7,23.9-7.2,27.5-19.2.3-1,1.2-1.8,2.3-2,1.1-.2,2.2.3,2.8,1.2,5,7.7,13.5,12.4,22.7,12.4s19.7-5.8,24.3-15.2c.5-1,1.5-1.6,2.5-1.6s2,.6,2.5,1.6c4.6,9.4,13.9,15.2,24.3,15.2s17.7-4.6,22.7-12.3c.6-.9,1.7-1.4,2.8-1.2s2,.9,2.3,2c3.6,12,14.9,19.9,27.5,19.2,13.9-.8,25-12.3,25.5-26.2.2-7.4-2.5-14.4-7.6-19.6h0ZM217,45.6h-1.2c-.4.1-.7,0-.7-.5,0-1.2-.1-2.4-.2-3.5,0-.4.1-.6.5-.7h1.3c.4,0,.6,0,.6.5.1,1.3.3,2.5.5,3.5,0,.4-.2.7-.8.8h0ZM219.8,44.7l-1.1.4c-.4.1-.6,0-.6-.6-.2-1.3-.4-2.4-.5-3.5,0-.3,0-.6.3-.6l.8-.2c.3,0,.5.2.7.6.3.8.6,1.9.9,3.2,0,.4,0,.6-.5.8h0ZM219.7,39.9l1.1-.4c.2,0,.3,0,.5.4.4.8.8,1.9,1.1,3.3,0,.3,0,.5-.3.7l-1,.4c-.4.1-.6,0-.7-.4-.3-1.3-.6-2.3-.9-3.2-.1-.4,0-.7.1-.7ZM242.9,42.1l-1.3,2.5c-.2.4-.4.4-.8.2-2.6-1.6-4.9-4.2-6.8-7.7-.1.9-.4,1.9-.9,2.9.4-.5.8-.5,1.2-.2.8.8,1.8,1.9,2.8,3.2.5.6.6,1.1.3,1.5l-1.2,1.3c-.6.5-1.1.5-1.5,0-.7-.9-1.4-1.7-2.1-2.5-.4-.4-.6-.7-.5-.9-.8,1.8-1.7,3.2-2.7,4.3-.2.3-.5.4-.9,0l-1.8-1.6-.4,1c-.2.4-.5.8-.8,1.1-.3.3-.8.6-1.4.8l-1.5.5c-.3,0-.5,0-.6-.3l-1.7-2.2c0-.2.1-.4.6-.6l1.6-.5c.3-.1.6-.3.9-.7s.4-.9.5-1.6l-.9.3c-.2,0-.3,0-.4-.3-.3-1.1-.7-2-1.1-2.8-.1-.4,0-.6.2-.8l1-.4c.2-.1.4,0,.6.4.4.7.6,1.2.7,1.5,0-.7-.2-1.6-.4-2.7l-6.7,1.1c-1,.1-1.5-.2-1.7-1l-2.3-13.7c-.1-.8.3-1.3,1.3-1.4l9.4-1.6c.5,0,.8.2.8.7l.2,1.5c.1.5,0,.8-.6.9l-2.5.4.2,1.5,1.6-.3c.6,0,1,.2,1,.6l.2,1.3c0,.4-.1.7-.7.8l-1.7.3.2,1.5,1.7-.3c.6,0,.9,0,.9.5l.2,1.3c.1.5-.1.8-.7.8l-1.7.3.2,1.5,2.1-.3c.8-.2,1.2.2,1.3,1,.6,3,.8,5.5.6,7.5,2.8-2.9,3.9-6.9,3.5-12.1l-4.7.8c-.4,0-.7-.2-.8-.6l-.4-2.1c0-.6.1-.9.6-.9l4.8-.8-1.1-6.3c0-.4.1-.7.5-.8l2.3-.4c.4,0,.6.2.7.6l1.1,6.3,4.9-.8c.5,0,.8.2,1,.8l.3,2c0,.5-.2.8-.8.9l-4.7.8c1.6,5.2,4.1,8.8,7.8,10.8.4.2.5.6.4,1.2h0ZM294.5,37.1l-.9,2c-.2.4-.6.5-1.2.4-4.6-1.8-7.7-3.3-9.2-4.5l.3,5.7c0,.5-.3.8-.9.9h-1.5c-.7.1-1-.1-1.1-.7l-.3-5.7c-1.5,1.4-4.3,3.3-8.5,5.5-.4.2-.9,0-1.3-.5l-1.1-1.6c-.2-.3.1-.7.9-1,2.2-1,4.1-2.2,5.6-3.3l-5.9.3c-.5,0-.7-.2-.7-.6v-1.6c-.1-.5.1-.8.6-.8l10.3-.6v-.9s-6.9.4-6.9.4c-.7,0-1-.3-1.1-1l-.5-8.4c0-.4.3-.6,1-.7h2.8c0-.1,0-1.1,0-1.1l-6,.3c-.6,0-.9-.2-1-.6v-1.8c-.1-.5.2-.8.8-.8l6-.3v-.7c0-.5.1-.7.6-.7h1.9c.6-.1.9,0,.9.5v.7s4.7-.2,4.7-.2v-.7c0-.5.2-.7.7-.7h1.8c.6-.1.9,0,.9.5v.7s6.1-.3,6.1-.3c.5,0,.8.2.9.7v1.8c.1.5-.1.7-.7.7l-6,.3v.9s3-.2,3-.2c.5,0,.8.2.8.6l.5,8.4c0,.7-.2,1.1-.9,1.1l-6.9.4v.9s10.3-.6,10.3-.6c.5,0,.7.2.7.6v1.6c.1.4-.1.7-.6.7l-6,.3c1.5,1,3.6,1.8,6.2,2.6.8.2,1.1.5.9.8h0ZM348.4,28.9c0,.5-.3.8-.7.8l-10.9-.6c.2,3,0,6.2-.5,9.5-.2.9-.5,1.5-.9,1.8s-1,.6-2,.8c-.8.2-1.6.3-2.5.3-.5,0-.8-.3-1-.9l-.5-2c-.1-.5.1-.8.8-.9h1.6c.5-.2.8-.5.9-1.1.5-2.7.7-5.3.4-7.7l-11.1-.6c-.5,0-.8-.3-.8-.9v-1.9c.1-.6.4-.9,1-.9l10.5.6-1.6-2.4c-.4-.5-.4-.9-.1-1.2l1.6-1.4c.4-.3.9,0,1.5.5l1.3,1.6c1.5-1.1,2.9-2.2,4.4-3.4l-14.6-.8c-.5,0-.7-.3-.6-.9v-1.9c.1-.6.4-.9.8-.9l17.6,1c.3,0,.6.1,1,.4l2,1.7c.4.5.3.9-.2,1.4-3.2,2.5-6.2,4.6-8.9,6.4l11,.6c.5,0,.7.3.6.9v1.9c-.1,0,0,0,0,0ZM375.1,43.6l-1.6-1.2c-.3-.3-.2-.7.2-1.3,2-2.7,3.4-6.2,4.2-10.7l1.7-10.2c.1-.8.5-1.1,1.2-1l20.1,3.3c.6.1.9.5.7,1.3l-.9,5.2c-.1.8-.5,1.1-1.1,1l-17.6-2.9-.6,3.8c-1,5.5-2.7,9.6-5,12.4-.3.4-.8.5-1.4.1h0ZM402,32.1l-.3,1.7c0,.5-.4.8-.8.7l-3-.5,2.1,2.9c.2.4.1.8-.3,1l-1.8.9c-.4.2-.8.1-1.1-.3l-.5-.7-4.5-.2-.3,1.7,7,1.2c.5,0,.6.4.5.9l-.3,1.7c0,.5-.4.8-.8.7l-7-1.2-.3,1.6,8.7,1.4c.5,0,.6.4.5,1l-.3,1.8c0,.5-.4.8-.8.7l-20.1-3.3c-.5,0-.8-.4-.7-.9l.3-1.8c0-.6.4-.8.9-.7l7.9,1.3.3-1.6-6.4-1.1c-.5,0-.6-.3-.6-.8l.3-1.8c0-.5.4-.8.8-.7l6.4,1.1.2-1.4-6.1-.4c-.5,0-.7-.3-.7-.9v-1.9c0-.5.3-.8.8-.7l2.9.2,1-1.7-3.4-.6c-.5,0-.6-.4-.5-.9l.3-1.7c0-.5.4-.8.8-.7l18.3,3c.5,0,.6.4.5.9h0Z"/>
              <rect class="cls-1" x="216.6" y="25.5" width="2" height="1.5" transform="translate(-1.4 36) rotate(-9.4)"/>
              <rect class="cls-1" x="282.5" y="22.4" width="4.5" height="1.2" transform="translate(-.8 15.6) rotate(-3.1)"/>
              <rect class="cls-1" x="218" y="34" width="2.1" height="1.5" transform="translate(-2.7 36.3) rotate(-9.4)"/>
              <rect class="cls-1" x="282.7" y="26.2" width="4.6" height="1.1" transform="translate(-1 15.7) rotate(-3.1)"/>
              <polygon class="cls-1" points="389.7 32.7 388.7 34.1 394 34.4 393.3 33.3 389.7 32.7"/>
              <rect class="cls-1" x="389.7" y="17.1" width="1.3" height="15.4" transform="translate(301.9 405.8) rotate(-80.6)"/>
            </g>
          </g>
        </g>
      </g>
    </g>
  </g>
</svg>