<?xml version="1.0" encoding="UTF-8"?>
<svg xmlns="http://www.w3.org/2000/svg" viewBox="0 0 1018.74 509.73">
  <defs>
    <style>
      .cls-1 {
        fill: none;
        stroke: #231815;
        stroke-miterlimit: 10;
      }

      .cls-2 {
        fill: #231815;
      }
    </style>
  </defs>
  <g id="_レイヤー_1" data-name="レイヤー_1">
    <path class="cls-1" d="M559.29,334.36c2.98-21.44-31.57,1.19-38.12,7.74-82.79,85.77-62.54,128.8-57.77,136.99,22.42,28.45,84.58,3.57,104.23-2.38,72.66-19.65,103.04,15.68,115.96,30.38-46.65-31.81-67.55-2.12-67.55-2.12,0,0-18.07-32.52-79.34-14.23-61.27,18.3-97.02,17.64-104.31-27.75s45.86-123.48,94.79-141.12c10.58-4.23,42.34-15.05,37.87,14.58-1.88,6.82-4.94,16.7-13.64,17.88s-5.64-10.82-5.64-10.82c0,0,3.87-8.26,8.7-8.7l4.84-.45Z"/>
  </g>
  <g id="_レイヤー_3" data-name="レイヤー_3">
    <g id="_レイヤー_1-2" data-name="レイヤー_1">
      <g>
        <g>
          <path class="cls-2" d="M184.97,208.51s11.44-10.49,20.6-21.93c9.16-11.44,19.46-23.7,19.46-23.7h-39.97s-4.96,11.44-13.35,23.57c-8.39,12.12-18.69,22.07-18.69,22.07,0,0,10.3,9.94,18.69,22.07,8.39,12.12,13.35,23.57,13.35,23.57h39.97s-10.3-12.26-19.46-23.7c-9.16-11.44-20.6-21.93-20.6-21.93Z"/>
          <path class="cls-2" d="M449.83,231.39c0-11.58,4.22-30.24-11.85-38.69-10.91-5.73-22.27-2.63-30.47,4.18,5.27-18.13,10.03-34.01,10.03-34.01h-35.69s-3.54,22.88-9.54,47.13c-5.99,24.25-13.35,44.13-13.35,44.13h29.97s7.6-19.5,14-41.41c0,0,0-.01,0-.02,3.53-11.53,14.6-8.9,14.6-.43v18.8c0,12.53,8.08,23.07,21.89,23.07h21.43s-11.03-11.17-11.03-22.75Z"/>
          <path class="cls-2" d="M344.42,231.39c0-11.58,4.22-30.24-11.85-38.69-4.85-2.55-9.73-3.45-14.33-3.25-.05,0-.1,0-.15,0-.15,0-.3.01-.46.02-.02,0-.05,0-.07,0-.09,0-.18.02-.27.03-.43.03-.86.07-1.28.13-5.99.62-11.18,1.68-16.79,3.85,11.04-9.33,21.07-16.82,21.07-16.82h-33.88c.42-8.93.86-13.8.86-13.8h-27.52s-.4,4.54-.76,13.8h-9.27c-.23,4.9-.46,11.03-.61,18.25h9.45c-.04,3.62-.07,7.55-.07,11.8,0,1.17,0,2.32.01,3.46-13.43,17.25-19.09,28.69-19.09,28.69,0,0,8.57-6.35,19.47-13.61.79,18.33,2.51,28.87,2.51,28.87h25.88s-1.71-18.6-1.65-44.89c17.43-8.6,26.51-6.46,26.51,3.03v18.8c0,12.53,8.08,23.07,21.89,23.07h21.43s-11.03-11.17-11.03-22.75Z"/>
          <g>
            <path class="cls-2" d="M136.31,191.19c-5.5-14.77-12.39-28.31-12.39-28.31h-25.23s6.19,12.84,11.24,28.49c5.05,15.65,8.03,30.42,8.03,30.42h30.05s-6.19-15.83-11.7-30.6Z"/>
            <path class="cls-2" d="M93.16,179.43c-4.4-2.31-8.84-3.27-13.05-3.28h0s-14.21,0-14.21,0c2.07-7.97,3.47-13.27,3.47-13.27h-30.45s.02,5.27-.84,13.27h-20.08c-.24,4.87-.47,11-.63,18.25h17.7c-1.14,5.04-2.61,10.33-4.52,15.6C20.71,237.17,0,254.14,0,254.14h44.25s7.17-20.98,12.91-43.86c1.33-5.31,2.7-10.71,4.02-15.88h5s0,0,0,0c6.1,0,10.71,1.98,10.71,10.3v13.09c0,34.57-18.89,36.34-18.89,36.34,12.71,0,41.5,0,47-36.02,1.75-11.45,4.22-30.24-11.85-38.69Z"/>
          </g>
          <g>
            <path class="cls-2" d="M468.58,162.88h27.52s-1.63,16.25-1.63,43.86c0,32.57,4.8,47.4,4.8,47.4h-29.04s-2.91-17.8-2.91-47.4,1.27-43.86,1.27-43.86Z"/>
            <path class="cls-2" d="M553.35,218.77c.08-3.7.03-7.44-.05-11.12h13.72c0-.3,0-.6,0-.91-.04-6.42-.15-12.21-.3-17.34h-14.06c-.19-2.99-.41-5.75-.65-8.26h7.15c4.72,0,8.98-2.68,12.02-6.98.34-.48,1.05-.51,1.42-.05,2.96,3.61,6.86,5.8,11.13,5.8,9.22,0,16.72-10.22,16.72-22.79s-7.5-22.79-16.72-22.79c-4.72,0-8.98,2.68-12.02,6.98-.34.48-1.05.51-1.42.05-2.96-3.61-6.86-5.8-11.13-5.8-9.22,0-16.72,10.22-16.72,22.79,0,1.55.12,3.07.33,4.54h-41.05s-.58,6.5-1.05,18.25h26.24c.25,2.68.5,5.47.72,8.26h-27.24c-.15,5.13-.26,10.93-.3,17.34,0,.31,0,.61,0,.91h28.52c.06,1.9.1,3.62.14,5.2-13.18-.51-21.66,4.23-25.2,8.92-8.17,10.85-6.72,34.01,22.88,34.01,12.45,0,19.23-5.53,22.89-13.73,8.57,6.81,11.64,12.1,11.64,12.1h43.59c-19.84-18.54-36.94-29.46-51.19-35.37ZM581,141.27c5.04,0,9.14,5.59,9.14,12.46s-4.1,12.46-9.14,12.46-9.14-5.59-9.14-12.46,4.1-12.46,9.14-12.46ZM528.06,230.71c-.91,7.45-10.77,8.34-12.17,3.09-1.21-4.54,3.44-7.58,12.31-4.32-.05.41-.09.82-.14,1.23ZM546.35,155.48c0-6.87,4.1-12.46,9.14-12.46s9.14,5.59,9.14,12.46-4.1,12.46-9.14,12.46-9.14-5.59-9.14-12.46Z"/>
            <path class="cls-2" d="M583.35,153.07l-4.02-1.56c-.34-.13-.3-.63.07-.7l1.83-.34,2.03-.38c.19-.03.31-.22.27-.4-.62-2.73-2.48-4.72-4.68-4.72-2.7,0-4.9,3-4.9,6.68s2.2,6.68,4.9,6.68c2.25,0,4.14-2.07,4.72-4.89.03-.16-.06-.32-.21-.38Z"/>
            <path class="cls-2" d="M557.7,154.85l-4.02-1.56c-.34-.13-.3-.63.07-.7l1.83-.34,2.03-.38c.19-.03.31-.22.27-.4-.62-2.73-2.48-4.72-4.68-4.72-2.7,0-4.9,3-4.9,6.68s2.2,6.68,4.9,6.68c2.25,0,4.14-2.07,4.72-4.89.03-.16-.06-.32-.21-.38Z"/>
          </g>
        </g>
        <g>
          <path class="cls-2" d="M305.45,99.66h-17.48c6.63-9.45,12.63-17.5,12.63-17.5h-26.28s-3.85,4.37-8.49,10.78h0s-.03.04-.04.06c-.2.28-.41.56-.61.85-2.53,3.46-5.01,5.81-9.37,5.81h-19.1c-2.05,0-3.71,1.66-3.71,3.71s1.66,3.71,3.71,3.71h20.08c-.33.61-.66,1.22-.98,1.84-7.24,13.96-22.8,29.12-22.8,29.12h20.95s11.72-5.49,20.25-17.72h0c5.13-6.66,9.8-13.23,14.91-13.23h16.32c2.05,0,3.71-1.66,3.71-3.71s-1.66-3.71-3.71-3.71Z"/>
          <path class="cls-2" d="M219.15,130.01l-29.55-23.49c1.85-1.79,3.66-3.58,5.4-5.35,17.84-18.17,8.54-24.82,1.74-22.67l-66.97,21.16c-1.95.62-3.03,2.7-2.42,4.65.5,1.58,1.96,2.59,3.53,2.59.37,0,.75-.06,1.12-.17l24.42-7.72c.45-.14,9.67-1.58-.93,12.8-10.6,14.39-32.69,27.89-32.69,27.89h28.77s11.39-9.07,24.26-20.5l14.61,17.23c.85,1.01,2.11,1.59,3.43,1.59h22.47c4.26,0,6.13-5.37,2.8-8.02Z"/>
          <path class="cls-2" d="M351.65,119.86c-8.92,10.26-17.42,18.17-17.42,18.17h20.95s9.14-6.84,18.17-15.9c9.03-9.06,17.15-19.52,17.15-19.52h-26.28s-3.66,6.98-12.58,17.25Z"/>
          <circle class="cls-2" cx="327.6" cy="111.27" r="6.73" transform="translate(-16.8 78.24) rotate(-13.28)"/>
          <circle class="cls-2" cx="343.56" cy="111.27" r="6.73" transform="translate(21.94 275.53) rotate(-45)"/>
          <path class="cls-2" d="M471.88,81.15h-34.2c-4.54,0-13-.13-23.85,10.35-10.85,10.47-16.91,20.19-16.91,20.19,5.3,0,13.12,0,22.59-4.42,9.47-4.42,14.39-9.84,19.69-14.26,5.3-4.42,14.13-.63,7.82,6.56-6.31,7.19-43.16,37.86-43.16,37.86h26.88c28.9-16.91,45.18-32.56,50.23-40.38,5.05-7.82,1.77-15.9-9.09-15.9Z"/>
        </g>
        <g>
          <rect class="cls-2" x="274.51" y="22.88" width="4.51" height="1.24" transform="translate(-.87 15.19) rotate(-3.14)"/>
          <rect class="cls-2" x="274.72" y="26.66" width="4.51" height="1.13" transform="translate(-1.07 15.15) rotate(-3.13)"/>
          <rect class="cls-2" x="278.24" y="19.08" width="4.63" height=".93" transform="translate(-.65 15.39) rotate(-3.14)"/>
          <rect class="cls-2" x="217.35" y="29.75" width="2.05" height="1.53" transform="translate(-2.05 36.18) rotate(-9.43)"/>
          <path class="cls-2" d="M407.86,15.84c-5.14-5.29-12.03-8.2-19.4-8.2-9.2,0-17.69,4.62-22.71,12.36-.59.92-1.67,1.4-2.75,1.25-1.08-.15-1.97-.92-2.29-1.97-3.4-11.35-14.06-19.27-25.92-19.27-10.41,0-19.73,5.82-24.31,15.18-.47.96-1.45,1.57-2.52,1.57s-2.05-.61-2.52-1.57c-4.58-9.36-13.9-15.18-24.31-15.18-11.85,0-22.51,7.92-25.92,19.27-.31,1.05-1.21,1.81-2.29,1.97-1.07.15-2.15-.33-2.75-1.25-5.02-7.74-13.51-12.36-22.71-12.36-7.37,0-14.26,2.91-19.4,8.2-5.14,5.29-7.85,12.26-7.64,19.65.39,13.91,11.57,25.43,25.44,26.22,12.6.72,23.9-7.18,27.52-19.23.31-1.05,1.21-1.81,2.29-1.97,1.08-.15,2.15.33,2.75,1.25,5.02,7.74,13.51,12.35,22.71,12.35,10.41,0,19.73-5.82,24.31-15.18.47-.96,1.45-1.57,2.52-1.57s2.05.61,2.52,1.57c4.58,9.36,13.9,15.18,24.31,15.18,9.2,0,17.69-4.62,22.71-12.35.59-.92,1.67-1.4,2.75-1.25,1.08.15,1.97.92,2.29,1.97,3.61,12.04,14.91,19.94,27.52,19.23,13.87-.8,25.05-12.32,25.45-26.22.21-7.38-2.5-14.36-7.64-19.65ZM216.97,45.61l-1.16.08c-.44.03-.67-.16-.68-.59-.05-1.22-.12-2.38-.23-3.48-.04-.38.11-.62.47-.72l1.27-.09c.35,0,.57.18.65.54.14,1.29.29,2.46.47,3.53.07.44-.19.69-.79.75ZM219.82,44.75l-1.1.42c-.37.14-.59-.05-.65-.57-.19-1.26-.35-2.44-.47-3.53-.06-.34.05-.56.33-.64l.78-.25c.29-.05.51.15.68.59.29.79.58,1.87.89,3.23.08.38-.07.63-.46.75ZM219.72,39.9l1.1-.42c.17-.05.33.08.48.39.41.83.79,1.92,1.13,3.27.05.29-.05.51-.3.67l-.99.4c-.37.12-.6,0-.67-.36-.31-1.28-.6-2.35-.86-3.23-.11-.43-.07-.67.11-.72ZM242.9,42.1l-1.29,2.5c-.19.36-.44.44-.75.24-2.63-1.58-4.9-4.15-6.82-7.72-.15.88-.44,1.86-.89,2.93.39-.49.8-.55,1.23-.17.81.78,1.76,1.86,2.82,3.23.49.6.6,1.09.33,1.47l-1.22,1.32c-.58.51-1.09.47-1.54-.1-.67-.87-1.36-1.69-2.05-2.47-.4-.4-.58-.7-.53-.88-.77,1.75-1.67,3.18-2.72,4.29-.23.35-.54.36-.9.03l-1.79-1.58-.4.95c-.22.43-.49.8-.79,1.13-.31.32-.79.59-1.44.8l-1.53.52c-.32.05-.53-.04-.6-.28l-1.66-2.22c-.04-.25.15-.44.58-.57l1.65-.48c.29-.11.58-.35.86-.73.28-.38.44-.92.48-1.63l-.89.27c-.21.03-.34-.06-.4-.29-.34-1.1-.71-2.03-1.11-2.81-.14-.37-.08-.62.17-.76l.99-.4c.21-.13.4,0,.57.4.35.69.59,1.19.72,1.52-.07-.67-.22-1.56-.44-2.65l-6.71,1.11c-.97.14-1.54-.2-1.7-1.04l-2.27-13.67c-.11-.78.32-1.26,1.29-1.42l9.39-1.56c.48-.08.75.16.82.71l.24,1.46c.1.49-.09.78-.56.86l-2.46.41.22,1.52,1.6-.27c.62-.04.96.16,1.01.62l.22,1.31c.09.44-.14.71-.69.82l-1.66.27.25,1.51,1.66-.27c.55-.09.86.09.91.55l.21,1.28c.1.47-.13.75-.68.85l-1.66.27.25,1.48,2.11-.35c.78-.15,1.22.18,1.33.98.59,2.99.79,5.48.59,7.47,2.77-2.88,3.93-6.92,3.5-12.11l-4.71.78c-.42.05-.68-.16-.78-.63l-.35-2.08c-.08-.57.13-.88.61-.92l4.79-.8-1.05-6.31c-.07-.42.11-.69.54-.82l2.31-.38c.37,0,.59.21.66.62l1.05,6.31,4.94-.82c.48-.06.82.2,1.04.77l.33,1.97c.08.48-.17.77-.76.89l-4.74.79c1.55,5.2,4.15,8.79,7.8,10.79.37.23.51.63.43,1.19ZM294.49,37.09l-.93,2.02c-.23.42-.63.55-1.2.38-4.65-1.75-7.73-3.26-9.23-4.51l.31,5.72c.03.54-.26.83-.88.86l-1.5.08c-.69.04-1.05-.21-1.08-.75l-.31-5.72c-1.51,1.42-4.33,3.26-8.48,5.54-.41.2-.86.03-1.33-.51l-1.13-1.59c-.19-.34.12-.67.93-1.01,2.22-1.05,4.07-2.15,5.56-3.29l-5.89.32c-.46.03-.71-.18-.73-.63l-.09-1.56c-.03-.5.19-.76.65-.79l10.28-.56-.05-.92-6.82.37c-.68.02-1.04-.32-1.1-1.01l-.46-8.41c-.02-.4.31-.63,1.01-.66l2.77-.15-.05-.92-6.01.33c-.62.03-.94-.18-.96-.64l-.1-1.79c-.03-.5.27-.77.88-.8l6.01-.33-.04-.69c-.03-.46.19-.71.66-.73l1.91-.1c.58-.03.88.18.9.65l.04.69,4.62-.25-.04-.69c-.03-.46.23-.71.77-.74l1.79-.1c.58-.03.88.18.91.65l.04.69,6.01-.33c.54-.03.82.21.85.71l.1,1.79c.03.46-.23.71-.77.74l-6.01.33.05.92,3-.16c.54-.03.82.16.84.56l.46,8.41c.06.69-.23,1.07-.87,1.12l-6.93.38.05.92,10.28-.56c.46-.03.71.18.73.63l.09,1.65c.02.44-.2.68-.66.7l-6.01.33c1.52.98,3.61,1.84,6.25,2.58.77.21,1.06.49.89.85ZM348.42,28.95c-.03.54-.28.8-.74.77l-10.86-.6c.2,3.02.03,6.18-.52,9.48-.18.9-.47,1.51-.85,1.84s-1.04.59-1.96.79c-.8.17-1.62.28-2.45.33-.5.01-.83-.28-1-.87l-.5-2.03c-.14-.53.11-.81.77-.86l1.63-.14c.47-.05.75-.38.87-1,.52-2.71.66-5.29.42-7.74l-11.09-.61c-.54-.03-.79-.31-.76-.85l.1-1.88c.03-.6.32-.88.86-.85l10.52.58-1.58-2.43c-.36-.46-.41-.85-.14-1.17l1.58-1.39c.44-.27.92-.09,1.45.51l1.27,1.61c1.45-1.08,2.9-2.2,4.36-3.35l-14.56-.8c-.46-.03-.68-.31-.65-.85l.1-1.88c.03-.6.28-.88.74-.86l17.56.96c.31.02.65.15,1.02.4l1.99,1.73c.4.47.33.93-.19,1.38-3.23,2.45-6.2,4.57-8.92,6.35l10.98.6c.46.03.68.34.64.93l-.1,1.88ZM375.07,43.61l-1.56-1.2c-.27-.28-.2-.7.21-1.26,1.97-2.68,3.38-6.24,4.24-10.68l1.69-10.16c.13-.76.53-1.08,1.22-.97l20.09,3.33c.61.1.85.53.72,1.29l-.87,5.25c-.13.76-.49,1.09-1.1.99l-17.58-2.92-.62,3.77c-1.02,5.46-2.69,9.6-5,12.43-.31.44-.78.48-1.43.12ZM401.96,32.12l-.28,1.68c-.09.55-.37.79-.82.71l-2.97-.49,2.09,2.93c.24.43.15.77-.29,1.01l-1.79.88c-.43.24-.8.14-1.12-.3l-.48-.67-4.55-.17-.28,1.71,6.96,1.16c.46.08.64.38.55.91l-.28,1.68c-.09.55-.37.79-.82.71l-6.96-1.16-.27,1.6,8.68,1.44c.46.08.64.4.54.97l-.29,1.77c-.09.53-.36.76-.82.69l-20.09-3.33c-.53-.09-.75-.4-.67-.93l.29-1.77c.09-.57.41-.81.94-.72l7.88,1.31.27-1.6-6.39-1.06c-.46-.08-.65-.34-.57-.8l.3-1.8c.09-.55.37-.79.82-.71l6.39,1.06.23-1.37-6.15-.43c-.5-.04-.73-.34-.68-.87l.08-1.92c.01-.54.25-.78.7-.7l2.89.25.99-1.71-3.42-.57c-.46-.08-.64-.39-.55-.94l.28-1.68c.09-.53.36-.76.82-.69l18.27,3.03c.46.08.64.38.55.91Z"/>
          <rect class="cls-2" x="216.64" y="25.48" width="1.97" height="1.53" transform="translate(-1.36 35.99) rotate(-9.42)"/>
          <rect class="cls-2" x="282.49" y="22.44" width="4.51" height="1.24" transform="translate(-.84 15.62) rotate(-3.14)"/>
          <rect class="cls-2" x="218.05" y="33.95" width="2.05" height="1.5" transform="translate(-2.73 36.3) rotate(-9.41)"/>
          <rect class="cls-2" x="282.69" y="26.22" width="4.63" height="1.13" transform="translate(-1.04 15.64) rotate(-3.14)"/>
          <polygon class="cls-2" points="389.68 32.66 388.73 34.14 393.96 34.42 393.33 33.26 389.68 32.66"/>
          <rect class="cls-2" x="389.69" y="17.15" width="1.27" height="15.39" transform="translate(301.91 405.84) rotate(-80.58)"/>
        </g>
      </g>
    </g>
  </g>
</svg>