<svg width="398" height="536" viewBox="0 0 398 536" fill="none" xmlns="http://www.w3.org/2000/svg">
<path d="M160.267 311.042C154.539 296.292 163.488 287.295 168.78 283.498C172.99 280.484 176.879 277.009 180.192 273.028C192.224 258.508 195.79 242.216 191.051 210.599L156.908 198.633L122.858 186.414C99.2526 207.975 91.7752 222.887 91.9593 241.733C92.0053 246.91 92.8566 252.042 94.214 257.058C95.9165 263.317 93.9149 274.133 80.1567 281.979C61.3138 292.726 53.6755 319.764 53.6755 319.764L31.6116 385.967C6.51089 461.559 5.08445 470.832 11.2043 476.93C13.7581 479.461 24.1113 483.949 35.3618 488.298L35.2928 488.482C35.2928 488.482 82.3653 506.73 90.97 505.855C99.5516 504.981 104.291 496.904 132.429 422.371L157.023 357.065C157.023 357.065 168.136 331.269 160.267 311.042Z" stroke="#57421D" stroke-width="7.11"/>
<path d="M160.267 311.042C154.539 296.292 163.488 287.295 168.78 283.498C172.99 280.484 176.879 277.009 180.192 273.028C192.224 258.508 195.79 242.216 191.051 210.599L156.908 198.633L122.858 186.414C99.2526 207.975 91.7752 222.887 91.9593 241.733C92.0053 246.91 92.8566 252.042 94.214 257.058C95.9165 263.317 93.9149 274.133 80.1567 281.979C61.3138 292.726 53.6755 319.764 53.6755 319.764L31.6116 385.967C6.51089 461.559 5.08445 470.832 11.2043 476.93C13.7581 479.461 24.1113 483.949 35.3618 488.298L35.2928 488.482C35.2928 488.482 82.3653 506.73 90.97 505.855C99.5516 504.981 104.291 496.904 132.429 422.371L157.023 357.065C157.023 357.065 168.136 331.269 160.267 311.042Z" stroke="white" stroke-width="4.41"/>
<path d="M160.267 311.042C154.539 296.292 163.488 287.295 168.78 283.498C172.99 280.484 176.879 277.009 180.192 273.028C192.224 258.508 195.79 242.216 191.051 210.599L156.908 198.633L122.858 186.414C99.2526 207.975 91.7752 222.887 91.9593 241.733C92.0053 246.91 92.8566 252.042 94.214 257.058C95.9165 263.317 93.9149 274.133 80.1567 281.979C61.3138 292.726 53.6755 319.764 53.6755 319.764L31.6116 385.967C6.51089 461.559 5.08445 470.832 11.2043 476.93C13.7581 479.461 24.1113 483.949 35.3618 488.298L35.2928 488.482C35.2928 488.482 82.3653 506.73 90.97 505.855C99.5516 504.981 104.291 496.904 132.429 422.371L157.023 357.065C157.023 357.065 168.136 331.269 160.267 311.042Z" fill="#9FD6F5"/>
<path d="M193.858 211.197L115.565 183.422L134.5 153.784C140.988 143.613 153.641 139.264 165.03 143.291L181.112 148.998C192.592 153.071 199.679 164.576 198.183 176.657L193.881 211.22L193.858 211.197Z" fill="#1E95BD" stroke="#57421D" stroke-width="1.23"/>
<path d="M127.459 211.243C127.459 211.243 122.099 210.253 122.306 217.134C122.513 224.014 120.672 233.472 116.623 236.647C112.574 239.823 106.868 241.687 108.179 244.747C109.491 247.808 112.275 247.578 112.275 247.578C112.275 247.578 145.957 239.294 127.459 211.243Z" fill="#96BACF"/>
<path d="M167.929 226.799C167.929 226.799 172.714 229.399 168.228 234.622C163.742 239.846 159.186 248.337 160.336 253.377C161.487 258.416 164.731 263.432 161.786 264.974C158.841 266.516 156.816 264.583 156.816 264.583C156.816 264.583 135.88 236.924 167.929 226.799Z" fill="#96BACF"/>
<path d="M126.884 211.082C126.884 211.082 144.807 243.597 108.225 246.427" stroke="#57421D" stroke-width="1.47" stroke-linecap="round"/>
<path d="M168.504 227.029C168.504 227.029 134.085 240.973 160.728 266.217" stroke="#57421D" stroke-width="1.47" stroke-linecap="round"/>
<path d="M128.058 293.6C138.655 293.6 147.245 285.008 147.245 274.409C147.245 263.81 138.655 255.217 128.058 255.217C117.46 255.217 108.87 263.81 108.87 274.409C108.87 285.008 117.46 293.6 128.058 293.6Z" fill="#5E9DCA"/>
<path d="M118.648 272.729C120.185 272.729 121.431 271.482 121.431 269.945C121.431 268.407 120.185 267.16 118.648 267.16C117.11 267.16 115.864 268.407 115.864 269.945C115.864 271.482 117.11 272.729 118.648 272.729Z" fill="#E4F4FD"/>
<path d="M126.539 268.196C128.725 268.196 130.496 266.424 130.496 264.238C130.496 262.052 128.725 260.28 126.539 260.28C124.353 260.28 122.582 262.052 122.582 264.238C122.582 266.424 124.353 268.196 126.539 268.196Z" fill="#E4F4FD"/>
<path d="M101.208 325.287C103.152 325.287 104.728 323.71 104.728 321.766C104.728 319.821 103.152 318.245 101.208 318.245C99.264 318.245 97.688 319.821 97.688 321.766C97.688 323.71 99.264 325.287 101.208 325.287Z" fill="white"/>
<path d="M115.519 351.68C117.463 351.68 119.039 350.104 119.039 348.16C119.039 346.215 117.463 344.639 115.519 344.639C113.575 344.639 111.999 346.215 111.999 348.16C111.999 350.104 113.575 351.68 115.519 351.68Z" fill="white"/>
<path d="M92.9255 383.137C95.4414 383.137 97.4809 381.097 97.4809 378.58C97.4809 376.064 95.4414 374.024 92.9255 374.024C90.4096 374.024 88.3701 376.064 88.3701 378.58C88.3701 381.097 90.4096 383.137 92.9255 383.137Z" fill="white"/>
<path d="M102.497 417.331C105.012 417.331 107.052 415.291 107.052 412.775C107.052 410.259 105.012 408.219 102.497 408.219C99.9807 408.219 97.9412 410.259 97.9412 412.775C97.9412 415.291 99.9807 417.331 102.497 417.331Z" fill="white"/>
<path d="M75.4862 439.744C78.4595 439.744 80.8699 437.334 80.8699 434.36C80.8699 431.386 78.4595 428.975 75.4862 428.975C72.5129 428.975 70.1025 431.386 70.1025 434.36C70.1025 437.334 72.5129 439.744 75.4862 439.744Z" fill="white"/>
<path d="M56.9654 459.534C58.9731 459.534 60.6006 457.906 60.6006 455.898C60.6006 453.89 58.9731 452.262 56.9654 452.262C54.9578 452.262 53.3303 453.89 53.3303 455.898C53.3303 457.906 54.9578 459.534 56.9654 459.534Z" fill="white"/>
<path d="M43.3223 468.255C45.0376 468.255 46.4282 466.864 46.4282 465.149C46.4282 463.433 45.0376 462.042 43.3223 462.042C41.6069 462.042 40.2163 463.433 40.2163 465.149C40.2163 466.864 41.6069 468.255 43.3223 468.255Z" fill="white"/>
<path d="M312.552 304.829C298.586 297.397 299.53 284.718 301.048 278.413C302.267 273.373 302.958 268.219 302.866 263.041C302.52 244.195 294.606 229.491 270.403 208.62L236.72 221.805L202.946 234.737C199.103 266.47 203.153 282.67 215.577 296.822C219.005 300.71 222.985 304.07 227.264 306.969C232.648 310.605 238.17 320.132 232.855 335.02C225.562 355.454 237.41 380.951 237.41 380.951L263.846 445.52C294.1 519.225 299.046 527.164 307.651 527.785C311.24 528.038 322.007 524.679 333.373 520.652L333.442 520.836C333.442 520.836 381.044 503.968 386.98 497.709C392.915 491.45 391.236 482.223 363.972 407.367L340.045 341.808C340.045 341.808 331.647 315 312.506 304.783L312.552 304.829Z" stroke="#57421D" stroke-width="7.11"/>
<path d="M312.552 304.829C298.586 297.397 299.53 284.718 301.048 278.413C302.267 273.373 302.958 268.219 302.866 263.041C302.52 244.195 294.606 229.491 270.403 208.62L236.72 221.805L202.946 234.737C199.103 266.47 203.153 282.67 215.577 296.822C219.005 300.71 222.985 304.07 227.264 306.969C232.648 310.605 238.17 320.132 232.855 335.02C225.562 355.454 237.41 380.951 237.41 380.951L263.846 445.52C294.1 519.225 299.046 527.164 307.651 527.785C311.24 528.038 322.007 524.679 333.373 520.652L333.442 520.836C333.442 520.836 381.044 503.968 386.98 497.709C392.915 491.45 391.236 482.223 363.972 407.367L340.045 341.808C340.045 341.808 331.647 315 312.506 304.783L312.552 304.829Z" stroke="white" stroke-width="4.41"/>
<path d="M312.552 304.829C298.586 297.397 299.53 284.718 301.048 278.413C302.267 273.373 302.958 268.219 302.866 263.041C302.52 244.195 294.606 229.491 270.403 208.62L236.72 221.805L202.946 234.737C199.103 266.47 203.153 282.67 215.577 296.822C219.005 300.71 222.985 304.07 227.264 306.969C232.648 310.605 238.17 320.132 232.855 335.02C225.562 355.454 237.41 380.951 237.41 380.951L263.846 445.52C294.1 519.225 299.046 527.164 307.651 527.785C311.24 528.038 322.007 524.678 333.373 520.652L333.442 520.836C333.442 520.836 381.044 503.968 386.98 497.709C392.915 491.45 391.236 482.223 363.972 407.367L340.045 341.808C340.045 341.808 331.647 315 312.506 304.783L312.552 304.829Z" fill="#9FD6F5"/>
<path d="M275.786 205.766L198.298 235.773L193.329 200.957C191.626 189.014 198.39 177.462 209.641 173.113L225.562 166.946C236.904 162.551 249.788 166.647 256.529 176.772L275.786 205.766Z" fill="#1E95BD" stroke="#57421D" stroke-width="1.23"/>
<path d="M222.617 250.569C222.617 250.569 217.923 253.307 222.548 258.393C227.172 263.478 231.98 271.855 230.968 276.894C229.956 281.933 226.873 287.088 229.841 288.538C232.809 289.987 234.787 288.008 234.787 288.008C234.787 288.008 254.919 259.774 222.617 250.546V250.569Z" fill="#96BACF"/>
<path d="M263.431 235.957C263.431 235.957 268.746 234.829 268.746 241.687C268.746 248.544 270.84 257.979 274.981 261.039C279.122 264.1 284.874 265.803 283.655 268.886C282.435 271.97 279.628 271.831 279.628 271.831C279.628 271.831 245.739 264.514 263.408 235.934L263.431 235.957Z" fill="#96BACF"/>
<path d="M222.064 250.799C222.064 250.799 256.851 263.777 230.945 289.757" stroke="#57421D" stroke-width="1.47" stroke-linecap="round"/>
<path d="M264.006 235.773C264.006 235.773 247.027 268.794 283.678 270.566" stroke="#57421D" stroke-width="1.47" stroke-linecap="round"/>
<path d="M264.237 317.255C274.834 317.255 283.424 308.663 283.424 298.064C283.424 287.465 274.834 278.873 264.237 278.873C253.639 278.873 245.049 287.465 245.049 298.064C245.049 308.663 253.639 317.255 264.237 317.255Z" fill="#5E9DCA"/>
<path d="M254.205 303.61C255.743 303.61 256.989 302.363 256.989 300.826C256.989 299.288 255.743 298.041 254.205 298.041C252.668 298.041 251.422 299.288 251.422 300.826C251.422 302.363 252.668 303.61 254.205 303.61Z" fill="#E4F4FD"/>
<path d="M256.46 295.303C258.646 295.303 260.417 293.531 260.417 291.345C260.417 289.159 258.646 287.387 256.46 287.387C254.275 287.387 252.503 289.159 252.503 291.345C252.503 293.531 254.275 295.303 256.46 295.303Z" fill="#E4F4FD"/>
<path d="M274.751 354.994C276.695 354.994 278.271 353.418 278.271 351.473C278.271 349.529 276.695 347.952 274.751 347.952C272.807 347.952 271.231 349.529 271.231 351.473C271.231 353.418 272.807 354.994 274.751 354.994Z" fill="white"/>
<path d="M302.819 365.671C304.763 365.671 306.339 364.095 306.339 362.15C306.339 360.206 304.763 358.63 302.819 358.63C300.875 358.63 299.299 360.206 299.299 362.15C299.299 364.095 300.875 365.671 302.819 365.671Z" fill="white"/>
<path d="M305.534 404.514C308.05 404.514 310.09 402.474 310.09 399.958C310.09 397.441 308.05 395.402 305.534 395.402C303.018 395.402 300.979 397.441 300.979 399.958C300.979 402.474 303.018 404.514 305.534 404.514Z" fill="white"/>
<path d="M335.053 424.189C337.568 424.189 339.608 422.149 339.608 419.632C339.608 417.116 337.568 415.076 335.053 415.076C332.537 415.076 330.497 417.116 330.497 419.632C330.497 422.149 332.537 424.189 335.053 424.189Z" fill="white"/>
<path d="M328.656 459.005C331.63 459.005 334.04 456.594 334.04 453.62C334.04 450.646 331.63 448.235 328.656 448.235C325.683 448.235 323.273 450.646 323.273 453.62C323.273 456.594 325.683 459.005 328.656 459.005Z" fill="white"/>
<path d="M328.656 485.651C330.664 485.651 332.291 484.024 332.291 482.016C332.291 480.008 330.664 478.38 328.656 478.38C326.649 478.38 325.021 480.008 325.021 482.016C325.021 484.024 326.649 485.651 328.656 485.651Z" fill="white"/>
<path d="M324.354 501.046C326.069 501.046 327.46 499.655 327.46 497.94C327.46 496.224 326.069 494.833 324.354 494.833C322.639 494.833 321.248 496.224 321.248 497.94C321.248 499.655 322.639 501.046 324.354 501.046Z" fill="white"/>
<path d="M113.011 129.875L72.8633 65.0068" stroke="#56411D" stroke-width="1.4" stroke-miterlimit="10"/>
<path d="M137.743 124.192L115.542 12.0811L137.72 124.192H137.743Z" stroke="#56411D" stroke-width="2" stroke-miterlimit="10"/>
<path d="M201.933 121.614L242.196 14.6582" stroke="#56411D" stroke-width="2" stroke-miterlimit="10"/>
<path d="M173.497 118.876L175.521 42.6169" stroke="#56411D" stroke-width="1.4" stroke-miterlimit="10"/>
<path d="M232.303 132.89L280.595 73.8201" stroke="#56411D" stroke-width="1.4" stroke-miterlimit="10"/>
<path d="M111.009 159.053L103.302 156.177L98.1943 162.62L98.5394 154.405L90.832 151.529L98.7695 149.32L99.1146 141.105L103.67 147.962L111.584 145.753L106.477 152.196L111.009 159.053Z" fill="#FCE554" stroke="#56411D" stroke-width="0.51" stroke-miterlimit="10"/>
<path d="M39.8252 60.3584L44.8638 61.0258L47.0724 56.4465L47.9697 61.463L53.0083 62.1533L48.5449 64.5465L49.4422 69.5629L45.761 66.0422L41.2977 68.4354L43.5063 63.8561L39.8252 60.3584Z" fill="#FCE554" stroke="#56411D" stroke-width="0.31" stroke-miterlimit="10"/>
<path d="M46.175 77.2257L49.281 77.6629L50.6614 74.8325L51.2136 77.916L54.3196 78.3532L51.5587 79.8259L52.1109 82.9325L49.8332 80.7464L47.0723 82.2421L48.4297 79.4117L46.175 77.2257Z" fill="#FCE554" stroke="#56411D" stroke-width="0.19" stroke-miterlimit="10"/>
<path d="M182.469 5.03953L187.508 5.72986L189.716 1.15063L190.614 6.16708L195.652 6.8344L191.166 9.25058L192.086 14.244L188.405 10.7233L183.919 13.1395L186.15 8.56024L182.469 5.03953Z" fill="#FCE554" stroke="#56411D" stroke-width="0.31" stroke-miterlimit="10"/>
<path d="M281.814 140.414L273.623 140.944L271.599 148.929L268.539 141.289L260.348 141.841L266.652 136.572L263.592 128.932L270.564 133.327L276.867 128.057L274.866 136.019L281.814 140.414Z" fill="#FCE554" stroke="#56411D" stroke-width="0.51" stroke-miterlimit="10"/>
<path d="M309.446 64.3394L304.384 64.6846L303.142 69.609L301.255 64.8917L296.17 65.2369L300.082 61.9693L298.195 57.252L302.497 59.9443L306.386 56.6997L305.143 61.6241L309.446 64.3394Z" fill="#FCE554" stroke="#56411D" stroke-width="0.31" stroke-miterlimit="10"/>
</svg>
