<svg width="286" height="367" viewBox="0 0 286 367" fill="none" xmlns="http://www.w3.org/2000/svg">
<path d="M144.886 294.358C146.433 293.026 146.639 290.786 145.231 289.373C144.556 288.708 143.643 288.335 142.745 288.284L149.101 264.785L149.817 264.168L174.64 266.948C173.8 268.284 173.858 269.931 174.985 271.093C176.352 272.485 178.748 272.587 180.32 271.217C181.893 269.846 182.074 267.645 180.666 266.232C179.579 265.091 177.818 264.85 176.393 265.463L175.718 242.104L176.435 241.486L202.5 237.768C202.286 238.804 202.566 239.837 203.356 240.666C204.723 242.058 207.119 242.16 208.691 240.79C210.264 239.419 210.445 237.218 209.037 235.805C207.629 234.392 205.275 234.311 203.702 235.682C203.496 235.835 203.373 236.032 203.233 236.168L187.327 227.293L169.289 215.898L122.616 255.607L133.014 273.502L140.67 288.715C140.423 288.847 140.152 289.018 139.946 289.171C138.398 290.503 138.192 292.743 139.6 294.156C141.008 295.569 143.363 295.65 144.935 294.279L144.886 294.358Z" fill="#FFDD55" stroke="#57421D" stroke-width="0.33" stroke-miterlimit="10"/>
<path d="M48.6715 211.448L35.1231 305.697" stroke="#57421D" stroke-width="0.67" stroke-miterlimit="10"/>
<path d="M24.8035 293.453C20.8086 299.805 22.9667 307.77 29.6239 311.243C36.281 314.716 44.9163 312.382 48.9112 306.03C52.9061 299.679 50.7479 291.714 44.0908 288.241C37.4336 284.768 28.7984 287.102 24.8035 293.453Z" fill="white" stroke="#57421D" stroke-width="0.67" stroke-miterlimit="10"/>
<path d="M96.0578 129.113L178.25 70.7461L96.017 129.092L96.0578 129.113Z" fill="#FFDD55" stroke="#57421D" stroke-width="0.67" stroke-miterlimit="10"/>
<path d="M161.047 68.8536C157.052 75.2055 159.211 83.1702 165.868 86.6432C172.525 90.1163 181.16 87.7825 185.155 81.4306C189.15 75.0788 186.992 67.1141 180.335 63.641C173.677 60.168 165.042 62.5017 161.047 68.8536Z" fill="white" stroke="#57421D" stroke-width="0.67" stroke-miterlimit="10"/>
<path d="M160.512 216.178C189.443 170.176 173.806 112.482 125.588 87.3254C77.3696 62.1691 14.8181 79.0703 -14.1131 125.072C-43.0442 171.074 -27.4066 228.768 20.8114 253.925C69.0293 279.081 131.581 262.18 160.512 216.178ZM52.7316 161.411C59.2956 150.974 73.4969 147.137 84.4367 152.845C95.3766 158.552 98.9268 171.651 92.3628 182.088C85.7988 192.525 71.5976 196.362 60.6577 190.654C49.7178 184.947 46.1676 171.848 52.7316 161.411Z" fill="#A0532B" stroke="#584317" stroke-miterlimit="10"/>
<path d="M147.353 185.72C143.24 192.259 146.403 200.948 154.417 205.129C162.431 209.309 172.261 207.398 176.374 200.859C180.487 194.32 177.324 185.631 169.31 181.45C161.296 177.27 151.466 179.182 147.353 185.72Z" fill="white"/>
<path d="M134.087 212.562C129.974 219.101 133.137 227.79 141.151 231.971C149.165 236.151 158.995 234.239 163.108 227.701C167.221 221.162 164.058 212.473 156.044 208.292C148.03 204.112 138.2 206.023 134.087 212.562Z" fill="white"/>
<path d="M166.783 234.345C169.824 229.51 169.711 223.604 167.053 218.093C166.741 217.46 167.186 216.753 167.927 216.617C173.7 215.61 178.61 212.846 181.379 208.443C187.337 198.97 181.19 185.531 167.646 178.465C154.101 171.399 138.263 173.368 132.305 182.842C129.264 187.677 129.377 193.583 132.035 199.093C132.347 199.726 131.902 200.434 131.161 200.569C125.388 201.577 120.478 204.341 117.709 208.743C111.751 218.217 117.898 231.656 131.442 238.722C144.987 245.788 160.825 243.818 166.783 234.345ZM148.865 186.417C152.129 181.228 160.785 180.158 168.195 184.024C175.606 187.89 178.971 195.232 175.708 200.421C172.444 205.61 163.788 206.68 156.378 202.814C148.967 198.948 145.602 191.606 148.865 186.417ZM134.269 213.624C137.532 208.435 146.188 207.365 153.599 211.231C161.01 215.097 164.375 222.439 161.112 227.627C157.848 232.816 149.192 233.886 141.782 230.02C134.371 226.154 131.006 218.812 134.269 213.624Z" fill="#331500"/>
<path d="M147.112 223.417L151.422 220.151C151.77 219.859 152.324 220.202 152.117 220.619L151.296 222.711L150.392 225.023C150.392 225.023 150.442 225.469 150.674 225.538C154.012 226.439 157.384 225.625 158.802 223.371C160.567 220.563 158.755 216.624 154.738 214.528C150.72 212.432 146.048 213.04 144.307 215.808C142.84 218.141 143.857 221.246 146.549 223.438C146.715 223.524 146.93 223.532 147.112 223.417Z" fill="#331500"/>
<path d="M161.256 196.421L165.565 193.154C165.913 192.863 166.468 193.205 166.261 193.622L165.44 195.715L164.536 198.027C164.536 198.027 164.585 198.473 164.817 198.541C168.155 199.443 171.527 198.629 172.945 196.375C174.711 193.567 172.898 189.628 168.881 187.532C164.864 185.436 160.191 186.044 158.45 188.812C156.983 191.145 158.001 194.25 160.692 196.442C160.858 196.528 161.073 196.536 161.256 196.421Z" fill="#331500"/>
<path d="M149.311 157.99C145.802 163.573 145.751 169.557 149.196 171.356C152.641 173.155 158.277 170.087 161.786 164.504C165.294 158.92 165.345 152.936 161.9 151.137C158.456 149.338 152.819 152.406 149.311 157.99Z" fill="#F5B6CB"/>
<path d="M102.476 233.407C98.9675 238.99 98.916 244.975 102.361 246.773C105.806 248.572 111.442 245.504 114.951 239.921C118.459 234.338 118.51 228.354 115.066 226.555C111.621 224.756 105.984 227.824 102.476 233.407Z" fill="#F5B6CB"/>
<path d="M124.727 184.385C124.727 184.385 110.78 187.881 114.321 201.012" stroke="#352400" stroke-width="0.67" stroke-miterlimit="10"/>
</svg>
