<svg width="272" height="339" viewBox="0 0 272 339" fill="none" xmlns="http://www.w3.org/2000/svg">
<path d="M178.825 266.748C173.753 262.02 170.389 255.915 169.401 249.239C165.194 220.438 146.242 136.044 143.806 131.092C141.997 127.45 175.788 138.557 200.458 167.834C225.127 197.111 221.357 290.36 221.357 290.36C221.357 290.36 203.774 289.844 178.825 266.748Z" fill="#F2EFE1"/>
<path d="M211.34 284.236C214.188 267.394 221.513 211.93 203.224 172.363C202.476 170.737 204.197 169.07 205.891 169.812C220.952 175.972 265.533 198.33 260.286 244.954C259.102 255.529 254.531 265.532 247.803 274.217C240.042 284.251 228.185 295.61 216.436 292.395C212.781 291.393 210.708 287.785 211.3 284.281L211.34 284.236Z" fill="#F4B3CB"/>
<path d="M137.439 243.648C130.154 236.192 124.044 227.869 121.922 217.981C115.136 185.949 97.5515 103.499 95.7291 101.063C93.4429 98.0512 135.982 110.563 150.653 138.559C165.324 166.555 175.235 261.417 175.235 261.417C175.235 261.417 153.302 259.759 137.431 243.565L137.439 243.648Z" fill="#A2D7DC"/>
<path d="M83.7354 207.209C78.5883 203.035 74.7192 197.695 72.4049 191.699C66.0969 175.102 54.2067 140.174 61.3443 127.456C70.7989 110.476 87.0941 97.5005 95.9589 100.594C104.824 103.688 126.601 230.549 126.601 230.549C126.601 230.549 114.252 231.75 83.7841 207.246L83.7354 207.209Z" fill="#F9ECB4"/>
<path d="M36.6826 160.214C36.6826 160.214 37.0376 136.471 58.8551 130.082C80.6726 123.693 78.9732 201.584 78.9732 201.584C78.9732 201.584 36.6176 190.86 36.6826 160.214Z" fill="#F4B3CB"/>
<path d="M258.209 253.689C258.66 244.758 258.14 220.809 243.597 196.653C242.784 195.282 244.247 193.722 245.805 194.438C258.599 200.333 290.601 217.708 278.01 238.865C278.01 238.865 272.256 250.573 261.934 255.806C260.266 256.68 258.213 255.516 258.258 253.726L258.209 253.689Z" fill="#F9ECB4"/>
<path d="M79.0876 202.211C79.0876 202.211 36.7464 194.2 37.0273 158.018C37.0273 158.018 38.1861 137.724 59.0205 130.55C59.0205 130.55 81.7693 64.8975 143.751 130.923C143.751 130.923 183.931 138.07 203.033 171.926C203.033 171.926 224.527 173.548 243.565 196.011C243.565 196.011 316.408 218.965 259.205 255.053C259.205 255.053 231.248 307.044 211.511 287.937C211.511 287.937 180.546 276.91 175.358 261.664C175.358 261.664 132.944 253.827 126.766 230.985C126.766 230.985 97.8307 223.539 79.0471 202.256L79.0876 202.211Z" stroke="#56411D" stroke-miterlimit="10"/>
<path d="M62.0235 129.835C62.0235 129.835 79.2524 129.72 79.0233 201.655" stroke="#56411D" stroke-width="0.25" stroke-miterlimit="10"/>
<path d="M98.1851 103.378C98.1851 103.378 123.886 186.07 126.614 230.593" stroke="#56411D" stroke-width="0.25" stroke-miterlimit="10"/>
<path d="M147.588 133.498C147.588 133.498 167.68 173.905 175.328 261.481" stroke="#56411D" stroke-width="0.25" stroke-miterlimit="10"/>
<path d="M204.356 174.954C204.356 174.954 224.436 223.898 211.264 284.192" stroke="#56411D" stroke-width="0.25" stroke-miterlimit="10"/>
<path d="M243.6 196.621C243.6 196.621 260.561 221.533 258.213 253.663" stroke="#56411D" stroke-width="0.25" stroke-miterlimit="10"/>
<path d="M54.6261 150.399C59.4694 144.937 57.8591 136.346 51.0293 131.211C44.1996 126.076 34.7367 126.341 29.8934 131.803C25.0501 137.265 26.6604 145.856 33.4901 150.991C40.3199 156.126 49.7828 155.861 54.6261 150.399Z" fill="white"/>
<path d="M71.4707 127.218C76.314 121.756 74.7037 113.165 67.8739 108.03C61.0442 102.895 51.5813 103.16 46.738 108.622C41.8947 114.084 43.505 122.675 50.3347 127.81C57.1645 132.945 66.6274 132.68 71.4707 127.218Z" fill="white"/>
<path d="M44.1461 101.882C40.5548 105.932 39.7656 111.482 41.4032 117.037C41.5986 117.639 41.0823 118.313 40.3623 118.302C34.7969 118.365 29.7691 120.198 26.541 123.838C19.5198 131.756 23.1721 145.273 34.742 153.972C46.3118 162.671 61.424 163.263 68.4452 155.345C72.0366 151.295 72.8258 145.745 71.1882 140.19C70.9928 139.588 71.5091 138.914 72.2291 138.925C77.7945 138.862 82.8222 137.029 86.0504 133.389C93.0716 125.471 89.4193 111.954 77.8494 103.255C66.2796 94.5561 51.1673 93.9638 44.1461 101.882ZM53.4674 149.393C49.634 153.716 41.3336 153.391 35.0626 148.676C28.7915 143.961 26.7456 136.583 30.6194 132.214C34.4932 127.845 42.7532 128.215 49.0243 132.931C55.2953 137.646 57.3412 145.024 53.4674 149.393ZM71.3127 126.252C67.4793 130.575 59.1789 130.25 52.9079 125.535C46.6368 120.82 44.591 113.442 48.4647 109.073C52.3385 104.704 60.5985 105.075 66.8696 109.79C73.1406 114.505 75.1865 121.883 71.3127 126.252Z" fill="#331500"/>
<path d="M60.992 115.131L56.5058 117.535C56.117 117.699 55.6785 117.369 55.9129 117.013L57.0359 115.197L58.2316 113.208C58.2316 113.208 58.2794 112.788 58.0441 112.687C55.0254 111.329 51.8074 111.57 50.1494 113.44C48.087 115.766 49.1655 119.77 52.5271 122.297C55.8887 124.825 60.3641 124.997 62.4265 122.671C64.125 120.756 63.6807 117.685 61.5435 115.242C61.3973 115.132 61.2108 115.068 61.0407 115.168L60.992 115.131Z" fill="#331500"/>
<path d="M43.2476 138.315L38.7614 140.719C38.3726 140.883 37.9341 140.553 38.1685 140.197L39.2915 138.381L40.4872 136.392C40.4872 136.392 40.535 135.971 40.2997 135.87C37.281 134.513 34.0631 134.754 32.405 136.624C30.3426 138.95 31.4211 142.953 34.7827 145.481C38.1443 148.008 42.6197 148.181 44.6821 145.855C46.3806 143.939 45.9364 140.869 43.7991 138.426C43.653 138.316 43.4664 138.251 43.2963 138.352L43.2476 138.315Z" fill="#331500"/>
<path d="M57.4367 170.837C61.6847 166.045 63.0866 160.625 60.5679 158.731C58.0492 156.837 52.5636 159.186 48.3156 163.978C44.0675 168.769 42.6656 174.189 45.1843 176.083C47.7031 177.978 53.1886 175.629 57.4367 170.837Z" fill="#EB6143"/>
<path d="M99.4555 117.556C103.704 112.765 105.105 107.345 102.587 105.451C100.068 103.557 94.5824 105.906 90.3344 110.697C86.0863 115.489 84.6844 120.909 87.2031 122.803C89.7219 124.697 95.2074 122.348 99.4555 117.556Z" fill="#EB6143"/>
<path d="M70.8022 160.308C70.8022 160.308 90.8692 155.481 90.7035 137.844L98.9213 136.48" stroke="#331500" stroke-width="0.5" stroke-miterlimit="10"/>
<path d="M215.756 247.32C213.324 241.017 213.132 234.198 215.27 227.766C224.595 199.89 246.089 115.711 246.166 110.232C246.206 106.167 271.469 129.484 280.24 165.734C289.012 201.984 243.177 285.381 243.177 285.381C243.177 285.381 227.614 278.079 215.756 247.32Z" fill="#F2EFE1"/>
<path d="M237.231 275.908C247.463 261.63 279.336 213.998 280.999 170.774C281.092 169.026 283.336 168.137 284.591 169.46C295.305 180.926 325.135 218.661 299.227 259.109C293.372 268.269 284.685 275.602 274.717 280.911C263.127 287.046 247.326 292.818 238.261 285.244C235.419 282.88 235.233 278.8 237.36 275.854L237.231 275.908Z" fill="#F4B3CB"/>
<path d="M188.774 210.237C185.647 200.605 183.927 190.666 186.536 180.871C195.06 149.053 216.876 67.1574 216.271 64.2757C215.592 60.6554 248.057 88.554 248.462 119.804C248.868 151.055 214.539 241.214 214.539 241.214C214.539 241.214 195.556 231.189 188.733 210.283L188.774 210.237Z" fill="#A2D7DC"/>
<path d="M156.913 156.263C154.176 150.49 153.168 144.047 153.834 137.725C155.705 120.179 160.973 83.7335 173.195 74.8808C189.43 63.0559 209.947 57.6349 216.501 63.8516C223.055 70.0683 184.757 194.18 184.757 194.18C184.757 194.18 173.114 190.506 157.001 156.254L156.913 156.263Z" fill="#F9ECB4"/>
<path d="M135.724 95.1135C135.724 95.1135 146.855 73.6079 169.407 76.3095C191.959 79.0111 154.834 149.29 154.834 149.29C154.834 149.29 121.646 123.048 135.772 95.15L135.724 95.1135Z" fill="#F4B3CB"/>
<path d="M293.604 266.346C298.099 258.352 308.551 236.334 306.527 208.653C306.37 207.094 308.487 206.259 309.509 207.482C318.322 217.824 339.141 246.141 318.128 260.521C318.128 260.521 307.657 268.95 295.964 269.713C294.048 269.865 292.733 267.967 293.652 266.382L293.604 266.346Z" fill="#F9ECB4"/>
<path d="M155.36 149.772C155.36 149.772 120.982 125.976 137.667 93.0498C137.667 93.0498 147.92 74.9819 169.974 76.5842C169.974 76.5842 220.374 25.5139 245.942 109.905C245.942 109.905 278.849 132.062 280.502 170.413C280.502 170.413 299.11 180.299 305.924 208.158C305.924 208.158 360.938 257.507 293.042 268.124C293.042 268.124 244.152 304.666 235.228 279.554C235.228 279.554 212.458 257.414 214.728 241.48C214.728 241.48 180.18 217.784 185.094 194.561C185.094 194.561 162.512 176.516 155.319 149.817L155.36 149.772Z" stroke="#56411D" stroke-miterlimit="10"/>
<path d="M172.372 77.3187C172.372 77.3187 187.881 83.908 154.905 149.29" stroke="#56411D" stroke-width="0.25" stroke-miterlimit="10"/>
<path d="M217.237 67.3936C217.237 67.3936 202.673 152.594 184.797 194.192" stroke="#56411D" stroke-width="0.25" stroke-miterlimit="10"/>
<path d="M248.241 113.951C248.241 113.951 247.842 158.545 214.819 241.215" stroke="#56411D" stroke-width="0.25" stroke-miterlimit="10"/>
<path d="M280.654 173.597C280.654 173.597 276.386 225.963 237.151 275.695" stroke="#56411D" stroke-width="0.25" stroke-miterlimit="10"/>
<path d="M306.472 208.642C306.472 208.642 310.361 237.921 293.566 266.261" stroke="#56411D" stroke-width="0.25" stroke-miterlimit="10"/>
<path d="M161.733 74.3604C157.921 67.0326 149.254 63.5959 142.374 66.6844C135.495 69.7729 133.008 78.217 136.821 85.5448C140.633 92.8727 149.3 96.3093 156.18 93.2208C163.059 90.1323 165.546 81.6882 161.733 74.3604Z" fill="white"/>
<path d="M187.577 59.9878C183.764 52.66 175.097 49.2233 168.218 52.3118C161.338 55.4003 158.852 63.8444 162.664 71.1723C166.477 78.5001 175.144 81.9367 182.023 78.8483C188.903 75.7598 191.389 67.3157 187.577 59.9878Z" fill="white"/>
<path d="M169.024 44.9613C163.906 47.2594 160.695 51.9778 159.614 57.767C159.454 58.4051 158.726 58.7686 158.118 58.5395C153.096 56.433 147.762 56.1407 143.162 58.2209C133.184 62.7083 130.348 76.5108 136.768 88.9254C143.187 101.34 156.514 107.793 166.491 103.306C171.609 101.008 174.82 96.2894 175.901 90.5002C176.061 89.8621 176.789 89.4986 177.397 89.7277C182.419 91.8343 187.753 92.1265 192.353 90.0463C202.331 85.5589 205.167 71.7564 198.747 59.3419C192.328 46.9273 179.001 40.4739 169.024 44.9613ZM155.696 92.0783C150.279 94.5309 142.955 90.9975 139.485 84.2152C136.015 77.4329 137.545 69.857 142.963 67.4043C148.38 64.9516 155.703 68.485 159.173 75.2674C162.643 82.0497 161.113 89.6256 155.696 92.0783ZM182.317 77.8715C176.899 80.3242 169.576 76.7908 166.106 70.0085C162.636 63.2261 164.166 55.6502 169.583 53.1976C175 50.7449 182.324 54.2783 185.794 61.0606C189.264 67.8429 187.734 75.4188 182.317 77.8715Z" fill="#331500"/>
<path d="M178.081 63.7755L172.945 64.168C172.499 64.2129 172.312 63.6921 172.692 63.4462L174.504 62.2259L176.527 60.8598C176.527 60.8598 176.761 60.5041 176.607 60.3121C174.52 57.9069 171.487 56.8422 169.123 57.952C166.193 59.2434 165.342 63.3143 167.238 66.9428C169.133 70.5713 173.019 72.5049 175.99 71.1679C178.402 70.0948 179.409 67.129 178.6 64.0138C178.584 63.8494 178.389 63.7029 178.211 63.7209L178.081 63.7755Z" fill="#331500"/>
<path d="M151.42 77.8344L146.284 78.227C145.838 78.2719 145.651 77.7511 146.031 77.5052L147.844 76.2849L149.867 74.9188C149.867 74.9188 150.101 74.5631 149.947 74.3711C147.859 71.9659 144.826 70.9012 142.463 72.011C139.532 73.3024 138.682 77.3733 140.577 81.0018C142.473 84.6303 146.358 86.5639 149.329 85.2269C151.741 84.1538 152.748 81.1879 151.939 78.0728C151.923 77.9084 151.728 77.7619 151.55 77.7799L151.42 77.8344Z" fill="#331500"/>
<path d="M157.887 103.022C156.481 100.322 150.45 100.327 144.416 103.034C138.382 105.741 134.63 110.125 136.036 112.826C137.442 115.526 143.473 115.521 149.507 112.814C155.541 110.107 159.293 105.723 157.887 103.022Z" fill="#E84477"/>
<path d="M220.255 71.1782C218.849 68.4776 212.818 68.4828 206.784 71.19C200.75 73.8971 196.998 78.281 198.404 80.9816C199.81 83.6823 205.841 83.6771 211.875 80.9699C217.909 78.2628 221.661 73.8789 220.255 71.1782Z" fill="#E84477"/>
<path d="M174.234 109.287C174.234 109.287 181.935 111.447 183.236 104.783C183.324 104.319 183.921 104.011 184.381 104.13C186.673 104.644 192.015 105.181 192.444 98.3153" stroke="#331500" stroke-width="0.5" stroke-miterlimit="10"/>
<path d="M126.328 63.6112C126.328 63.6112 134.073 62.5816 136.891 66.3762" stroke="#331500" stroke-width="0.5" stroke-miterlimit="10" stroke-linecap="round"/>
<path d="M139.101 51.3141C139.101 51.3141 144.532 56.4629 142.854 60.8308" stroke="#331500" stroke-width="0.5" stroke-miterlimit="10" stroke-linecap="round"/>
<path d="M129.15 54.3274C129.15 54.3274 140.652 58.0935 141.041 65.1077" stroke="#331500" stroke-width="0.45" stroke-miterlimit="10" stroke-linecap="round"/>
<path d="M158.808 42.225C158.808 42.225 166.148 44.6163 166.744 49.19" stroke="#331500" stroke-width="0.5" stroke-miterlimit="10" stroke-linecap="round"/>
<path d="M176.277 36.733C176.277 36.733 178.449 43.595 174.867 46.8127" stroke="#331500" stroke-width="0.5" stroke-miterlimit="10" stroke-linecap="round"/>
<path d="M166.005 35.1619C166.005 35.1619 174.222 43.3939 171.08 49.7774" stroke="#331500" stroke-width="0.45" stroke-miterlimit="10" stroke-linecap="round"/>
</svg>
