<svg width="325" height="424" viewBox="0 0 325 424" fill="none" xmlns="http://www.w3.org/2000/svg">
<path d="M177.726 210.885L212.138 243.552C223.005 253.868 240.918 254.156 252.111 244.126L281.419 217.862" stroke="#301606" stroke-width="0.63" stroke-miterlimit="10" stroke-linecap="round"/>
<path d="M92.7508 139.316L58.3387 106.649C47.4718 96.3331 47.675 79.8108 58.8681 69.7804L88.1768 43.5162" stroke="#301606" stroke-width="0.63" stroke-miterlimit="10" stroke-linecap="round"/>
<path d="M77.5925 53.1177C82.798 58.0592 91.351 58.182 96.6962 53.392C102.041 48.6021 102.155 40.7132 96.9492 35.7717C91.7438 30.8303 83.1907 30.7075 77.8455 35.4974C72.5003 40.2874 72.387 48.1763 77.5925 53.1177Z" fill="white" stroke="#5D4721" stroke-width="0.63" stroke-miterlimit="10" stroke-linecap="round"/>
<path d="M265.778 231.763C270.984 236.705 279.537 236.828 284.882 232.038C290.227 227.248 290.34 219.359 285.135 214.417C279.929 209.476 271.376 209.353 266.031 214.143C260.686 218.933 260.573 226.822 265.778 231.763Z" fill="white" stroke="#5D4721" stroke-width="0.63" stroke-miterlimit="10" stroke-linecap="round"/>
<path d="M-18.1876 329.041L103.985 219.557C106.956 216.895 107.018 212.512 104.126 209.766L98.0495 203.998C95.1571 201.252 90.4045 201.184 87.4344 203.845L-34.7387 313.329C-37.7087 315.991 -37.7717 320.375 -34.8792 323.12L-28.8027 328.889C-25.9103 331.635 -21.1577 331.703 -18.1876 329.041Z" fill="#C8A286" stroke="#56411D" stroke-width="0.56" stroke-miterlimit="10"/>
<path d="M87.7948 233.063C87.7948 233.063 84.443 246.28 71.3957 245.654C58.3485 245.027 38.5834 236.307 33.3969 194.963C28.2785 153.619 55.6862 77.6186 143.228 83.0465C230.769 88.4744 273.129 188.307 195.519 244.174C195.519 244.174 144.14 277.588 87.7268 233.062L87.7948 233.063Z" fill="#EFD073"/>
<path d="M87.9739 232.533C87.9739 232.533 84.6221 245.751 71.5749 245.124C58.5956 244.499 38.7625 235.778 33.5761 194.433C28.4576 153.09 55.8653 77.0892 143.407 82.5172C230.948 87.9451 273.308 187.778 195.698 243.645C195.698 243.645 144.32 277.059 87.9059 232.532L87.9739 232.533Z" stroke="#57421D" stroke-width="0.63" stroke-miterlimit="10"/>
<path d="M86.2621 226.022C86.2621 226.022 47.9031 174.226 91.183 134.328C130.983 97.6097 209.386 126.46 196.282 181.845C193.893 191.909 187.983 200.982 179.355 207.476C167.669 216.215 148.191 225.312 126.131 212.89C90.4453 192.807 112.983 143.454 144.042 151.897C177.879 161.07 155.879 201.337 134.779 178.955" stroke="white" stroke-width="3" stroke-miterlimit="10" stroke-linecap="round"/>
<path d="M56.2504 236.559C40.0606 236.828 28.0298 231.637 17.9052 223.933C15.8534 222.367 15.1778 219.691 16.4332 217.514C25.6 201.932 37.797 190.816 53.0569 184.261C55.5544 183.199 58.5716 183.838 60.1057 185.93C67.8082 196.548 72.8454 208.068 73.5783 220.969L56.2169 236.527L56.2504 236.559Z" fill="#DC554B" stroke="#55401D" stroke-width="0.38" stroke-miterlimit="10"/>
<path d="M61.4184 230.786C56.5891 230.842 52.9725 229.316 49.9452 227.014C49.3396 226.566 49.1473 225.748 49.5307 225.095C52.25 220.429 55.9359 217.126 60.4868 215.153C61.2392 214.85 62.1549 215.02 62.6218 215.654C64.9221 218.855 66.4374 222.264 66.6544 226.094L61.4873 230.724L61.4184 230.786Z" fill="#BB473E"/>
<path d="M85.1657 231.714C101.355 231.444 113.386 236.635 123.511 244.339C125.563 245.905 126.238 248.581 124.983 250.758C115.816 266.34 103.619 277.456 88.3593 284.011C85.8617 285.073 82.8446 284.434 81.3104 282.342C73.6079 271.724 68.5707 260.204 67.8379 247.303L85.1993 231.745L85.1657 231.714Z" fill="#DC554B" stroke="#55401D" stroke-width="0.38" stroke-miterlimit="10"/>
<path d="M85.109 228.415L77.2917 220.994C75.9576 219.728 73.7655 219.696 72.3956 220.924L57.306 234.446C55.9361 235.674 55.907 237.696 57.2411 238.962L65.0584 246.383C66.3925 247.649 68.5846 247.681 69.9545 246.453L85.0441 232.931C86.4141 231.704 86.4431 229.682 85.109 228.415Z" fill="#EC6951" stroke="#55401D" stroke-width="0.38" stroke-miterlimit="10"/>
<path d="M80.5643 238.025C85.3937 237.969 89.0102 239.495 92.0375 241.797C92.6432 242.245 92.8355 243.063 92.452 243.716C89.7327 248.381 86.0469 251.684 81.496 253.658C80.7436 253.961 79.8279 253.791 79.3609 253.157C77.0606 249.956 75.5454 246.547 75.3283 242.717L80.4954 238.087L80.5643 238.025Z" fill="#BB473E"/>
<path d="M170.04 111.856C175.969 117.484 186.558 116.864 193.692 110.471C200.826 104.078 201.803 94.3335 195.874 88.7057C189.946 83.0779 179.357 83.6981 172.223 90.091C165.089 96.4839 164.112 106.229 170.04 111.856Z" fill="white"/>
<path d="M195.869 132.176C201.798 137.804 212.387 137.184 219.521 130.791C226.655 124.398 227.632 114.654 221.704 109.026C215.775 103.398 205.186 104.018 198.052 110.411C190.918 116.804 189.941 126.549 195.869 132.176Z" fill="white"/>
<path d="M230.23 107.095C225.803 102.892 219.229 101.418 212.246 102.415C211.496 102.53 210.791 101.924 210.87 101.173C211.565 95.4134 210.043 90.0925 206.019 86.2721C197.399 78.09 180.542 80.1996 168.454 91.0317C156.366 101.864 153.56 117.313 162.213 125.527C166.64 129.73 173.214 131.204 180.197 130.206C180.947 130.092 181.652 130.698 181.573 131.449C180.879 137.209 182.4 142.529 186.425 146.35C195.044 154.532 211.902 152.422 223.99 141.59C236.078 130.758 238.883 115.309 230.23 107.095ZM171.466 110.923C166.737 106.434 168.286 97.9902 174.898 92.0649C181.51 86.1396 190.706 84.9547 195.435 89.4438C200.163 93.9328 198.614 102.376 192.002 108.302C185.39 114.227 176.194 115.412 171.466 110.923ZM197.032 132.079C192.303 127.59 193.852 119.146 200.464 113.221C207.077 107.295 216.272 106.11 221.001 110.6C225.73 115.089 224.181 123.532 217.569 129.458C210.957 135.383 201.761 136.568 197.032 132.079Z" fill="#351700"/>
<path d="M211.851 122.872L209.609 117.946C209.411 117.504 209.961 117.136 210.365 117.393L212.386 118.739L214.643 120.246C214.81 120.405 215.151 120.347 215.29 120.161C217.338 117.273 217.522 113.888 215.442 111.914C212.926 109.525 207.953 110.144 204.404 113.324C200.856 116.503 200.009 121.039 202.558 123.46C204.672 125.466 208.448 125.363 211.672 123.465C211.81 123.341 211.915 123.123 211.85 122.934L211.851 122.872Z" fill="#351700"/>
<path d="M186.142 101.647L183.9 96.722C183.702 96.2801 184.252 95.9116 184.656 96.1683L186.677 97.5147L188.934 99.0213C189.102 99.1805 189.442 99.1227 189.581 98.9365C191.629 96.0489 191.814 92.6641 189.734 90.6896C187.217 88.3011 182.244 88.9197 178.695 92.0993C175.147 95.279 174.3 99.8148 176.85 102.235C178.963 104.242 182.739 104.139 185.963 102.241C186.101 102.117 186.206 101.899 186.141 101.71L186.142 101.647Z" fill="#351700"/>
<path d="M139.299 103.3C146.261 109.909 154.68 112.781 158.103 109.714C161.525 106.647 158.656 98.8025 151.693 92.1931C144.731 85.5837 136.312 82.7121 132.889 85.7792C129.467 88.8462 132.336 96.6905 139.299 103.3Z" fill="#B33241"/>
<path d="M210.991 167.22C217.954 173.83 226.372 176.701 229.795 173.634C233.217 170.567 230.348 162.723 223.385 156.113C216.423 149.504 208.004 146.633 204.581 149.7C201.159 152.767 204.029 160.611 210.991 167.22Z" fill="#B33241"/>
<path d="M157.009 131.07L164.36 132.523C164.36 132.523 164.202 145.837 179.574 146.966L179.657 153.014" stroke="#331806" stroke-width="0.63" stroke-miterlimit="10"/>
</svg>
