<svg width="207" height="267" viewBox="0 0 207 267" fill="none" xmlns="http://www.w3.org/2000/svg">
<g clip-path="url(#clip0_323_1375)">
<path d="M168.569 105.183C145.651 111.291 123.086 110.656 101.014 100.911L92.6229 7.48535C123.086 16.7361 154.042 18.7133 185.457 13.3818L168.569 105.218V105.183Z" fill="#EC6C68" stroke="#6B5324" stroke-width="0.35" stroke-miterlimit="10"/>
<path d="M182.566 28.1403C159.507 37.4263 115.505 34.531 93.9628 22.4557L93.0813 7.44971C124.214 18.6424 154.818 20.4078 184.929 13.2755L182.566 28.105V28.1403Z" fill="white" stroke="#6B5324" stroke-width="0.39" stroke-miterlimit="10"/>
<path d="M185.493 12.5696C185.775 7.87357 165.255 2.71859 139.622 1.09441C113.989 -0.52976 92.9756 1.97712 92.6583 6.6731C92.4115 10.6982 107.502 15.0764 127.952 17.2655C128.022 17.5127 128.128 17.7245 128.339 17.9364L136.731 27.0459C137.401 27.752 138.494 27.8227 139.234 27.1871L148.683 19.2075C148.895 19.0309 149.036 18.8191 149.142 18.6072C169.732 19.0309 185.246 16.63 185.493 12.5696Z" fill="#EC6C68" stroke="#6B5324" stroke-width="0.35" stroke-miterlimit="10"/>
<path d="M174.21 69.6275L161.27 62.5658L167.864 49.29C167.864 49.29 167.828 48.9722 167.652 49.0075L156.511 52.3265L152.068 38.8741C152.068 38.8741 151.821 38.6976 151.751 38.8741L144.946 53.1033H144.311L138.635 36.7203C138.564 36.5438 138.388 36.5438 138.317 36.7203L130.631 52.1853H130.455L125.73 37.8855C125.695 37.7089 125.483 37.7089 125.413 37.8855L118.925 51.4438H118.855L106.902 46.1829C106.761 46.1123 106.62 46.2888 106.656 46.43L111.521 60.4474L97.8059 65.8142C97.8059 65.8142 97.6296 66.0967 97.8059 66.1673L110.076 72.8758L103.906 88.7645C103.906 88.7645 103.976 89.0822 104.117 89.0116L115.646 84.2803L120.865 100.169C120.865 100.169 121.111 100.346 121.182 100.169L128.304 85.1983L134.263 102.287C134.263 102.287 134.51 102.464 134.58 102.287L142.372 86.6107L147.132 101.087C147.132 101.087 147.379 101.264 147.449 101.087L154.571 86.1164H154.959L164.902 91.801C165.043 91.8716 165.184 91.7303 165.149 91.5891L161.059 75.0296L174.069 69.9452C174.069 69.9452 174.245 69.6628 174.069 69.5922L174.21 69.6275Z" fill="#F5EA62" stroke="#695224" stroke-width="0.11" stroke-miterlimit="10"/>
<path d="M158.175 73.9502C158.783 64.3559 149.429 55.9527 137.283 55.181C125.137 54.4094 114.798 61.5616 114.191 71.1559C113.583 80.7501 122.936 89.1534 135.082 89.925C147.228 90.6966 157.567 83.5445 158.175 73.9502Z" fill="#F7C6C4" stroke="#675123" stroke-width="0.1" stroke-miterlimit="10"/>
<path d="M144.946 78.2926C145.126 75.4512 141.208 72.8897 136.194 72.5711C131.18 72.2526 126.97 74.2977 126.79 77.1391C126.61 79.9804 130.528 82.5419 135.542 82.8604C140.556 83.179 144.766 81.1339 144.946 78.2926Z" fill="#F19996" stroke="#675123" stroke-width="0.1" stroke-miterlimit="10"/>
<path d="M141.632 73.2991C142.527 73.2991 143.254 72.572 143.254 71.675C143.254 70.7779 142.527 70.0508 141.632 70.0508C140.736 70.0508 140.01 70.7779 140.01 71.675C140.01 72.572 140.736 73.2991 141.632 73.2991Z" fill="#515150"/>
<path d="M130.878 72.6282C131.774 72.6282 132.5 71.9011 132.5 71.0041C132.5 70.1071 131.774 69.3799 130.878 69.3799C129.982 69.3799 129.256 70.1071 129.256 71.0041C129.256 71.9011 129.982 72.6282 130.878 72.6282Z" fill="#515150"/>
<path d="M134.247 77.8599C134.288 77.2177 134.069 76.681 133.758 76.6613C133.447 76.6415 133.162 77.1461 133.121 77.7883C133.081 78.4306 133.3 78.9672 133.611 78.9869C133.922 79.0067 134.207 78.5021 134.247 77.8599Z" fill="#515150"/>
<path d="M138.576 78.1333C138.617 77.4911 138.398 76.9545 138.087 76.9347C137.776 76.915 137.491 77.4196 137.45 78.0618C137.409 78.704 137.628 79.2406 137.939 79.2604C138.25 79.2801 138.535 78.7755 138.576 78.1333Z" fill="#515150"/>
<path d="M125.836 53.88C129.538 54.8686 127.035 61.3653 123.897 63.4131C120.759 65.461 114.166 65.1432 114.412 61.2947C114.518 59.5293 116.775 58.7525 119.948 56.7046C123.121 54.6567 124.496 53.5269 125.871 53.88H125.836Z" fill="#F19996" stroke="#675123" stroke-width="0.1" stroke-miterlimit="10"/>
<path d="M148.401 55.2922C144.593 55.7865 146.25 62.5657 149.142 65.0019C152.033 67.4382 158.556 67.9325 158.838 64.1192C158.943 62.3538 156.828 61.2946 153.937 58.8583C151.046 56.4221 149.812 55.1157 148.436 55.2922H148.401Z" fill="#F19996" stroke="#675123" stroke-width="0.1" stroke-miterlimit="10"/>
<path d="M103.095 99.0391C84.161 105.183 65.2274 105.642 46.2586 98.4388L35.1171 20.4785C61.067 26.8693 87.1227 27.1518 113.214 21.2906L103.13 99.0391H103.095Z" fill="#EC6C68" stroke="#6B5324" stroke-width="0.29" stroke-miterlimit="10"/>
<path d="M111.451 33.8601C92.5172 42.6872 55.4962 42.1929 36.9152 33.0481L35.5049 20.5137C62.1247 28.5286 87.8278 28.6345 112.755 21.3258L111.451 33.8601Z" fill="white" stroke="#6B5324" stroke-width="0.32" stroke-miterlimit="10"/>
<path d="M113.214 20.6902C113.249 16.7357 95.7963 13.3461 74.2537 13.0989C52.6757 12.8871 35.1877 15.8883 35.1525 19.8428C35.1172 23.2324 47.9511 26.2336 65.2276 27.1516C65.2981 27.3281 65.4039 27.54 65.5802 27.6812L73.0196 34.9547C73.5837 35.5196 74.5357 35.5196 75.1351 34.9547L82.7156 27.8577C82.7156 27.8577 82.9977 27.5046 83.0682 27.3281C100.345 26.7632 113.249 24.0798 113.284 20.6549L113.214 20.6902Z" fill="#EC6C68" stroke="#6B5324" stroke-width="0.29" stroke-miterlimit="10"/>
<path d="M106.268 68.9918L95.091 63.6249L100.027 52.1851C100.027 52.1851 99.9566 51.9026 99.8508 51.9733L90.6485 55.2569L86.347 44.1702C86.347 44.1702 86.1355 44.0289 86.0649 44.1702L80.9878 56.4221H80.4589L74.9939 42.9697C74.9234 42.8285 74.7824 42.8285 74.7119 42.9697L68.9648 56.2809H68.8238L64.2402 44.5232C64.205 44.382 64.0287 44.382 63.9582 44.5232L59.1278 56.1749H59.0573L48.7972 52.291C48.6562 52.2557 48.5504 52.397 48.6209 52.5029L53.3102 64.0486L42.0276 69.1683C42.0276 69.1683 41.8866 69.4155 42.0276 69.4508L52.6051 74.5352L48.1625 88.1288C48.1625 88.1288 48.2331 88.3759 48.3741 88.3406L57.8233 83.8565L62.9004 96.9558C62.9004 96.9558 63.112 97.097 63.1825 96.9558L68.5064 84.0683L74.2535 98.1563C74.2535 98.1563 74.465 98.2975 74.5356 98.1563L80.3884 84.6686L85.0425 96.6027C85.0425 96.6027 85.254 96.744 85.3245 96.6027L90.6485 83.7153H90.9658L99.5335 88.0229C99.6393 88.0935 99.7803 87.9522 99.7451 87.811L95.5846 74.1115L106.268 69.2742C106.268 69.2742 106.409 69.0271 106.268 68.9918Z" fill="#F5EA62" stroke="#695224" stroke-width="0.09" stroke-miterlimit="10"/>
<path d="M93.0235 73.326C93.1093 65.2534 84.9077 58.6211 74.7047 58.5123C64.5017 58.4035 56.161 64.8595 56.0751 72.9321C55.9893 81.0047 64.1909 87.637 74.3939 87.7458C84.5969 87.8546 92.9377 81.3986 93.0235 73.326Z" fill="#F7C6C4" stroke="#675123" stroke-width="0.09" stroke-miterlimit="10"/>
<path d="M82.1284 77.5641C82.1539 75.1658 78.7493 73.185 74.524 73.1399C70.2987 73.0949 66.8527 75.0026 66.8272 77.401C66.8017 79.7994 70.2063 81.7802 74.4316 81.8252C78.6569 81.8703 82.1029 79.9625 82.1284 77.5641Z" fill="#F19996" stroke="#675123" stroke-width="0.09" stroke-miterlimit="10"/>
<path d="M79.0486 73.5111C79.7886 73.5111 80.3884 72.9104 80.3884 72.1693C80.3884 71.4283 79.7886 70.8276 79.0486 70.8276C78.3086 70.8276 77.7088 71.4283 77.7088 72.1693C77.7088 72.9104 78.3086 73.5111 79.0486 73.5111Z" fill="#515150"/>
<path d="M70.0225 73.4051C70.7625 73.4051 71.3624 72.8044 71.3624 72.0634C71.3624 71.3224 70.7625 70.7217 70.0225 70.7217C69.2826 70.7217 68.6827 71.3224 68.6827 72.0634C68.6827 72.8044 69.2826 73.4051 70.0225 73.4051Z" fill="#515150"/>
<path d="M73.1537 77.7018C73.1593 77.1753 72.9428 76.7462 72.6702 76.7433C72.3976 76.7404 72.1721 77.1648 72.1665 77.6913C72.1609 78.2177 72.3774 78.6469 72.65 78.6498C72.9226 78.6527 73.1481 78.2283 73.1537 77.7018Z" fill="#515150"/>
<path d="M76.789 77.7023C76.7946 77.1758 76.5782 76.7467 76.3056 76.7438C76.033 76.7408 75.8075 77.1653 75.8019 77.6918C75.7963 78.2182 76.0127 78.6474 76.2853 78.6503C76.5579 78.6532 76.7835 78.2288 76.789 77.7023Z" fill="#515150"/>
<path d="M65.0159 57.9403C68.1539 58.5758 66.3557 64.1545 63.8171 66.0258C61.2786 67.8971 55.743 67.8971 55.7783 64.6841C55.7783 63.2012 57.647 62.4597 60.2208 60.5884C62.7947 58.717 63.8877 57.6931 65.0512 57.9403H65.0159Z" fill="#F19996" stroke="#675123" stroke-width="0.09" stroke-miterlimit="10"/>
<path d="M84.02 58.152C80.8468 58.7522 82.5392 64.3309 85.0777 66.2728C87.6163 68.2148 93.1166 68.3207 93.1518 65.1077C93.1518 63.6247 91.3184 62.8479 88.8151 60.906C86.3118 58.964 85.2188 57.9401 84.02 58.152Z" fill="#F19996" stroke="#675123" stroke-width="0.09" stroke-miterlimit="10"/>
<path d="M3.38477 102.146V262.587H203.65V102.146H3.38477ZM171.883 163.406H35.117V129.757H171.883V163.406Z" stroke="#6F5524" stroke-width="0.61" stroke-miterlimit="10"/>
<path d="M203.368 98.792H3.59632C2.1943 98.792 1.05774 99.9302 1.05774 101.334V102.888C1.05774 104.292 2.1943 105.43 3.59632 105.43H203.368C204.77 105.43 205.907 104.292 205.907 102.888V101.334C205.907 99.9302 204.77 98.792 203.368 98.792Z" stroke="#6F5524" stroke-width="0.61" stroke-miterlimit="10"/>
<path d="M203.368 259.268H3.59632C2.1943 259.268 1.05774 260.406 1.05774 261.81V263.363C1.05774 264.767 2.1943 265.905 3.59632 265.905H203.368C204.77 265.905 205.907 264.767 205.907 263.363V261.81C205.907 260.406 204.77 259.268 203.368 259.268Z" stroke="#6F5524" stroke-width="0.61" stroke-miterlimit="10"/>
<path d="M203.368 126.438H3.59632C2.1943 126.438 1.05774 127.577 1.05774 128.981V130.534C1.05774 131.938 2.1943 133.076 3.59632 133.076H203.368C204.77 133.076 205.907 131.938 205.907 130.534V128.981C205.907 127.577 204.77 126.438 203.368 126.438Z" stroke="#6F5524" stroke-width="0.61" stroke-miterlimit="10"/>
<path d="M3.2085 102.146V262.587H203.474V102.146H3.2085ZM171.707 163.406H34.9407V129.757H171.707V163.406Z" fill="#ECCF6D"/>
<path d="M203.192 98.792H3.42005C2.01803 98.792 0.88147 99.9302 0.88147 101.334V102.888C0.88147 104.292 2.01803 105.43 3.42005 105.43H203.192C204.594 105.43 205.731 104.292 205.731 102.888V101.334C205.731 99.9302 204.594 98.792 203.192 98.792Z" fill="#CDAC4D"/>
<path d="M203.192 259.268H3.42005C2.01803 259.268 0.88147 260.406 0.88147 261.81V263.363C0.88147 264.767 2.01803 265.905 3.42005 265.905H203.192C204.594 265.905 205.731 264.767 205.731 263.363V261.81C205.731 260.406 204.594 259.268 203.192 259.268Z" fill="#D3B14C"/>
<path d="M203.192 126.438H3.42005C2.01803 126.438 0.88147 127.577 0.88147 128.981V130.534C0.88147 131.938 2.01803 133.076 3.42005 133.076H203.192C204.594 133.076 205.731 131.938 205.731 130.534V128.981C205.731 127.577 204.594 126.438 203.192 126.438Z" fill="#D3B14C"/>
<path d="M173.117 163.406H33.8477C32.5041 163.406 31.4149 164.497 31.4149 165.842V169.585C31.4149 170.93 32.5041 172.021 33.8477 172.021H173.117C174.461 172.021 175.55 170.93 175.55 169.585V165.842C175.55 164.497 174.461 163.406 173.117 163.406Z" fill="#D3B14C"/>
<path d="M178.547 260.327V101.052C178.547 99.8037 177.536 98.792 176.29 98.792H174.175C172.929 98.792 171.918 99.8037 171.918 101.052V260.327C171.918 261.575 172.929 262.586 174.175 262.586H176.29C177.536 262.586 178.547 261.575 178.547 260.327Z" fill="#D3B14C"/>
<path d="M34.7645 260.327L34.7645 101.052C34.7645 99.8037 33.7542 98.792 32.508 98.792H30.3925C29.1462 98.792 28.1359 99.8037 28.1359 101.052L28.1359 260.327C28.1359 261.575 29.1462 262.586 30.3925 262.586H32.508C33.7542 262.586 34.7645 261.575 34.7645 260.327Z" fill="#D3B14C"/>
<path d="M51.1947 192.358V238.93H158.132V192.358H51.1947ZM73.1252 221.099C73.4425 221.346 74.606 221.488 76.4747 221.488C78.0261 221.488 80.0005 221.382 81.5166 221.24C83.4911 221.029 84.5841 220.817 86.2059 220.322L86.3822 225.972C86.3822 225.972 86.1354 225.972 86.0649 225.972C85.7123 225.972 84.7604 226.007 83.6321 226.113C80.8115 226.36 77.9908 226.537 75.8753 226.537C72.2085 226.537 70.3751 226.219 69.141 225.371C68.2596 224.771 67.766 223.853 67.5544 222.476C67.4839 221.947 67.4839 221.699 67.4487 219.51V207.435C67.4487 205.775 67.4134 205.458 67.3076 204.681H72.9137C72.8079 205.422 72.7726 206.129 72.7726 207.47V211.213C75.8048 210.542 79.3306 209.236 81.975 207.823C81.5519 206.552 81.3403 206.023 80.8115 205.034L83.7026 204.328C84.4783 205.705 84.7956 206.446 85.2892 207.965L84.1257 208.353L86.4528 211.743C81.6224 214.073 77.8145 215.344 72.7726 216.297V218.91C72.7726 220.499 72.8079 220.852 73.0899 221.099H73.1252ZM85.9944 207.894C85.4303 206.164 85.0424 205.246 84.4078 204.116L87.2284 203.304C87.9688 204.504 88.4272 205.528 88.9208 206.941L85.9591 207.894H85.9944ZM114.13 218.592C112.579 218.451 112.367 218.451 108.136 218.451H96.7481C92.4819 218.451 92.2703 218.451 90.7542 218.592V212.802C92.4466 213.014 93.0813 213.049 96.7481 213.049H108.172C111.803 213.049 112.438 213.049 114.166 212.802V218.592H114.13ZM125.272 210.825C125.096 216.474 124.567 219.475 123.333 222.3C122.416 224.383 121.464 225.866 119.842 227.631C118.079 225.371 117.409 224.701 115.505 223.324C116.669 222.335 117.198 221.664 117.903 220.322C119.384 217.498 119.948 214.073 119.948 207.647C119.948 205.775 119.948 205.246 119.807 204.434L125.519 204.752C125.448 205.387 125.354 207.411 125.237 210.825H125.272ZM134.827 225.477C133.804 226.113 132.888 226.537 131.407 227.031C131.16 227.137 130.878 227.208 130.596 227.313C130.173 227.49 130.032 227.561 129.714 227.737L127.141 225.054C127.387 224.489 127.458 224.136 127.458 223.253L127.599 207.047V205.846C127.599 205.281 127.599 204.928 127.493 204.328H133.134C132.993 205.281 132.993 205.775 132.958 207.152L132.817 220.428C133.981 219.616 134.65 218.91 135.426 217.639C136.202 216.333 136.66 215.203 137.083 213.473C138.599 215.309 139.128 215.838 141.138 217.462C139.657 221.205 137.753 223.712 134.862 225.513L134.827 225.477Z" fill="#ED6F4B"/>
</g>
<defs>
<clipPath id="clip0_323_1375">
<rect width="207" height="267" fill="white"/>
</clipPath>
</defs>
</svg>
