<svg width="222" height="282" viewBox="0 0 222 282" fill="none" xmlns="http://www.w3.org/2000/svg">
<path d="M216.233 62.3425L127.792 20.231L89.6653 100.387L178.106 142.499L216.233 62.3425Z" fill="#FFFEF2" stroke="#55401D" stroke-width="0.4" stroke-miterlimit="10"/>
<path d="M132.549 9.74219L127.61 20.1086L136.832 24.497L141.77 14.1306L136.037 14.2688L132.549 9.74219Z" fill="#EA5541" stroke="#55401D" stroke-width="0.25" stroke-miterlimit="10"/>
<path d="M142.565 14.5107L137.592 24.8771L146.813 29.2656L151.751 18.8992L146.053 19.0374L142.565 14.5107Z" fill="white" stroke="#55401D" stroke-width="0.25" stroke-miterlimit="10"/>
<path d="M152.477 19.2446L147.538 29.611L156.759 33.9994L161.698 23.6331L155.999 23.7713L152.477 19.2446Z" fill="#63C2C3" stroke="#55401D" stroke-width="0.25" stroke-miterlimit="10"/>
<path d="M162.458 23.9785L157.519 34.3794L166.74 38.7679L171.679 28.3669L165.946 28.5052L162.458 23.9785Z" fill="white" stroke="#55401D" stroke-width="0.25" stroke-miterlimit="10"/>
<path d="M172.404 28.7129L167.465 39.1138L176.687 43.5023L181.625 33.1013L175.927 33.2395L172.404 28.7129Z" fill="#EA5541" stroke="#55401D" stroke-width="0.25" stroke-miterlimit="10"/>
<path d="M182.385 33.4468L177.412 43.8477L186.633 48.2361L191.572 37.8352L185.873 37.9734L182.385 33.4468Z" fill="white" stroke="#55401D" stroke-width="0.25" stroke-miterlimit="10"/>
<path d="M192.332 38.2153L187.393 48.5817L196.58 52.9701L201.553 42.6038L195.82 42.742L192.332 38.2153Z" fill="#63C2C3" stroke="#55401D" stroke-width="0.25" stroke-miterlimit="10"/>
<path d="M212.225 47.6831L207.286 58.0495L216.507 62.4379L221.446 52.0715L215.713 52.2098L212.225 47.6831Z" fill="#EA5541" stroke="#55401D" stroke-width="0.25" stroke-miterlimit="10"/>
<path d="M202.278 42.9492L197.339 53.3156L206.561 57.704L211.499 47.3377L205.766 47.4759L202.278 42.9492Z" fill="white" stroke="#55401D" stroke-width="0.25" stroke-miterlimit="10"/>
<path d="M173.406 152.971L178.344 142.605L169.123 138.216L164.185 148.583L169.883 148.444L173.406 152.971Z" fill="#EA5541" stroke="#55401D" stroke-width="0.25" stroke-miterlimit="10"/>
<path d="M163.39 148.203L168.329 137.836L159.108 133.448L154.169 143.814L159.867 143.676L163.39 148.203Z" fill="white" stroke="#55401D" stroke-width="0.25" stroke-miterlimit="10"/>
<path d="M153.444 143.469L158.382 133.102L149.161 128.714L144.223 139.08L149.956 138.942L153.444 143.469Z" fill="#63C2C3" stroke="#55401D" stroke-width="0.25" stroke-miterlimit="10"/>
<path d="M143.463 138.735L148.401 128.368L139.18 123.98L134.241 134.346L139.974 134.208L143.463 138.735Z" fill="white" stroke="#55401D" stroke-width="0.25" stroke-miterlimit="10"/>
<path d="M133.516 134.001L138.455 123.6L129.234 119.211L124.295 129.612L130.028 129.474L133.516 134.001Z" fill="#EA5541" stroke="#55401D" stroke-width="0.25" stroke-miterlimit="10"/>
<path d="M123.57 129.267L128.508 118.866L119.287 114.478L114.349 124.878L120.082 124.74L123.57 129.267Z" fill="white" stroke="#55401D" stroke-width="0.25" stroke-miterlimit="10"/>
<path d="M113.623 124.533L118.562 114.132L109.341 109.743L104.402 120.144L110.1 120.006L113.623 124.533Z" fill="#63C2C3" stroke="#55401D" stroke-width="0.25" stroke-miterlimit="10"/>
<path d="M93.7303 115.03L98.669 104.664L89.4477 100.275L84.509 110.642L90.2075 110.504L93.7303 115.03Z" fill="#EA5541" stroke="#55401D" stroke-width="0.25" stroke-miterlimit="10"/>
<path d="M103.642 119.764L108.581 109.398L99.3943 105.009L94.4556 115.376L100.154 115.237L103.642 119.764Z" fill="white" stroke="#55401D" stroke-width="0.25" stroke-miterlimit="10"/>
<path d="M157.357 90.0121C162.015 77.8597 155.944 64.2305 143.798 59.5705C131.652 54.9105 118.03 60.9843 113.373 73.1367L111.988 76.7503C107.33 88.9027 113.401 102.532 125.547 107.192C137.693 111.852 151.315 105.778 155.972 93.6257L157.357 90.0121Z" fill="#F7D56B" stroke="#55401D" stroke-width="0.21" stroke-miterlimit="10"/>
<path d="M180.212 109.25C184.869 97.098 178.799 83.4688 166.652 78.8088C154.506 74.1488 140.884 80.2226 136.227 92.375L134.842 95.9886C130.184 108.141 136.255 121.77 148.401 126.43C160.547 131.09 174.169 125.016 178.827 112.864L180.212 109.25Z" fill="#F7D56B" stroke="#55401D" stroke-width="0.21" stroke-miterlimit="10"/>
<path d="M123.655 15.1174L3.8866 29.8521L17.231 138.434L136.999 123.699L123.655 15.1174Z" fill="#8BC778" stroke="#55401D" stroke-width="0.5" stroke-miterlimit="10"/>
<path d="M1.89795 15.8241L3.62477 29.8878L16.0924 28.3674L14.3656 14.3037L8.52894 18.2084L1.89795 15.8241Z" fill="#6DBD71" stroke="#55401D" stroke-width="0.31" stroke-miterlimit="10"/>
<path d="M15.4363 14.1653L17.1976 28.229L29.6653 26.6741L27.9385 12.6104L22.0673 16.5496L15.4363 14.1653Z" fill="white" stroke="#55401D" stroke-width="0.31" stroke-miterlimit="10"/>
<path d="M28.9054 12.5066L30.6322 26.5703L43.1344 25.0154L41.4076 10.9517L35.5364 14.8909L28.9054 12.5066Z" fill="#6DBD71" stroke="#55401D" stroke-width="0.31" stroke-miterlimit="10"/>
<path d="M42.4092 10.8479L44.136 24.9116L56.6382 23.3567L54.9114 9.29297L49.0402 13.2322L42.4092 10.8479Z" fill="white" stroke="#55401D" stroke-width="0.31" stroke-miterlimit="10"/>
<path d="M55.9128 9.18923L57.6397 23.253L70.1073 21.698L68.3805 7.63428L62.5438 11.5735L55.9128 9.18923Z" fill="#6DBD71" stroke="#55401D" stroke-width="0.31" stroke-miterlimit="10"/>
<path d="M69.3821 7.49648L71.1089 21.5947L83.5765 20.0398L81.8497 5.97607L76.0131 9.9153L69.3821 7.49648Z" fill="white" stroke="#55401D" stroke-width="0.31" stroke-miterlimit="10"/>
<path d="M82.8513 5.83778L84.5781 19.9361L97.0803 18.3811L95.3535 4.31738L89.4823 8.25661L82.8513 5.83778Z" fill="#6DBD71" stroke="#55401D" stroke-width="0.31" stroke-miterlimit="10"/>
<path d="M109.79 2.55496L111.516 16.6187L124.019 15.0637L122.292 1L116.421 4.93922L109.79 2.55496Z" fill="#6DBD71" stroke="#55401D" stroke-width="0.31" stroke-miterlimit="10"/>
<path d="M96.355 4.17909L98.0818 18.2774L110.549 16.7224L108.823 2.65869L102.986 6.59791L96.355 4.17909Z" fill="white" stroke="#55401D" stroke-width="0.31" stroke-miterlimit="10"/>
<path d="M139.18 137.698L137.453 123.634L124.951 125.155L126.678 139.218L132.549 135.314L139.18 137.698Z" fill="#6DBD71" stroke="#55401D" stroke-width="0.31" stroke-miterlimit="10"/>
<path d="M125.607 139.357L123.881 125.293L111.413 126.813L113.14 140.912L118.976 136.972L125.607 139.357Z" fill="white" stroke="#55401D" stroke-width="0.31" stroke-miterlimit="10"/>
<path d="M112.138 141.015L110.411 126.952L97.9437 128.472L99.6705 142.536L105.507 138.631L112.138 141.015Z" fill="#6DBD71" stroke="#55401D" stroke-width="0.31" stroke-miterlimit="10"/>
<path d="M98.6344 142.674L96.9076 128.61L84.4399 130.165L86.1668 144.229L92.0034 140.29L98.6344 142.674Z" fill="white" stroke="#55401D" stroke-width="0.31" stroke-miterlimit="10"/>
<path d="M85.1653 144.332L83.4385 130.269L70.9708 131.824L72.6976 145.887L78.5343 141.948L85.1653 144.332Z" fill="#6DBD71" stroke="#55401D" stroke-width="0.31" stroke-miterlimit="10"/>
<path d="M71.696 145.991L69.9692 131.927L57.467 133.482L59.1939 147.546L65.065 143.607L71.696 145.991Z" fill="white" stroke="#55401D" stroke-width="0.31" stroke-miterlimit="10"/>
<path d="M58.1923 147.65L56.4654 133.586L43.9978 135.141L45.7246 149.205L51.5613 145.265L58.1923 147.65Z" fill="#6DBD71" stroke="#55401D" stroke-width="0.31" stroke-miterlimit="10"/>
<path d="M31.2539 150.967L29.5271 136.903L17.0594 138.458L18.7863 152.522L24.6229 148.583L31.2539 150.967Z" fill="#6DBD71" stroke="#55401D" stroke-width="0.31" stroke-miterlimit="10"/>
<path d="M44.7231 149.308L42.9963 135.245L30.5287 136.8L32.2555 150.863L38.0922 146.924L44.7231 149.308Z" fill="white" stroke="#55401D" stroke-width="0.31" stroke-miterlimit="10"/>
<path d="M9.35779 66.1008C9.35779 66.1008 23.8631 52.2444 56.2928 55.2853C88.7225 58.3261 103.849 81.1321 129.13 65.9626L133.274 99.6879C133.274 99.6879 99.1524 115.203 69.6929 93.1571C40.1988 71.1113 13.0186 95.8523 13.0186 95.8523L9.35779 66.1008Z" fill="#F9F9DD"/>
<path d="M133.309 99.8605C133.309 99.8605 98.9797 115.41 69.382 93.3988C39.7498 71.3876 12.397 96.1286 12.397 96.1286" stroke="#EC6A55" stroke-width="0.94" stroke-miterlimit="10"/>
<path d="M9.39233 66.4119C9.39233 66.4119 23.8976 52.5555 56.3273 55.5963C88.7225 58.6371 103.884 81.4431 129.165 66.2737" stroke="#EC6A55" stroke-width="0.94" stroke-miterlimit="10"/>
<path d="M3.45215 120.731V277.747H199.619V120.731H3.45215ZM168.502 180.684H34.5349V147.753H168.502V180.684Z" stroke="#6F5524" stroke-width="0.61" stroke-miterlimit="10"/>
<path d="M199.343 117.449H3.65935C2.28603 117.449 1.17273 118.563 1.17273 119.937V121.457C1.17273 122.831 2.28603 123.945 3.65935 123.945H199.343C200.716 123.945 201.829 122.831 201.829 121.457V119.937C201.829 118.563 200.716 117.449 199.343 117.449Z" stroke="#6F5524" stroke-width="0.61" stroke-miterlimit="10"/>
<path d="M199.343 274.5H3.65935C2.28603 274.5 1.17273 275.613 1.17273 276.987V278.508C1.17273 279.882 2.28603 280.996 3.65935 280.996H199.343C200.716 280.996 201.829 279.882 201.829 278.508V276.987C201.829 275.613 200.716 274.5 199.343 274.5Z" stroke="#6F5524" stroke-width="0.61" stroke-miterlimit="10"/>
<path d="M199.343 144.505H3.65935C2.28603 144.505 1.17273 145.619 1.17273 146.993V148.513C1.17273 149.887 2.28603 151.001 3.65935 151.001H199.343C200.716 151.001 201.829 149.887 201.829 148.513V146.993C201.829 145.619 200.716 144.505 199.343 144.505Z" stroke="#6F5524" stroke-width="0.61" stroke-miterlimit="10"/>
<path d="M3.27942 120.731V277.747H199.446V120.731H3.27942ZM168.329 180.684H34.3622V147.753H168.329V180.684Z" fill="#ECCF6D"/>
<path d="M199.17 117.449H3.48662C2.1133 117.449 1 118.563 1 119.937V121.457C1 122.831 2.1133 123.945 3.48662 123.945H199.17C200.543 123.945 201.656 122.831 201.656 121.457V119.937C201.656 118.563 200.543 117.449 199.17 117.449Z" fill="#CDAC4D"/>
<path d="M199.17 274.5H3.48662C2.1133 274.5 1 275.613 1 276.987V278.508C1 279.882 2.1133 280.996 3.48662 280.996H199.17C200.543 280.996 201.656 279.882 201.656 278.508V276.987C201.656 275.613 200.543 274.5 199.17 274.5Z" fill="#D3B14C"/>
<path d="M199.17 144.505H3.48662C2.1133 144.505 1 145.619 1 146.993V148.513C1 149.887 2.1133 151.001 3.48662 151.001H199.17C200.543 151.001 201.656 149.887 201.656 148.513V146.993C201.656 145.619 200.543 144.505 199.17 144.505Z" fill="#D3B14C"/>
<path d="M169.71 180.684H33.2916C31.9755 180.684 30.9086 181.751 30.9086 183.068V186.731C30.9086 188.047 31.9755 189.115 33.2916 189.115H169.71C171.026 189.115 172.093 188.047 172.093 186.731V183.068C172.093 181.751 171.026 180.684 169.71 180.684Z" fill="#D3B14C"/>
<path d="M175.029 275.536V119.66C175.029 118.439 174.039 117.449 172.819 117.449H170.746C169.526 117.449 168.536 118.439 168.536 119.66V275.536C168.536 276.757 169.526 277.747 170.746 277.747H172.819C174.039 277.747 175.029 276.757 175.029 275.536Z" fill="#D3B14C"/>
<path d="M34.1895 275.536L34.1895 119.66C34.1895 118.439 33.1999 117.449 31.9791 117.449H29.9069C28.6862 117.449 27.6966 118.439 27.6966 119.66L27.6966 275.536C27.6966 276.757 28.6862 277.747 29.9069 277.747H31.9791C33.1999 277.747 34.1895 276.757 34.1895 275.536Z" fill="#D3B14C"/>
<path d="M50.2834 209.019V254.596H155.032V209.019H50.2834ZM71.7651 237.146C72.0759 237.388 73.2156 237.526 75.046 237.526C76.5657 237.526 78.4997 237.422 79.9848 237.284C81.9188 237.077 82.9894 236.87 84.5781 236.386L84.7508 241.915C84.7508 241.915 84.509 241.915 84.4399 241.915C84.0946 241.915 83.1621 241.949 82.0569 242.053C79.294 242.295 76.5311 242.467 74.4589 242.467C70.8671 242.467 69.0713 242.156 67.8625 241.327C66.9991 240.74 66.5156 239.841 66.3083 238.494C66.2393 237.975 66.2393 237.733 66.2047 235.591V223.773C66.2047 222.149 66.1702 221.838 66.0666 221.078H71.5579C71.4543 221.804 71.4197 222.495 71.4197 223.808V227.471C74.3899 226.814 77.8435 225.536 80.4337 224.153C80.0193 222.909 79.8121 222.391 79.294 221.424L82.126 220.733C82.8858 222.08 83.1966 222.806 83.6801 224.292L82.5405 224.672L84.8199 227.989C80.0884 230.27 76.3584 231.514 71.4197 232.447V235.004C71.4197 236.559 71.4543 236.904 71.7306 237.146H71.7651ZM84.3709 224.223C83.8183 222.529 83.4384 221.631 82.8167 220.525L85.5797 219.73C86.3049 220.905 86.7539 221.907 87.2374 223.29L84.3363 224.223H84.3709ZM111.931 234.693C110.411 234.554 110.204 234.554 106.06 234.554H94.9045C90.7256 234.554 90.5184 234.554 89.0333 234.693V229.026C90.691 229.233 91.3127 229.268 94.9045 229.268H106.094C109.652 229.268 110.273 229.268 111.965 229.026V234.693H111.931ZM122.844 227.091C122.672 232.619 122.154 235.556 120.945 238.321C120.047 240.36 119.115 241.811 117.526 243.539C115.799 241.327 115.143 240.671 113.278 239.323C114.418 238.355 114.936 237.699 115.626 236.386C117.077 233.621 117.629 230.27 117.629 223.981C117.629 222.149 117.629 221.631 117.491 220.836L123.086 221.147C123.017 221.769 122.925 223.75 122.81 227.091H122.844ZM132.204 241.431C131.202 242.053 130.304 242.467 128.854 242.951C128.612 243.055 128.336 243.124 128.059 243.228C127.645 243.4 127.507 243.469 127.196 243.642L124.675 241.016C124.917 240.463 124.986 240.118 124.986 239.254L125.124 223.393V222.218C125.124 221.666 125.124 221.32 125.02 220.733H130.546C130.408 221.666 130.408 222.149 130.373 223.497L130.235 236.489C131.375 235.695 132.031 235.004 132.791 233.76C133.551 232.481 134 231.375 134.414 229.682C135.899 231.479 136.417 231.997 138.386 233.587C136.935 237.25 135.07 239.703 132.238 241.465L132.204 241.431Z" fill="#ED6F4B"/>
</svg>
