<svg width="208" height="296" viewBox="0 0 208 296" fill="none" xmlns="http://www.w3.org/2000/svg">
<g clip-path="url(#clip0_323_1260)">
<path d="M95.5149 66.436H30.0787V131.95H95.5149V66.436Z" fill="white" stroke="#6D5424" stroke-width="0.34" stroke-miterlimit="10"/>
<path d="M44.8169 100.877C44.8169 100.877 35.7826 98.3945 32.5587 95.2021" stroke="#61A866" stroke-width="0.18" stroke-miterlimit="10" stroke-linecap="round"/>
<path d="M43.3997 110.951C43.3997 110.951 44.8169 121.344 54.9848 123.579C65.1527 125.813 76.9858 121.096 78.8635 118.755C80.7412 116.414 77.7652 101.552 70.8567 95.5926C63.9482 89.6336 56.4374 89.3498 51.1585 93.2161C45.8797 97.0824 43.3997 110.916 43.3997 110.916V110.951Z" fill="#ED7768" stroke="#6D5424" stroke-width="0.18" stroke-miterlimit="10"/>
<path d="M43.5414 102.474C43.5414 102.474 41.4511 101.871 40.778 100.487C40.778 100.487 40.6009 99.9553 41.4866 99.6361C42.1243 99.4233 43.8603 100.31 44.6043 99.6361C45.3483 98.9622 46.482 93.3578 47.9345 92.8967C47.9345 92.8967 48.6431 93.3933 49.5288 95.2732C49.5288 95.2732 51.2648 92.2228 52.1151 91.4779C52.9654 90.733 54.4179 89.9172 54.7014 89.8463C54.9848 89.7753 56.6145 96.2664 54.2408 98.0754C51.8671 99.8844 50.0957 100.771 50.2728 101.019C50.45 101.268 53.0362 105.56 52.1151 106.127C51.194 106.695 47.3677 105.843 47.0134 105.843C46.5883 105.843 46.73 110.064 46.3048 110.774C45.8797 111.483 43.754 113.221 43.4351 113.399C43.1163 113.576 41.8409 110.561 42.762 109.178C43.6831 107.794 43.6477 107.475 43.3643 107.475C43.0809 107.475 42.1951 108.397 41.8054 108.752C41.5929 108.929 38.7586 105.95 43.5414 102.403V102.474Z" fill="#64AF68" stroke="#6D5424" stroke-width="0.18" stroke-miterlimit="10"/>
<path d="M59.6569 118.151C59.7081 117.743 59.1202 117.332 58.3437 117.235C57.5671 117.137 56.896 117.388 56.8448 117.797C56.7935 118.205 57.3814 118.615 58.1579 118.713C58.9345 118.811 59.6056 118.559 59.6569 118.151Z" fill="white"/>
<path d="M64.5741 120.667C64.6254 120.259 64.0375 119.849 63.2609 119.751C62.4844 119.653 61.8133 119.905 61.762 120.313C61.7107 120.721 62.2986 121.132 63.0752 121.229C63.8517 121.327 64.5228 121.076 64.5741 120.667Z" fill="white"/>
<path d="M67.3232 116.194C67.3745 115.786 66.7865 115.375 66.01 115.278C65.2334 115.18 64.5624 115.431 64.5111 115.84C64.4598 116.248 65.0477 116.658 65.8243 116.756C66.6008 116.854 67.2719 116.602 67.3232 116.194Z" fill="white"/>
<path d="M71.8372 118.18C71.8885 117.771 71.3006 117.361 70.524 117.263C69.7475 117.166 69.0764 117.417 69.0251 117.825C68.9738 118.234 69.5618 118.644 70.3383 118.742C71.1149 118.839 71.7859 118.588 71.8372 118.18Z" fill="white"/>
<path d="M74.7501 114.843C74.8014 114.434 74.2135 114.024 73.4369 113.927C72.6604 113.829 71.9893 114.08 71.938 114.488C71.8867 114.897 72.4747 115.307 73.2512 115.405C74.0278 115.502 74.6988 115.251 74.7501 114.843Z" fill="white"/>
<path d="M70.8922 107.44C70.8922 107.44 68.731 113.931 74.0098 118.187C79.2887 122.444 87.5789 123.118 89.3503 122.302C91.1218 121.486 93.6726 111.944 91.3698 106.447C89.0669 100.949 84.7446 98.6076 80.5641 99.3525C76.3835 100.097 70.8922 107.44 70.8922 107.44Z" fill="#ED7768" stroke="#6D5424" stroke-width="0.12" stroke-miterlimit="10"/>
<path d="M73.443 102.509C73.443 102.509 72.3802 101.551 72.3802 100.558C72.3802 100.558 72.451 100.204 73.0179 100.275C73.443 100.345 74.2224 101.374 74.8247 101.161C75.427 100.948 77.7298 98.0399 78.7218 98.1818C78.7218 98.1818 79.0053 98.6784 78.9698 100.026C78.9698 100.026 80.883 98.7493 81.5915 98.572C82.3001 98.3946 83.363 98.3237 83.5755 98.3591C83.7881 98.3946 82.8315 102.687 80.9184 103.041C79.0053 103.396 77.7299 103.431 77.7653 103.609C77.8007 103.786 78.0487 107.085 77.3756 107.12C76.7024 107.156 74.683 105.595 74.4704 105.489C74.2224 105.382 73.0887 107.865 72.6282 108.149C72.1676 108.433 70.4316 108.858 70.1836 108.858C69.9356 108.858 70.0773 106.73 70.9985 106.198C71.9196 105.666 72.0259 105.453 71.8487 105.382C71.6716 105.311 70.8922 105.595 70.5733 105.666C70.3962 105.701 69.6167 103.148 73.4076 102.474L73.443 102.509Z" fill="#64AF68" stroke="#6D5424" stroke-width="0.12" stroke-miterlimit="10"/>
<path d="M78.3149 116.325C78.4663 116.096 78.2453 115.683 77.8214 115.401C77.3974 115.12 76.9309 115.077 76.7796 115.305C76.6282 115.534 76.8491 115.947 77.2731 116.229C77.6971 116.51 78.1635 116.553 78.3149 116.325Z" fill="white"/>
<path d="M80.4524 119.264C80.6038 119.036 80.3828 118.622 79.9589 118.341C79.5349 118.059 79.0685 118.016 78.9171 118.245C78.7657 118.473 78.9866 118.887 79.4106 119.168C79.8346 119.45 80.301 119.493 80.4524 119.264Z" fill="white"/>
<path d="M83.3568 117.417C83.5082 117.188 83.2873 116.775 82.8633 116.493C82.4393 116.212 81.9729 116.169 81.8215 116.398C81.6701 116.626 81.8911 117.04 82.315 117.321C82.739 117.603 83.2055 117.646 83.3568 117.417Z" fill="white"/>
<path d="M85.4256 119.912C85.577 119.684 85.356 119.27 84.9321 118.989C84.5081 118.707 84.0417 118.664 83.8903 118.893C83.7389 119.121 83.9598 119.535 84.3838 119.816C84.8078 120.098 85.2742 120.141 85.4256 119.912Z" fill="white"/>
<path d="M88.0887 118.796C88.24 118.567 88.0191 118.154 87.5951 117.872C87.1711 117.591 86.7047 117.548 86.5533 117.777C86.4019 118.005 86.6229 118.419 87.0468 118.7C87.4708 118.982 87.9373 119.025 88.0887 118.796Z" fill="white"/>
<path d="M38.4752 72.0049C38.4044 72.4305 38.3689 72.9981 38.3689 73.7784C38.3689 74.807 38.4752 76.1904 38.5815 76.8998C38.7941 78.1058 39.1484 78.8507 39.5381 78.8507C39.7152 78.8507 39.8569 78.6733 39.9986 78.3541C40.2821 77.7156 40.4946 77.0417 40.6009 76.2613C40.9906 76.7224 41.2032 76.8998 41.7701 77.3254C41.1678 79.5955 40.4946 80.5532 39.5026 80.5532C38.7232 80.5532 38.0855 79.9857 37.6249 78.8507C37.1644 77.6801 36.9518 76.013 36.8809 72.7852C36.8809 72.3596 36.8809 72.2886 36.8455 72.0404H38.4398L38.4752 72.0049ZM44.0021 72.5369C45.4546 74.3105 46.2695 76.2259 46.6238 78.7797L45.1712 79.3118C45.1003 78.2122 44.8169 77.0062 44.4272 75.9421C44.0375 74.878 43.4706 73.9558 42.7621 73.069L43.9666 72.5015L44.0021 72.5369Z" fill="#CB554E"/>
<path d="M48.466 72.6435C48.9975 72.7854 49.7769 72.8563 50.9814 72.8563C51.194 71.9341 51.3003 71.4375 51.3003 70.9409L52.8591 71.0828C52.8119 71.2247 52.7529 71.4493 52.682 71.7567C52.6112 72.0641 52.5167 72.4307 52.3986 72.8563C53.2843 72.8563 54.5951 72.7499 55.3746 72.6435C56.2248 72.5371 56.4728 72.5016 56.8626 72.3597L56.9334 73.7785C56.65 73.7785 56.5791 73.7785 56.2603 73.8495C54.5597 74.0268 53.5677 74.1332 52.1152 74.1332C51.8672 74.9491 51.442 76.0841 51.194 76.5098C51.9734 76.0486 52.9654 75.7649 54.1346 75.7649C56.1894 75.7649 57.394 76.6516 57.394 78.1414C57.394 79.8794 55.7288 80.979 53.178 80.979C52.1506 80.979 51.1232 80.8371 50.202 80.5888C50.202 79.9149 50.202 79.7021 50.0957 79.0991C51.1586 79.4893 52.1152 79.6666 53.1071 79.6666C54.8077 79.6666 55.8706 79.0636 55.8706 78.1414C55.8706 77.432 55.162 77.0418 53.922 77.0418C53.0717 77.0418 52.1506 77.2546 51.4066 77.6093C50.9814 77.8222 50.7689 77.9995 50.5563 78.2833L49.1392 77.7867C49.3163 77.5029 49.4935 77.1482 49.6706 76.7581C50.0603 75.8713 50.4854 74.7362 50.6626 74.1687C50.0603 74.1687 49.5289 74.1687 48.8912 74.0978C48.714 74.0978 48.6077 74.0978 48.5369 74.0978H48.4306V72.7499L48.466 72.6435Z" fill="#CB554E"/>
<path d="M63.0271 76.5805C62.2831 77.1835 61.9642 77.6801 61.9642 78.1767C61.9642 78.9215 62.8145 79.2408 64.7631 79.2408C66.1448 79.2408 67.6682 79.0279 68.4122 78.7442L68.5539 80.3403C68.3413 80.3403 68.3059 80.3403 68.0579 80.3758C66.6762 80.5886 65.9322 80.6596 64.9048 80.6596C63.6294 80.6596 62.6019 80.5177 61.9996 80.2694C61.0077 79.8792 60.5117 79.2408 60.5117 78.3185C60.5117 77.3963 60.9722 76.6514 61.9996 75.7647L63.0271 76.545V76.5805ZM61.2911 71.792C62.1768 72.0048 63.2042 72.0758 64.7631 72.0758C66.2511 72.0758 67.0659 72.0048 67.8453 71.8629V73.1753C67.2076 73.4946 65.7551 74.3813 64.7985 75.0907L63.7711 74.2749C64.5151 73.8138 64.6213 73.7429 64.9048 73.5655C65.0111 73.4946 65.0465 73.4591 65.2236 73.3882C65.3299 73.3527 65.3299 73.3527 65.4716 73.2463C64.9756 73.3172 64.4442 73.3527 63.7356 73.3527C63.1334 73.3527 62.1768 73.2817 61.6099 73.2108C61.4682 73.2108 61.3974 73.2108 61.3265 73.2108C61.3265 73.2108 61.2557 73.2108 61.1494 73.2108L61.2557 71.8275L61.2911 71.792ZM67.4202 74.3813C67.9162 74.9134 68.235 75.3745 68.6248 76.0839L67.8099 76.5095C67.4202 75.8001 67.1013 75.339 66.6053 74.7715L67.4202 74.3459V74.3813ZM69.227 75.8001C68.8728 75.1617 68.483 74.6296 68.0579 74.0976L68.8373 73.6719C69.3688 74.204 69.6876 74.6651 70.0419 75.3036L69.227 75.7647V75.8001Z" fill="#CB554E"/>
<path d="M80.5995 82.5748C80.4932 82.7522 80.4932 82.965 80.4578 83.3552C80.4578 84.6676 80.2807 86.4766 80.1744 87.2569C79.8555 89.2787 79.4658 89.7398 78.0841 89.7398C77.659 89.7398 77.2338 89.7398 76.6315 89.598C76.6315 88.8886 76.5607 88.6048 76.3481 88.1082C77.0212 88.321 77.4818 88.392 77.8715 88.392C78.3675 88.392 78.5447 88.1437 78.7218 87.115C78.8635 86.2992 78.9698 84.7031 78.9698 83.3907H76.2773C75.9938 86.3347 74.7538 88.321 72.203 89.9527C71.8133 89.3497 71.6361 89.1368 71.1401 88.7467C73.3721 87.6116 74.5767 85.8381 74.8247 83.4261H72.9116C72.1676 83.4261 72.0258 83.4261 71.6716 83.4971V82.0782C72.0258 82.1492 72.2384 82.1492 72.947 82.1492H74.9664C74.9664 81.7235 75.0373 81.0141 75.0373 80.6949V80.4111C75.0373 80.4111 75.0373 80.1629 75.0018 79.95H76.5607C76.5607 80.1629 76.5607 80.1628 76.5253 80.3757C76.5253 80.4466 76.5253 80.5175 76.5253 80.5885V80.8013L76.4898 81.4398C76.4898 81.759 76.4898 81.759 76.4544 82.1847H79.0407C79.4304 82.1847 79.5367 82.1847 79.6784 82.1847V82.0782L79.5721 81.9718C79.3241 81.4043 79.0407 80.9077 78.651 80.3757L79.5012 80.0564C79.9618 80.6594 80.2098 81.1205 80.5287 81.9009L79.9264 82.1492L80.5641 82.7167L80.5995 82.5748ZM81.1309 81.5462C80.8475 80.8723 80.5287 80.2693 80.1389 79.7372L80.9538 79.418C81.4144 80.021 81.6978 80.4821 81.9812 81.1915L81.1309 81.5462Z" fill="#CB554E" stroke="#6B5324" stroke-width="0.09" stroke-miterlimit="10"/>
<path d="M88.2875 80.2693C88.1458 80.5176 88.1458 80.5531 88.004 81.1206C87.1183 84.0291 86.4452 85.98 85.7012 87.7535C87.5435 87.6117 89.5275 87.3634 90.5195 87.1505C90.3777 86.8668 90.236 86.6185 89.988 86.0864C89.492 85.1287 89.2795 84.774 88.8898 84.242L90.2006 83.7454C91.2989 85.3416 92.2909 87.2924 92.9994 89.1369L91.5823 89.8818C91.4878 89.5743 91.2989 89.0896 91.0155 88.4275C91.0155 88.4275 90.8737 88.4275 90.5903 88.5339C89.4212 88.7822 87.4726 89.0305 84.0006 89.3497C83.3629 89.4206 83.1858 89.4206 82.9378 89.4916L82.7252 87.9309H83.0441C83.2921 87.9309 83.5401 87.9309 84.0361 87.9309C84.6383 86.4766 85.1344 85.1642 85.7366 83.2488C86.2681 81.5462 86.5161 80.7304 86.5869 80.021L88.2875 80.3402V80.2693Z" fill="#CB554E" stroke="#6B5324" stroke-width="0.09" stroke-miterlimit="10"/>
<path d="M135.655 0.603027H70.219V66.1167H135.655V0.603027Z" fill="white" stroke="#6D5424" stroke-width="0.34" stroke-miterlimit="10"/>
<path d="M108.694 27.3475C108.694 27.3475 120.208 20.679 124.743 29.7949C124.743 29.7949 124.991 30.5753 124.885 31.2137C124.779 31.8522 124.495 31.6748 124.495 31.6748C124.495 31.6748 124.743 30.4689 124.531 30.4334C124.318 30.3979 112.308 33.2001 108.659 27.3475H108.694Z" fill="#5E8041" stroke="#5C4620" stroke-width="0.11" stroke-miterlimit="10"/>
<path d="M122.795 33.3421C122.795 33.3421 124.141 31.072 126.94 30.469C129.739 29.866 129.739 31.1429 129.632 31.5686C129.526 31.9942 128.747 33.0938 128.357 31.7459C128.357 31.7459 125.877 30.5754 123.574 33.6613C121.271 36.7472 122.795 33.3776 122.795 33.3776V33.3421Z" fill="#5E8041" stroke="#5C4620" stroke-width="0.11" stroke-miterlimit="10"/>
<path d="M113.902 63.0659C122.57 63.0659 129.597 56.0308 129.597 47.3525C129.597 38.6743 122.57 31.6392 113.902 31.6392C105.234 31.6392 98.2074 38.6743 98.2074 47.3525C98.2074 56.0308 105.234 63.0659 113.902 63.0659Z" fill="#F3AA54" stroke="#5B451F" stroke-width="0.17" stroke-miterlimit="10"/>
<path d="M125.735 37.9526C126.019 39.1232 126.196 40.3646 126.196 41.6416C126.196 50.119 119.429 57.0357 111.103 57.0357C106.143 57.0357 101.786 54.5882 99.0223 50.8638C100.652 57.5677 106.569 62.5691 113.654 62.5691C121.98 62.5691 128.747 55.6878 128.747 47.1749C128.747 43.6988 127.613 40.542 125.735 37.9526Z" fill="#F1A152"/>
<path d="M108.44 39.3707C109.637 38.5548 110.17 37.2502 109.63 36.4568C109.09 35.6633 107.683 35.6815 106.486 36.4974C105.289 37.3132 104.756 38.6178 105.296 39.4113C105.836 40.2047 107.243 40.1865 108.44 39.3707Z" fill="#FFFEF0"/>
<path d="M106.901 43.3779C107.531 42.9479 107.811 42.258 107.524 41.837C107.238 41.416 106.494 41.4233 105.864 41.8533C105.233 42.2833 104.954 42.9731 105.24 43.3941C105.526 43.8152 106.27 43.8079 106.901 43.3779Z" fill="#FFFEF0"/>
<path d="M90.1652 50.7228C98.931 50.7228 106.037 43.6083 106.037 34.8321C106.037 26.0559 98.931 18.9414 90.1652 18.9414C81.3994 18.9414 74.2933 26.0559 74.2933 34.8321C74.2933 43.6083 81.3994 50.7228 90.1652 50.7228Z" fill="#F3AA54" stroke="#5B451F" stroke-width="0.17" stroke-miterlimit="10"/>
<path d="M90.1652 49.0203C97.9918 49.0203 104.337 42.6681 104.337 34.8322C104.337 26.9963 97.9918 20.644 90.1652 20.644C82.3386 20.644 75.9938 26.9963 75.9938 34.8322C75.9938 42.6681 82.3386 49.0203 90.1652 49.0203Z" fill="#FAF2E5"/>
<path d="M90.1652 33.4486C90.1652 33.4486 91.3698 23.8716 90.7321 22.5237C90.0944 21.1759 83.0087 23.1977 83.1858 24.9357C83.363 26.6738 89.8464 33.5195 89.8464 33.5195C89.9172 33.6259 90.1298 33.555 90.1652 33.4131V33.4486Z" fill="#F5B764"/>
<path d="M91.476 33.5905C91.476 33.5905 98.9868 27.5605 99.4474 26.1417C99.908 24.7229 93.4246 21.2468 92.3617 22.6302C91.2989 24.0135 91.1572 33.4486 91.1572 33.4486C91.1572 33.5905 91.3343 33.6969 91.4406 33.5905H91.476Z" fill="#F5B764"/>
<path d="M91.6532 34.8676C91.6532 34.8676 101.219 36.109 102.565 35.4706C103.911 34.8321 101.927 27.738 100.191 27.9154C98.4554 28.0927 91.5823 34.5838 91.5823 34.5838C91.476 34.6547 91.5469 34.8676 91.6886 34.903L91.6532 34.8676Z" fill="#F5B764"/>
<path d="M91.6532 35.9317C91.6532 35.9317 97.5697 43.5224 98.9868 44.0189C100.404 44.5155 103.947 38.0599 102.601 36.9604C101.254 35.8608 91.7949 35.6479 91.7949 35.6479C91.6532 35.6479 91.5469 35.8253 91.6532 35.9317Z" fill="#F5B764"/>
<path d="M90.4486 36.2154C90.4486 36.2154 89.3857 45.7924 90.0589 47.1403C90.732 48.4882 97.7823 46.3599 97.5697 44.6219C97.3571 42.8839 90.7675 36.109 90.7675 36.109C90.6966 36.0026 90.484 36.109 90.4486 36.2154Z" fill="#F5B764"/>
<path d="M89.5629 36.0383C89.5629 36.0383 81.8749 41.8555 81.3789 43.2388C80.8829 44.6222 87.2601 48.3111 88.3583 46.9632C89.4566 45.6153 89.8463 36.1802 89.8463 36.1802C89.8463 36.0383 89.6692 35.9319 89.5629 36.0383Z" fill="#F5B764"/>
<path d="M88.6772 35.0095C88.6772 35.0095 79.1115 33.9454 77.7653 34.5839C76.419 35.2224 78.5447 42.3164 80.2807 42.1036C82.0167 41.8908 88.7835 35.2933 88.7835 35.2933C88.8898 35.2224 88.7835 35.0095 88.6772 34.9741V35.0095Z" fill="#F5B764"/>
<path d="M89.1732 34.0872C89.1732 34.0872 83.1504 26.532 81.7687 26.0709C80.3869 25.6098 76.8441 32.0654 78.2258 33.165C79.6075 34.2645 89.0315 34.371 89.0315 34.371C89.1732 34.371 89.2795 34.1936 89.1732 34.0872Z" fill="#F5B764"/>
<path d="M79.7138 10.3576C79.7138 10.3576 79.7138 9.71912 79.7138 9.5063C79.4658 10.0029 79.1115 10.4995 78.5447 11.1379C77.9069 11.8473 77.0567 12.5922 76.2418 13.1597C75.7812 13.479 75.3915 13.7273 74.5058 14.2239C74.2224 13.6918 74.0453 13.479 73.5493 13.0179C74.931 12.3794 76.0647 11.6345 77.1984 10.4995C77.8007 9.93195 78.3675 9.18707 78.7572 8.58407H75.5687C74.683 8.58407 74.5413 8.58407 74.1515 8.65501V7.2362C74.5767 7.30714 74.7892 7.30714 75.6041 7.30714H79.6429V6.38491C79.6429 5.95927 79.6193 5.60456 79.5721 5.3208H81.0955C81.0955 5.60456 81.0601 5.81739 81.0601 6.31397V7.34261H82.2646C83.0441 7.34261 83.2212 7.34261 83.6463 7.27167V8.69048C83.2921 8.69048 83.0441 8.65501 82.3001 8.65501H81.0955L81.1664 14.0465C81.1664 14.614 81.1664 15.0751 81.2372 15.3944H79.6429C79.6784 15.0751 79.7138 14.7559 79.7138 14.2948V10.6059V10.4285V10.3576Z" fill="#CF7448"/>
<path d="M88.6063 5.56916C88.5709 5.8884 88.5354 6.17216 88.5354 6.73968L88.4646 13.3726C89.6691 13.1243 90.7674 12.6987 91.6531 12.0957C92.716 11.3508 93.46 10.5705 94.0268 9.43543C94.4874 10.0384 94.6291 10.2158 95.1251 10.606C94.3103 11.8474 93.5663 12.6278 92.5388 13.3017C91.3697 14.082 90.2006 14.5432 88.3229 14.8979C88.004 14.9688 87.8623 15.0043 87.6143 15.1107L86.8703 14.2239C86.9412 13.9047 86.9766 13.6919 86.9766 13.0179V6.73968C87.0002 6.1958 87.0002 5.79381 86.9766 5.53369H88.6417L88.6063 5.56916Z" fill="#CF7448"/>
<path d="M97.6051 13.3016C98.5971 13.2306 99.9788 12.9114 101.042 12.4503C102.494 11.8118 103.593 10.925 104.478 9.61264C104.974 8.86776 105.329 8.22929 105.647 7.2716C106.108 7.80365 106.285 7.981 106.887 8.40665C105.895 10.5349 104.797 11.9182 103.203 12.9823C102.034 13.7627 100.581 14.3302 98.7743 14.7204C98.3137 14.8268 98.2783 14.8268 97.9948 14.9332L97.5697 13.337L97.6051 13.3016ZM98.5971 6.10107C99.9788 6.95236 100.687 7.48442 101.609 8.33571L100.617 9.61264C99.6954 8.61947 98.7388 7.83912 97.6406 7.23612L98.5971 6.10107Z" fill="#CF7448"/>
<path d="M109.686 8.37118C110.749 8.79683 111.918 9.39982 112.768 9.96735L112.06 11.2798C111.28 10.6768 109.97 9.96735 108.907 9.57718L109.686 8.37118ZM109.155 13.5853C110.076 13.5853 111.281 13.3016 112.52 12.8404C114.646 12.0956 116.382 10.1802 117.232 7.69725C117.693 8.19383 117.906 8.37118 118.437 8.72589C116.984 12.2375 114.54 14.1529 110.395 14.9687C109.899 15.0751 109.793 15.1106 109.58 15.1815L109.155 13.5853ZM110.572 5.56903C111.67 5.99467 112.839 6.5622 113.654 7.05878L112.91 8.33571C111.954 7.69725 110.643 7.02331 109.793 6.73955L110.537 5.56903H110.572ZM116.63 5.32074C117.126 5.85279 117.445 6.3139 117.835 7.02331L117.02 7.44896C116.63 6.73955 116.311 6.27843 115.815 5.71091L116.63 5.28526V5.32074ZM118.437 6.73955C118.083 6.10108 117.693 5.56903 117.268 5.03697L118.047 4.61133C118.579 5.14338 118.898 5.6045 119.252 6.24296L118.437 6.70408V6.73955Z" fill="#CF7448"/>
<path d="M121.484 16.7421C121.378 16.9195 121.378 17.1323 121.342 17.5225C121.342 18.8349 121.165 20.6439 121.059 21.4242C120.74 23.446 120.35 23.9071 118.968 23.9071C118.543 23.9071 118.118 23.9071 117.516 23.7653C117.516 23.0559 117.445 22.7721 117.232 22.2755C117.906 22.4883 118.366 22.5593 118.756 22.5593C119.252 22.5593 119.429 22.311 119.606 21.2823C119.748 20.4665 119.854 18.8704 119.854 17.558H117.162C116.878 20.502 115.638 22.4883 113.087 24.12C112.698 23.517 112.52 23.3041 112.06 22.914C114.292 21.7789 115.496 20.0054 115.744 17.5934H113.831C113.087 17.5934 112.946 17.5934 112.591 17.6644V16.2456C112.946 16.3165 113.158 16.3165 113.867 16.3165H115.886C115.886 15.8908 115.957 15.1814 115.957 14.8622V14.5784C115.957 14.5784 115.957 14.3302 115.957 14.1173H117.516C117.516 14.3302 117.516 14.3302 117.48 14.543C117.48 14.6139 117.48 14.6849 117.48 14.7558V14.9686L117.445 15.6071C117.445 15.9263 117.445 15.9263 117.41 16.352H119.996C120.386 16.352 120.492 16.352 120.634 16.352V16.2456L120.527 16.1391C120.279 15.5716 119.996 15.075 119.606 14.543L120.456 14.2237C120.917 14.8267 121.165 15.2879 121.484 16.0682L120.882 16.3165L121.519 16.884L121.484 16.7421ZM122.015 15.678C121.732 15.0041 121.413 14.4011 121.023 13.869L121.838 13.5498C122.299 14.1528 122.582 14.6139 122.866 15.3233L122.015 15.678Z" fill="#D16840" stroke="#6B5324" stroke-width="0.09" stroke-miterlimit="10"/>
<path d="M129.172 14.4368C129.03 14.6851 129.03 14.7205 128.888 15.2881C128.003 18.1966 127.33 20.1475 126.586 21.921C128.392 21.7791 130.412 21.5308 131.404 21.318C131.262 21.0343 131.12 20.786 130.872 20.2539C130.376 19.2962 130.164 18.9415 129.774 18.4094L131.085 17.9129C132.148 19.509 133.175 21.4599 133.884 23.3044L132.467 24.0492C132.372 23.7418 132.183 23.2571 131.9 22.5949C131.9 22.5949 131.758 22.5949 131.475 22.7014C130.306 22.9497 128.357 23.1979 124.885 23.5172C124.247 23.5881 124.07 23.5881 123.822 23.6591L123.61 22.0984H123.893C124.141 22.0984 124.389 22.0984 124.885 22.0984C125.487 20.6441 125.948 19.3317 126.586 17.4163C127.117 15.7137 127.365 14.8979 127.436 14.1885L129.136 14.5077L129.172 14.4368Z" fill="#D16840" stroke="#6B5324" stroke-width="0.09" stroke-miterlimit="10"/>
<path d="M175.406 66.436H109.97V131.95H175.406V66.436Z" fill="white" stroke="#6D5424" stroke-width="0.34" stroke-miterlimit="10"/>
<path d="M148.445 97.8981C148.445 97.8981 155.141 91.9036 144.087 85.3062C144.087 85.3062 142.989 86.5121 143.024 89.4207C143.024 89.4207 138.1 84.6677 128.57 89.1015C128.57 89.1015 129.774 93.4643 131.085 94.8122C132.396 96.1601 141.926 100.771 148.445 97.8981Z" fill="#6CAC59" stroke="#695224" stroke-width="0.14" stroke-miterlimit="10" stroke-linecap="round"/>
<path d="M145.15 89.5981C145.15 89.5981 147.453 92.6486 145.575 98.182" stroke="#DBEBC3" stroke-width="0.18" stroke-miterlimit="10" stroke-linecap="round"/>
<path d="M145.717 96.905C145.717 96.905 142.316 91.6554 132.856 90.4849" stroke="#DBEBC3" stroke-width="0.18" stroke-miterlimit="10" stroke-linecap="round"/>
<path d="M152.873 102.828C152.873 102.828 160.632 98.3591 163.431 110.951C163.431 110.951 161.943 111.625 159.215 110.667C159.215 110.667 162.191 116.839 154.964 124.501C154.964 124.501 151.208 121.982 150.358 120.315C149.508 118.648 148.126 108.113 152.873 102.828Z" fill="#6CAC59" stroke="#695224" stroke-width="0.14" stroke-miterlimit="10" stroke-linecap="round"/>
<path d="M159.711 108.575C159.711 108.575 157.55 105.418 151.704 105.453" stroke="#DBEBC3" stroke-width="0.18" stroke-miterlimit="10" stroke-linecap="round"/>
<path d="M152.98 105.737C152.98 105.737 156.912 110.596 155.035 119.96" stroke="#DBEBC3" stroke-width="0.18" stroke-miterlimit="10" stroke-linecap="round"/>
<path d="M153.192 89.4561C153.192 89.4561 154.645 95.8407 163.077 101.019" stroke="#6CAC59" stroke-width="0.54" stroke-miterlimit="10" stroke-linecap="round"/>
<path d="M150.252 100.31C150.252 100.31 156.275 97.5079 156.7 95.7344" stroke="#6CAC59" stroke-width="0.54" stroke-miterlimit="10" stroke-linecap="round"/>
<path d="M133.53 102.971C136.582 102.971 139.056 100.493 139.056 97.4372C139.056 94.3812 136.582 91.9038 133.53 91.9038C130.477 91.9038 128.003 94.3812 128.003 97.4372C128.003 100.493 130.477 102.971 133.53 102.971Z" fill="#C99DC7" stroke="#6B5324" stroke-width="0.21" stroke-miterlimit="10"/>
<path d="M147.949 105.986C150.59 105.986 152.732 103.842 152.732 101.197C152.732 98.5526 150.59 96.4087 147.949 96.4087C145.307 96.4087 143.166 98.5526 143.166 101.197C143.166 103.842 145.307 105.986 147.949 105.986Z" fill="#C99DC7" stroke="#6B5324" stroke-width="0.18" stroke-miterlimit="10"/>
<path d="M120.882 124.572C123.66 124.572 125.912 122.317 125.912 119.535C125.912 116.754 123.66 114.499 120.882 114.499C118.103 114.499 115.851 116.754 115.851 119.535C115.851 122.317 118.103 124.572 120.882 124.572Z" fill="#A581A4" stroke="#6B5324" stroke-width="0.19" stroke-miterlimit="10"/>
<path d="M128.074 126.417C130.891 126.417 133.175 124.13 133.175 121.309C133.175 118.488 130.891 116.201 128.074 116.201C125.256 116.201 122.972 118.488 122.972 121.309C122.972 124.13 125.256 126.417 128.074 126.417Z" fill="#C99DC7" stroke="#6B5324" stroke-width="0.19" stroke-miterlimit="10"/>
<path d="M135.265 127.161C137.907 127.161 140.048 125.018 140.048 122.373C140.048 119.728 137.907 117.584 135.265 117.584C132.624 117.584 130.483 119.728 130.483 122.373C130.483 125.018 132.624 127.161 135.265 127.161Z" fill="#A581A4" stroke="#6B5324" stroke-width="0.18" stroke-miterlimit="10"/>
<path d="M142.493 127.019C145.134 127.019 147.276 124.875 147.276 122.231C147.276 119.586 145.134 117.442 142.493 117.442C139.851 117.442 137.71 119.586 137.71 122.231C137.71 124.875 139.851 127.019 142.493 127.019Z" fill="#C99DC7" stroke="#6B5324" stroke-width="0.18" stroke-miterlimit="10"/>
<path d="M124.46 117.549C127.551 117.549 130.058 115.04 130.058 111.945C130.058 108.849 127.551 106.34 124.46 106.34C121.368 106.34 118.862 108.849 118.862 111.945C118.862 115.04 121.368 117.549 124.46 117.549Z" fill="#C99DC7" stroke="#6B5324" stroke-width="0.21" stroke-miterlimit="10"/>
<path d="M131.581 119.642C134.594 119.642 137.037 117.196 137.037 114.179C137.037 111.162 134.594 108.717 131.581 108.717C128.568 108.717 126.125 111.162 126.125 114.179C126.125 117.196 128.568 119.642 131.581 119.642Z" fill="#C99DC7" stroke="#6B5324" stroke-width="0.21" stroke-miterlimit="10"/>
<path d="M139.694 119.89C142.707 119.89 145.15 117.444 145.15 114.427C145.15 111.41 142.707 108.965 139.694 108.965C136.681 108.965 134.238 111.41 134.238 114.427C134.238 117.444 136.681 119.89 139.694 119.89Z" fill="#C99DC7" stroke="#6B5324" stroke-width="0.21" stroke-miterlimit="10"/>
<path d="M140.403 105.773C143.416 105.773 145.859 103.327 145.859 100.31C145.859 97.2933 143.416 94.8477 140.403 94.8477C137.389 94.8477 134.947 97.2933 134.947 100.31C134.947 103.327 137.389 105.773 140.403 105.773Z" fill="#A581A4" stroke="#6B5324" stroke-width="0.21" stroke-miterlimit="10"/>
<path d="M129.491 109.32C132.504 109.32 134.947 106.874 134.947 103.857C134.947 100.841 132.504 98.395 129.491 98.395C126.477 98.395 124.035 100.841 124.035 103.857C124.035 106.874 126.477 109.32 129.491 109.32Z" fill="#AE88AD" stroke="#6B5324" stroke-width="0.21" stroke-miterlimit="10"/>
<path d="M148.622 121.699C151.498 121.699 153.83 119.364 153.83 116.485C153.83 113.605 151.498 111.271 148.622 111.271C145.746 111.271 143.414 113.605 143.414 116.485C143.414 119.364 145.746 121.699 148.622 121.699Z" fill="#BC93BB" stroke="#6B5324" stroke-width="0.2" stroke-miterlimit="10"/>
<path d="M148.126 114.073C151.218 114.073 153.724 111.564 153.724 108.469C153.724 105.373 151.218 102.864 148.126 102.864C145.034 102.864 142.528 105.373 142.528 108.469C142.528 111.564 145.034 114.073 148.126 114.073Z" fill="#AE88AD" stroke="#6B5324" stroke-width="0.21" stroke-miterlimit="10"/>
<path d="M138.312 112.76C141.678 112.76 144.406 110.029 144.406 106.659C144.406 103.29 141.678 100.559 138.312 100.559C134.947 100.559 132.219 103.29 132.219 106.659C132.219 110.029 134.947 112.76 138.312 112.76Z" fill="#C99DC7" stroke="#6B5324" stroke-width="0.23" stroke-miterlimit="10"/>
<path d="M119.146 118.897C119.693 118.897 120.138 118.452 120.138 117.903C120.138 117.355 119.693 116.91 119.146 116.91C118.598 116.91 118.154 117.355 118.154 117.903C118.154 118.452 118.598 118.897 119.146 118.897Z" fill="white"/>
<path d="M122.653 110.419C123.201 110.419 123.645 109.975 123.645 109.426C123.645 108.878 123.201 108.433 122.653 108.433C122.105 108.433 121.661 108.878 121.661 109.426C121.661 109.975 122.105 110.419 122.653 110.419Z" fill="white"/>
<path d="M129.987 112.725C130.535 112.725 130.979 112.28 130.979 111.732C130.979 111.183 130.535 110.739 129.987 110.739C129.439 110.739 128.995 111.183 128.995 111.732C128.995 112.28 129.439 112.725 129.987 112.725Z" fill="white"/>
<path d="M137.32 104.496C137.868 104.496 138.312 104.051 138.312 103.502C138.312 102.954 137.868 102.509 137.32 102.509C136.772 102.509 136.328 102.954 136.328 103.502C136.328 104.051 136.772 104.496 137.32 104.496Z" fill="white"/>
<path d="M128.392 101.694C128.94 101.694 129.384 101.249 129.384 100.701C129.384 100.152 128.94 99.7075 128.392 99.7075C127.845 99.7075 127.4 100.152 127.4 100.701C127.4 101.249 127.845 101.694 128.392 101.694Z" fill="white"/>
<path d="M132.998 95.8408C133.546 95.8408 133.99 95.3962 133.99 94.8477C133.99 94.2992 133.546 93.8545 132.998 93.8545C132.45 93.8545 132.006 94.2992 132.006 94.8477C132.006 95.3962 132.45 95.8408 132.998 95.8408Z" fill="white"/>
<path d="M139.481 97.8984C140.029 97.8984 140.473 97.4538 140.473 96.9053C140.473 96.3568 140.029 95.9121 139.481 95.9121C138.934 95.9121 138.49 96.3568 138.49 96.9053C138.49 97.4538 138.934 97.8984 139.481 97.8984Z" fill="white"/>
<path d="M147.913 99.2461C148.461 99.2461 148.905 98.8015 148.905 98.2529C148.905 97.7044 148.461 97.2598 147.913 97.2598C147.366 97.2598 146.921 97.7044 146.921 98.2529C146.921 98.8015 147.366 99.2461 147.913 99.2461Z" fill="white"/>
<path d="M148.02 107.227C148.568 107.227 149.012 106.782 149.012 106.234C149.012 105.685 148.568 105.241 148.02 105.241C147.472 105.241 147.028 105.685 147.028 106.234C147.028 106.782 147.472 107.227 148.02 107.227Z" fill="white"/>
<path d="M118.898 76.3323C118.898 76.3323 118.898 76.4742 118.862 76.5097C118.862 76.5097 118.827 76.687 118.756 76.8644C118.295 78.5315 117.835 79.702 117.268 80.5887C116.807 80.1986 116.524 80.0567 116.028 79.8084C116.595 79.0281 117.339 77.1481 117.551 75.9067L118.898 76.3323ZM124.389 72.6434C124.885 73.1754 125.204 73.6366 125.594 74.346L124.779 74.7716C124.389 74.0622 124.07 73.6011 123.574 73.0336V73.4947C123.255 73.5656 122.972 73.672 122.582 73.9203C121.838 74.3814 121.448 74.878 121.448 75.3037C121.448 75.4455 121.484 75.6229 121.555 75.7293C121.661 75.9776 121.732 76.0131 122.405 76.7579C122.83 77.2191 123.043 77.5383 123.22 77.8575C123.362 78.2122 123.468 78.5669 123.468 78.8862C123.468 79.4892 123.184 80.0922 122.724 80.4823C122.334 80.837 121.803 80.9789 121.13 80.9789C120.315 80.9789 119.5 80.6952 118.685 80.0567C118.862 79.5601 118.933 79.3118 119.004 78.6379C119.642 79.2409 120.386 79.5956 120.988 79.5956C121.519 79.5956 121.909 79.2763 121.909 78.7798C121.909 78.5669 121.838 78.3896 121.732 78.1413C121.59 77.8575 121.448 77.6802 121.023 77.1836C120.35 76.4387 120.138 76.0131 120.138 75.4101C120.138 74.878 120.35 74.346 120.775 73.8849C121.023 73.6366 121.13 73.4947 121.626 73.2109H121.484L121.236 73.1754C120.527 73.1045 119.89 72.9272 118.898 72.5724C118.685 72.5015 118.685 72.5015 118.508 72.4306L119.004 71.1182C119.323 71.331 119.819 71.4729 120.563 71.6857C121.413 71.934 122.724 72.1113 123.397 72.1113C123.397 72.1113 123.503 72.1113 123.645 72.1113V73.0336L124.46 72.6079L124.389 72.6434ZM124.85 75.6938C125.7 76.9708 126.338 78.3186 126.727 79.7375L125.346 80.3759C125.168 79.2054 124.141 76.8289 123.574 76.2259L124.814 75.6938H124.85ZM126.196 74.0622C125.842 73.4237 125.452 72.8917 125.027 72.3596L125.806 71.9695C126.338 72.5015 126.656 72.9626 127.011 73.6011L126.196 74.0622Z" fill="#AE6098"/>
<path d="M132.006 71.1181C132.006 71.6856 132.467 73.8138 132.786 74.7715C133.494 74.4878 133.955 74.3459 135.407 73.8848C135.809 73.7429 136.08 73.6483 136.222 73.601L136.718 75.0553C135.691 75.2681 134.203 75.6938 132.892 76.1904C131.191 76.8288 130.341 77.5382 130.341 78.3895C130.341 79.2408 131.12 79.5955 132.998 79.5955C134.451 79.5955 135.868 79.4182 136.754 79.1344L136.895 80.7306C136.647 80.7306 136.576 80.7306 135.939 80.8015C134.699 80.9434 134.026 80.9789 133.211 80.9789C131.581 80.9789 130.589 80.766 129.845 80.3404C129.207 79.9502 128.818 79.2408 128.818 78.3895C128.818 77.6092 129.172 76.8643 129.845 76.2968C130.306 75.9421 130.66 75.6938 131.439 75.3036C131.156 74.4523 130.943 73.601 130.66 72.1467C130.518 71.5792 130.518 71.5437 130.483 71.3664L132.006 71.1181ZM135.868 71.1181C136.364 71.6501 136.683 72.1113 137.072 72.8207L136.258 73.2463C135.868 72.5369 135.549 72.0758 135.053 71.5083L135.868 71.1181ZM137.639 72.5369C137.285 71.8984 136.895 71.3664 136.47 70.8343L137.25 70.4087C137.781 70.9407 138.1 71.4019 138.454 72.0403L137.639 72.5014V72.5369Z" fill="#AE6098"/>
<path d="M140.296 74.7716C140.509 74.7716 140.958 74.7006 141.643 74.5588C143.308 74.275 144.3 74.1686 145.292 74.1686C146.284 74.1686 146.957 74.3105 147.488 74.6297C148.197 75.0553 148.622 75.8357 148.622 76.7579C148.622 78.0703 147.807 79.3118 146.425 80.0921C145.469 80.6242 144.654 80.8725 142.776 81.1917C142.67 80.5887 142.528 80.2695 142.174 79.7374C143.52 79.6665 144.796 79.3472 145.681 78.8507C146.603 78.3541 147.099 77.6092 147.099 76.7934C147.099 75.9066 146.496 75.481 145.292 75.481C143.981 75.481 141.643 75.9066 140.686 76.2968L140.332 74.7361L140.296 74.7716ZM142.103 71.0472C143.379 71.4728 145.115 71.7211 146.957 71.7211H147.276L147.063 73.1399C144.937 73.0335 143.343 72.8562 141.643 72.3951L142.103 71.0117V71.0472Z" fill="#AE6098"/>
<path d="M160.455 82.5748C160.349 82.7522 160.349 82.965 160.313 83.3552C160.313 84.6676 160.136 86.4766 160.03 87.2569C159.711 89.2787 159.321 89.7398 157.94 89.7398C157.515 89.7398 157.089 89.7398 156.487 89.598C156.487 88.8886 156.416 88.6048 156.204 88.1082C156.877 88.321 157.337 88.392 157.727 88.392C158.223 88.392 158.4 88.1437 158.577 87.115C158.719 86.2992 158.825 84.7031 158.825 83.3907H156.133C155.849 86.3347 154.609 88.321 152.059 89.9527C151.669 89.3497 151.492 89.1368 151.031 88.7467C153.263 87.6116 154.468 85.8381 154.716 83.4261H152.803C152.059 83.4261 151.917 83.4261 151.563 83.4971V82.0782C151.952 82.1492 152.129 82.1492 152.838 82.1492H154.857C154.857 81.7235 154.928 81.0141 154.928 80.6949V80.4111C154.928 80.4111 154.928 80.1629 154.928 79.95H156.487C156.487 80.1629 156.487 80.1628 156.452 80.3757C156.452 80.4466 156.452 80.5175 156.452 80.5885V80.8013L156.416 81.4398C156.416 81.759 156.416 81.759 156.381 82.1847H158.967C159.357 82.1847 159.463 82.1847 159.605 82.1847V82.0782L159.499 81.9718C159.251 81.4043 158.967 80.9077 158.577 80.3757L159.428 80.0564C159.888 80.6594 160.136 81.1205 160.455 81.9009L159.853 82.1492L160.49 82.7167L160.455 82.5748ZM161.022 81.5462C160.739 80.8723 160.42 80.2693 160.03 79.7372L160.845 79.418C161.305 80.021 161.589 80.4821 161.872 81.1915L161.022 81.5462Z" fill="#8F578E" stroke="#6B5324" stroke-width="0.09" stroke-miterlimit="10"/>
<path d="M168.143 80.2693C168.001 80.5176 168.001 80.5531 167.824 81.1206C166.938 84.0291 166.265 85.98 165.521 87.7535C167.364 87.6117 169.348 87.3634 170.375 87.1505C170.233 86.8668 170.092 86.6185 169.844 86.0864C169.348 85.1287 169.135 84.774 168.745 84.242L170.056 83.7454C171.154 85.3416 172.146 87.2924 172.855 89.1369L171.438 89.8818C171.343 89.5743 171.154 89.0896 170.871 88.4275C170.871 88.4275 170.729 88.4275 170.446 88.5339C169.277 88.7822 167.328 89.0305 163.856 89.3497C163.218 89.4206 163.041 89.4206 162.793 89.4916L162.581 87.9309H162.864C163.112 87.9309 163.36 87.9309 163.856 87.9309C164.458 86.4766 164.954 85.1642 165.557 83.2488C166.088 81.5462 166.336 80.7304 166.407 80.021L168.108 80.3402L168.143 80.2693Z" fill="#8F578E" stroke="#6B5324" stroke-width="0.09" stroke-miterlimit="10"/>
<path d="M3.40106 130.389V291.566H204.634V130.389H3.40106ZM172.713 191.93H35.2866V158.127H172.713V191.93Z" stroke="#6F5524" stroke-width="0.61" stroke-miterlimit="10"/>
<path d="M204.351 127.02H3.61365C2.20486 127.02 1.06281 128.163 1.06281 129.573V131.134C1.06281 132.545 2.20486 133.688 3.61365 133.688H204.351C205.76 133.688 206.902 132.545 206.902 131.134V129.573C206.902 128.163 205.76 127.02 204.351 127.02Z" stroke="#6F5524" stroke-width="0.61" stroke-miterlimit="10"/>
<path d="M204.351 288.232H3.61365C2.20486 288.232 1.06281 289.376 1.06281 290.786V292.347C1.06281 293.757 2.20486 294.901 3.61365 294.901H204.351C205.76 294.901 206.902 293.757 206.902 292.347V290.786C206.902 289.376 205.76 288.232 204.351 288.232Z" stroke="#6F5524" stroke-width="0.61" stroke-miterlimit="10"/>
<path d="M204.351 154.793H3.61365C2.20486 154.793 1.06281 155.936 1.06281 157.347V158.908C1.06281 160.318 2.20486 161.461 3.61365 161.461H204.351C205.76 161.461 206.902 160.318 206.902 158.908V157.347C206.902 155.936 205.76 154.793 204.351 154.793Z" stroke="#6F5524" stroke-width="0.61" stroke-miterlimit="10"/>
<path d="M3.22394 130.389V291.566H204.457V130.389H3.22394ZM172.536 191.93H35.1095V158.127H172.536V191.93Z" fill="#ECCF6D"/>
<path d="M204.174 127.02H3.43652C2.02773 127.02 0.885681 128.163 0.885681 129.573V131.134C0.885681 132.545 2.02773 133.688 3.43652 133.688H204.174C205.583 133.688 206.725 132.545 206.725 131.134V129.573C206.725 128.163 205.583 127.02 204.174 127.02Z" fill="#CDAC4D"/>
<path d="M204.174 288.232H3.43652C2.02773 288.232 0.885681 289.376 0.885681 290.786V292.347C0.885681 293.757 2.02773 294.901 3.43652 294.901H204.174C205.583 294.901 206.725 293.757 206.725 292.347V290.786C206.725 289.376 205.583 288.232 204.174 288.232Z" fill="#D3B14C"/>
<path d="M204.174 154.793H3.43652C2.02773 154.793 0.885681 155.936 0.885681 157.347V158.908C0.885681 160.318 2.02773 161.461 3.43652 161.461H204.174C205.583 161.461 206.725 160.318 206.725 158.908V157.347C206.725 155.936 205.583 154.793 204.174 154.793Z" fill="#D3B14C"/>
<path d="M173.953 191.93H34.0112C32.6611 191.93 31.5667 193.026 31.5667 194.378V198.137C31.5667 199.489 32.6611 200.585 34.0112 200.585H173.953C175.303 200.585 176.398 199.489 176.398 198.137V194.378C176.398 193.026 175.303 191.93 173.953 191.93Z" fill="#D3B14C"/>
<path d="M179.409 289.296V129.29C179.409 128.036 178.394 127.02 177.142 127.02H175.016C173.764 127.02 172.749 128.036 172.749 129.29V289.296C172.749 290.55 173.764 291.566 175.016 291.566H177.142C178.394 291.566 179.409 290.55 179.409 289.296Z" fill="#D3B14C"/>
<path d="M34.9324 289.296L34.9324 129.29C34.9324 128.036 33.9172 127.02 32.665 127.02H30.5393C29.287 127.02 28.2718 128.036 28.2718 129.29L28.2718 289.296C28.2718 290.55 29.287 291.566 30.5393 291.566H32.665C33.9172 291.566 34.9324 290.55 34.9324 289.296Z" fill="#D3B14C"/>
<path d="M51.442 221.016V267.801H158.896V221.016H51.442ZM73.4784 249.889C73.7973 250.137 74.9664 250.279 76.8441 250.279C78.403 250.279 80.3869 250.173 81.9104 250.031C83.8944 249.818 84.9926 249.605 86.6223 249.109L86.7995 254.784C86.7995 254.784 86.5515 254.784 86.4806 254.784C86.1263 254.784 85.1698 254.819 84.0361 254.926C81.2018 255.174 78.3675 255.351 76.2418 255.351C72.5573 255.351 70.715 255.032 69.475 254.181C68.5893 253.578 68.0933 252.656 67.8807 251.272C67.8099 250.74 67.8099 250.492 67.7744 248.293V236.162C67.7744 234.495 67.739 234.176 67.6327 233.395H73.2658C73.1596 234.14 73.1241 234.85 73.1241 236.197V239.957C76.171 239.283 79.7138 237.971 82.3709 236.552C81.9458 235.275 81.7332 234.743 81.2018 233.75L84.1069 233.041C84.8863 234.424 85.2052 235.169 85.7012 236.694L84.5321 237.084L86.8703 240.489C82.0166 242.83 78.1904 244.107 73.1241 245.065V247.69C73.1241 249.286 73.1595 249.641 73.443 249.889H73.4784ZM86.4098 236.623C85.8429 234.885 85.4532 233.963 84.8155 232.828L87.6498 232.012C88.3938 233.218 88.8543 234.247 89.3503 235.665L86.3743 236.623H86.4098ZM114.682 247.371C113.123 247.229 112.91 247.229 108.659 247.229H97.2154C92.9286 247.229 92.716 247.229 91.1926 247.371V241.553C92.8932 241.766 93.5309 241.802 97.2154 241.802H108.694C112.343 241.802 112.981 241.802 114.717 241.553V247.371H114.682ZM125.877 239.567C125.7 245.242 125.168 248.257 123.928 251.095C123.007 253.188 122.051 254.677 120.421 256.451C118.65 254.181 117.976 253.507 116.063 252.124C117.232 251.13 117.764 250.457 118.472 249.109C119.96 246.271 120.527 242.83 120.527 236.375C120.527 234.495 120.527 233.963 120.386 233.147L126.125 233.466C126.054 234.105 125.96 236.138 125.842 239.567H125.877ZM135.478 254.287C134.451 254.926 133.53 255.351 132.042 255.848C131.794 255.954 131.51 256.025 131.227 256.132C130.802 256.309 130.66 256.38 130.341 256.557L127.755 253.862C128.003 253.294 128.074 252.939 128.074 252.053L128.215 235.772V234.566C128.215 233.998 128.215 233.644 128.109 233.041H133.777C133.636 233.998 133.636 234.495 133.6 235.878L133.459 249.215C134.628 248.399 135.301 247.69 136.08 246.413C136.86 245.1 137.32 243.965 137.745 242.227C139.269 244.072 139.8 244.604 141.82 246.236C140.332 249.995 138.419 252.514 135.513 254.323L135.478 254.287Z" fill="#ED6F4B"/>
</g>
<defs>
<clipPath id="clip0_323_1260">
<rect width="208" height="296" fill="white"/>
</clipPath>
</defs>
</svg>
