<svg width="204" height="255" viewBox="0 0 204 255" fill="none" xmlns="http://www.w3.org/2000/svg">
<path d="M35.4602 29.5885C35.4602 29.5885 29.4853 28.9632 30.0411 26.2884C30.5969 23.6136 32.4033 22.2241 34.3486 22.4672C35.2171 22.5715 37.4403 26.9484 37.1971 27.9558C36.954 28.9632 35.4602 29.5885 35.4602 29.5885Z" fill="#CAE8EF" stroke="#675123" stroke-width="0.23" stroke-miterlimit="10"/>
<path d="M124.319 116.155C124.319 116.155 119.247 118.448 118.83 113.029C118.83 113.029 112.126 111.848 112.022 107.297C112.022 107.297 105.317 105.491 106.776 101.392C106.776 101.392 99.7592 101.843 100.384 96.9451C95.0349 95.8682 94.8959 91.4565 94.8959 91.4565C88.2263 89.8933 89.1294 85.6206 89.1294 85.6206C82.9114 85.2385 83.0503 80.6531 83.0503 80.6531C75.2691 79.3331 77.3186 74.0877 77.3186 74.0877C71.8648 73.254 72.1427 68.9117 72.1427 68.9117C64.7783 69.3633 65.7162 62.6242 65.7162 62.6242C59.2202 61.5821 60.6445 57.6567 60.6445 57.6567C54.9128 58.1083 55.5728 52.9671 55.5728 52.9671C51.6474 53.6271 49.8063 50.5007 50.5358 48.5207C45.3251 49.0417 44.3872 43.0321 44.3872 43.0321C40.3229 42.7542 39.5934 38.4467 39.7324 37.8562C34.1743 36.6751 33.1322 32.2634 36.0154 28.3033C38.8987 24.3432 43.6577 26.7401 45.1167 29.6928C49.6674 30.1444 49.98 35.3898 49.98 35.3898C54.7043 35.2161 55.2254 40.4268 55.2254 40.4268C59.6718 41.1563 59.6024 45.3248 59.6024 45.3248C63.5972 44.3174 64.6393 49.4933 64.6393 49.4933C66.8278 48.8681 70.3363 50.5355 69.9889 54.044C73.289 54.0092 76.6239 56.7883 75.6859 60.1578C75.6859 60.1578 82.0777 58.7683 82.1124 66.3411C85.7599 65.1948 88.5736 68.7728 87.5662 72.455C92.7422 72.3855 93.7843 76.7277 93.4369 77.8393C96.9454 76.1024 99.7245 80.7226 99.6897 82.2163C104.484 82.7026 104.622 87.6701 104.553 88.0522C109.173 87.0448 110.563 90.3797 110.702 92.7071C114.557 91.8039 117.198 96.1809 116.642 98.8557C120.637 97.883 122.547 102.052 122.651 104.31C125.986 103.754 128.14 107.019 128.244 109.937C132.308 110.632 134.045 114.14 132.552 116.919C131.058 119.698 126.646 121.505 124.284 116.155H124.319Z" fill="#78CBE8" stroke="#675123" stroke-width="0.23" stroke-miterlimit="10"/>
<path d="M125.501 114.73C125.501 114.73 126.3 114.07 127.134 111.5" stroke="#63A3BA" stroke-width="0.45" stroke-miterlimit="10" stroke-linecap="round"/>
<path d="M120.221 110.492C120.221 110.492 120.916 109.762 121.471 107.087" stroke="#63A3BA" stroke-width="0.45" stroke-miterlimit="10" stroke-linecap="round"/>
<path d="M113.585 104.866C113.585 104.866 114.315 104.171 115.01 101.531" stroke="#63A3BA" stroke-width="0.45" stroke-miterlimit="10" stroke-linecap="round"/>
<path d="M107.888 98.9593C107.888 98.9593 108.617 98.2646 109.312 95.6245" stroke="#63A3BA" stroke-width="0.45" stroke-miterlimit="10" stroke-linecap="round"/>
<path d="M102.087 94.2694C102.087 94.2694 102.816 93.5746 103.511 90.9346" stroke="#63A3BA" stroke-width="0.45" stroke-miterlimit="10" stroke-linecap="round"/>
<path d="M96.5642 88.8163C96.5642 88.8163 97.2937 88.1215 97.9885 85.4814" stroke="#63A3BA" stroke-width="0.45" stroke-miterlimit="10" stroke-linecap="round"/>
<path d="M90.9363 83.7093C90.9363 83.7093 91.6658 83.0146 92.3605 80.3745" stroke="#63A3BA" stroke-width="0.45" stroke-miterlimit="10" stroke-linecap="round"/>
<path d="M84.8911 78.3255C84.8911 78.3255 85.6206 77.6308 86.3154 74.9907" stroke="#63A3BA" stroke-width="0.45" stroke-miterlimit="10" stroke-linecap="round"/>
<path d="M79.2292 72.4193C79.2292 72.4193 79.9587 71.7245 80.6535 69.0845" stroke="#63A3BA" stroke-width="0.45" stroke-miterlimit="10" stroke-linecap="round"/>
<path d="M73.5317 66.5492C73.5317 66.5492 74.2612 65.8544 74.956 63.2144" stroke="#63A3BA" stroke-width="0.45" stroke-miterlimit="10" stroke-linecap="round"/>
<path d="M67.4883 60.5057C67.4883 60.5057 68.2178 59.811 68.9125 57.1709" stroke="#63A3BA" stroke-width="0.45" stroke-miterlimit="10" stroke-linecap="round"/>
<path d="M62.4507 55.641C62.4507 55.641 63.1802 54.9462 63.8749 52.3062" stroke="#63A3BA" stroke-width="0.45" stroke-miterlimit="10" stroke-linecap="round"/>
<path d="M57.2061 51.368C57.2061 51.368 57.9355 50.6733 58.6303 48.0332" stroke="#63A3BA" stroke-width="0.45" stroke-miterlimit="10" stroke-linecap="round"/>
<path d="M52.204 46.4017C52.204 46.4017 52.9335 45.707 53.6282 43.0669" stroke="#63A3BA" stroke-width="0.45" stroke-miterlimit="10" stroke-linecap="round"/>
<path d="M46.2979 41.0864C46.2979 41.0864 47.1316 40.4611 48.139 37.96" stroke="#63A3BA" stroke-width="0.45" stroke-miterlimit="10" stroke-linecap="round"/>
<path d="M41.7131 35.5971C41.7131 35.5971 42.5468 34.9718 43.5542 32.4707" stroke="#63A3BA" stroke-width="0.45" stroke-miterlimit="10" stroke-linecap="round"/>
<path d="M102.434 7.25245C102.434 7.25245 99.1683 3.04918 101.218 1.79862C103.267 0.548064 105.247 0.825966 106.29 2.21548C106.741 2.84076 105.317 6.90507 104.553 7.3914C103.788 7.87773 102.468 7.28719 102.468 7.28719L102.434 7.25245Z" fill="#FDECD5" stroke="#675123" stroke-width="0.2" stroke-miterlimit="10"/>
<path d="M101.634 116.815C101.634 116.815 97.0838 114.974 100.28 111.396C100.28 111.396 96.9449 106.429 99.7586 103.58C99.7586 103.58 96.8059 98.1958 100.314 96.6326C100.314 96.6326 95.7291 92.4294 99.2376 89.8588C96.6322 85.7944 99.3765 82.9807 99.3765 82.9807C96.2849 77.77 99.5849 75.7552 99.5849 75.7552C96.007 71.552 99.0291 68.8424 99.0291 68.8424C95.1385 63.076 99.7239 61.1654 99.7239 61.1654C96.9101 57.2053 99.8281 54.7042 99.8281 54.7042C95.0343 50.2925 99.8976 46.784 99.8976 46.784C96.5975 41.9902 99.9671 40.4964 99.9671 40.4964C96.1806 37.1269 99.8281 34.4173 99.8281 34.4173C97.0144 32.3331 97.8828 29.2414 99.5849 28.4772C96.0764 25.4897 99.307 21.1822 99.307 21.1822C96.9796 18.438 99.307 15.3116 99.7586 15.0684C97.1186 10.8304 99.2723 7.42609 103.58 6.87029C107.887 6.31449 109.242 10.7609 108.269 13.5052C110.77 16.6663 107.609 20.1054 107.609 20.1054C110.597 22.9886 107.609 26.5319 107.609 26.5319C109.867 29.7972 107.158 32.3331 107.158 32.3331C110.215 34.2436 107.575 38.0995 107.575 38.0995C109.312 39.1069 110.423 42.3723 107.957 44.2828C110.006 46.3324 110.284 50.1883 107.54 51.6472C107.54 51.6472 112.334 54.8779 107.54 59.498C110.493 61.1307 109.972 65.0908 106.984 66.6887C110.215 69.954 108.061 73.2541 107.123 73.7405C110.354 74.9215 109.138 79.5069 108.165 80.3754C110.771 83.7102 107.714 86.8713 107.436 87.045C110.909 89.3724 109.624 92.2904 108.235 93.8189C111.153 95.7294 110.006 100.106 107.957 101.357C111.014 103.337 109.52 107.054 108.165 108.513C110.562 110.285 109.798 113.654 107.991 115.53C110.041 118.552 108.86 121.783 106.185 122.547C103.51 123.311 99.6544 121.574 101.6 116.815H101.634Z" fill="#F6B372" stroke="#675123" stroke-width="0.2" stroke-miterlimit="10"/>
<path d="M103.268 116.676C103.268 116.676 104.171 116.78 106.325 115.738" stroke="#D89F67" stroke-width="0.4" stroke-miterlimit="10" stroke-linecap="round"/>
<path d="M102.745 110.702C102.745 110.702 103.648 110.702 105.698 109.417" stroke="#D89F67" stroke-width="0.4" stroke-miterlimit="10" stroke-linecap="round"/>
<path d="M102.26 103.025C102.26 103.025 103.163 103.06 105.248 101.878" stroke="#D89F67" stroke-width="0.4" stroke-miterlimit="10" stroke-linecap="round"/>
<path d="M102.572 95.7992C102.572 95.7992 103.475 95.8339 105.56 94.6528" stroke="#D89F67" stroke-width="0.4" stroke-miterlimit="10" stroke-linecap="round"/>
<path d="M101.982 89.2333C101.982 89.2333 102.885 89.268 104.97 88.0869" stroke="#D89F67" stroke-width="0.4" stroke-miterlimit="10" stroke-linecap="round"/>
<path d="M102.085 82.391C102.085 82.391 102.989 82.4257 105.073 81.2446" stroke="#D89F67" stroke-width="0.4" stroke-miterlimit="10" stroke-linecap="round"/>
<path d="M101.877 75.6859C101.877 75.6859 102.78 75.7206 104.864 74.5396" stroke="#D89F67" stroke-width="0.4" stroke-miterlimit="10" stroke-linecap="round"/>
<path d="M101.634 68.5297C101.634 68.5297 102.537 68.5644 104.622 67.3833" stroke="#D89F67" stroke-width="0.4" stroke-miterlimit="10" stroke-linecap="round"/>
<path d="M101.946 61.3041C101.946 61.3041 102.85 61.3388 104.934 60.1577" stroke="#D89F67" stroke-width="0.4" stroke-miterlimit="10" stroke-linecap="round"/>
<path d="M102.155 54.1141C102.155 54.1141 103.058 54.1489 105.142 52.9678" stroke="#D89F67" stroke-width="0.4" stroke-miterlimit="10" stroke-linecap="round"/>
<path d="M102.33 46.5404C102.33 46.5404 103.233 46.5751 105.317 45.394" stroke="#D89F67" stroke-width="0.4" stroke-miterlimit="10" stroke-linecap="round"/>
<path d="M102.33 40.392C102.33 40.392 103.233 40.4267 105.317 39.2456" stroke="#D89F67" stroke-width="0.4" stroke-miterlimit="10" stroke-linecap="round"/>
<path d="M101.843 34.4178C101.843 34.4178 102.746 34.4526 104.83 33.2715" stroke="#D89F67" stroke-width="0.4" stroke-miterlimit="10" stroke-linecap="round"/>
<path d="M101.946 28.1996C101.946 28.1996 102.85 28.2343 104.934 27.0532" stroke="#D89F67" stroke-width="0.4" stroke-miterlimit="10" stroke-linecap="round"/>
<path d="M101.74 21.1822C101.74 21.1822 102.643 21.3212 104.866 20.418" stroke="#D89F67" stroke-width="0.4" stroke-miterlimit="10" stroke-linecap="round"/>
<path d="M102.433 14.9298C102.433 14.9298 103.336 15.0687 105.56 14.1655" stroke="#D89F67" stroke-width="0.4" stroke-miterlimit="10" stroke-linecap="round"/>
<path d="M167.219 16.7361C167.219 16.7361 167.497 10.7264 170.206 11.1433C172.916 11.5601 174.409 13.2623 174.27 15.2076C174.201 16.076 169.998 18.5424 168.956 18.3687C167.913 18.195 167.253 16.7361 167.253 16.7361H167.219Z" fill="#FDEDF1" stroke="#675123" stroke-width="0.23" stroke-miterlimit="10"/>
<path d="M85.8636 110.389C85.8636 110.389 83.293 105.456 88.6773 104.727C88.6773 104.727 89.4763 97.9874 93.9922 97.6053C93.9922 97.6053 95.4165 90.7967 99.585 92.0472C99.585 92.0472 98.7513 85.0649 103.649 85.4123C104.414 79.9932 108.825 79.6111 108.825 79.6111C110.006 72.8373 114.314 73.532 114.314 73.532C114.314 67.2792 118.899 67.175 118.899 67.175C119.768 59.359 125.152 61.0612 125.152 61.0612C125.673 55.5726 130.015 55.6073 130.015 55.6073C129.147 48.2777 135.921 48.8335 135.921 48.8335C136.581 42.268 140.61 43.4839 140.61 43.4839C139.846 37.7869 144.987 38.1343 144.987 38.1343C144.084 34.2436 147.141 32.2636 149.156 32.8541C148.322 27.6782 154.297 26.3929 154.297 26.3929C154.332 22.3286 158.604 21.3559 159.195 21.4601C160.063 15.8674 164.406 14.5473 168.539 17.2221C172.673 19.8969 170.554 24.7602 167.671 26.3929C167.497 30.9435 162.252 31.5688 162.252 31.5688C162.669 36.2584 157.528 37.0921 157.528 37.0921C157.041 41.5733 152.873 41.747 152.873 41.747C154.089 45.6723 148.982 47.0271 148.982 47.0271C149.746 49.1809 148.287 52.7936 144.744 52.6199C144.987 55.8852 142.382 59.4285 138.978 58.6295C138.978 58.6295 140.749 64.9518 133.176 65.4034C134.531 68.9814 131.127 72.0036 127.41 71.2046C127.792 76.3805 123.485 77.6658 122.338 77.3879C124.284 80.7922 119.837 83.8144 118.343 83.8839C118.135 88.6777 113.167 89.1293 112.82 89.0945C114.071 93.6452 110.84 95.2431 108.513 95.4863C109.624 99.2727 105.421 102.191 102.711 101.774C103.892 105.734 99.8629 107.853 97.6049 108.061C98.3344 111.361 95.208 113.689 92.2901 113.967C91.8385 118.066 88.4342 119.976 85.5509 118.691C82.6677 117.406 80.6529 113.064 85.8288 110.389H85.8636Z" fill="#E791BB" stroke="#675123" stroke-width="0.23" stroke-miterlimit="10"/>
<path d="M87.3574 111.465C87.3574 111.465 88.0522 112.23 90.6922 112.924" stroke="#C97FA4" stroke-width="0.45" stroke-miterlimit="10" stroke-linecap="round"/>
<path d="M91.318 105.978C91.318 105.978 92.117 106.638 94.7918 107.02" stroke="#C97FA4" stroke-width="0.45" stroke-miterlimit="10" stroke-linecap="round"/>
<path d="M96.5287 98.9951C96.5287 98.9951 97.2582 99.6899 99.933 100.246" stroke="#C97FA4" stroke-width="0.45" stroke-miterlimit="10" stroke-linecap="round"/>
<path d="M102.121 92.9854C102.121 92.9854 102.85 93.6801 105.525 94.2359" stroke="#C97FA4" stroke-width="0.45" stroke-miterlimit="10" stroke-linecap="round"/>
<path d="M106.463 86.9419C106.463 86.9419 107.193 87.6367 109.868 88.1925" stroke="#C97FA4" stroke-width="0.45" stroke-miterlimit="10" stroke-linecap="round"/>
<path d="M111.604 81.1392C111.604 81.1392 112.334 81.8339 115.009 82.3897" stroke="#C97FA4" stroke-width="0.45" stroke-miterlimit="10" stroke-linecap="round"/>
<path d="M116.364 75.1992C116.364 75.1992 117.093 75.894 119.768 76.4498" stroke="#C97FA4" stroke-width="0.45" stroke-miterlimit="10" stroke-linecap="round"/>
<path d="M121.4 68.8779C121.4 68.8779 122.129 69.5727 124.804 70.1285" stroke="#C97FA4" stroke-width="0.45" stroke-miterlimit="10" stroke-linecap="round"/>
<path d="M126.994 62.8682C126.994 62.8682 127.723 63.5629 130.398 64.1187" stroke="#C97FA4" stroke-width="0.45" stroke-miterlimit="10" stroke-linecap="round"/>
<path d="M132.481 56.8584C132.481 56.8584 133.21 57.5532 135.885 58.109" stroke="#C97FA4" stroke-width="0.45" stroke-miterlimit="10" stroke-linecap="round"/>
<path d="M138.214 50.4673C138.214 50.4673 138.943 51.162 141.618 51.7178" stroke="#C97FA4" stroke-width="0.45" stroke-miterlimit="10" stroke-linecap="round"/>
<path d="M142.765 45.1514C142.765 45.1514 143.494 45.8461 146.169 46.4019" stroke="#C97FA4" stroke-width="0.45" stroke-miterlimit="10" stroke-linecap="round"/>
<path d="M146.724 39.6626C146.724 39.6626 147.453 40.3574 150.128 40.9132" stroke="#C97FA4" stroke-width="0.45" stroke-miterlimit="10" stroke-linecap="round"/>
<path d="M151.414 34.418C151.414 34.418 152.143 35.1127 154.818 35.6685" stroke="#C97FA4" stroke-width="0.45" stroke-miterlimit="10" stroke-linecap="round"/>
<path d="M156.382 28.1997C156.382 28.1997 157.042 28.9987 159.612 29.8324" stroke="#C97FA4" stroke-width="0.45" stroke-miterlimit="10" stroke-linecap="round"/>
<path d="M161.592 23.3369C161.592 23.3369 162.252 24.1359 164.823 24.9696" stroke="#C97FA4" stroke-width="0.45" stroke-miterlimit="10" stroke-linecap="round"/>
<path d="M191.398 56.6839C191.398 56.6839 194.073 51.2996 196.365 52.7586C198.658 54.2175 199.353 56.406 198.449 58.1082C198.033 58.8724 193.169 59.4282 192.301 58.8724C191.432 58.3166 191.398 56.6839 191.398 56.6839Z" fill="#FBF2BF" stroke="#675123" stroke-width="0.23" stroke-miterlimit="10"/>
<path d="M79.2295 109.729C79.2295 109.729 78.8821 104.171 84.0581 105.664C84.0581 105.664 87.4971 99.7936 91.8046 101.287C91.8046 101.287 95.8342 95.6251 99.169 98.4389C99.169 98.4389 101.219 91.6998 105.561 93.9924C108.444 89.3376 112.647 90.7618 112.647 90.7618C116.434 85.0301 120.116 87.427 120.116 87.427C122.652 81.73 126.89 83.4669 126.89 83.4669C130.85 76.6583 135.053 80.41 135.053 80.41C137.728 75.6162 141.688 77.3531 141.688 77.3531C143.807 70.3013 149.817 73.5319 149.817 73.5319C153.082 67.8002 156.243 70.5097 156.243 70.5097C157.806 64.9864 162.392 67.3833 162.392 67.3833C163.156 63.458 166.734 62.8674 168.332 64.2222C169.652 59.1505 175.627 60.3663 175.627 60.3663C177.294 56.6494 181.602 57.4831 182.123 57.8304C185.145 53.0366 189.661 53.5924 192.37 57.6915C195.08 61.7905 191.189 65.4033 187.889 65.7507C185.874 69.8497 180.837 68.3212 180.837 68.3212C179.344 72.8024 174.272 71.4824 174.272 71.4824C172.049 75.373 168.123 73.8793 168.123 73.8793C167.672 77.9436 162.461 77.1446 162.461 77.1446C162.287 79.4373 159.508 82.1469 156.347 80.5489C155.236 83.6406 151.449 85.8291 148.636 83.7448C148.636 83.7448 147.698 90.2408 140.611 87.6007C140.437 91.4218 136.095 92.8114 133.004 90.5881C131.267 95.4862 126.82 94.9304 125.882 94.2009C126.299 98.0915 121.019 99.0642 119.595 98.5431C117.476 102.851 112.751 101.287 112.439 101.079C111.779 105.734 108.166 105.907 105.943 105.213C105.422 109.138 100.42 110.111 98.1269 108.617C97.6405 112.716 93.0899 113.029 90.9361 112.334C90.2761 115.669 86.4897 116.537 83.7107 115.634C81.6612 119.212 77.7705 119.594 75.6515 117.232C73.5325 114.87 73.4283 110.111 79.2643 109.729H79.2295Z" fill="#F7ED81" stroke="#675123" stroke-width="0.23" stroke-miterlimit="10"/>
<path d="M80.1674 111.326C80.1674 111.326 80.5147 112.299 82.6337 114.001" stroke="#D9D176" stroke-width="0.45" stroke-miterlimit="10" stroke-linecap="round"/>
<path d="M86.0039 107.853C86.0039 107.853 86.4555 108.756 88.7482 110.215" stroke="#D9D176" stroke-width="0.45" stroke-miterlimit="10" stroke-linecap="round"/>
<path d="M93.5757 103.58C93.5757 103.58 93.9925 104.518 96.2158 106.081" stroke="#D9D176" stroke-width="0.45" stroke-miterlimit="10" stroke-linecap="round"/>
<path d="M101.115 100.349C101.115 100.349 101.532 101.287 103.755 102.85" stroke="#D9D176" stroke-width="0.45" stroke-miterlimit="10" stroke-linecap="round"/>
<path d="M107.506 96.5625C107.506 96.5625 107.923 97.5004 110.146 99.0636" stroke="#D9D176" stroke-width="0.45" stroke-miterlimit="10" stroke-linecap="round"/>
<path d="M114.557 93.2637C114.557 93.2637 114.974 94.2016 117.197 95.7648" stroke="#D9D176" stroke-width="0.45" stroke-miterlimit="10" stroke-linecap="round"/>
<path d="M121.296 89.7544C121.296 89.7544 121.713 90.6923 123.936 92.2555" stroke="#D9D176" stroke-width="0.45" stroke-miterlimit="10" stroke-linecap="round"/>
<path d="M128.453 86.0024C128.453 86.0024 128.869 86.9404 131.093 88.5036" stroke="#D9D176" stroke-width="0.45" stroke-miterlimit="10" stroke-linecap="round"/>
<path d="M135.99 82.7373C135.99 82.7373 136.407 83.6752 138.63 85.2384" stroke="#D9D176" stroke-width="0.45" stroke-miterlimit="10" stroke-linecap="round"/>
<path d="M143.46 79.4365C143.46 79.4365 143.877 80.3744 146.1 81.9376" stroke="#D9D176" stroke-width="0.45" stroke-miterlimit="10" stroke-linecap="round"/>
<path d="M151.241 75.895C151.241 75.895 151.657 76.8329 153.881 78.3961" stroke="#D9D176" stroke-width="0.45" stroke-miterlimit="10" stroke-linecap="round"/>
<path d="M157.564 72.8721C157.564 72.8721 157.981 73.81 160.204 75.3732" stroke="#D9D176" stroke-width="0.45" stroke-miterlimit="10" stroke-linecap="round"/>
<path d="M163.399 69.4321C163.399 69.4321 163.816 70.3701 166.039 71.9333" stroke="#D9D176" stroke-width="0.45" stroke-miterlimit="10" stroke-linecap="round"/>
<path d="M169.79 66.5151C169.79 66.5151 170.207 67.4531 172.43 69.0163" stroke="#D9D176" stroke-width="0.45" stroke-miterlimit="10" stroke-linecap="round"/>
<path d="M176.843 62.8325C176.843 62.8325 177.121 63.8052 179.135 65.6463" stroke="#D9D176" stroke-width="0.45" stroke-miterlimit="10" stroke-linecap="round"/>
<path d="M183.548 60.436C183.548 60.436 183.826 61.4087 185.84 63.2498" stroke="#D9D176" stroke-width="0.45" stroke-miterlimit="10" stroke-linecap="round"/>
<path d="M20.5913 64.673C20.5913 64.673 14.7207 66.0625 14.408 63.3529C14.0954 60.6434 15.3112 58.7328 17.2218 58.3507C18.0902 58.177 21.5987 61.5466 21.7377 62.5887C21.8766 63.6308 20.6261 64.673 20.6261 64.673H20.5913Z" fill="#D5EAD4" stroke="#675123" stroke-width="0.23" stroke-miterlimit="10"/>
<path d="M133.037 117.127C133.037 117.127 129.007 120.948 126.819 115.98C126.819 115.98 120.114 117.057 118.517 112.819C118.517 112.819 111.569 113.305 111.638 108.963C111.638 108.963 105.143 111.707 104.135 106.879C98.716 107.643 97.1181 103.509 97.1181 103.509C90.3095 104.239 89.7537 99.8966 89.7537 99.8966C83.744 101.599 82.3893 97.2218 82.3893 97.2218C74.608 98.5419 74.8165 92.9143 74.8165 92.9143C69.3974 93.9217 68.2163 89.7532 68.2163 89.7532C61.4424 92.6017 60.0877 85.9321 60.0877 85.9321C53.5917 87.0784 53.6612 82.9099 53.6612 82.9099C48.4158 85.2373 47.3389 80.1656 47.3389 80.1656C43.8304 82.0762 41.0861 79.714 41.1208 77.6297C36.3965 79.8529 33.5133 74.4686 33.5133 74.4686C29.5879 75.5455 27.4689 71.7243 27.4342 71.099C21.8067 71.8285 19.3403 67.9726 20.7645 63.283C22.1888 58.5934 27.4689 59.2882 29.7963 61.5809C34.2428 60.504 36.2923 65.3673 36.2923 65.3673C40.6692 63.6652 42.8925 68.3895 42.8925 68.3895C47.3042 67.6253 48.6589 71.5854 48.6589 71.5854C52.098 69.3274 54.7728 73.8781 54.7728 73.8781C56.6486 72.558 60.5045 72.9749 61.3035 76.4139C64.3951 75.3023 68.4942 76.796 68.7026 80.3045C68.7026 80.3045 74.2954 76.8655 76.7965 84.0215C79.8534 81.7288 83.7093 84.1604 83.9525 87.9816C88.8158 86.21 91.2474 89.9616 91.2821 91.1427C94.0264 88.3637 98.1602 91.768 98.6118 93.1922C103.301 92.0806 105.073 96.7008 105.143 97.0829C109.172 94.6165 111.604 97.2913 112.472 99.445C115.807 97.326 119.767 100.591 120.114 103.301C123.588 101.078 126.749 104.378 127.583 106.462C130.536 104.829 133.662 107.226 134.739 109.936C138.803 109.241 141.582 111.985 141.131 115.112C140.679 118.238 137.066 121.365 133.072 117.127H133.037Z" fill="#9CCD82" stroke="#675123" stroke-width="0.23" stroke-miterlimit="10"/>
<path d="M133.663 115.39C133.663 115.39 134.185 114.522 134.15 111.777" stroke="#689B73" stroke-width="0.45" stroke-miterlimit="10" stroke-linecap="round"/>
<path d="M127.271 113.098C127.271 113.098 127.687 112.16 127.34 109.45" stroke="#689B73" stroke-width="0.45" stroke-miterlimit="10" stroke-linecap="round"/>
<path d="M119.142 110.006C119.142 110.006 119.594 109.103 119.386 106.394" stroke="#689B73" stroke-width="0.45" stroke-miterlimit="10" stroke-linecap="round"/>
<path d="M111.847 106.289C111.847 106.289 112.299 105.385 112.09 102.676" stroke="#689B73" stroke-width="0.45" stroke-miterlimit="10" stroke-linecap="round"/>
<path d="M104.83 103.753C104.83 103.753 105.282 102.85 105.073 100.14" stroke="#689B73" stroke-width="0.45" stroke-miterlimit="10" stroke-linecap="round"/>
<path d="M97.8131 100.454C97.8131 100.454 98.2647 99.5504 98.0563 96.8408" stroke="#689B73" stroke-width="0.45" stroke-miterlimit="10" stroke-linecap="round"/>
<path d="M90.7959 97.5004C90.7959 97.5004 91.2475 96.5972 91.0391 93.8877" stroke="#689B73" stroke-width="0.45" stroke-miterlimit="10" stroke-linecap="round"/>
<path d="M83.3276 94.3744C83.3276 94.3744 83.7792 93.4713 83.5708 90.7617" stroke="#689B73" stroke-width="0.45" stroke-miterlimit="10" stroke-linecap="round"/>
<path d="M76.0325 90.6567C76.0325 90.6567 76.4841 89.7535 76.2756 87.0439" stroke="#689B73" stroke-width="0.45" stroke-miterlimit="10" stroke-linecap="round"/>
<path d="M68.7389 87.0434C68.7389 87.0434 69.1905 86.1402 68.9821 83.4307" stroke="#689B73" stroke-width="0.45" stroke-miterlimit="10" stroke-linecap="round"/>
<path d="M61.0264 83.2934C61.0264 83.2934 61.478 82.3902 61.2695 79.6807" stroke="#689B73" stroke-width="0.45" stroke-miterlimit="10" stroke-linecap="round"/>
<path d="M54.6691 80.3744C54.6691 80.3744 55.1207 79.4713 54.9122 76.7617" stroke="#689B73" stroke-width="0.45" stroke-miterlimit="10" stroke-linecap="round"/>
<path d="M48.2778 78.0829C48.2778 78.0829 48.7294 77.1798 48.521 74.4702" stroke="#689B73" stroke-width="0.45" stroke-miterlimit="10" stroke-linecap="round"/>
<path d="M41.9205 75.0243C41.9205 75.0243 42.3721 74.1212 42.1637 71.4116" stroke="#689B73" stroke-width="0.45" stroke-miterlimit="10" stroke-linecap="round"/>
<path d="M34.6252 71.9335C34.6252 71.9335 35.2158 71.0998 35.32 68.3555" stroke="#689B73" stroke-width="0.45" stroke-miterlimit="10" stroke-linecap="round"/>
<path d="M28.4767 68.2865C28.4767 68.2865 29.0672 67.4528 29.1714 64.7085" stroke="#689B73" stroke-width="0.45" stroke-miterlimit="10" stroke-linecap="round"/>
<path d="M3.46631 93.333V251.181H200.777V93.333H3.46631ZM169.478 153.638H34.7303V120.533H169.478V153.638Z" stroke="#6F5524" stroke-width="0.61" stroke-miterlimit="10"/>
<path d="M200.498 90.0679H3.67409C2.29276 90.0679 1.17297 91.1877 1.17297 92.569V94.0974C1.17297 95.4788 2.29276 96.5986 3.67409 96.5986H200.498C201.879 96.5986 202.999 95.4788 202.999 94.0974V92.569C202.999 91.1877 201.879 90.0679 200.498 90.0679Z" stroke="#6F5524" stroke-width="0.61" stroke-miterlimit="10"/>
<path d="M200.498 247.916H3.67421C2.29288 247.916 1.1731 249.036 1.1731 250.417V251.946C1.1731 253.327 2.29288 254.447 3.67421 254.447H200.498C201.88 254.447 202.999 253.327 202.999 251.946V250.417C202.999 249.036 201.88 247.916 200.498 247.916Z" stroke="#6F5524" stroke-width="0.61" stroke-miterlimit="10"/>
<path d="M200.498 117.268H3.67421C2.29288 117.268 1.1731 118.388 1.1731 119.769V121.298C1.1731 122.679 2.29288 123.799 3.67421 123.799H200.498C201.88 123.799 202.999 122.679 202.999 121.298V119.769C202.999 118.388 201.88 117.268 200.498 117.268Z" stroke="#6F5524" stroke-width="0.61" stroke-miterlimit="10"/>
<path d="M3.29321 93.333V251.181H200.604V93.333H3.29321ZM169.305 153.638H34.5572V120.533H169.305V153.638Z" fill="#ECCF6D"/>
<path d="M200.325 90.0679H3.50112C2.11979 90.0679 1 91.1877 1 92.569V94.0974C1 95.4788 2.11979 96.5986 3.50112 96.5986H200.325C201.707 96.5986 202.826 95.4788 202.826 94.0974V92.569C202.826 91.1877 201.707 90.0679 200.325 90.0679Z" fill="#CDAC4D"/>
<path d="M200.325 247.916H3.50112C2.11979 247.916 1 249.036 1 250.417V251.946C1 253.327 2.11979 254.447 3.50112 254.447H200.325C201.707 254.447 202.826 253.327 202.826 251.946V250.417C202.826 249.036 201.707 247.916 200.325 247.916Z" fill="#D3B14C"/>
<path d="M200.325 117.268H3.50112C2.11979 117.268 1 118.388 1 119.769V121.298C1 122.679 2.11979 123.799 3.50112 123.799H200.325C201.707 123.799 202.826 122.679 202.826 121.298V119.769C202.826 118.388 201.707 117.268 200.325 117.268Z" fill="#D3B14C"/>
<path d="M170.694 153.638H33.4803C32.1565 153.638 31.0834 154.711 31.0834 156.035V159.717C31.0834 161.041 32.1565 162.114 33.4803 162.114H170.694C172.018 162.114 173.091 161.041 173.091 159.717V156.035C173.091 154.711 172.018 153.638 170.694 153.638Z" fill="#D3B14C"/>
<path d="M176.044 248.993V92.2911C176.044 91.0632 175.049 90.0679 173.821 90.0679H171.736C170.509 90.0679 169.513 91.0632 169.513 92.2911V248.993C169.513 250.221 170.509 251.216 171.736 251.216H173.821C175.049 251.216 176.044 250.221 176.044 248.993Z" fill="#D3B14C"/>
<path d="M34.3824 248.993L34.3824 92.2911C34.3824 91.0632 33.3871 90.0679 32.1592 90.0679H30.075C28.8471 90.0679 27.8518 91.0632 27.8518 92.2911L27.8518 248.993C27.8518 250.221 28.8471 251.216 30.075 251.216H32.1592C33.3871 251.216 34.3824 250.221 34.3824 248.993Z" fill="#D3B14C"/>
<path d="M50.5708 182.089V227.908H155.93V182.089H50.5708ZM72.1777 210.401C72.4903 210.644 73.6367 210.783 75.4778 210.783C77.0062 210.783 78.9515 210.679 80.4453 210.54C82.3906 210.331 83.4674 210.123 85.0654 209.636L85.2391 215.194C85.2391 215.194 84.9959 215.194 84.9264 215.194C84.5791 215.194 83.6411 215.229 82.5295 215.333C79.7505 215.577 76.9715 215.75 74.8872 215.75C71.2745 215.75 69.4681 215.438 68.2523 214.604C67.3839 214.013 66.8975 213.11 66.6891 211.755C66.6196 211.234 66.6196 210.991 66.5849 208.837V196.957C66.5849 195.324 66.5502 195.012 66.4459 194.248H71.9693C71.865 194.977 71.8303 195.672 71.8303 196.992V200.674C74.8177 200.014 78.2915 198.729 80.8969 197.339C80.48 196.089 80.2716 195.568 79.7505 194.595L82.599 193.9C83.3632 195.255 83.6759 195.984 84.1622 197.478L83.0159 197.86L85.3085 201.195C80.5495 203.488 76.7978 204.738 71.8303 205.676V208.247C71.8303 209.81 71.865 210.157 72.1429 210.401H72.1777ZM84.857 197.409C84.3011 195.707 83.919 194.803 83.2938 193.692L86.0728 192.893C86.8023 194.074 87.2539 195.081 87.7402 196.471L84.8222 197.409H84.857ZM112.578 207.9C111.049 207.761 110.841 207.761 106.672 207.761H95.452C91.2487 207.761 91.0403 207.761 89.5466 207.9V202.203C91.214 202.411 91.8392 202.446 95.452 202.446H106.707C110.285 202.446 110.91 202.446 112.612 202.203V207.9H112.578ZM123.555 200.292C123.381 205.85 122.86 208.803 121.644 211.582C120.741 213.631 119.803 215.09 118.205 216.827C116.468 214.604 115.808 213.944 113.932 212.589C115.079 211.616 115.6 210.956 116.295 209.636C117.754 206.857 118.309 203.488 118.309 197.166C118.309 195.324 118.309 194.803 118.17 194.004L123.798 194.317C123.728 194.942 123.636 196.934 123.52 200.292H123.555ZM132.969 214.673C131.961 215.299 131.058 215.715 129.599 216.202C129.356 216.306 129.078 216.376 128.8 216.48C128.383 216.653 128.244 216.723 127.932 216.897L125.396 214.257C125.639 213.701 125.709 213.353 125.709 212.485L125.847 196.54V195.359C125.847 194.803 125.847 194.456 125.743 193.865H131.301C131.162 194.803 131.162 195.29 131.128 196.644L130.989 209.706C132.135 208.907 132.795 208.212 133.559 206.962C134.324 205.676 134.775 204.565 135.192 202.863C136.686 204.669 137.207 205.19 139.187 206.788C137.728 210.47 135.852 212.936 133.003 214.708L132.969 214.673Z" fill="#ED6F4B"/>
</svg>
