<svg width="205" height="283" viewBox="0 0 205 283" fill="none" xmlns="http://www.w3.org/2000/svg">
<g clip-path="url(#clip0_323_1451)">
<path d="M198.567 20.008L132.979 0.370023C131.354 -0.11668 129.641 0.804711 129.153 2.42801L96.1109 112.482C95.6235 114.106 96.5462 115.816 98.1717 116.303L163.76 135.941C165.386 136.428 167.099 135.506 167.586 133.883L200.628 23.8285C201.116 22.2052 200.193 20.4947 198.567 20.008Z" fill="#DCDDDD" stroke="#695224" stroke-width="0.13" stroke-miterlimit="10"/>
<path d="M192.471 23.1851L136.314 6.37121C134.855 5.93428 133.317 6.76144 132.88 8.21871L102.314 110.023C101.877 111.481 102.705 113.016 104.164 113.453L160.321 130.267C161.78 130.704 163.318 129.877 163.755 128.419L194.321 26.6149C194.758 25.1576 193.93 23.6221 192.471 23.1851Z" stroke="#EE7B60" stroke-width="0.5" stroke-miterlimit="10"/>
<path d="M136.597 44.7725C139.663 44.7725 142.149 42.2903 142.149 39.2283C142.149 36.1663 139.663 33.6841 136.597 33.6841C133.531 33.6841 131.045 36.1663 131.045 39.2283C131.045 42.2903 133.531 44.7725 136.597 44.7725Z" fill="#F6AE61" stroke="#695224" stroke-width="0.03" stroke-miterlimit="10"/>
<path d="M164.147 89.3355C167.213 89.3355 169.698 86.8533 169.698 83.7913C169.698 80.7293 167.213 78.2471 164.147 78.2471C161.08 78.2471 158.595 80.7293 158.595 83.7913C158.595 86.8533 161.08 89.3355 164.147 89.3355Z" fill="#F6AE61" stroke="#695224" stroke-width="0.03" stroke-miterlimit="10"/>
<path d="M154.16 122.636C157.226 122.636 159.712 120.154 159.712 117.092C159.712 114.03 157.226 111.547 154.16 111.547C151.094 111.547 148.608 114.03 148.608 117.092C148.608 120.154 151.094 122.636 154.16 122.636Z" fill="#F6AE61" stroke="#695224" stroke-width="0.03" stroke-miterlimit="10"/>
<path d="M135.2 116.952C138.266 116.952 140.752 114.47 140.752 111.408C140.752 108.346 138.266 105.864 135.2 105.864C132.134 105.864 129.648 108.346 129.648 111.408C129.648 114.47 132.134 116.952 135.2 116.952Z" fill="#F6AE61" stroke="#695224" stroke-width="0.03" stroke-miterlimit="10"/>
<path d="M174.168 56.0352C177.234 56.0352 179.72 53.553 179.72 50.491C179.72 47.429 177.234 44.9468 174.168 44.9468C171.102 44.9468 168.616 47.429 168.616 50.491C168.616 53.553 171.102 56.0352 174.168 56.0352Z" fill="#F6AE61" stroke="#695224" stroke-width="0.03" stroke-miterlimit="10"/>
<path d="M141.8 27.4425C144.866 27.4425 147.351 24.9602 147.351 21.8982C147.351 18.8362 144.866 16.354 141.8 16.354C138.733 16.354 136.248 18.8362 136.248 21.8982C136.248 24.9602 138.733 27.4425 141.8 27.4425Z" fill="#EF846F" stroke="#695224" stroke-width="0.03" stroke-miterlimit="10"/>
<path d="M145.815 83.8263C148.881 83.8263 151.367 81.344 151.367 78.282C151.367 75.22 148.881 72.7378 145.815 72.7378C142.749 72.7378 140.263 75.22 140.263 78.282C140.263 81.344 142.749 83.8263 145.815 83.8263Z" fill="#EF846F" stroke="#695224" stroke-width="0.03" stroke-miterlimit="10"/>
<path d="M116.589 111.373C119.655 111.373 122.141 108.891 122.141 105.829C122.141 102.767 119.655 100.285 116.589 100.285C113.523 100.285 111.037 102.767 111.037 105.829C111.037 108.891 113.523 111.373 116.589 111.373Z" fill="#EF846F" stroke="#695224" stroke-width="0.03" stroke-miterlimit="10"/>
<path d="M155.208 50.3516C158.274 50.3516 160.76 47.8694 160.76 44.8074C160.76 41.7454 158.274 39.2632 155.208 39.2632C152.142 39.2632 149.656 41.7454 149.656 44.8074C149.656 47.8694 152.142 50.3516 155.208 50.3516Z" fill="#EF846F" stroke="#695224" stroke-width="0.03" stroke-miterlimit="10"/>
<path d="M160.445 32.9864C163.512 32.9864 165.997 30.5042 165.997 27.4422C165.997 24.3802 163.512 21.8979 160.445 21.8979C157.379 21.8979 154.894 24.3802 154.894 27.4422C154.894 30.5042 157.379 32.9864 160.445 32.9864Z" fill="#FFE857" stroke="#695224" stroke-width="0.03" stroke-miterlimit="10"/>
<path d="M169.175 72.6681C172.241 72.6681 174.727 70.1858 174.727 67.1238C174.727 64.0618 172.241 61.5796 169.175 61.5796C166.108 61.5796 163.623 64.0618 163.623 67.1238C163.623 70.1858 166.108 72.6681 169.175 72.6681Z" fill="#FFE857" stroke="#695224" stroke-width="0.03" stroke-miterlimit="10"/>
<path d="M126.576 78.0728C129.642 78.0728 132.127 75.5906 132.127 72.5286C132.127 69.4666 129.642 66.9844 126.576 66.9844C123.509 66.9844 121.024 69.4666 121.024 72.5286C121.024 75.5906 123.509 78.0728 126.576 78.0728Z" fill="#FFE857" stroke="#695224" stroke-width="0.03" stroke-miterlimit="10"/>
<path d="M121.582 94.7403C124.648 94.7403 127.134 92.2581 127.134 89.1961C127.134 86.1341 124.648 83.6519 121.582 83.6519C118.516 83.6519 116.03 86.1341 116.03 89.1961C116.03 92.2581 118.516 94.7403 121.582 94.7403Z" fill="#FFE857" stroke="#695224" stroke-width="0.03" stroke-miterlimit="10"/>
<path d="M179.371 38.6353C182.437 38.6353 184.922 36.1531 184.922 33.0911C184.922 30.0291 182.437 27.5469 179.371 27.5469C176.304 27.5469 173.819 30.0291 173.819 33.0911C173.819 36.1531 176.304 38.6353 179.371 38.6353Z" fill="#ABD27A" stroke="#695224" stroke-width="0.03" stroke-miterlimit="10"/>
<path d="M150.215 67.0191C153.281 67.0191 155.766 64.5369 155.766 61.4749C155.766 58.4129 153.281 55.9307 150.215 55.9307C147.148 55.9307 144.663 58.4129 144.663 61.4749C144.663 64.5369 147.148 67.0191 150.215 67.0191Z" fill="#ABD27A" stroke="#695224" stroke-width="0.03" stroke-miterlimit="10"/>
<path d="M140.228 100.319C143.294 100.319 145.78 97.8372 145.78 94.7752C145.78 91.7132 143.294 89.231 140.228 89.231C137.162 89.231 134.676 91.7132 134.676 94.7752C134.676 97.8372 137.162 100.319 140.228 100.319Z" fill="#ABD27A" stroke="#695224" stroke-width="0.03" stroke-miterlimit="10"/>
<path d="M158.385 105.759C161.451 105.759 163.937 103.277 163.937 100.215C163.937 97.1526 161.451 94.6704 158.385 94.6704C155.319 94.6704 152.833 97.1526 152.833 100.215C152.833 103.277 155.319 105.759 158.385 105.759Z" fill="#ABD27A" stroke="#695224" stroke-width="0.03" stroke-miterlimit="10"/>
<path d="M131.604 61.44C134.67 61.44 137.155 58.9578 137.155 55.8958C137.155 52.8338 134.67 50.3516 131.604 50.3516C128.537 50.3516 126.052 52.8338 126.052 55.8958C126.052 58.9578 128.537 61.44 131.604 61.44Z" fill="#ABD27A" stroke="#695224" stroke-width="0.03" stroke-miterlimit="10"/>
<path d="M78.4594 34.5903C50.1414 34.5903 27.2007 57.4995 27.2007 85.7786C27.2007 114.058 50.1414 136.967 78.4594 136.967C106.777 136.967 129.718 114.058 129.718 85.7786C129.718 57.4995 106.777 34.5903 78.4594 34.5903ZM78.1801 105.863C67.0763 105.863 58.0677 96.8671 58.0677 85.7786C58.0677 74.6901 67.0763 65.6938 78.1801 65.6938C89.2838 65.6938 98.2925 74.6901 98.2925 85.7786C98.2925 96.8671 89.2838 105.863 78.1801 105.863Z" fill="#C9CACA" stroke="#695224" stroke-width="0.08" stroke-miterlimit="10"/>
<path d="M78.1801 62.5555C81.0728 62.5555 83.4177 60.2138 83.4177 57.3251C83.4177 54.4365 81.0728 52.0947 78.1801 52.0947C75.2875 52.0947 72.9425 54.4365 72.9425 57.3251C72.9425 60.2138 75.2875 62.5555 78.1801 62.5555Z" fill="#ABD27A" stroke="#695224" stroke-width="0.04" stroke-miterlimit="10"/>
<path d="M67.7049 53.2108C70.5975 53.2108 72.9425 50.8691 72.9425 47.9804C72.9425 45.0917 70.5975 42.75 67.7049 42.75C64.8122 42.75 62.4673 45.0917 62.4673 47.9804C62.4673 50.8691 64.8122 53.2108 67.7049 53.2108Z" fill="#E69ABB" stroke="#695224" stroke-width="0.04" stroke-miterlimit="10"/>
<path d="M88.9346 52.0946C91.8273 52.0946 94.1722 49.7529 94.1722 46.8642C94.1722 43.9755 91.8273 41.6338 88.9346 41.6338C86.042 41.6338 83.697 43.9755 83.697 46.8642C83.697 49.7529 86.042 52.0946 88.9346 52.0946Z" fill="#FFE857" stroke="#695224" stroke-width="0.04" stroke-miterlimit="10"/>
<path d="M106.324 63.9154C109.216 63.9154 111.561 61.5737 111.561 58.685C111.561 55.7963 109.216 53.4546 106.324 53.4546C103.431 53.4546 101.086 55.7963 101.086 58.685C101.086 61.5737 103.431 63.9154 106.324 63.9154Z" fill="#EF846F" stroke="#695224" stroke-width="0.04" stroke-miterlimit="10"/>
<path d="M114.808 82.6053C117.701 82.6053 120.046 80.2636 120.046 77.3749C120.046 74.4863 117.701 72.1445 114.808 72.1445C111.916 72.1445 109.571 74.4863 109.571 77.3749C109.571 80.2636 111.916 82.6053 114.808 82.6053Z" fill="#FFE857" stroke="#695224" stroke-width="0.04" stroke-miterlimit="10"/>
<path d="M116.799 101.47C119.691 101.47 122.036 99.1279 122.036 96.2392C122.036 93.3505 119.691 91.0088 116.799 91.0088C113.906 91.0088 111.561 93.3505 111.561 96.2392C111.561 99.1279 113.906 101.47 116.799 101.47Z" fill="#E69ABB" stroke="#695224" stroke-width="0.04" stroke-miterlimit="10"/>
<path d="M106.324 117.091C109.216 117.091 111.561 114.749 111.561 111.861C111.561 108.972 109.216 106.63 106.324 106.63C103.431 106.63 101.086 108.972 101.086 111.861C101.086 114.749 103.431 117.091 106.324 117.091Z" fill="#E69ABB" stroke="#695224" stroke-width="0.04" stroke-miterlimit="10"/>
<path d="M88.9346 126.332C91.8273 126.332 94.1722 123.99 94.1722 121.102C94.1722 118.213 91.8273 115.871 88.9346 115.871C86.042 115.871 83.697 118.213 83.697 121.102C83.697 123.99 86.042 126.332 88.9346 126.332Z" fill="#ABD27A" stroke="#695224" stroke-width="0.04" stroke-miterlimit="10"/>
<path d="M67.7049 126.332C70.5975 126.332 72.9425 123.99 72.9425 121.102C72.9425 118.213 70.5975 115.871 67.7049 115.871C64.8122 115.871 62.4673 118.213 62.4673 121.102C62.4673 123.99 64.8122 126.332 67.7049 126.332Z" fill="#FFE857" stroke="#695224" stroke-width="0.04" stroke-miterlimit="10"/>
<path d="M50.77 115.871C53.6626 115.871 56.0076 113.529 56.0076 110.641C56.0076 107.752 53.6626 105.41 50.77 105.41C47.8773 105.41 45.5323 107.752 45.5323 110.641C45.5323 113.529 47.8773 115.871 50.77 115.871Z" fill="#F6AE61" stroke="#695224" stroke-width="0.04" stroke-miterlimit="10"/>
<path d="M40.9233 98.1923C43.8159 98.1923 46.1609 95.8505 46.1609 92.9619C46.1609 90.0732 43.8159 87.7314 40.9233 87.7314C38.0306 87.7314 35.6857 90.0732 35.6857 92.9619C35.6857 95.8505 38.0306 98.1923 40.9233 98.1923Z" fill="#ABD27A" stroke="#695224" stroke-width="0.04" stroke-miterlimit="10"/>
<path d="M41.0978 80.5482C43.9905 80.5482 46.3354 78.2065 46.3354 75.3178C46.3354 72.4291 43.9905 70.0874 41.0978 70.0874C38.2052 70.0874 35.8602 72.4291 35.8602 75.3178C35.8602 78.2065 38.2052 80.5482 41.0978 80.5482Z" fill="#936C10" stroke="#695224" stroke-width="0.04" stroke-miterlimit="10"/>
<path d="M50.1414 62.2069C53.0341 62.2069 55.379 59.8652 55.379 56.9765C55.379 54.0878 53.0341 51.7461 50.1414 51.7461C47.2488 51.7461 44.9038 54.0878 44.9038 56.9765C44.9038 59.8652 47.2488 62.2069 50.1414 62.2069Z" fill="#E69ABB" stroke="#695224" stroke-width="0.04" stroke-miterlimit="10"/>
<path d="M78.4594 119.079C81.3521 119.079 83.697 116.737 83.697 113.849C83.697 110.96 81.3521 108.618 78.4594 108.618C75.5668 108.618 73.2218 110.96 73.2218 113.849C73.2218 116.737 75.5668 119.079 78.4594 119.079Z" fill="#ABD27A" stroke="#695224" stroke-width="0.04" stroke-miterlimit="10"/>
<path d="M106.324 91.0092C109.216 91.0092 111.561 88.6674 111.561 85.7787C111.561 82.8901 109.216 80.5483 106.324 80.5483C103.431 80.5483 101.086 82.8901 101.086 85.7787C101.086 88.6674 103.431 91.0092 106.324 91.0092Z" fill="#F6AE61" stroke="#695224" stroke-width="0.04" stroke-miterlimit="10"/>
<path d="M50.77 90.1024C53.6626 90.1024 56.0076 87.7607 56.0076 84.872C56.0076 81.9833 53.6626 79.6416 50.77 79.6416C47.8773 79.6416 45.5323 81.9833 45.5323 84.872C45.5323 87.7607 47.8773 90.1024 50.77 90.1024Z" fill="#EF846F" stroke="#695224" stroke-width="0.04" stroke-miterlimit="10"/>
<path d="M63.5497 66.705C66.4424 66.705 68.7874 64.3632 68.7874 61.4745C68.7874 58.5859 66.4424 56.2441 63.5497 56.2441C60.6571 56.2441 58.3121 58.5859 58.3121 61.4745C58.3121 64.3632 60.6571 66.705 63.5497 66.705Z" fill="#F6AE61" stroke="#695224" stroke-width="0.04" stroke-miterlimit="10"/>
<path d="M53.1094 76.1547C56.0021 76.1547 58.347 73.8129 58.347 70.9243C58.347 68.0356 56.0021 65.6938 53.1094 65.6938C50.2168 65.6938 47.8718 68.0356 47.8718 70.9243C47.8718 73.8129 50.2168 76.1547 53.1094 76.1547Z" fill="#FFE857" stroke="#695224" stroke-width="0.04" stroke-miterlimit="10"/>
<path d="M53.7029 104.016C56.5956 104.016 58.9405 101.674 58.9405 98.7851C58.9405 95.8964 56.5956 93.5547 53.7029 93.5547C50.8103 93.5547 48.4653 95.8964 48.4653 98.7851C48.4653 101.674 50.8103 104.016 53.7029 104.016Z" fill="#F6AE61" stroke="#695224" stroke-width="0.04" stroke-miterlimit="10"/>
<path d="M63.5497 114.476C66.4424 114.476 68.7874 112.134 68.7874 109.246C68.7874 106.357 66.4424 104.015 63.5497 104.015C60.6571 104.015 58.3121 106.357 58.3121 109.246C58.3121 112.134 60.6571 114.476 63.5497 114.476Z" fill="#E69ABB" stroke="#695224" stroke-width="0.04" stroke-miterlimit="10"/>
<path d="M93.5088 113.849C96.4015 113.849 98.7465 111.507 98.7465 108.618C98.7465 105.729 96.4015 103.388 93.5088 103.388C90.6162 103.388 88.2712 105.729 88.2712 108.618C88.2712 111.507 90.6162 113.849 93.5088 113.849Z" fill="#936C10" stroke="#695224" stroke-width="0.04" stroke-miterlimit="10"/>
<path d="M103.53 103.423C106.423 103.423 108.768 101.081 108.768 98.1923C108.768 95.3036 106.423 92.9619 103.53 92.9619C100.637 92.9619 98.2925 95.3036 98.2925 98.1923C98.2925 101.081 100.637 103.423 103.53 103.423Z" fill="#EF846F" stroke="#695224" stroke-width="0.04" stroke-miterlimit="10"/>
<path d="M102.518 76.1547C105.41 76.1547 107.755 73.8129 107.755 70.9243C107.755 68.0356 105.41 65.6938 102.518 65.6938C99.6249 65.6938 97.2799 68.0356 97.2799 70.9243C97.2799 73.8129 99.6249 76.1547 102.518 76.1547Z" fill="#ABD27A" stroke="#695224" stroke-width="0.04" stroke-miterlimit="10"/>
<path d="M93.0549 65.6937C95.9475 65.6937 98.2925 63.352 98.2925 60.4633C98.2925 57.5746 95.9475 55.2329 93.0549 55.2329C90.1622 55.2329 87.8173 57.5746 87.8173 60.4633C87.8173 63.352 90.1622 65.6937 93.0549 65.6937Z" fill="#936C10" stroke="#695224" stroke-width="0.04" stroke-miterlimit="10"/>
<path d="M3.35205 120.195V278.641H201.683V120.195H3.35205ZM170.222 180.693H34.7777V147.463H170.222V180.693Z" stroke="#6F5524" stroke-width="0.61" stroke-miterlimit="10"/>
<path d="M201.403 116.917H3.56154C2.17306 116.917 1.04749 118.041 1.04749 119.428V120.962C1.04749 122.348 2.17306 123.472 3.56154 123.472H201.403C202.792 123.472 203.918 122.348 203.918 120.962V119.428C203.918 118.041 202.792 116.917 201.403 116.917Z" stroke="#6F5524" stroke-width="0.61" stroke-miterlimit="10"/>
<path d="M201.403 275.363H3.56154C2.17306 275.363 1.04749 276.487 1.04749 277.874V279.408C1.04749 280.795 2.17306 281.919 3.56154 281.919H201.403C202.792 281.919 203.918 280.795 203.918 279.408V277.874C203.918 276.487 202.792 275.363 201.403 275.363Z" stroke="#6F5524" stroke-width="0.61" stroke-miterlimit="10"/>
<path d="M201.403 144.185H3.56154C2.17306 144.185 1.04749 145.309 1.04749 146.696V148.23C1.04749 149.616 2.17306 150.741 3.56154 150.741H201.403C202.792 150.741 203.918 149.616 203.918 148.23V146.696C203.918 145.309 202.792 144.185 201.403 144.185Z" stroke="#6F5524" stroke-width="0.61" stroke-miterlimit="10"/>
<path d="M3.17749 120.195V278.641H201.508V120.195H3.17749ZM170.048 180.693H34.6031V147.463H170.048V180.693Z" fill="#ECCF6D"/>
<path d="M201.229 116.917H3.38698C1.9985 116.917 0.872925 118.041 0.872925 119.428V120.962C0.872925 122.348 1.9985 123.472 3.38698 123.472H201.229C202.617 123.472 203.743 122.348 203.743 120.962V119.428C203.743 118.041 202.617 116.917 201.229 116.917Z" fill="#CDAC4D"/>
<path d="M201.229 275.364H3.38698C1.9985 275.364 0.872925 276.488 0.872925 277.874V279.409C0.872925 280.795 1.9985 281.919 3.38698 281.919H201.229C202.617 281.919 203.743 280.795 203.743 279.409V277.874C203.743 276.488 202.617 275.364 201.229 275.364Z" fill="#D3B14C"/>
<path d="M201.229 144.185H3.38698C1.9985 144.185 0.872925 145.309 0.872925 146.696V148.23C0.872925 149.616 1.9985 150.741 3.38698 150.741H201.229C202.617 150.741 203.743 149.616 203.743 148.23V146.696C203.743 145.309 202.617 144.185 201.229 144.185Z" fill="#D3B14C"/>
<path d="M171.444 180.693H33.5206C32.19 180.693 31.1113 181.771 31.1113 183.099V186.796C31.1113 188.124 32.19 189.201 33.5206 189.201H171.444C172.775 189.201 173.854 188.124 173.854 186.796V183.099C173.854 181.771 172.775 180.693 171.444 180.693Z" fill="#D3B14C"/>
<path d="M176.787 276.444V119.149C176.787 117.916 175.786 116.917 174.552 116.917H172.457C171.223 116.917 170.222 117.916 170.222 119.149V276.444C170.222 277.677 171.223 278.676 172.457 278.676H174.552C175.786 278.676 176.787 277.677 176.787 276.444Z" fill="#D3B14C"/>
<path d="M34.3937 276.444L34.3937 119.149C34.3937 117.916 33.3932 116.917 32.159 116.917H30.0639C28.8297 116.917 27.8292 117.916 27.8292 119.149L27.8292 276.444C27.8292 277.677 28.8297 278.676 30.0639 278.676H32.159C33.3932 278.676 34.3937 277.677 34.3937 276.444Z" fill="#D3B14C"/>
<path d="M50.7001 209.286V255.279H156.605V209.286H50.7001ZM72.4187 237.705C72.7329 237.949 73.8852 238.088 75.7358 238.088C77.2722 238.088 79.2276 237.984 80.729 237.844C82.6844 237.635 83.7668 237.426 85.373 236.938L85.5476 242.517C85.5476 242.517 85.3032 242.517 85.2334 242.517C84.8842 242.517 83.9414 242.552 82.8241 242.656C80.0307 242.9 77.2373 243.075 75.1422 243.075C71.5108 243.075 69.6951 242.761 68.473 241.924C67.6001 241.331 67.1112 240.424 66.9017 239.065C66.8319 238.542 66.8319 238.297 66.797 236.136V224.21C66.797 222.571 66.7621 222.258 66.6573 221.49H72.2092C72.1044 222.223 72.0695 222.92 72.0695 224.245V227.941C75.0724 227.279 78.5642 225.989 81.183 224.594C80.7639 223.339 80.5544 222.815 80.0307 221.839L82.8939 221.142C83.6621 222.502 83.9763 223.234 84.4652 224.733L83.3129 225.117L85.6175 228.464C80.8338 230.766 77.0627 232.021 72.0695 232.962V235.543C72.0695 237.112 72.1044 237.461 72.3838 237.705H72.4187ZM85.1635 224.629C84.6049 222.92 84.2208 222.013 83.5923 220.898L86.3856 220.096C87.1189 221.281 87.5728 222.292 88.0617 223.687L85.1286 224.629H85.1635ZM113.028 235.194C111.491 235.055 111.282 235.055 107.092 235.055H95.8133C91.5883 235.055 91.3788 235.055 89.8774 235.194V229.476C91.5534 229.685 92.1819 229.72 95.8133 229.72H107.127C110.723 229.72 111.352 229.72 113.063 229.476V235.194H113.028ZM124.062 227.558C123.887 233.137 123.363 236.101 122.141 238.89C121.233 240.948 120.29 242.412 118.684 244.156C116.938 241.924 116.275 241.261 114.389 239.901C115.542 238.925 116.065 238.263 116.764 236.938C118.23 234.148 118.789 230.766 118.789 224.419C118.789 222.571 118.789 222.048 118.649 221.246L124.306 221.56C124.236 222.188 124.143 224.187 124.027 227.558H124.062ZM133.524 241.994C132.512 242.621 131.604 243.04 130.137 243.528C129.893 243.632 129.613 243.702 129.334 243.807C128.915 243.981 128.775 244.051 128.461 244.225L125.912 241.575C126.157 241.017 126.226 240.669 126.226 239.797L126.366 223.792V222.606C126.366 222.048 126.366 221.7 126.261 221.107H131.848C131.708 222.048 131.708 222.536 131.674 223.896L131.534 237.007C132.686 236.205 133.35 235.508 134.118 234.253C134.886 232.962 135.34 231.847 135.759 230.138C137.26 231.951 137.784 232.474 139.774 234.078C138.308 237.774 136.422 240.25 133.559 242.028L133.524 241.994Z" fill="#ED6F4B"/>
</g>
<defs>
<clipPath id="clip0_323_1451">
<rect width="205" height="283" fill="white"/>
</clipPath>
</defs>
</svg>
