<svg width="202" height="290" viewBox="0 0 202 290" fill="none" xmlns="http://www.w3.org/2000/svg">
<path d="M145.163 125.98L78.1392 125.463L79.7563 15.2432L146.814 15.7605L145.163 125.98Z" fill="#EC6D5D" stroke="#55401D" stroke-width="0.37" stroke-miterlimit="10"/>
<path d="M79.8251 1L79.6187 15.2776L86.6031 15.312L86.8096 1.03449L83.2657 4.20728L79.8251 1Z" fill="#E06A5B" stroke="#55401D" stroke-width="0.23" stroke-miterlimit="10"/>
<path d="M87.4288 1.03467L87.188 15.3122L94.1725 15.3812L94.4133 1.10364L90.8695 4.27643L87.4288 1.03467Z" fill="white" stroke="#55401D" stroke-width="0.23" stroke-miterlimit="10"/>
<path d="M94.964 1.10352L94.7576 15.3811L101.742 15.4156L101.949 1.138L98.4046 4.34528L94.964 1.10352Z" fill="#E06A5B" stroke="#55401D" stroke-width="0.23" stroke-miterlimit="10"/>
<path d="M102.499 1.13818L102.292 15.4157L109.277 15.4847L109.483 1.20716L105.94 4.37995L102.499 1.13818Z" fill="white" stroke="#55401D" stroke-width="0.23" stroke-miterlimit="10"/>
<path d="M110.068 1.20703L109.827 15.4846L116.812 15.5536L117.053 1.276L113.509 4.4488L110.068 1.20703Z" fill="#E06A5B" stroke="#55401D" stroke-width="0.23" stroke-miterlimit="10"/>
<path d="M117.603 1.27588L117.397 15.5534L124.381 15.5879L124.588 1.31037L121.044 4.48316L117.603 1.27588Z" fill="white" stroke="#55401D" stroke-width="0.23" stroke-miterlimit="10"/>
<path d="M125.138 1.31055L124.932 15.5881L131.916 15.6571L132.123 1.37952L128.579 4.55231L125.138 1.31055Z" fill="#E06A5B" stroke="#55401D" stroke-width="0.23" stroke-miterlimit="10"/>
<path d="M140.208 1.44824L140.002 15.7258L146.986 15.7603L147.193 1.48273L143.649 4.65552L140.208 1.44824Z" fill="#E06A5B" stroke="#55401D" stroke-width="0.23" stroke-miterlimit="10"/>
<path d="M132.673 1.37939L132.467 15.657L139.451 15.7259L139.658 1.44837L136.114 4.62116L132.673 1.37939Z" fill="white" stroke="#55401D" stroke-width="0.23" stroke-miterlimit="10"/>
<path d="M145.197 140.258L145.404 125.98L138.419 125.911L138.213 140.189L141.757 137.016L145.197 140.258Z" fill="#E06A5B" stroke="#55401D" stroke-width="0.23" stroke-miterlimit="10"/>
<path d="M137.593 140.189L137.8 125.911L130.815 125.842L130.609 140.12L134.153 136.947L137.593 140.189Z" fill="white" stroke="#55401D" stroke-width="0.23" stroke-miterlimit="10"/>
<path d="M130.058 140.12L130.265 125.842L123.28 125.808L123.074 140.085L126.618 136.912L130.058 140.12Z" fill="#E06A5B" stroke="#55401D" stroke-width="0.23" stroke-miterlimit="10"/>
<path d="M122.524 140.085L122.73 125.808L115.745 125.739L115.539 140.016L119.049 136.844L122.524 140.085Z" fill="white" stroke="#55401D" stroke-width="0.23" stroke-miterlimit="10"/>
<path d="M114.954 140.016L115.195 125.739L108.176 125.704L107.969 139.982L111.513 136.774L114.954 140.016Z" fill="#E06A5B" stroke="#55401D" stroke-width="0.23" stroke-miterlimit="10"/>
<path d="M107.419 139.982L107.626 125.704L100.641 125.635L100.435 139.913L103.978 136.74L107.419 139.982Z" fill="white" stroke="#55401D" stroke-width="0.23" stroke-miterlimit="10"/>
<path d="M99.8842 139.913L100.091 125.635L93.1061 125.566L92.8997 139.844L96.4435 136.671L99.8842 139.913Z" fill="#E06A5B" stroke="#55401D" stroke-width="0.23" stroke-miterlimit="10"/>
<path d="M84.8141 139.809L85.0205 125.532L78.036 125.463L77.8296 139.74L81.339 136.568L84.8141 139.809Z" fill="#E06A5B" stroke="#55401D" stroke-width="0.23" stroke-miterlimit="10"/>
<path d="M92.349 139.844L92.5554 125.566L85.5709 125.532L85.3645 139.809L88.874 136.636L92.349 139.844Z" fill="white" stroke="#55401D" stroke-width="0.23" stroke-miterlimit="10"/>
<path d="M99.2302 133.326L42.0467 145.983L22.0222 51.8681L79.1713 39.2114L99.2302 133.326Z" fill="white" stroke="#55401D" stroke-width="0.33" stroke-miterlimit="10"/>
<path d="M19.3042 39.6943L21.8847 51.9026L27.837 50.5921L25.2565 38.3838L22.8481 41.798L19.3042 39.6943Z" fill="#E16CA5" stroke="#55401D" stroke-width="0.2" stroke-miterlimit="10"/>
<path d="M25.7727 38.2802L28.3532 50.4541L34.3055 49.1436L31.725 36.9697L29.3166 40.3494L25.7727 38.2802Z" fill="white" stroke="#55401D" stroke-width="0.2" stroke-miterlimit="10"/>
<path d="M32.1721 36.832L34.787 49.0403L40.7393 47.7298L38.1244 35.5215L35.7504 38.9357L32.1721 36.832Z" fill="#E16CA5" stroke="#55401D" stroke-width="0.2" stroke-miterlimit="10"/>
<path d="M38.6406 35.4179L41.2211 47.6263L47.1734 46.2813L44.5929 34.1074L42.1845 37.4871L38.6406 35.4179Z" fill="white" stroke="#55401D" stroke-width="0.2" stroke-miterlimit="10"/>
<path d="M45.0747 34.0042L47.6552 46.178L53.6075 44.8675L51.027 32.6592L48.6186 36.0734L45.0747 34.0042Z" fill="#E16CA5" stroke="#55401D" stroke-width="0.2" stroke-miterlimit="10"/>
<path d="M51.4741 32.5556L54.089 44.764L60.0413 43.4535L57.4608 31.2451L55.0524 34.6593L51.4741 32.5556Z" fill="white" stroke="#55401D" stroke-width="0.2" stroke-miterlimit="10"/>
<path d="M57.9082 31.1416L60.5231 43.3154L66.4754 42.0049L63.8949 29.8311L61.4865 33.2108L57.9082 31.1416Z" fill="#E16CA5" stroke="#55401D" stroke-width="0.2" stroke-miterlimit="10"/>
<path d="M70.7761 28.2793L73.391 40.4876L79.3433 39.1771L76.7284 26.9688L74.3544 30.3829L70.7761 28.2793Z" fill="#E16CA5" stroke="#55401D" stroke-width="0.2" stroke-miterlimit="10"/>
<path d="M64.3423 29.7278L66.9572 41.9017L72.9095 40.5912L70.329 28.3828L67.9206 31.797L64.3423 29.7278Z" fill="white" stroke="#55401D" stroke-width="0.2" stroke-miterlimit="10"/>
<path d="M102.017 145.466L99.4025 133.292L93.4158 134.602L96.0307 146.811L98.4391 143.397L102.017 145.466Z" fill="#D3679B" stroke="#55401D" stroke-width="0.2" stroke-miterlimit="10"/>
<path d="M95.5144 146.914L92.8996 134.706L86.9128 136.051L89.4933 148.259L91.9362 144.845L95.5144 146.914Z" fill="white" stroke="#55401D" stroke-width="0.2" stroke-miterlimit="10"/>
<path d="M89.0459 148.363L86.431 136.154L80.4443 137.499L83.0248 149.673L85.4677 146.293L89.0459 148.363Z" fill="#D3679B" stroke="#55401D" stroke-width="0.2" stroke-miterlimit="10"/>
<path d="M82.5433 149.777L79.9628 137.603L73.9417 138.914L76.5565 151.122L78.965 147.708L82.5433 149.777Z" fill="white" stroke="#55401D" stroke-width="0.2" stroke-miterlimit="10"/>
<path d="M76.0747 151.225L73.4943 139.017L67.4731 140.362L70.088 152.57L72.4965 149.156L76.0747 151.225Z" fill="#D3679B" stroke="#55401D" stroke-width="0.2" stroke-miterlimit="10"/>
<path d="M69.6065 152.674L66.9916 140.465L61.0049 141.81L63.6198 153.984L66.0282 150.604L69.6065 152.674Z" fill="white" stroke="#55401D" stroke-width="0.2" stroke-miterlimit="10"/>
<path d="M63.138 154.087L60.5231 141.914L54.5364 143.224L57.1169 155.432L59.5597 152.018L63.138 154.087Z" fill="#D3679B" stroke="#55401D" stroke-width="0.2" stroke-miterlimit="10"/>
<path d="M50.1668 156.984L47.5863 144.776L41.5996 146.086L44.1801 158.295L46.5885 154.881L50.1668 156.984Z" fill="#D3679B" stroke="#55401D" stroke-width="0.2" stroke-miterlimit="10"/>
<path d="M56.6353 155.536L54.0548 143.328L48.0681 144.673L50.6486 156.846L53.057 153.467L56.6353 155.536Z" fill="white" stroke="#55401D" stroke-width="0.2" stroke-miterlimit="10"/>
<path d="M168.25 143.81L112.477 133.119L130.643 41.5908L186.382 52.2473L168.25 143.81Z" fill="#F8BC60" stroke="#55401D" stroke-width="0.32" stroke-miterlimit="10"/>
<path d="M132.845 29.6929L130.506 41.5563L136.321 42.6599L138.66 30.7964L135.22 32.9002L132.845 29.6929Z" fill="#EFB75F" stroke="#55401D" stroke-width="0.2" stroke-miterlimit="10"/>
<path d="M139.176 30.8999L136.802 42.7634L142.617 43.867L144.991 32.0035L141.55 34.1072L139.176 30.8999Z" fill="white" stroke="#55401D" stroke-width="0.2" stroke-miterlimit="10"/>
<path d="M145.438 32.1069L143.099 43.9704L148.879 45.074L151.253 33.2105L147.812 35.3142L145.438 32.1069Z" fill="#EFB75F" stroke="#55401D" stroke-width="0.2" stroke-miterlimit="10"/>
<path d="M151.735 33.314L149.361 45.1774L155.175 46.281L157.549 34.4175L154.109 36.5212L151.735 33.314Z" fill="white" stroke="#55401D" stroke-width="0.2" stroke-miterlimit="10"/>
<path d="M157.997 34.521L155.657 46.3845L161.472 47.4881L163.811 35.6246L160.371 37.7283L157.997 34.521Z" fill="#EFB75F" stroke="#55401D" stroke-width="0.2" stroke-miterlimit="10"/>
<path d="M164.259 35.6934L161.919 47.5568L167.734 48.6949L170.073 36.8314L166.667 38.9351L164.259 35.6934Z" fill="white" stroke="#55401D" stroke-width="0.2" stroke-miterlimit="10"/>
<path d="M170.555 36.9004L168.215 48.7639L173.996 49.9019L176.37 38.0385L172.929 40.1422L170.555 36.9004Z" fill="#EFB75F" stroke="#55401D" stroke-width="0.2" stroke-miterlimit="10"/>
<path d="M183.079 39.3149L180.739 51.1784L186.554 52.282L188.894 40.4185L185.487 42.5222L183.079 39.3149Z" fill="#EFB75F" stroke="#55401D" stroke-width="0.2" stroke-miterlimit="10"/>
<path d="M176.817 38.1074L174.477 49.9709L180.292 51.0745L182.632 39.211L179.191 41.3492L176.817 38.1074Z" fill="white" stroke="#55401D" stroke-width="0.2" stroke-miterlimit="10"/>
<path d="M166.082 155.708L168.422 143.845L162.607 142.741L160.267 154.605L163.708 152.501L166.082 155.708Z" fill="#EFB75F" stroke="#55401D" stroke-width="0.2" stroke-miterlimit="10"/>
<path d="M159.786 154.501L162.125 142.638L156.311 141.534L153.971 153.398L157.377 151.294L159.786 154.501Z" fill="white" stroke="#55401D" stroke-width="0.2" stroke-miterlimit="10"/>
<path d="M153.489 153.294L155.863 141.43L150.049 140.327L147.675 152.19L151.115 150.086L153.489 153.294Z" fill="#EFB75F" stroke="#55401D" stroke-width="0.2" stroke-miterlimit="10"/>
<path d="M147.227 152.087L149.567 140.223L143.752 139.12L141.413 150.983L144.853 148.879L147.227 152.087Z" fill="white" stroke="#55401D" stroke-width="0.2" stroke-miterlimit="10"/>
<path d="M140.931 150.914L143.305 139.051L137.49 137.913L135.116 149.776L138.557 147.672L140.931 150.914Z" fill="#EFB75F" stroke="#55401D" stroke-width="0.2" stroke-miterlimit="10"/>
<path d="M134.669 149.707L137.009 137.844L131.194 136.706L128.854 148.569L132.295 146.465L134.669 149.707Z" fill="white" stroke="#55401D" stroke-width="0.2" stroke-miterlimit="10"/>
<path d="M128.373 148.5L130.747 136.637L124.932 135.533L122.592 147.397L125.999 145.258L128.373 148.5Z" fill="#EFB75F" stroke="#55401D" stroke-width="0.2" stroke-miterlimit="10"/>
<path d="M115.849 146.086L118.188 134.223L112.374 133.119L110.034 144.983L113.475 142.879L115.849 146.086Z" fill="#EFB75F" stroke="#55401D" stroke-width="0.2" stroke-miterlimit="10"/>
<path d="M122.111 147.293L124.45 135.43L118.636 134.326L116.296 146.19L119.737 144.086L122.111 147.293Z" fill="white" stroke="#55401D" stroke-width="0.2" stroke-miterlimit="10"/>
<path d="M41.5307 90.0107C41.5307 90.0107 32.6194 75.3193 44.8337 64.4904C57.0824 53.6616 74.5264 63.8007 77.8638 70.0428C81.2013 76.2849 80.754 87.1828 74.7673 94.5285C74.1824 96.0114 77.7262 97.7358 78.9304 99.874C80.1347 102.012 79.1025 106.702 71.017 100.633C71.017 104.668 66.6474 109.151 61.9681 99.9084C60.351 106.013 54.6051 108.047 53.0224 99.1842C50.6484 103.288 43.0102 104.737 44.9713 96.7012C40.3953 100.391 27.4241 99.9429 41.4963 89.9762L41.5307 90.0107Z" fill="#ED7C88" stroke="#543F1C" stroke-width="0.13" stroke-miterlimit="10"/>
<path d="M51.8334 79.5184C52.014 78.3129 51.3682 77.2165 50.3911 77.0694C49.4139 76.9223 48.4754 77.7803 48.2948 78.9858C48.1142 80.1912 48.7599 81.2877 49.7371 81.4348C50.7142 81.5818 51.6528 80.7238 51.8334 79.5184Z" fill="#543F1C"/>
<path d="M70.1097 82.0618C70.2903 80.8564 69.6446 79.7599 68.6674 79.6129C67.6903 79.4658 66.7517 80.3238 66.5711 81.5292C66.3905 82.7347 67.0363 83.8311 68.0134 83.9782C68.9906 84.1253 69.9291 83.2673 70.1097 82.0618Z" fill="#543F1C"/>
<path d="M46.6229 86.9415C48.1051 86.9415 49.3066 85.7371 49.3066 84.2515C49.3066 82.7659 48.1051 81.5615 46.6229 81.5615C45.1407 81.5615 43.9392 82.7659 43.9392 84.2515C43.9392 85.7371 45.1407 86.9415 46.6229 86.9415Z" fill="#E94C4F"/>
<path d="M70.1568 90.4937C71.639 90.4937 72.8405 89.2894 72.8405 87.8037C72.8405 86.3181 71.639 85.1138 70.1568 85.1138C68.6747 85.1138 67.4731 86.3181 67.4731 87.8037C67.4731 89.2894 68.6747 90.4937 70.1568 90.4937Z" fill="#E94C4F"/>
<path d="M58.1835 90.459C60.9768 90.459 63.2412 88.1892 63.2412 85.3894C63.2412 82.5895 60.9768 80.3198 58.1835 80.3198C55.3902 80.3198 53.1257 82.5895 53.1257 85.3894C53.1257 88.1892 55.3902 90.459 58.1835 90.459Z" fill="#F6BBC0" stroke="#543F1C" stroke-width="0.13" stroke-miterlimit="10"/>
<path d="M58.1834 87.6999C59.4565 87.6999 60.4886 86.6654 60.4886 85.3892C60.4886 84.1131 59.4565 83.0786 58.1834 83.0786C56.9103 83.0786 55.8782 84.1131 55.8782 85.3892C55.8782 86.6654 56.9103 87.6999 58.1834 87.6999Z" fill="#D2636E" stroke="#543F1C" stroke-width="0.13" stroke-miterlimit="10"/>
<path d="M157.412 64.6627C157.412 64.6627 158.891 58.662 159.304 58.6964C159.717 58.7309 162.056 59.1793 162.194 59.3862C162.332 59.5931 161.059 62.7659 157.412 64.6627Z" fill="#93A25C" stroke="#543F1C" stroke-width="0.07" stroke-miterlimit="10"/>
<path d="M155.141 63.9039C155.141 63.9039 153.18 61.9381 154.04 57.3169C154.315 57.1789 156.276 57.4548 156.655 57.5928C157.033 57.7307 154.934 62.2485 155.175 63.8694L155.141 63.9039Z" fill="#93A25C" stroke="#543F1C" stroke-width="0.07" stroke-miterlimit="10"/>
<path d="M152.182 65.3525C152.182 65.3525 158.65 65.387 160.955 67.1803C163.261 68.9737 164.568 74.0432 163.123 76.078C164.018 77.7333 162.813 81.8373 161.299 82.527C159.786 83.2167 162.641 83.9065 161.575 86.2861C160.508 88.6657 158.753 88.7001 158.96 89.8727C159.166 91.0453 160.095 93.4593 158.272 95.0112C156.448 96.5631 158.272 96.4597 157.205 97.9081C156.139 99.3566 154.418 99.1152 154.005 100.046C153.592 100.977 152.904 105.806 151.287 105.323C149.601 108.151 148.844 108.84 148.328 109.047C147.812 109.254 143.339 112.082 142.445 112.255C141.55 112.427 136.837 112.703 138.316 108.082C139.245 105.875 139.142 105.081 139.623 104.806C140.105 104.53 139.589 102.288 139.933 101.219C140.277 100.15 140.415 98.7703 140.931 98.2875C141.447 97.8047 141.034 96.0458 140.931 95.4251C140.828 94.8043 141.929 92.942 142.238 92.6316C142.548 92.3213 142.41 89.7692 142.135 89.3209C141.86 88.8726 142.617 87.2172 143.408 86.6309C144.199 86.0447 143.787 82.389 143.58 81.9062C143.374 81.4234 144.096 78.7679 146.126 77.147C146.126 74.8364 145.404 74.2157 146.436 73.4225C147.468 72.6293 148.294 72.9396 148.363 71.974C148.431 71.0084 147.365 69.6979 147.606 68.6978C147.847 67.6976 150.53 65.2836 152.251 65.387L152.182 65.3525Z" fill="#B9CA73" stroke="#543F1C" stroke-width="0.11" stroke-miterlimit="10"/>
<path d="M156.311 67.1114C156.311 67.1114 150.874 65.7664 150.462 57.9379C150.324 56.5929 151.012 55.5928 151.012 55.5928C151.012 55.5928 152.629 55.7652 152.939 56.0411C153.248 56.317 154.212 63.2489 156.104 64.111L156.276 67.0769L156.311 67.1114Z" fill="#A2B165" stroke="#543F1C" stroke-width="0.07" stroke-miterlimit="10"/>
<path d="M156.827 65.0076C156.827 65.0076 161.781 61.9038 162.435 60.076L163.089 59.4897C163.089 59.4897 163.914 60.9727 164.396 61.0761C164.878 61.1796 166.22 61.9383 166.082 62.3866C165.944 62.835 161.265 68.1115 156.379 67.0079L156.861 65.0076H156.827Z" fill="#A2B165" stroke="#543F1C" stroke-width="0.07" stroke-miterlimit="10"/>
<path d="M155.45 68.6288C155.45 68.6288 153.661 64.8697 155.966 58.4897C155.966 58.4897 157.721 58.4207 158.168 58.869C158.616 59.3173 157.136 67.3873 156.999 67.5597C156.861 67.7321 156.104 68.9047 155.45 68.6288Z" fill="#B9CA73" stroke="#543F1C" stroke-width="0.07" stroke-miterlimit="10"/>
<path d="M149.945 68.146C149.945 68.146 153.18 69.0426 153.627 68.6633C154.074 68.2839 151.838 67.2148 151.838 67.2148C151.838 67.2148 150.599 67.2148 149.98 68.146H149.945Z" fill="#B6BE73"/>
<path d="M145.335 99.46C145.335 99.46 148.569 100.357 149.016 99.9773C149.464 99.5979 147.227 98.5288 147.227 98.5288C147.227 98.5288 145.989 98.5288 145.369 99.46H145.335Z" fill="#B6BE73"/>
<path d="M139.142 110.393C139.142 110.393 142.376 111.289 142.823 110.91C143.271 110.531 141.034 109.461 141.034 109.461C141.034 109.461 139.796 109.461 139.176 110.393H139.142Z" fill="#B6BE73"/>
<path d="M154.04 70.0771C154.04 70.0771 152.182 69.2149 152.113 70.1461C152.044 71.0772 154.797 71.7325 155.244 71.5601C155.829 72.6981 156.827 72.9395 158.409 71.4221C159.648 72.1808 161.231 71.2842 161.575 70.9048C161.919 70.5255 161.678 69.9737 161.196 69.9047C160.714 69.8357 160.336 68.8356 159.958 69.1115C159.579 69.3874 158.822 69.8702 158.581 69.9392C158.34 70.0081 157.996 70.1461 157.48 70.1461C156.964 70.1461 157.549 69.5943 156.414 69.3184C155.278 69.0425 154.04 70.0771 154.04 70.0771Z" fill="#B6BE73"/>
<path d="M144.406 103.185C144.406 103.185 142.548 102.322 142.479 103.254C142.41 104.185 145.163 104.84 145.61 104.667C146.195 105.806 147.193 106.047 148.775 104.53C150.014 105.288 151.597 104.392 151.941 104.012C152.285 103.633 152.044 103.081 151.562 103.012C151.081 102.943 150.702 101.943 150.324 102.219C149.945 102.495 149.188 102.978 148.947 103.047C148.707 103.116 148.363 103.254 147.846 103.254C147.33 103.254 147.915 102.702 146.78 102.426C145.644 102.15 144.406 103.185 144.406 103.185Z" fill="#B6BE73"/>
<path d="M152.388 80.7679C152.388 80.7679 150.117 79.8023 150.083 80.7679C150.049 81.7336 153.352 82.4923 153.868 82.3198C154.59 83.4924 155.829 83.8028 157.652 82.3198C159.166 83.1475 161.024 82.3198 161.368 81.9405C161.712 81.5611 161.437 81.0093 160.887 80.9059C160.336 80.8024 159.82 79.8023 159.373 80.0437C158.925 80.2851 158.065 80.7679 157.756 80.8024C157.446 80.8369 157.068 80.9749 156.483 80.9749C155.898 80.9749 156.517 80.4231 155.175 80.0782C153.833 79.7333 152.388 80.7335 152.388 80.7335V80.7679Z" fill="#B6BE73"/>
<path d="M149.533 89.4935C149.533 89.4935 147.262 88.5279 147.227 89.4935C147.193 90.4592 150.496 91.2179 151.012 91.0454C151.735 92.218 152.973 92.5284 154.797 91.0454C156.311 91.8731 158.169 91.0454 158.513 90.6661C158.857 90.2867 158.581 89.7349 158.031 89.6315C157.48 89.528 156.964 88.5279 156.517 88.7693C156.07 89.0107 155.21 89.4935 154.9 89.528C154.59 89.5625 154.212 89.7004 153.627 89.7004C153.042 89.7004 153.661 89.1487 152.319 88.8038C150.978 88.4589 149.533 89.459 149.533 89.459V89.4935Z" fill="#B6BE73"/>
<path d="M148.122 70.8704C148.122 70.8704 150.014 72.5258 150.496 72.4913C150.978 72.4568 152.698 72.9741 153.352 73.6983C154.074 73.3535 155.072 73.5949 154.797 74.526C154.521 75.4572 151.081 74.1812 151.081 74.1812C151.081 74.1812 150.393 74.733 149.911 74.526C149.429 74.3191 148.844 73.8708 148.672 73.9398C148.5 74.0087 147.743 74.2501 147.675 74.0087C147.606 73.7673 148.363 73.1466 148.397 72.9052C148.432 72.6637 147.537 71.0429 148.053 70.8359L148.122 70.8704Z" fill="#B6BE73"/>
<path d="M145.713 79.5269C145.713 79.5269 147.09 82.1479 147.675 82.3548C148.26 82.5617 149.911 83.7687 150.324 84.8723C151.253 84.7689 152.285 85.4586 151.597 86.3897C150.909 87.3209 147.64 84.5274 147.64 84.5274C147.64 84.5274 146.642 84.8723 146.23 84.4585C145.817 84.0446 145.335 83.2859 145.094 83.3204C144.853 83.3549 143.924 83.3204 143.959 82.9755C143.993 82.6307 145.094 82.2513 145.266 82.0099C145.438 81.7685 145.129 79.5269 145.782 79.5269H145.713Z" fill="#B6BE73"/>
<path d="M144.027 90.0796C144.027 90.0796 145.404 92.7006 145.989 92.9075C146.573 93.1144 148.225 94.3215 148.638 95.4251C149.567 95.3216 150.599 96.0113 149.911 96.9425C149.223 97.8736 145.954 95.0802 145.954 95.0802C145.954 95.0802 144.956 95.4251 144.543 95.0112C144.131 94.5974 143.649 93.8387 143.408 93.8731C143.167 93.9076 142.238 93.8731 142.273 93.5283C142.307 93.1834 143.408 92.804 143.58 92.5626C143.752 92.3212 143.442 90.0796 144.096 90.0796H144.027Z" fill="#B6BE73"/>
<path d="M146.264 76.5606C146.264 76.5606 146.608 77.6986 146.505 77.9056C146.402 78.1125 146.229 78.3884 146.229 78.3884C146.229 78.3884 150.565 78.8712 150.943 78.4918C151.322 78.1125 153.627 77.4917 153.627 77.0779C153.627 76.664 152.663 76.6296 152.251 76.9055C151.838 77.1813 151.218 77.4228 150.943 77.3883C150.668 77.3538 150.117 77.5607 149.533 77.3538C148.948 77.1469 147.847 77.0779 147.64 77.0779C147.434 77.0779 146.711 76.3192 146.229 76.5951L146.264 76.5606Z" fill="#B6BE73"/>
<path d="M148.363 68.7325C148.879 68.5256 149.292 68.6635 149.567 68.5256C149.842 68.3876 150.53 68.4221 151.356 68.5256C152.182 68.629 153.627 69.3532 153.696 69.7671C154.212 69.7671 154.59 70.9396 152.801 71.0431C151.012 71.1466 150.909 71.319 150.427 71.0086C149.945 70.6982 147.846 68.9394 148.328 68.7325H148.363Z" fill="#D9E3A2"/>
<path d="M161.162 79.3545C160.646 79.5614 160.233 79.4234 159.958 79.5614C159.682 79.6993 158.994 79.6648 158.168 79.5614C157.343 79.4579 155.898 78.7337 155.829 78.3199C155.313 78.3199 154.934 77.1473 156.723 77.0438C158.512 76.9404 158.616 76.7679 159.097 77.0783C159.579 77.3887 161.678 79.1475 161.196 79.3545H161.162Z" fill="#D9E3A2"/>
<path d="M148.913 79.5264C149.429 79.3195 149.842 79.4574 150.117 79.3195C150.393 79.1816 151.081 79.216 151.906 79.3195C152.732 79.423 154.177 80.1472 154.246 80.561C154.762 80.561 155.141 81.7336 153.352 81.837C151.562 81.9405 151.459 82.1129 150.977 81.8026C150.496 81.4922 148.397 79.7333 148.879 79.5264H148.913Z" fill="#D9E3A2"/>
<path d="M144.957 87.1485C145.473 86.9416 145.886 87.0795 146.161 86.9416C146.436 86.8036 147.124 86.8381 147.95 86.9416C148.776 87.045 150.221 87.7693 150.29 88.1831C150.806 88.1831 151.184 89.3556 149.395 89.4591C147.606 89.5626 147.503 89.735 147.021 89.4246C146.539 89.1142 144.44 87.3554 144.922 87.1485H144.957Z" fill="#D9E3A2"/>
<path d="M152.904 94.218C152.388 94.3904 152.01 94.287 151.734 94.4249C151.459 94.5628 150.806 94.5284 150.014 94.4249C149.223 94.3214 147.847 93.6662 147.778 93.2523C147.296 93.2523 146.918 92.1488 148.638 92.0453C150.358 91.9418 150.427 91.7694 150.909 92.0798C151.39 92.3902 153.386 94.0455 152.904 94.2525V94.218Z" fill="#D9E3A2"/>
<path d="M149.808 107.289C149.429 107.427 149.12 107.358 148.913 107.461C148.707 107.565 148.191 107.53 147.606 107.461C147.021 107.392 145.954 106.875 145.885 106.53C145.507 106.53 145.232 105.668 146.539 105.564C147.847 105.461 147.915 105.323 148.294 105.564C148.672 105.806 150.186 107.116 149.808 107.254V107.289Z" fill="#D9E3A2"/>
<path d="M139.314 105.599C139.658 105.357 139.967 105.392 140.139 105.254C140.311 105.116 140.828 105.047 141.412 104.978C141.997 104.909 143.133 105.219 143.27 105.53C143.649 105.461 144.096 106.254 142.823 106.599C141.55 106.944 141.516 107.116 141.103 106.944C140.69 106.771 138.935 105.806 139.279 105.564L139.314 105.599Z" fill="#D9E3A2"/>
<path d="M146.161 109.427C145.851 109.634 145.576 109.634 145.404 109.771C145.232 109.909 144.784 110.013 144.234 110.047C143.683 110.082 142.651 109.875 142.514 109.599C142.17 109.668 141.757 108.978 142.892 108.599C144.027 108.22 144.062 108.082 144.44 108.254C144.819 108.426 146.436 109.22 146.126 109.427H146.161Z" fill="#D9E3A2"/>
<path d="M145.473 102.598C145.025 102.771 144.681 102.667 144.475 102.771C144.268 102.874 143.649 102.84 142.995 102.771C142.342 102.702 141.137 102.081 141.069 101.702C140.656 101.702 140.346 100.701 141.825 100.632C143.305 100.563 143.408 100.391 143.787 100.667C144.165 100.943 145.885 102.46 145.473 102.598Z" fill="#D9E3A2"/>
<path d="M151.115 96.5285C151.562 96.3216 151.906 96.4251 152.113 96.2871C152.319 96.1492 152.904 96.1492 153.592 96.2182C154.281 96.2871 155.485 96.8044 155.588 97.1493C156.001 97.1493 156.379 98.1149 154.9 98.2874C153.42 98.4598 153.352 98.6322 152.939 98.3563C152.526 98.0804 150.737 96.701 151.15 96.5285H151.115Z" fill="#D9E3A2"/>
<path d="M146.746 97.2875C146.333 97.4945 145.989 97.46 145.748 97.5979C145.507 97.7359 144.956 97.7704 144.268 97.7704C143.58 97.7704 142.342 97.322 142.238 96.9427C141.826 96.9772 141.413 96.046 142.858 95.7701C144.303 95.4942 144.372 95.3218 144.819 95.5632C145.266 95.8046 147.124 97.0806 146.746 97.2875Z" fill="#D9E3A2"/>
<path d="M148.707 84.1133C148.294 84.2512 147.984 84.1822 147.778 84.2512C147.571 84.3202 147.021 84.3202 146.402 84.2512C145.782 84.1822 144.681 83.6304 144.612 83.2856C144.234 83.2856 143.924 82.3889 145.301 82.3199C146.677 82.251 146.746 82.113 147.124 82.3544C147.503 82.5958 149.12 83.9408 148.707 84.1133Z" fill="#D9E3A2"/>
<path d="M158.788 72.7329C158.788 72.7329 160.302 71.5604 161.368 71.8018C162.435 72.0432 163.639 72.6985 163.329 73.3882C163.02 74.0779 159.235 75.1815 158.065 73.5261C156.895 71.8708 158.788 72.6984 158.788 72.6984V72.7329Z" fill="#D9E3A2"/>
<path d="M147.812 74.25C147.812 74.25 149.326 73.0775 150.393 73.3189C151.459 73.5603 152.664 74.2155 152.354 74.9053C152.044 75.595 148.26 76.6986 147.09 75.0432C145.92 73.3879 147.812 74.2155 147.812 74.2155V74.25Z" fill="#D9E3A2"/>
<path d="M156.93 84.2515C156.93 84.2515 158.444 83.0789 159.51 83.3203C160.577 83.5618 161.781 84.217 161.472 84.9067C161.162 85.5965 157.377 86.7001 156.207 85.0447C155.038 83.3893 156.93 84.217 156.93 84.217V84.2515Z" fill="#D9E3A2"/>
<path d="M154.177 88.3552C154.177 88.3552 155.657 87.5965 156.758 87.8724C157.859 88.1483 159.166 88.7001 158.891 89.1829C158.616 89.6657 154.797 90.2175 153.489 88.907C152.182 87.5965 154.177 88.3552 154.177 88.3552Z" fill="#D9E3A2"/>
<path d="M151.838 102.529C151.838 102.529 150.324 103.219 149.257 102.909C148.191 102.598 146.883 101.978 147.193 101.495C147.502 101.012 151.321 100.633 152.56 102.012C153.799 103.392 151.838 102.529 151.838 102.529Z" fill="#D9E3A2"/>
<path d="M3.44287 129.05V285.758H198.871V129.05H3.44287ZM167.871 188.919H34.4086V156.053H167.871V188.919Z" stroke="#6F5524" stroke-width="0.61" stroke-miterlimit="10"/>
<path d="M198.596 125.808H3.64926C2.2811 125.808 1.172 126.92 1.172 128.291V129.809C1.172 131.18 2.2811 132.292 3.64926 132.292H198.596C199.964 132.292 201.073 131.18 201.073 129.809V128.291C201.073 126.92 199.964 125.808 198.596 125.808Z" stroke="#6F5524" stroke-width="0.61" stroke-miterlimit="10"/>
<path d="M198.596 282.517H3.64926C2.2811 282.517 1.172 283.628 1.172 285V286.517C1.172 287.888 2.2811 289 3.64926 289H198.596C199.964 289 201.073 287.888 201.073 286.517V285C201.073 283.628 199.964 282.517 198.596 282.517Z" stroke="#6F5524" stroke-width="0.61" stroke-miterlimit="10"/>
<path d="M198.596 152.812H3.64926C2.2811 152.812 1.172 153.923 1.172 155.295V156.812C1.172 158.183 2.2811 159.295 3.64926 159.295H198.596C199.964 159.295 201.073 158.183 201.073 156.812V155.295C201.073 153.923 199.964 152.812 198.596 152.812Z" stroke="#6F5524" stroke-width="0.61" stroke-miterlimit="10"/>
<path d="M3.27087 129.05V285.758H198.699V129.05H3.27087ZM167.699 188.919H34.2366V156.053H167.699V188.919Z" fill="#ECCF6D"/>
<path d="M198.424 125.808H3.47726C2.10911 125.808 1 126.92 1 128.291V129.809C1 131.18 2.10911 132.292 3.47726 132.292H198.424C199.792 132.292 200.901 131.18 200.901 129.809V128.291C200.901 126.92 199.792 125.808 198.424 125.808Z" fill="#CDAC4D"/>
<path d="M198.424 282.517H3.47726C2.10911 282.517 1 283.628 1 285V286.517C1 287.888 2.10911 289 3.47726 289H198.424C199.792 289 200.901 287.888 200.901 286.517V285C200.901 283.628 199.792 282.517 198.424 282.517Z" fill="#D3B14C"/>
<path d="M198.424 152.812H3.47726C2.10911 152.812 1 153.923 1 155.295V156.812C1 158.183 2.10911 159.295 3.47726 159.295H198.424C199.792 159.295 200.901 158.183 200.901 156.812V155.295C200.901 153.923 199.792 152.812 198.424 152.812Z" fill="#D3B14C"/>
<path d="M169.075 188.919H33.1699C31.8588 188.919 30.7959 189.984 30.7959 191.299V194.954C30.7959 196.268 31.8588 197.334 33.1699 197.334H169.075C170.386 197.334 171.449 196.268 171.449 194.954V191.299C171.449 189.984 170.386 188.919 169.075 188.919Z" fill="#D3B14C"/>
<path d="M174.374 283.586V128.015C174.374 126.796 173.388 125.808 172.172 125.808H170.107C168.891 125.808 167.905 126.796 167.905 128.015V283.586C167.905 284.804 168.891 285.793 170.107 285.793H172.172C173.388 285.793 174.374 284.804 174.374 283.586Z" fill="#D3B14C"/>
<path d="M34.0645 283.586L34.0645 128.015C34.0645 126.796 33.0786 125.808 31.8624 125.808H29.7981C28.5819 125.808 27.596 126.796 27.596 128.015L27.596 283.586C27.596 284.804 28.5819 285.793 29.7981 285.793H31.8624C33.0786 285.793 34.0645 284.804 34.0645 283.586Z" fill="#D3B14C"/>
<path d="M50.0979 217.164V262.652H154.453V217.164H50.0979ZM71.4987 245.27C71.8083 245.512 72.9438 245.65 74.7673 245.65C76.2812 245.65 78.2079 245.546 79.6874 245.408C81.6142 245.201 82.6808 244.994 84.2635 244.512L84.4355 250.03C84.4355 250.03 84.1946 250.03 84.1258 250.03C83.7818 250.03 82.8528 250.064 81.7518 250.167C78.9993 250.409 76.2468 250.581 74.1824 250.581C70.6041 250.581 68.815 250.271 67.6108 249.443C66.7506 248.857 66.2689 247.96 66.0625 246.615C65.9937 246.098 65.9937 245.857 65.9592 243.718V231.924C65.9592 230.303 65.9248 229.993 65.8216 229.234H71.2922C71.189 229.958 71.1546 230.648 71.1546 231.958V235.614C74.1136 234.959 77.5542 233.683 80.1347 232.303C79.7218 231.062 79.5154 230.544 78.9993 229.579L81.8206 228.889C82.5775 230.234 82.8872 230.958 83.3689 232.441L82.2335 232.821L84.5043 236.131C79.7906 238.407 76.0747 239.649 71.1546 240.58V243.132C71.1546 244.684 71.189 245.029 71.4643 245.27H71.4987ZM84.057 232.372C83.5065 230.682 83.128 229.786 82.5087 228.682L85.2612 227.889C85.9838 229.062 86.4311 230.062 86.9127 231.441L84.0226 232.372H84.057ZM111.513 242.787C109.999 242.649 109.793 242.649 105.664 242.649H94.551C90.3878 242.649 90.1814 242.649 88.7019 242.787V237.131C90.3534 237.338 90.9727 237.373 94.551 237.373H105.699C109.243 237.373 109.862 237.373 111.548 237.131V242.787H111.513ZM122.386 235.235C122.214 240.753 121.698 243.684 120.493 246.443C119.599 248.478 118.67 249.926 117.087 251.65C115.367 249.443 114.713 248.788 112.855 247.443C113.991 246.477 114.507 245.822 115.195 244.512C116.64 241.753 117.19 238.407 117.19 232.131C117.19 230.303 117.19 229.786 117.053 228.993L122.627 229.303C122.558 229.924 122.466 231.901 122.351 235.235H122.386ZM131.71 249.512C130.712 250.133 129.818 250.547 128.372 251.03C128.132 251.133 127.856 251.202 127.581 251.306C127.168 251.478 127.031 251.547 126.721 251.719L124.209 249.098C124.45 248.547 124.519 248.202 124.519 247.34L124.657 231.51V230.338C124.657 229.786 124.657 229.441 124.553 228.855H130.058C129.921 229.786 129.921 230.269 129.886 231.614L129.749 244.581C130.884 243.787 131.538 243.098 132.295 241.856C133.052 240.58 133.499 239.477 133.912 237.787C135.391 239.58 135.907 240.097 137.869 241.684C136.424 245.339 134.566 247.788 131.744 249.547L131.71 249.512Z" fill="#ED6F4B"/>
</svg>
