<svg width="211" height="263" viewBox="0 0 211 263" fill="none" xmlns="http://www.w3.org/2000/svg">
<g clip-path="url(#clip0_323_1229)">
<path d="M67.3702 93.6143H36.4548C36.214 93.6143 35.995 93.6143 35.7542 93.6143C28.4194 93.1989 23.4712 85.8733 25.376 78.7882L30.587 59.5667C32.7546 51.5632 40.0456 46.0307 48.3218 46.0745H53.7736C61.4805 46.1401 68.3336 51.0165 70.8953 58.2765L77.9673 78.2197C80.4852 85.3484 75.6027 93.177 68.049 93.6143C67.8081 93.6143 67.5892 93.6143 67.3483 93.6143H67.3702Z" fill="white" stroke="#6D5424" stroke-width="0.32" stroke-miterlimit="10"/>
<path d="M73.238 56.2647C73.0848 55.7181 72.6907 55.2588 72.1871 54.9746C72.406 54.4935 72.5374 53.9905 72.5374 53.4657C72.5374 48.7423 62.7942 44.9155 50.7521 44.9155C38.71 44.9155 28.9668 48.7423 28.9668 53.4657C28.9668 53.9031 29.0544 54.3185 29.2076 54.734C28.4632 54.9964 27.872 55.5212 27.675 56.2429C27.3028 57.5549 28.3318 58.9982 29.9958 59.4574C30.4118 59.5667 30.8278 59.6105 31.2 59.5886C31.0249 60.8132 32.0321 62.1034 33.5647 62.5407C34.55 62.825 35.5352 62.6719 36.2358 62.2564C36.5862 63.153 37.5276 63.8746 38.7537 64.0933C39.958 64.2901 41.0965 63.9184 41.7314 63.1967C42.1693 64.137 43.3079 64.8149 44.6434 64.8149C45.7382 64.8149 46.6797 64.3776 47.2489 63.6997C47.7525 64.5525 48.8035 65.1211 50.0515 65.1211C50.1609 65.1211 50.2704 65.1211 50.3799 65.1211C50.5331 65.1211 50.6864 65.1429 50.8397 65.1429C52.0877 65.1429 53.1605 64.5525 53.6422 63.7215C54.1896 64.3994 55.1529 64.8368 56.2477 64.8368C57.5833 64.8368 58.7218 64.1589 59.1597 63.2186C59.7946 63.9402 60.9332 64.3338 62.1374 64.1152C63.3416 63.9184 64.2831 63.1749 64.6553 62.2783C65.3559 62.7156 66.3412 62.8468 67.3264 62.5626C68.8591 62.1252 69.8662 60.8569 69.6911 59.6105C70.0852 59.6105 70.5012 59.5886 70.8953 59.4793C72.5374 59.02 73.5883 57.5768 73.2161 56.2647H73.238Z" fill="#E8CE60" stroke="#6D5424" stroke-width="0.23" stroke-miterlimit="10"/>
<path d="M121.538 93.6143H90.6225C90.3817 93.6143 90.1627 93.6143 89.9219 93.6143C82.5871 93.1989 77.6389 85.8733 79.5437 78.7882L84.7547 59.5667C86.9223 51.5632 94.2132 46.0307 102.489 46.0745H107.941C115.648 46.1401 122.501 51.0165 125.063 58.2765L132.135 78.2197C134.653 85.3484 129.77 93.177 122.217 93.6143C121.976 93.6143 121.757 93.6143 121.516 93.6143H121.538Z" fill="white" stroke="#6D5424" stroke-width="0.32" stroke-miterlimit="10"/>
<path d="M127.406 56.2647C127.252 55.7181 126.858 55.2588 126.355 54.9746C126.574 54.4935 126.705 53.9905 126.705 53.4657C126.705 48.7423 116.962 44.9155 104.92 44.9155C92.8776 44.9155 83.1345 48.7423 83.1345 53.4657C83.1345 53.9031 83.2221 54.3185 83.3753 54.734C82.6309 54.9964 82.0397 55.5212 81.8427 56.2429C81.4705 57.5549 82.4995 58.9982 84.1635 59.4574C84.5795 59.5667 84.9955 59.6105 85.3677 59.5886C85.1926 60.8132 86.1997 62.1034 87.7324 62.5407C88.7176 62.825 89.7029 62.6719 90.4035 62.2564C90.7539 63.153 91.6953 63.8746 92.9214 64.0933C94.1257 64.2901 95.2642 63.9184 95.8991 63.1967C96.337 64.137 97.4756 64.8149 98.8111 64.8149C99.9059 64.8149 100.847 64.3776 101.417 63.6997C101.92 64.5525 102.971 65.1211 104.219 65.1211C104.329 65.1211 104.438 65.1211 104.548 65.1211C104.701 65.1211 104.854 65.1429 105.007 65.1429C106.255 65.1429 107.328 64.5525 107.81 63.7215C108.357 64.3994 109.321 64.8368 110.415 64.8368C111.751 64.8368 112.889 64.1589 113.327 63.2186C113.962 63.9402 115.101 64.3338 116.305 64.1152C117.509 63.9184 118.451 63.1749 118.823 62.2783C119.524 62.7156 120.509 62.8468 121.494 62.5626C123.027 62.1252 124.034 60.8569 123.859 59.6105C124.253 59.6105 124.669 59.5886 125.063 59.4793C126.705 59.02 127.756 57.5768 127.384 56.2647H127.406Z" fill="#F096AF" stroke="#6D5424" stroke-width="0.23" stroke-miterlimit="10"/>
<path d="M175.925 93.6143H145.009C144.768 93.6143 144.549 93.6143 144.309 93.6143C136.974 93.1989 132.026 85.8733 133.93 78.7882L139.141 59.5667C141.309 51.5632 148.6 46.0307 156.876 46.0745H162.328C170.035 46.1401 176.888 51.0165 179.45 58.2765L186.522 78.2197C189.04 85.3484 184.157 93.177 176.603 93.6143C176.362 93.6143 176.144 93.6143 175.903 93.6143H175.925Z" fill="white" stroke="#6D5424" stroke-width="0.32" stroke-miterlimit="10"/>
<path d="M181.792 56.2647C181.639 55.7181 181.245 55.2588 180.741 54.9746C180.96 54.4935 181.092 53.9905 181.092 53.4657C181.092 48.7423 171.349 44.9155 159.306 44.9155C147.264 44.9155 137.521 48.7423 137.521 53.4657C137.521 53.9031 137.609 54.3185 137.762 54.734C137.018 54.9964 136.426 55.5212 136.229 56.2429C135.857 57.5549 136.886 58.9982 138.55 59.4574C138.966 59.5667 139.382 59.6105 139.754 59.5886C139.579 60.8132 140.586 62.1034 142.119 62.5407C143.104 62.825 144.09 62.6719 144.79 62.2564C145.14 63.153 146.082 63.8746 147.308 64.0933C148.512 64.2901 149.651 63.9184 150.286 63.1967C150.724 64.137 151.862 64.8149 153.198 64.8149C154.293 64.8149 155.234 64.3776 155.803 63.6997C156.307 64.5525 157.358 65.1211 158.606 65.1211C158.715 65.1211 158.825 65.1211 158.934 65.1211C159.087 65.1211 159.241 65.1429 159.394 65.1429C160.642 65.1429 161.715 64.5525 162.197 63.7215C162.744 64.3994 163.707 64.8368 164.802 64.8368C166.138 64.8368 167.276 64.1589 167.714 63.2186C168.349 63.9402 169.487 64.3338 170.692 64.1152C171.896 63.9184 172.837 63.1749 173.21 62.2783C173.91 62.7156 174.895 62.8468 175.881 62.5626C177.413 62.1252 178.421 60.8569 178.245 59.6105C178.64 59.6105 179.055 59.5886 179.45 59.4793C181.092 59.02 182.143 57.5768 181.77 56.2647H181.792Z" fill="#BE6EA9" stroke="#6D5424" stroke-width="0.23" stroke-miterlimit="10"/>
<path d="M144.834 48.961H113.919C113.678 48.961 113.459 48.961 113.218 48.961C105.883 48.5455 100.935 41.2199 102.84 34.1349L108.051 14.9134C110.218 6.90989 117.509 1.37742 125.786 1.42116H131.237C138.944 1.48676 145.797 6.3632 148.359 13.6232L155.431 33.5663C157.949 40.6951 153.066 48.5237 145.513 48.961C145.272 48.961 145.053 48.961 144.812 48.961H144.834Z" fill="white" stroke="#6D5424" stroke-width="0.32" stroke-miterlimit="10"/>
<path d="M150.702 11.6114C150.549 11.0647 150.154 10.6055 149.651 10.3212C149.87 9.84016 150.001 9.33721 150.001 8.81239C150.001 4.08901 140.258 0.262207 128.216 0.262207C116.174 0.262207 106.431 4.08901 106.431 8.81239C106.431 9.24974 106.518 9.66522 106.671 10.0807C105.927 10.3431 105.336 10.8679 105.139 11.5896C104.767 12.9016 105.796 14.3449 107.46 14.8041C107.876 14.9134 108.292 14.9571 108.664 14.9353C108.489 16.1599 109.496 17.45 111.028 17.8874C112.014 18.1717 112.999 18.0186 113.7 17.6031C114.05 18.4997 114.991 19.2213 116.217 19.44C117.422 19.6368 118.56 19.265 119.195 18.5434C119.633 19.4837 120.772 20.1616 122.107 20.1616C123.202 20.1616 124.143 19.7243 124.713 19.0464C125.216 19.8992 126.267 20.4677 127.515 20.4677C127.625 20.4677 127.734 20.4677 127.844 20.4677C127.997 20.4677 128.15 20.4896 128.303 20.4896C129.551 20.4896 130.624 19.8992 131.106 19.0682C131.653 19.7461 132.617 20.1835 133.711 20.1835C135.047 20.1835 136.186 19.5056 136.623 18.5653C137.258 19.2869 138.397 19.6805 139.601 19.4618C140.805 19.265 141.747 18.5215 142.119 17.625C142.82 18.0623 143.805 18.1935 144.79 17.9093C146.323 17.4719 147.33 16.2036 147.155 14.9571C147.549 14.9571 147.965 14.9353 148.359 14.8259C150.001 14.3667 151.052 12.9235 150.68 11.6114H150.702Z" fill="#C0DC94" stroke="#6D5424" stroke-width="0.23" stroke-miterlimit="10"/>
<path d="M86.1341 49.5294H55.2186C54.9778 49.5294 54.7588 49.5294 54.518 49.5294C47.1832 49.1139 42.235 41.7883 44.1399 34.7032L49.3508 15.4817C51.5184 7.47825 58.8094 1.94578 67.0856 1.98952H72.5374C80.2444 2.05512 87.0974 6.93156 89.6591 14.1916L96.7311 34.1347C99.249 41.2635 94.3665 49.092 86.8128 49.5294C86.572 49.5294 86.353 49.5294 86.1122 49.5294H86.1341Z" fill="white" stroke="#6D5424" stroke-width="0.32" stroke-miterlimit="10"/>
<path d="M92.0019 12.1798C91.8486 11.6331 91.4545 11.1739 90.9509 10.8896C91.1698 10.4085 91.3012 9.90556 91.3012 9.38074C91.3012 4.65737 81.558 0.830566 69.5159 0.830566C57.4738 0.830566 47.7306 4.65737 47.7306 9.38074C47.7306 9.81809 47.8182 10.2336 47.9715 10.6491C47.227 10.9115 46.6359 11.4363 46.4388 12.1579C46.0666 13.47 47.0957 14.9132 48.7597 15.3724C49.1757 15.4818 49.5917 15.5255 49.9639 15.5036C49.7887 16.7282 50.7959 18.0184 52.3285 18.4557C53.3138 18.74 54.299 18.587 54.9997 18.1715C55.35 19.068 56.2915 19.7897 57.5176 20.0083C58.7218 20.2051 59.8603 19.8334 60.4953 19.1118C60.9332 20.0521 62.0717 20.73 63.4073 20.73C64.502 20.73 65.4435 20.2926 66.0127 19.6147C66.5163 20.4676 67.5673 21.0361 68.8153 21.0361C68.9248 21.0361 69.0342 21.0361 69.1437 21.0361C69.297 21.0361 69.4502 21.058 69.6035 21.058C70.8515 21.058 71.9243 20.4676 72.406 19.6366C72.9534 20.3145 73.9168 20.7518 75.0115 20.7518C76.3471 20.7518 77.4856 20.0739 77.9235 19.1336C78.5585 19.8553 79.697 20.2489 80.9012 20.0302C82.1054 19.8334 83.0469 19.0899 83.4191 18.1933C84.1197 18.6307 85.105 18.7619 86.0903 18.4776C87.6229 18.0403 88.6301 16.7719 88.4549 15.5255C88.849 15.5255 89.265 15.5036 89.6591 15.3943C91.3012 14.9351 92.3522 13.4918 91.98 12.1798H92.0019Z" fill="#88BEE8" stroke="#6D5424" stroke-width="0.23" stroke-miterlimit="10"/>
<path d="M3.4375 95.4077V258.517H207.563V95.4077H3.4375ZM175.202 157.686H35.798V123.486H175.224V157.686H175.202Z" stroke="#6F5524" stroke-miterlimit="10"/>
<path d="M207.322 92.0181H3.67834C2.25147 92.0181 1.09476 93.1733 1.09476 94.5984V96.1948C1.09476 97.6198 2.25147 98.7751 3.67834 98.7751H207.322C208.749 98.7751 209.905 97.6198 209.905 96.1948V94.5984C209.905 93.1733 208.749 92.0181 207.322 92.0181Z" stroke="#6F5524" stroke-miterlimit="10"/>
<path d="M207.322 255.149H3.67834C2.25147 255.149 1.09476 256.305 1.09476 257.73V259.326C1.09476 260.751 2.25147 261.906 3.67834 261.906H207.322C208.749 261.906 209.905 260.751 209.905 259.326V257.73C209.905 256.305 208.749 255.149 207.322 255.149Z" stroke="#6F5524" stroke-miterlimit="10"/>
<path d="M207.322 120.118H3.67834C2.25147 120.118 1.09476 121.273 1.09476 122.698V124.294C1.09476 125.719 2.25147 126.875 3.67834 126.875H207.322C208.749 126.875 209.905 125.719 209.905 124.294V122.698C209.905 121.273 208.749 120.118 207.322 120.118Z" stroke="#6F5524" stroke-miterlimit="10"/>
<path d="M3.26233 95.4077V258.517H207.387V95.4077H3.26233ZM175.027 157.686H35.6009V123.486H175.027V157.686Z" fill="#ECCF6D"/>
<path d="M207.147 92.0181H3.50317C2.0763 92.0181 0.919586 93.1733 0.919586 94.5984V96.1948C0.919586 97.6198 2.0763 98.7751 3.50317 98.7751H207.147C208.573 98.7751 209.73 97.6198 209.73 96.1948V94.5984C209.73 93.1733 208.573 92.0181 207.147 92.0181Z" fill="#CDAC4D"/>
<path d="M207.147 255.149H3.50317C2.0763 255.149 0.919586 256.305 0.919586 257.73V259.326C0.919586 260.751 2.0763 261.906 3.50317 261.906H207.147C208.573 261.906 209.73 260.751 209.73 259.326V257.73C209.73 256.305 208.573 255.149 207.147 255.149Z" fill="#D3B14C"/>
<path d="M207.147 120.118H3.50317C2.0763 120.118 0.919586 121.273 0.919586 122.698V124.294C0.919586 125.719 2.0763 126.875 3.50317 126.875H207.147C208.573 126.875 209.73 125.719 209.73 124.294V122.698C209.73 121.273 208.573 120.118 207.147 120.118Z" fill="#D3B14C"/>
<path d="M176.494 157.686H34.5062C33.1398 157.686 32.0321 158.792 32.0321 160.157V163.984C32.0321 165.349 33.1398 166.455 34.5062 166.455H176.494C177.86 166.455 178.968 165.349 178.968 163.984V160.157C178.968 158.792 177.86 157.686 176.494 157.686Z" fill="#D3B14C"/>
<path d="M181.968 256.221V94.358C181.968 93.0778 180.928 92.04 179.647 92.04H177.523C176.241 92.04 175.202 93.0778 175.202 94.358V256.221C175.202 257.501 176.241 258.539 177.523 258.539H179.647C180.928 258.539 181.968 257.501 181.968 256.221Z" fill="#D3B14C"/>
<path d="M35.4039 256.199L35.4039 94.336C35.4039 93.0559 34.3648 92.0181 33.083 92.0181H30.9592C29.6775 92.0181 28.6384 93.0559 28.6384 94.336L28.6384 256.199C28.6384 257.479 29.6775 258.517 30.9592 258.517H33.083C34.3648 258.517 35.4039 257.479 35.4039 256.199Z" fill="#D3B14C"/>
<path d="M52.1753 187.12V234.485H161.167V187.12H52.1753ZM74.5517 216.356C74.8583 216.597 76.0844 216.75 77.9673 216.75C79.5437 216.75 81.5581 216.641 83.1126 216.488C85.1269 216.269 86.2435 216.072 87.8856 215.569L88.0608 221.32C87.9294 221.298 87.82 221.298 87.7543 221.298C87.3821 221.298 86.4406 221.342 85.2802 221.452C82.412 221.714 79.5218 221.867 77.3762 221.867C73.654 221.867 71.793 221.561 70.5231 220.686C69.6254 220.074 69.1218 219.134 68.9248 217.756C68.8372 217.231 68.8372 216.969 68.8153 214.738V202.471C68.7934 200.765 68.7715 200.459 68.662 199.672H74.3766C74.2671 200.437 74.2233 201.137 74.2233 202.492V206.297C77.3324 205.619 80.9231 204.307 83.5943 202.842C83.1783 201.552 82.9374 201.005 82.412 200.021L85.3459 199.278C86.1341 200.699 86.4406 201.421 86.9661 202.974L85.7837 203.367L88.1484 206.822C83.2221 209.184 79.3467 210.474 74.2014 211.458V214.126C74.2014 215.744 74.2452 216.094 74.5079 216.356H74.5517ZM87.6448 202.93C87.0755 201.18 86.6814 200.218 86.0465 199.081L88.9366 198.272C89.7029 199.475 90.1627 200.524 90.6663 201.968L87.6448 202.93ZM116.327 213.798C114.751 213.645 114.532 213.645 110.218 213.645H98.6141C94.2789 213.645 94.0381 213.645 92.5054 213.798V207.894C94.2351 208.112 94.892 208.134 98.5922 208.134H110.262C113.962 208.134 114.619 208.112 116.349 207.894V213.798H116.327ZM127.668 205.926C127.493 211.677 126.968 214.716 125.698 217.603C124.778 219.724 123.771 221.233 122.151 223.004C120.334 220.73 119.655 220.052 117.706 218.631C118.889 217.603 119.414 216.947 120.159 215.591C121.691 212.705 122.26 209.249 122.26 202.711C122.26 200.787 122.239 200.262 122.129 199.431L127.953 199.737C127.88 200.379 127.785 202.441 127.668 205.926ZM137.412 220.796C136.361 221.452 135.441 221.867 133.908 222.37C133.646 222.479 133.383 222.545 133.076 222.654C132.639 222.829 132.507 222.895 132.179 223.092L129.551 220.358C129.814 219.79 129.858 219.418 129.858 218.521L129.989 202.055V200.831C129.989 200.262 129.967 199.912 129.88 199.278L135.638 199.322C135.507 200.24 135.485 200.743 135.463 202.121L135.31 215.591C136.492 214.782 137.171 214.038 137.959 212.77C138.747 211.458 139.229 210.277 139.645 208.528C141.199 210.387 141.747 210.933 143.805 212.595C142.316 216.4 140.367 218.937 137.434 220.774L137.412 220.796Z" fill="#ED6F4B"/>
</g>
<defs>
<clipPath id="clip0_323_1229">
<rect width="211" height="263" fill="white"/>
</clipPath>
</defs>
</svg>
