<svg width="211" height="268" viewBox="0 0 211 268" fill="none" xmlns="http://www.w3.org/2000/svg">
<g clip-path="url(#clip0_323_1163)">
<path d="M135.546 5.13194L73.9631 2.62012L69.8572 102.913L131.44 105.425L135.546 5.13194Z" fill="#F5C431" stroke="#6F5524" stroke-width="0.35" stroke-miterlimit="10"/>
<path d="M137.716 5.21776C137.789 3.44497 123.088 1.4058 104.88 0.663147C86.6723 -0.0795072 71.8532 0.755581 71.7806 2.52837C71.7081 4.30115 86.4095 6.34032 104.617 7.08298C122.825 7.82563 137.644 6.99054 137.716 5.21776Z" fill="#F2F2F2" stroke="#6F5524" stroke-width="0.35" stroke-miterlimit="10"/>
<path d="M133.612 105.512C133.685 103.739 118.983 101.7 100.776 100.957C82.5679 100.214 67.7488 101.05 67.6762 102.822C67.6036 104.595 82.305 106.634 100.513 107.377C118.72 108.12 133.539 107.284 133.612 105.512Z" fill="#F2F2F2" stroke="#6F5524" stroke-width="0.35" stroke-miterlimit="10"/>
<path d="M131.237 103.896L109.233 101.295C110.109 95.3068 86.8347 85.1446 87.1631 77.1677C87.5353 68.1637 91.7829 60.5584 92.1551 51.5544C92.4835 43.2716 92.8339 34.9888 93.1623 26.706C93.4688 19.3629 81.777 13.1126 82.0616 5.76953C89.2869 6.05364 96.2494 6.75298 103.475 7.03708C103.19 13.9649 115.167 19.4067 114.882 26.3345C114.532 35.1418 114.159 43.9272 113.809 52.7346C113.415 62.1538 113.043 71.573 112.649 81.0141C112.342 88.4664 132.398 101.601 131.194 103.917L131.237 103.896Z" fill="#F4F4F5" stroke="#6F5524" stroke-width="0.35" stroke-miterlimit="10"/>
<path d="M91.4545 100.574L82.609 100.202C83.7475 94.2578 74.4641 84.6418 74.7926 76.665C75.1648 67.661 77.0915 59.9464 77.4637 50.9424C77.7922 42.6596 78.1425 34.3768 78.4709 26.094C78.7774 18.7509 74.1576 11.4734 74.4641 4.13037C77.3324 4.69858 80.113 5.13567 83.3096 5.7913C83.025 12.7191 87.6667 18.2701 87.3821 25.2198C87.0317 34.0271 86.6595 42.8126 86.3092 51.6199C85.9151 61.0391 85.5429 70.4584 85.1488 79.8994C84.8423 87.3518 92.593 95.1319 91.4545 100.574Z" fill="#F4F4F5" stroke="#6F5524" stroke-width="0.35" stroke-miterlimit="10"/>
<path d="M98.1981 73.7583L100.913 73.8676L102.205 73.9113L102.665 72.6875L103.606 70.1524L104.329 72.753L104.679 73.9987L105.971 74.0424L108.686 74.1517L106.431 75.6597L105.358 76.3809L105.708 77.6266L106.431 80.2272L104.307 78.5444L103.278 77.7358L102.205 78.457L99.9497 79.965L100.891 77.4299L101.351 76.206L100.322 75.3974L98.1981 73.7146M92.7682 71.7477L99.2271 76.8398L96.3589 84.5325L103.212 79.9868L109.671 85.0789L107.46 77.1676L114.313 72.6219L106.102 72.2941L103.891 64.3828L101.023 72.0755L92.812 71.7477H92.7682Z" fill="#6D5424"/>
<path d="M98.1981 73.7583L100.913 73.8676L102.205 73.9113L102.665 72.6875L103.606 70.1524L104.329 72.753L104.679 73.9987L105.971 74.0424L108.686 74.1517L106.431 75.6597L105.358 76.3809L105.708 77.6266L106.431 80.2272L104.307 78.5444L103.278 77.7358L102.205 78.457L99.9497 79.965L100.891 77.4299L101.351 76.206L100.322 75.3974L98.1981 73.7146M92.7682 71.7477L99.2271 76.8398L96.3589 84.5325L103.212 79.9868L109.671 85.0789L107.46 77.1676L114.313 72.6219L106.102 72.2941L103.891 64.3828L101.023 72.0755L92.812 71.7477H92.7682Z" stroke="#6F5524" stroke-width="0.35" stroke-miterlimit="10"/>
<path d="M98.8111 54.1113C98.7236 56.0782 105.642 59.553 108.795 59.6842C110.087 59.7279 111.466 58.5696 111.51 57.5862C111.554 56.7338 110.328 55.7941 109.058 54.7232C108.883 54.5703 108.751 54.4391 108.751 54.2206C108.751 53.9583 109.299 53.3027 109.583 53.3027C109.759 53.3027 109.934 53.4338 110.153 53.565C111.401 54.4391 113.262 55.6193 113.196 57.2802C113.13 58.9411 110.853 62.1756 108.795 62.0882C104.832 61.9352 97.1033 58.1107 97.2347 54.7451C97.3004 53.3464 98.7236 51.161 99.8621 51.2265C100.519 51.2484 101.942 52.057 102.84 52.6471C103.037 52.8001 103.19 52.9093 103.19 53.0842C103.19 53.4557 102.818 54.2424 102.424 54.2206C102.271 54.2206 102.095 54.1113 101.833 54.002C101.044 53.6524 100.366 53.3246 99.7526 53.3027C99.468 53.3027 98.8549 53.5868 98.833 54.0895L98.8111 54.1113Z" fill="#6D5424" stroke="#6F5524" stroke-width="0.35" stroke-miterlimit="10"/>
<path d="M111.007 44.6922C111.072 43.0313 108.664 41.8293 108.664 41.8293C108.664 41.8293 108.27 41.6107 108.27 41.3266C108.27 41.0425 108.489 40.7803 108.773 40.7803C109.058 40.7803 109.561 41.1081 109.561 41.1081C109.561 41.1081 112.276 42.5723 112.189 44.8015C112.189 45.1511 111.926 45.9816 111.926 45.9816C112.889 46.7684 113.612 47.4896 113.568 48.4512C113.503 50.0247 111.926 52.1008 110.306 52.0353C107.175 51.9041 102.905 49.5002 102.993 47.0743C103.037 45.7849 104.548 43.6213 105.73 43.665C106.912 43.7088 109.43 44.4518 110.897 45.2386C110.897 45.2386 111.007 44.9545 111.007 44.6922ZM105.445 45.5008C104.964 45.5008 104.569 46.1346 104.548 46.4624C104.504 47.6207 108.401 49.6969 110.919 49.7843C111.488 49.8061 112.145 49.1723 112.167 48.7353C112.167 48.4949 111.926 48.1889 111.466 47.9485C111.269 48.2982 111.16 48.473 110.919 48.473C110.459 48.473 109.693 47.4677 109.715 46.8339C108.445 46.222 106.321 45.5445 105.423 45.5008H105.445Z" fill="#6D5424" stroke="#6F5524" stroke-width="0.35" stroke-miterlimit="10"/>
<path d="M99.0301 38.5948C99.0301 38.267 99.7745 37.0869 100.103 37.1087C100.278 37.1087 100.431 37.1743 100.628 37.218C101.636 37.524 111.116 40.5836 111.751 40.6054C112.189 40.6054 112.539 40.3213 112.539 40.0809C112.561 39.4034 110.831 38.1359 108.839 36.9557C108.839 36.9557 108.445 36.7372 108.445 36.4531C108.445 36.169 108.664 35.9067 108.948 35.9067C109.233 35.9067 109.737 36.2346 109.737 36.2346C111.948 37.5677 113.962 38.7478 113.897 40.3869C113.875 41.1518 112.955 42.8564 112.145 42.8127C110.7 42.7472 100.869 39.5564 99.4899 39.1412C99.1615 39.0319 99.0301 38.8352 99.0301 38.6167V38.5948Z" fill="#6D5424" stroke="#6F5524" stroke-width="0.35" stroke-miterlimit="10"/>
<path d="M108.883 26.2251C108.883 25.941 109.102 25.6787 109.386 25.6787C109.671 25.6787 110.175 26.0065 110.175 26.0065C112.386 27.3396 114.4 28.5416 114.335 30.1807C114.291 31.186 113.415 32.5191 112.78 32.6721C112.78 32.6721 114.181 34.0926 114.116 35.2291C114.072 36.1032 112.824 37.7205 111.751 37.6768C108.773 37.5456 103.497 34.7483 103.584 32.8907C103.628 31.6668 104.788 30.2026 104.788 30.2026C104.81 29.6125 104.942 28.4979 105.511 28.5198C106.212 28.5416 111.072 30.3337 112.211 30.3774C112.692 30.3774 112.999 30.1151 112.999 29.8747C113.021 29.1973 111.291 27.9297 109.299 26.7496C109.299 26.7496 108.905 26.531 108.905 26.2469L108.883 26.2251ZM105.161 32.1257C105.117 33.3496 109.496 35.2509 111.663 35.3602C112.189 35.3602 112.627 35.0105 112.649 34.639C112.649 34.1801 112.057 33.284 110.766 32.6065C109.846 32.1257 106.606 31.0767 105.971 31.0549C105.599 31.0549 105.204 31.7979 105.183 32.1476L105.161 32.1257Z" fill="#6D5424" stroke="#6F5524" stroke-width="0.35" stroke-miterlimit="10"/>
<path d="M195.552 36.8618L141.037 8.16016L94.1201 96.9436L148.635 125.645L195.552 36.8618Z" fill="#72ABCF" stroke="#6F5524" stroke-width="0.35" stroke-miterlimit="10"/>
<path d="M197.497 37.8837C198.326 36.3144 185.932 28.1629 169.814 19.6769C153.696 11.1909 139.957 5.58376 139.128 7.15309C138.299 8.72243 150.693 16.8739 166.811 25.3599C182.929 33.846 196.668 39.453 197.497 37.8837Z" fill="#F2F2F2" stroke="#6F5524" stroke-width="0.35" stroke-miterlimit="10"/>
<path d="M150.588 126.649C151.417 125.08 139.023 116.929 122.905 108.442C106.787 99.9565 93.0479 94.3494 92.2186 95.9187C91.3893 97.4881 103.783 105.64 119.901 114.126C136.02 122.612 149.758 128.219 150.588 126.649Z" fill="#F2F2F2" stroke="#6F5524" stroke-width="0.35" stroke-miterlimit="10"/>
<path d="M149.125 124.176L130.383 112.397C133.755 107.37 117.115 88.204 120.859 81.1451C125.063 73.1682 132.201 68.1417 136.404 60.1649C140.28 52.8218 144.155 45.5006 148.031 38.1575C151.468 31.6449 143.586 21.0019 147.023 14.4893C153.417 17.8548 159.416 21.4608 165.809 24.8264C162.569 30.9674 171.042 40.9986 167.802 47.1397C163.685 54.9198 159.569 62.7218 155.453 70.502C151.052 78.8503 146.629 87.1769 142.228 95.5252C138.747 102.125 151.183 122.581 149.103 124.154L149.125 124.176Z" fill="#F4F4F5" stroke="#6F5524" stroke-width="0.35" stroke-miterlimit="10"/>
<path d="M114.641 104.114L106.803 99.9833C110.393 95.1098 106.168 82.4561 109.89 75.3972C114.094 67.4204 119.151 61.3011 123.377 53.3243C127.252 45.9812 131.128 38.66 135.003 31.317C138.441 24.8044 137.412 16.2812 140.849 9.76855C143.192 11.5169 145.513 13.1123 148.118 15.0573C144.878 21.1984 146.673 28.1918 143.411 34.3329C139.295 42.113 135.178 49.915 131.062 57.6952C126.661 66.0435 122.239 74.37 117.838 82.7184C114.356 89.3184 117.991 99.6774 114.641 104.092V104.114Z" fill="#F4F4F5" stroke="#6F5524" stroke-width="0.35" stroke-miterlimit="10"/>
<path d="M132.288 82.8061L134.675 84.0737L135.835 84.6856L136.777 83.7895L138.725 81.9101L138.266 84.5763L138.047 85.8657L139.207 86.4776L141.594 87.7452L138.922 88.1386L137.631 88.3134L137.412 89.6028L136.952 92.269L135.748 89.8432L135.178 88.6849L133.887 88.8598L131.215 89.2531L133.164 87.3737L134.106 86.4776L133.536 85.3194L132.332 82.8935M128.238 78.6538L131.872 86.0187L125.983 91.7445L134.127 90.5644L137.762 97.9293L139.163 89.8432L147.308 88.6631L140.039 84.8386L141.44 76.7524L135.551 82.4783L128.281 78.6538H128.238Z" fill="#6D5424"/>
<path d="M132.288 82.8061L134.675 84.0737L135.835 84.6856L136.777 83.7895L138.725 81.9101L138.266 84.5763L138.047 85.8657L139.207 86.4776L141.594 87.7452L138.922 88.1386L137.631 88.3134L137.412 89.6028L136.952 92.269L135.748 89.8432L135.178 88.6849L133.887 88.8598L131.215 89.2531L133.164 87.3737L134.106 86.4776L133.536 85.3194L132.332 82.8935M128.238 78.6538L131.872 86.0187L125.983 91.7445L134.127 90.5644L137.762 97.9293L139.163 89.8432L147.308 88.6631L140.039 84.8386L141.44 76.7524L135.551 82.4783L128.281 78.6538H128.238Z" stroke="#6F5524" stroke-width="0.35" stroke-miterlimit="10"/>
<path d="M141.309 65.3223C140.389 67.0488 145.14 73.168 147.921 74.6322C149.06 75.2223 150.811 74.7852 151.271 73.8892C151.665 73.1243 150.986 71.7693 150.286 70.2614C150.198 70.0647 150.132 69.868 150.242 69.6713C150.373 69.4309 151.14 69.0812 151.38 69.1905C151.534 69.2779 151.643 69.4528 151.775 69.6932C152.541 71.0044 153.701 72.8839 152.913 74.3481C152.125 75.8124 148.687 77.7574 146.87 76.7958C143.367 74.9601 138.025 68.1852 139.601 65.213C140.258 63.9673 142.469 62.6123 143.498 63.1587C144.09 63.4647 145.009 64.7978 145.556 65.7375C145.666 65.9561 145.754 66.1309 145.666 66.2839C145.491 66.6117 144.834 67.1799 144.484 66.9832C144.352 66.9176 144.221 66.7428 144.046 66.5243C143.498 65.8686 143.017 65.3004 142.469 65.0163C142.207 64.8852 141.55 64.8852 141.309 65.3223Z" fill="#6D5424" stroke="#6F5524" stroke-width="0.35" stroke-miterlimit="10"/>
<path d="M156.351 62.0443C157.139 60.5582 155.475 58.4383 155.475 58.4383C155.475 58.4383 155.212 58.0668 155.343 57.8046C155.475 57.5423 155.781 57.3893 156.022 57.5205C156.263 57.6516 156.591 58.1542 156.591 58.1542C156.591 58.1542 158.409 60.6456 157.38 62.6125C157.204 62.9403 156.635 63.5741 156.635 63.5741C157.161 64.6887 157.489 65.6721 157.051 66.5026C156.307 67.9013 153.986 69.1033 152.541 68.3384C149.76 66.8741 146.936 62.8748 148.074 60.7331C148.666 59.5966 150.964 58.2635 152.015 58.8317C153.066 59.3999 155.015 61.1264 156 62.4595C156 62.4595 156.219 62.241 156.329 62.0225L156.351 62.0443ZM150.986 60.4052C150.57 60.1867 149.914 60.6019 149.76 60.886C149.213 61.9132 151.84 65.4536 154.095 66.6337C154.599 66.896 155.453 66.6337 155.672 66.2185C155.781 66 155.672 65.6066 155.387 65.2132C155.059 65.4536 154.884 65.5629 154.665 65.4536C154.271 65.2351 153.986 64.0331 154.292 63.4649C153.417 62.3721 151.796 60.8423 150.986 60.4271V60.4052Z" fill="#6D5424" stroke="#6F5524" stroke-width="0.35" stroke-miterlimit="10"/>
<path d="M148.184 51.4229C148.337 51.117 149.498 50.3739 149.804 50.5488C149.957 50.6362 150.089 50.7454 150.22 50.8766C150.986 51.5978 158.255 58.4163 158.803 58.7223C159.175 58.919 159.635 58.8097 159.744 58.5912C160.051 58.0011 159.044 56.0998 157.752 54.1766C157.752 54.1766 157.489 53.8051 157.62 53.5428C157.752 53.2805 158.058 53.1276 158.299 53.2587C158.54 53.3898 158.868 53.8925 158.868 53.8925C160.292 56.0342 161.583 57.9792 160.839 59.4216C160.489 60.0991 158.934 61.2574 158.212 60.864C156.942 60.1865 149.432 53.0839 148.359 52.1004C148.096 51.86 148.074 51.6196 148.162 51.4448L148.184 51.4229Z" fill="#6D5424" stroke="#6F5524" stroke-width="0.35" stroke-miterlimit="10"/>
<path d="M162.415 44.4515C162.547 44.1893 162.853 44.0363 163.094 44.1674C163.335 44.2986 163.663 44.8012 163.663 44.8012C165.087 46.9429 166.378 48.9098 165.612 50.3522C165.13 51.2483 163.795 52.0787 163.138 51.9257C163.138 51.9257 163.795 53.8052 163.247 54.8105C162.831 55.5973 160.992 56.5151 160.051 56.0125C157.402 54.6138 153.855 49.8277 154.73 48.1886C155.3 47.1178 156.964 46.2873 156.964 46.2873C157.248 45.7628 157.839 44.8231 158.343 45.0853C158.956 45.4131 162.591 49.1065 163.576 49.631C163.992 49.8496 164.386 49.7184 164.517 49.4999C164.824 48.9098 163.817 47.0085 162.525 45.0853C162.525 45.0853 162.262 44.7138 162.394 44.4515H162.415ZM156.504 48.1886C155.935 49.2595 159.066 52.8873 160.992 53.8926C161.452 54.133 162.021 54.0019 162.197 53.6522C162.415 53.2588 162.24 52.1661 161.365 51.0079C160.73 50.1555 158.255 47.839 157.708 47.5549C157.38 47.38 156.679 47.8827 156.526 48.2105L156.504 48.1886Z" fill="#6D5424" stroke="#6F5524" stroke-width="0.35" stroke-miterlimit="10"/>
<path d="M65.5749 122.384C60.5172 114.91 57.4957 107.567 52.4599 100.093C47.8182 93.2086 43.1765 86.3464 38.5348 79.4622C34.4186 73.3649 26.3832 70.2397 22.267 64.1423C24.9163 62.9185 27.4123 61.6291 30.3681 60.2523C33.4552 58.1979 36.5643 56.2311 39.6733 54.2642C31.6599 59.2907 25.0038 62.9185 21.5664 64.1423L66.4288 130.558H77.5732C73.0629 128.307 68.0052 125.99 65.5749 122.362V122.384Z" fill="#BD4948" stroke="#6F5524" stroke-width="0.35" stroke-miterlimit="10"/>
<path d="M48.278 48.6696C47.7306 49.0412 47.2051 49.3908 46.6797 49.7405C46.8986 49.5875 47.1394 49.4564 47.3584 49.3034C51.2557 55.0511 64.1079 52.3412 68.0052 58.1107C72.9315 65.4101 77.8797 72.7094 82.806 80.0307C86.5063 85.5161 90.2284 91.0015 93.9286 96.5088L94.9576 95.8095L94.4322 97.2519C95.8334 99.3281 97.2347 101.426 98.6579 103.502C102.84 109.687 126.793 108.419 127.187 110.976L124.822 112.31C125.895 111.807 126.836 111.414 127.603 111.129L72.6688 29.7656C69.4283 33.4153 59.9698 40.8239 48.278 48.6696Z" fill="#BD4948" stroke="#6F5524" stroke-width="0.35" stroke-miterlimit="10"/>
<path d="M109.956 120.702L107.919 121.86C105.073 116.528 80.2882 122.079 75.8216 115.479C70.7639 108.004 69.6911 99.35 64.6334 91.8758C59.9917 84.9917 55.35 78.1294 50.7083 71.2453C47.7306 66.8526 40.0893 66.5903 34.5062 64.5142C38.1626 67.3771 42.4321 69.4532 45.1689 73.4963C50.0952 80.7957 55.0435 88.095 59.9698 95.4162C65.2464 103.24 70.5231 111.064 75.8216 118.866C79.6532 124.526 89.0461 126.428 92.396 130.58H95.1109C96.972 129.269 98.8987 127.936 100.913 126.581C104.044 124.461 107.087 122.494 109.956 120.702Z" fill="#BD4948" stroke="#6F5524" stroke-width="0.35" stroke-miterlimit="10"/>
<path d="M72.0338 28.8257L72.6688 29.7655C73.6102 28.6946 74.07 27.9297 73.8292 27.6019C72.8439 26.1377 59.7727 33.1748 44.6653 43.3589C29.5579 53.5212 18.107 62.9622 19.1141 64.4265C19.3331 64.7543 20.2089 64.645 21.5664 64.1642L20.9314 63.2245L72.0338 28.8257Z" fill="#F2F2F2" stroke="#6F5524" stroke-width="0.35" stroke-miterlimit="10"/>
<path d="M46.6797 49.7403C47.2051 49.3906 47.7525 49.041 48.278 48.6694C59.9698 40.8019 69.4283 33.3932 72.6688 29.7654L72.0338 28.8257L20.9314 63.2244L21.5664 64.1642C24.9819 62.9403 31.6599 59.3125 39.6733 54.286C42.0161 52.7999 44.3588 51.3138 46.6797 49.7403Z" fill="#F2F2F2" stroke="#6F5524" stroke-width="0.35" stroke-miterlimit="10"/>
<path d="M100.716 130.58H106.452C120.575 120.942 130.996 112.244 130.055 110.845C129.836 110.517 128.96 110.627 127.603 111.107L128.238 112.047L100.716 130.58Z" fill="#F2F2F2" stroke="#6F5524" stroke-width="0.35" stroke-miterlimit="10"/>
<path d="M109.956 120.701C107.087 122.494 104.044 124.46 100.913 126.58C98.8987 127.935 96.972 129.268 95.1109 130.58H100.738L128.26 112.047L127.625 111.107C126.858 111.392 125.917 111.785 124.844 112.288L109.977 120.701H109.956Z" fill="#F2F2F2" stroke="#6F5524" stroke-width="0.35" stroke-miterlimit="10"/>
<path d="M70.7201 67.2894C71.158 67.0053 71.2894 66.4371 71.0705 66.1311C70.8077 65.7596 69.7787 65.3881 68.3336 65.6066C67.2827 65.7596 64.0641 66.8523 63.5386 67.202C63.2321 67.3987 63.3416 68.251 63.5386 68.5569C64.2174 69.5622 68.881 68.5132 70.6763 67.3112L70.7201 67.2894Z" fill="white" stroke="#6F5524" stroke-width="0.35" stroke-miterlimit="10"/>
<path d="M34.5062 64.5142C40.0893 66.5904 47.7306 66.8526 50.7083 71.2454C55.35 78.1295 59.9917 84.9918 64.6334 91.8759C69.6911 99.3501 70.7639 108.004 75.8216 115.479C80.2882 122.1 105.095 116.528 107.919 121.86L109.956 120.702C115.977 116.943 121.209 113.992 124.822 112.288L127.187 110.955C126.771 108.398 102.84 109.665 98.6579 103.481C97.2566 101.404 95.8553 99.3064 94.4322 97.2302L92.1332 103.502L98.6141 108.551L90.4035 108.267L87.601 115.981L85.3458 108.092L77.1353 107.808L83.9446 103.218L81.6894 95.3289L88.1703 100.377L93.9505 96.4872C90.2503 91.0017 86.5282 85.5163 82.828 80.009C77.9016 72.7096 72.9534 65.4103 68.0271 58.089C64.1298 52.3413 51.2776 55.0513 47.3803 49.2817C47.1614 49.4347 46.9205 49.5877 46.7016 49.7188C44.2931 51.3142 41.9285 52.844 39.6952 54.2645C36.5862 56.2314 33.499 58.1983 30.39 60.2526C31.5504 61.9573 32.9735 63.2904 34.5281 64.4924L34.5062 64.5142ZM84.9955 84.0739C85.937 85.4726 86.0027 89.4063 84.2949 90.5646C81.0107 92.7719 72.5155 94.2799 70.6326 91.4825C69.8443 90.3242 69.713 87.7236 70.6544 87.0898C71.2018 86.7183 72.822 86.5434 73.8949 86.4779C74.1357 86.4779 74.3328 86.4779 74.4422 86.6308C74.6393 86.9368 74.8363 87.7891 74.5079 88.0077C74.3766 88.0951 74.1795 88.1169 73.8949 88.1825C73.0629 88.3573 72.3185 88.5103 71.8149 88.86C71.574 89.0348 71.2675 89.6249 71.5302 90.0183C72.625 91.6355 80.2663 90.3679 82.8717 88.6196C83.9446 87.8984 84.3606 86.15 83.8132 85.3196C83.3315 84.5984 81.7989 84.5765 80.1349 84.4673C79.9159 84.4673 79.7189 84.4235 79.5875 84.2269C79.4343 84.0083 79.478 83.156 79.7189 83.003C79.8722 82.8937 80.0911 82.8937 80.3538 82.8719C81.8865 82.8282 84.076 82.6752 84.9955 84.0739ZM61.6995 65.454C62.2906 65.0606 67.2608 63.6182 68.1803 62.9844C68.5744 62.7222 68.662 62.3069 68.5088 62.1102C68.1366 61.542 65.969 61.5639 63.67 61.7824C63.67 61.7824 63.2102 61.848 63.057 61.6076C62.8818 61.3672 62.9037 61.0175 63.1445 60.8646C63.3635 60.7116 63.9546 60.6679 63.9546 60.6679C66.5163 60.4275 68.8591 60.2308 69.7787 61.5639C70.3479 62.4162 70.4355 63.9897 69.9976 64.4924C69.9976 64.4924 71.9462 64.7983 72.6031 65.7599C73.0629 66.4374 73.041 68.2295 72.3404 68.9725C73.7635 68.9725 74.9239 69.1692 75.4932 70.0215C75.9311 70.6553 76.1938 72.5566 75.537 73.0156C75.4056 73.103 75.1648 73.2123 74.8801 73.3434C75.5808 73.5401 76.2814 73.9116 76.7412 74.5891C76.9383 74.8951 77.2448 75.7037 77.2448 75.7037C78.4928 75.7692 79.4999 75.9222 80.0254 76.709C80.9012 78.0202 80.8793 80.6209 79.5218 81.5388C76.9164 83.2871 72.0557 83.8772 70.6982 81.8666C69.9757 80.7957 69.8881 78.1732 70.8734 77.4957C71.8587 76.8182 74.3109 75.9441 75.953 75.7037C75.953 75.7037 75.8654 75.4196 75.734 75.201C75.0553 74.1957 73.457 74.152 72.625 74.2176C69.2313 75.4851 64.1079 77.1679 63.1445 77.5176C62.8161 77.6268 62.5972 77.5394 62.4658 77.3646C62.2688 77.0805 62.1593 75.7037 62.4658 75.5288C62.6191 75.4196 62.7723 75.3758 62.9475 75.3103C63.9328 74.9606 73.3913 71.8136 73.9168 71.4639C74.2671 71.2235 74.3766 70.7646 74.2452 70.5679C73.873 70.0215 71.9025 70.0215 69.6911 70.1964C66.9542 71.0487 63.4949 71.2235 62.7285 70.0871C62.0498 69.0818 62.0936 67.2242 62.0936 67.2242C61.7652 66.7434 61.2178 65.7599 61.6776 65.4321L61.6995 65.454Z" fill="white" stroke="#6F5524" stroke-width="0.35" stroke-miterlimit="10"/>
<path d="M71.5959 80.4461C72.2309 81.4077 76.6098 80.7739 78.7117 79.3534C79.1715 79.0474 79.3467 78.1514 79.0839 77.758C78.9526 77.5613 78.5585 77.452 78.0549 77.5176C78.0987 77.911 78.1206 78.1295 77.9235 78.2606C77.5513 78.5229 76.3471 78.1732 75.9968 77.6487C74.6174 77.8891 72.4936 78.6103 71.7492 79.113C71.3551 79.3752 71.4208 80.162 71.5959 80.4242V80.4461Z" fill="white" stroke="#6F5524" stroke-width="0.35" stroke-miterlimit="10"/>
<path d="M87.0317 101.776L84.908 100.115L85.6524 102.715L86.0027 103.961L84.9299 104.682L82.6747 106.212L85.3896 106.3L86.6814 106.343L87.0536 107.589L87.7981 110.19L88.7176 107.654L89.1774 106.431L90.4692 106.474L93.1842 106.562L91.0385 104.901L90.0094 104.114L90.4692 102.89L91.3888 100.355L89.1336 101.863L88.0608 102.584L87.0317 101.776Z" fill="white" stroke="#6F5524" stroke-width="0.35" stroke-miterlimit="10"/>
<path d="M39.6733 54.2864C41.9285 52.8659 44.2712 51.3579 46.6797 49.7407C44.3369 51.2924 42.0161 52.8003 39.6733 54.2864Z" fill="white" stroke="#6F5524" stroke-width="0.35" stroke-miterlimit="10"/>
<path d="M124.822 112.288C121.188 113.992 115.977 116.943 109.956 120.702L124.822 112.288Z" fill="white" stroke="#6F5524" stroke-width="0.35" stroke-miterlimit="10"/>
<path d="M75.7997 118.866C70.5231 111.042 65.2464 103.218 59.9479 95.4162C55.0216 88.1169 50.0734 80.8175 45.147 73.4963C42.4102 69.4532 38.1407 67.3771 34.4843 64.5142C32.3386 63.7055 30.4775 62.6347 29.3171 60.9519C29.6674 60.7115 29.9958 60.5148 30.3462 60.2744C27.3904 61.6512 24.8944 62.9406 22.2451 64.1645C26.3613 70.2619 34.3967 73.387 38.5129 79.4844C43.1546 86.3685 47.7963 93.2308 52.438 100.115C57.4957 107.589 60.4953 114.932 65.553 122.406C68.0052 126.034 73.0629 128.351 77.5513 130.602H92.3522C89.0023 126.449 79.6094 124.548 75.7778 118.888L75.7997 118.866Z" fill="white" stroke="#6F5524" stroke-width="0.35" stroke-miterlimit="10"/>
<path d="M34.5062 64.5142C32.9735 63.3122 31.5285 61.9791 30.3681 60.2744C30.0177 60.493 29.6893 60.7115 29.339 60.9519C30.4775 62.6565 32.3386 63.7274 34.5062 64.5142Z" fill="white" stroke="#6F5524" stroke-width="0.35" stroke-miterlimit="10"/>
<path d="M94.9577 95.7876L93.9286 96.4869C94.1038 96.7273 94.257 96.9896 94.4322 97.23L94.9577 95.7876Z" fill="#6D5424" stroke="#6F5524" stroke-width="0.35" stroke-miterlimit="10"/>
<path d="M81.6675 95.3286L83.9227 103.218L77.1134 107.807L85.3239 108.092L87.5791 115.981L90.3816 108.266L98.5922 108.55L92.1113 103.502L94.4103 97.2299C94.2351 96.9896 94.0819 96.7273 93.9067 96.4869L88.1265 100.377L81.6456 95.3286H81.6675ZM91.3888 100.355L90.4692 102.89L90.0313 104.114L91.0604 104.923L93.1842 106.584L90.4692 106.496L89.1774 106.452L88.7395 107.676L87.8199 110.211L87.0755 107.611L86.7252 106.365L85.4334 106.321L82.7185 106.234L84.9736 104.726L86.0465 104.005L85.6962 102.759L84.9517 100.158L87.0755 101.819L88.1046 102.628L89.1774 101.907L91.4326 100.399L91.3888 100.355Z" fill="#6D5424" stroke="#6F5524" stroke-width="0.35" stroke-miterlimit="10"/>
<path d="M79.7189 82.9809C79.4999 83.1339 79.4342 83.9862 79.5875 84.2048C79.7189 84.4015 79.894 84.4233 80.1349 84.4452C81.7989 84.5326 83.3315 84.5763 83.8132 85.2975C84.3606 86.128 83.9446 87.8763 82.8717 88.5975C80.2662 90.3459 72.625 91.6353 71.5302 89.9962C71.2456 89.581 71.5521 88.9909 71.8149 88.8379C72.3184 88.4882 73.0629 88.3571 73.8949 88.1604C74.1795 88.0949 74.3766 88.073 74.5079 87.9856C74.8363 87.767 74.6612 86.9147 74.4422 86.6088C74.3328 86.4558 74.1576 86.4558 73.8949 86.4558C72.8001 86.4995 71.2018 86.6962 70.6544 87.0677C69.6911 87.7015 69.8443 90.3022 70.6325 91.4604C72.5155 94.2578 81.0107 92.7498 84.2949 90.5426C86.0027 89.3843 85.937 85.4723 84.9955 84.0518C84.054 82.675 81.8646 82.8061 80.3538 82.8498C80.0911 82.8498 79.8721 82.8498 79.7189 82.9809Z" fill="#6D5424" stroke="#6F5524" stroke-width="0.25" stroke-miterlimit="10"/>
<path d="M75.734 75.2229C75.8654 75.4195 75.953 75.7255 75.953 75.7255C74.3109 75.9659 71.8587 76.8401 70.8734 77.5176C69.8881 78.1951 69.9757 80.8176 70.6982 81.8884C72.0557 83.899 76.9164 83.309 79.5218 81.5606C80.8793 80.6427 80.9012 78.0421 80.0254 76.7308C79.4999 75.9441 78.4928 75.7911 77.2448 75.7255C77.2448 75.7255 76.9382 74.9169 76.7412 74.6109C76.2814 73.9334 75.5808 73.5619 74.8801 73.3652C74.3328 73.6056 73.5665 73.9116 72.6469 74.2613C73.457 74.1957 75.0553 74.2176 75.7559 75.2447L75.734 75.2229ZM77.9235 78.2825C78.1206 78.1513 78.0987 77.9328 78.0549 77.5394C78.5585 77.4739 78.9526 77.5613 79.0839 77.7798C79.3467 78.1513 79.1715 79.0474 78.7117 79.3752C76.6098 80.7957 72.2309 81.4076 71.5959 80.4679C71.4208 80.2056 71.3551 79.4407 71.7492 79.1566C72.4936 78.654 74.6174 77.9328 75.9968 77.6924C76.3471 78.2169 77.5513 78.5447 77.9235 78.3043V78.2825Z" fill="#6D5424" stroke="#6F5524" stroke-width="0.25" stroke-miterlimit="10"/>
<path d="M69.713 70.2179C71.9024 70.0212 73.8949 70.043 74.2671 70.5894C74.3985 70.7861 74.3109 71.245 73.9387 71.4854C73.4132 71.8351 63.9546 74.9821 62.9694 75.3318C62.7942 75.3973 62.641 75.441 62.4877 75.5503C62.2031 75.747 62.3125 77.102 62.4877 77.3861C62.5972 77.5609 62.838 77.6483 63.1664 77.5391C64.1298 77.1894 69.2751 75.5066 72.6469 74.2391C72.3403 74.2391 72.1433 74.2828 72.1433 74.2828C72.1433 74.2828 71.6835 74.3483 71.5302 74.1079C71.3551 73.8675 71.377 73.5179 71.6178 73.3649C71.8368 73.2119 72.4279 73.1682 72.4279 73.1682C72.4279 73.1682 73.654 72.9934 74.8801 73.343C75.1867 73.2119 75.4275 73.1026 75.537 73.0152C76.2157 72.5563 75.9311 70.6549 75.4932 70.0212C74.9239 69.1689 73.7635 68.9503 72.3403 68.9722C72.2747 69.0377 72.2309 69.1033 72.1652 69.147C71.5302 69.5841 70.6544 69.9556 69.6911 70.2397L69.713 70.2179Z" fill="#6D5424" stroke="#6F5524" stroke-width="0.25" stroke-miterlimit="10"/>
<path d="M72.4279 73.1682C72.4279 73.1682 71.8368 73.2119 71.6178 73.3649C71.3989 73.5179 71.377 73.8457 71.5302 74.108C71.6835 74.3484 72.1433 74.2828 72.1433 74.2828C72.1433 74.2828 72.3404 74.2609 72.6469 74.2391C73.5665 73.8894 74.3328 73.5835 74.8802 73.3431C73.654 72.9934 72.4279 73.1682 72.4279 73.1682Z" fill="#6D5424" stroke="#6F5524" stroke-width="0.25" stroke-miterlimit="10"/>
<path d="M62.7504 70.1087C63.5167 71.2451 66.9761 71.0703 69.713 70.218C69.6254 70.218 69.5159 70.218 69.4283 70.2398C69.4283 70.2398 68.9685 70.3054 68.8153 70.065C68.6401 69.8246 68.662 69.4749 68.9029 69.3219C69.1218 69.169 69.713 69.1252 69.713 69.1252C70.6544 69.0378 71.5521 68.9504 72.3622 68.9504C73.0629 68.2074 73.0848 66.4153 72.625 65.7378C71.99 64.7762 70.0195 64.4703 70.0195 64.4703C70.4355 63.9676 70.3698 62.3941 69.8005 61.5418C68.881 60.1868 66.5601 60.4054 63.9765 60.6458C63.9765 60.6458 63.3854 60.6895 63.1664 60.8424C62.9475 60.9954 62.9256 61.3232 63.0788 61.5855C63.2321 61.8259 63.6919 61.7603 63.6919 61.7603C65.9909 61.5418 68.1584 61.5418 68.5306 62.0881C68.662 62.2848 68.5963 62.7001 68.2022 62.9623C67.2608 63.5961 62.2906 65.0385 61.7214 65.4319C61.2616 65.7378 61.8089 66.7431 62.1374 67.2239C62.1374 67.2239 62.0936 69.0815 62.7723 70.0868L62.7504 70.1087ZM63.5605 67.2021C64.086 66.8524 67.3045 65.7597 68.3555 65.6067C69.8005 65.3881 70.8296 65.7597 71.0923 66.1312C71.3113 66.459 71.158 67.0054 70.742 67.2895C68.9467 68.4915 64.2831 69.5405 63.6043 68.5352C63.4073 68.2292 63.2978 67.3769 63.6043 67.1802L63.5605 67.2021Z" fill="#6D5424" stroke="#6F5524" stroke-width="0.25" stroke-miterlimit="10"/>
<path d="M68.881 69.3222C68.662 69.4752 68.6401 69.803 68.7934 70.0653C68.9686 70.3057 69.4065 70.2401 69.4065 70.2401C69.494 70.2401 69.6035 70.2401 69.6911 70.2182C70.6545 69.9341 71.5302 69.5408 72.1652 69.1255C72.2309 69.0818 72.2747 69.0162 72.3404 68.9507C71.5302 68.9507 70.6326 69.0381 69.6911 69.1255C69.6911 69.1255 69.0999 69.1692 68.881 69.3222Z" fill="#6D5424" stroke="#6F5524" stroke-width="0.25" stroke-miterlimit="10"/>
<path d="M3.43748 100.508V263.52H207.563V100.508H3.43748ZM175.202 162.771H35.798V128.591H175.224V162.771H175.202Z" stroke="#6F5524" stroke-miterlimit="10"/>
<path d="M207.322 97.1426H3.67832C2.25144 97.1426 1.09473 98.2972 1.09473 99.7214V101.317C1.09473 102.741 2.25144 103.896 3.67832 103.896H207.322C208.749 103.896 209.905 102.741 209.905 101.317V99.7214C209.905 98.2972 208.749 97.1426 207.322 97.1426Z" stroke="#6F5524" stroke-miterlimit="10"/>
<path d="M207.322 260.154H3.67832C2.25144 260.154 1.09473 261.309 1.09473 262.733V264.328C1.09473 265.753 2.25144 266.907 3.67832 266.907H207.322C208.749 266.907 209.905 265.753 209.905 264.328V262.733C209.905 261.309 208.749 260.154 207.322 260.154Z" stroke="#6F5524" stroke-miterlimit="10"/>
<path d="M207.322 125.204H3.67832C2.25144 125.204 1.09473 126.358 1.09473 127.782V129.378C1.09473 130.802 2.25144 131.957 3.67832 131.957H207.322C208.749 131.957 209.905 130.802 209.905 129.378V127.782C209.905 126.358 208.749 125.204 207.322 125.204Z" stroke="#6F5524" stroke-miterlimit="10"/>
<path d="M3.26232 100.508V263.519H207.387V100.508H3.26232ZM175.027 162.771H35.6009V128.591H175.027V162.771Z" fill="#ECCF6D"/>
<path d="M207.147 97.1426H3.50316C2.07629 97.1426 0.919579 98.2972 0.919579 99.7214V101.317C0.919579 102.741 2.07629 103.896 3.50316 103.896H207.147C208.573 103.896 209.73 102.741 209.73 101.317V99.7214C209.73 98.2972 208.573 97.1426 207.147 97.1426Z" fill="#CDAC4D"/>
<path d="M207.147 260.154H3.50316C2.07629 260.154 0.919579 261.309 0.919579 262.733V264.328C0.919579 265.753 2.07629 266.907 3.50316 266.907H207.147C208.573 266.907 209.73 265.753 209.73 264.328V262.733C209.73 261.309 208.573 260.154 207.147 260.154Z" fill="#D3B14C"/>
<path d="M207.147 125.204H3.50316C2.07629 125.204 0.919579 126.358 0.919579 127.782V129.378C0.919579 130.802 2.07629 131.957 3.50316 131.957H207.147C208.573 131.957 209.73 130.802 209.73 129.378V127.782C209.73 126.358 208.573 125.204 207.147 125.204Z" fill="#D3B14C"/>
<path d="M176.494 162.771H34.5062C33.1398 162.771 32.0321 163.877 32.0321 165.241V169.065C32.0321 170.429 33.1398 171.535 34.5062 171.535H176.494C177.86 171.535 178.968 170.429 178.968 169.065V165.241C178.968 163.877 177.86 162.771 176.494 162.771Z" fill="#D3B14C"/>
<path d="M181.968 261.225V99.4591C181.968 98.1797 180.928 97.1426 179.647 97.1426H177.523C176.241 97.1426 175.202 98.1797 175.202 99.4591V261.225C175.202 262.505 176.241 263.542 177.523 263.542H179.647C180.928 263.542 181.968 262.505 181.968 261.225Z" fill="#D3B14C"/>
<path d="M35.4258 261.203L35.4258 99.4372C35.4258 98.1578 34.3867 97.1206 33.1049 97.1206H30.9811C29.6993 97.1206 28.6603 98.1578 28.6603 99.4372L28.6603 261.203C28.6603 262.483 29.6993 263.52 30.9811 263.52H33.1049C34.3867 263.52 35.4258 262.483 35.4258 261.203Z" fill="#D3B14C"/>
<path d="M52.1753 192.165V239.502H161.167V192.165H52.1753ZM74.5517 221.384C74.8583 221.625 76.0844 221.778 77.9673 221.778C79.5437 221.778 81.5581 221.668 83.1126 221.515C85.1269 221.297 86.2435 221.1 87.8856 220.598L88.0608 226.345C87.9294 226.323 87.82 226.323 87.7543 226.323C87.3821 226.323 86.4406 226.367 85.2802 226.476C82.412 226.739 79.5218 226.892 77.3762 226.892C73.654 226.892 71.793 226.586 70.5231 225.711C69.6254 225.1 69.1218 224.16 68.9248 222.783C68.8372 222.258 68.8372 221.996 68.8153 219.767V207.507C68.7934 205.802 68.7715 205.496 68.662 204.709H74.3766C74.2671 205.474 74.2233 206.174 74.2233 207.529V211.331C77.3324 210.654 80.9231 209.343 83.5943 207.878C83.1783 206.589 82.9374 206.043 82.412 205.059L85.3459 204.316C86.1341 205.737 86.4406 206.458 86.9661 208.009L85.7837 208.403L88.1484 211.856C83.2221 214.216 79.3467 215.505 74.2014 216.489V219.155C74.2014 220.772 74.2452 221.122 74.5079 221.384H74.5517ZM87.6448 207.966C87.0755 206.217 86.6814 205.256 86.0465 204.119L88.9366 203.311C89.7029 204.513 90.1627 205.562 90.6663 207.004L87.6448 207.966ZM116.327 218.827C114.751 218.674 114.532 218.674 110.218 218.674H98.6141C94.2789 218.674 94.0381 218.674 92.5054 218.827V212.927C94.2351 213.145 94.892 213.167 98.5922 213.167H110.262C113.962 213.167 114.619 213.145 116.349 212.927V218.827H116.327ZM127.668 210.96C127.493 216.707 126.968 219.745 125.698 222.63C124.778 224.75 123.771 226.258 122.151 228.028C120.334 225.755 119.655 225.078 117.706 223.657C118.889 222.63 119.414 221.974 120.159 220.619C121.691 217.735 122.26 214.282 122.26 207.747C122.26 205.824 122.239 205.3 122.129 204.469L127.953 204.775C127.88 205.416 127.785 207.478 127.668 210.96ZM137.412 225.821C136.361 226.476 135.441 226.892 133.908 227.394C133.646 227.504 133.383 227.569 133.076 227.678C132.639 227.853 132.507 227.919 132.179 228.115L129.551 225.384C129.814 224.815 129.858 224.444 129.858 223.548L129.989 207.092V205.868C129.989 205.3 129.967 204.95 129.88 204.316L135.638 204.36C135.507 205.278 135.485 205.78 135.463 207.157L135.31 220.619C136.492 219.811 137.171 219.068 137.959 217.8C138.747 216.489 139.229 215.309 139.645 213.56C141.199 215.418 141.747 215.964 143.805 217.625C142.316 221.428 140.367 223.963 137.434 225.799L137.412 225.821Z" fill="#ED6F4B"/>
</g>
<defs>
<clipPath id="clip0_323_1163">
<rect width="211" height="268" fill="white"/>
</clipPath>
</defs>
</svg>
