<svg width="422" height="580" viewBox="0 0 422 580" fill="none" xmlns="http://www.w3.org/2000/svg">
<path d="M28.5 49.5H1.5V1.05762L14.6826 11.8867L15 12.1475L15.3174 11.8867L28.5 1.05762V49.5Z" fill="#5582B0" stroke="#72550B"/>
<path d="M56.5 49.5H29.5V1.05762L42.6826 11.8867L43 12.1475L43.3174 11.8867L56.5 1.05762V49.5Z" fill="#E8D8A9" stroke="#72550B"/>
<path d="M84.5 49.5H57.5V1.05762L70.6826 11.8867L71 12.1475L71.3174 11.8867L84.5 1.05762V49.5Z" fill="#5582B0" stroke="#72550B"/>
<path d="M112.5 49.5H85.5V1.05762L98.6826 11.8867L99 12.1475L99.3174 11.8867L112.5 1.05762V49.5Z" fill="#E8D8A9" stroke="#72550B"/>
<path d="M140.5 49.5H113.5V1.05762L126.683 11.8867L127 12.1475L127.317 11.8867L140.5 1.05762V49.5Z" fill="#5582B0" stroke="#72550B"/>
<path d="M168.5 49.5H141.5V1.05762L154.683 11.8867L155 12.1475L155.317 11.8867L168.5 1.05762V49.5Z" fill="#E8D8A9" stroke="#72550B"/>
<path d="M196.5 49.5H169.5V1.05762L182.683 11.8867L183 12.1475L183.317 11.8867L196.5 1.05762V49.5Z" fill="#5582B0" stroke="#72550B"/>
<path d="M224.5 49.5H197.5V1.05762L210.683 11.8867L211 12.1475L211.317 11.8867L224.5 1.05762V49.5Z" fill="#E8D8A9" stroke="#72550B"/>
<path d="M252.5 49.5H225.5V1.05762L238.683 11.8867L239 12.1475L239.317 11.8867L252.5 1.05762V49.5Z" fill="#5582B0" stroke="#72550B"/>
<path d="M280.5 49.5H253.5V1.05762L266.683 11.8867L267 12.1475L267.317 11.8867L280.5 1.05762V49.5Z" fill="#E8D8A9" stroke="#72550B"/>
<path d="M308.5 49.5H281.5V1.05762L294.683 11.8867L295 12.1475L295.317 11.8867L308.5 1.05762V49.5Z" fill="#5582B0" stroke="#72550B"/>
<path d="M336.5 49.5H309.5V1.05762L322.683 11.8867L323 12.1475L323.317 11.8867L336.5 1.05762V49.5Z" fill="#E8D8A9" stroke="#72550B"/>
<path d="M364.5 49.5H337.5V1.05762L350.683 11.8867L351 12.1475L351.317 11.8867L364.5 1.05762V49.5Z" fill="#5582B0" stroke="#72550B"/>
<path d="M392.5 49.5H365.5V1.05762L378.683 11.8867L379 12.1475L379.317 11.8867L392.5 1.05762V49.5Z" fill="#E8D8A9" stroke="#72550B"/>
<path d="M420.5 49.5H393.5V1.05762L406.683 11.8867L407 12.1475L407.317 11.8867L420.5 1.05762V49.5Z" fill="#5582B0" stroke="#72550B"/>
<path d="M1.5 530.5L28.5 530.5L28.5 578.942L15.3174 568.113L15 567.853L14.6826 568.113L1.5 578.942L1.5 530.5Z" fill="#5582B0" stroke="#72550B"/>
<path d="M29.5 530.5L56.5 530.5L56.5 578.942L43.3174 568.113L43 567.853L42.6826 568.113L29.5 578.942L29.5 530.5Z" fill="#E8D8A9" stroke="#72550B"/>
<path d="M57.5 530.5L84.5 530.5L84.5 578.942L71.3174 568.113L71 567.853L70.6826 568.113L57.5 578.942L57.5 530.5Z" fill="#5582B0" stroke="#72550B"/>
<path d="M85.5 530.5L112.5 530.5L112.5 578.942L99.3174 568.113L99 567.853L98.6826 568.113L85.5 578.942L85.5 530.5Z" fill="#E8D8A9" stroke="#72550B"/>
<path d="M113.5 530.5L140.5 530.5L140.5 578.942L127.317 568.113L127 567.853L126.683 568.113L113.5 578.942L113.5 530.5Z" fill="#5582B0" stroke="#72550B"/>
<path d="M141.5 530.5L168.5 530.5L168.5 578.942L155.317 568.113L155 567.853L154.683 568.113L141.5 578.942L141.5 530.5Z" fill="#E8D8A9" stroke="#72550B"/>
<path d="M169.5 530.5L196.5 530.5L196.5 578.942L183.317 568.113L183 567.853L182.683 568.113L169.5 578.942L169.5 530.5Z" fill="#5582B0" stroke="#72550B"/>
<path d="M197.5 530.5L224.5 530.5L224.5 578.942L211.317 568.113L211 567.853L210.683 568.113L197.5 578.942L197.5 530.5Z" fill="#E8D8A9" stroke="#72550B"/>
<path d="M225.5 530.5L252.5 530.5L252.5 578.942L239.317 568.113L239 567.853L238.683 568.113L225.5 578.942L225.5 530.5Z" fill="#5582B0" stroke="#72550B"/>
<path d="M253.5 530.5L280.5 530.5L280.5 578.942L267.317 568.113L267 567.853L266.683 568.113L253.5 578.942L253.5 530.5Z" fill="#E8D8A9" stroke="#72550B"/>
<path d="M281.5 530.5L308.5 530.5L308.5 578.942L295.317 568.113L295 567.853L294.683 568.113L281.5 578.942L281.5 530.5Z" fill="#5582B0" stroke="#72550B"/>
<path d="M309.5 530.5L336.5 530.5L336.5 578.942L323.317 568.113L323 567.853L322.683 568.113L309.5 578.942L309.5 530.5Z" fill="#E8D8A9" stroke="#72550B"/>
<path d="M337.5 530.5L364.5 530.5L364.5 578.942L351.317 568.113L351 567.853L350.683 568.113L337.5 578.942L337.5 530.5Z" fill="#5582B0" stroke="#72550B"/>
<path d="M365.5 530.5L392.5 530.5L392.5 578.942L379.317 568.113L379 567.853L378.683 568.113L365.5 578.942L365.5 530.5Z" fill="#E8D8A9" stroke="#72550B"/>
<path d="M393.5 530.5L420.5 530.5L420.5 578.942L407.317 568.113L407 567.853L406.683 568.113L393.5 578.942L393.5 530.5Z" fill="#5582B0" stroke="#72550B"/>
<path d="M1 50V530M421 50V530" stroke="black" stroke-width="0.5"/>
<rect x="11.05" y="60.05" width="399.9" height="459.9" rx="19.95" stroke="black" stroke-width="0.1"/>
<rect x="29.5" y="66.5" width="99" height="99" rx="9.5" fill="#E3ADC1" stroke="#72550B"/>
<rect x="161.5" y="65.5" width="99" height="99" rx="9.5" fill="#E3ADC1" stroke="#72550B"/>
<rect x="291.5" y="65.5" width="99" height="99" rx="9.5" fill="#FFF799" stroke="#72550B"/>
<rect x="29.5" y="182.5" width="99" height="99" rx="9.5" fill="#DBEBC4" stroke="#72550B"/>
<rect x="161.5" y="182.5" width="99" height="99" rx="9.5" fill="#FFF799" stroke="#72550B"/>
<rect x="291.5" y="182.5" width="99" height="99" rx="9.5" fill="#BBDBF3" stroke="#72550B"/>
<rect x="29.5" y="298.5" width="99" height="99" rx="9.5" fill="#E3ADC1" stroke="#72550B"/>
<rect x="161.5" y="297.5" width="99" height="99" rx="9.5" fill="#BBDBF3" stroke="#72550B"/>
<rect x="291.5" y="298.5" width="99" height="99" rx="9.5" fill="#E3ADC1" stroke="#72550B"/>
<rect x="29.5" y="414.5" width="99" height="99" rx="9.5" fill="#BBDBF3" stroke="#72550B"/>
<rect x="161.5" y="414.5" width="99" height="99" rx="9.5" fill="#FFF799" stroke="#72550B"/>
<rect x="291.5" y="414.5" width="99" height="99" rx="9.5" fill="#DBEBC4" stroke="#72550B"/>
</svg>
