<svg width="152" height="129" viewBox="0 0 152 129" fill="none" xmlns="http://www.w3.org/2000/svg">
<g clip-path="url(#clip0_323_1155)">
<path d="M73.6312 57.2903L69.1289 65.0886C68.8769 65.5251 69.0264 66.0832 69.4629 66.3352L82.8006 74.0357C83.237 74.2877 83.7951 74.1381 84.0471 73.7017L88.5495 65.9033C88.8015 65.4669 88.6519 64.9088 88.2155 64.6568L74.8778 56.9563C74.4413 56.7043 73.8832 56.8538 73.6312 57.2903Z" fill="#B5B5B6" stroke="#6F5524" stroke-width="0.75" stroke-miterlimit="10"/>
<path d="M88.7057 65.6156L83.8761 73.9805C83.3817 74.837 83.6751 75.9321 84.5316 76.4266L128.981 102.089C129.837 102.584 130.932 102.29 131.427 101.434L136.256 93.0689C136.751 92.2124 136.457 91.1173 135.601 90.6228L91.1517 64.9602C90.2952 64.4657 89.2001 64.7591 88.7057 65.6156Z" fill="#3A6089" stroke="#6F5524" stroke-width="0.75" stroke-miterlimit="10"/>
<path d="M17.9528 30.7607C8.28086 47.513 14.0157 68.9158 30.768 78.5877C47.5203 88.2596 68.9274 82.5173 78.595 65.7725C88.2626 49.0277 82.5246 27.6131 65.7798 17.9455C49.035 8.27784 27.6204 14.0159 17.9528 30.7607ZM69.7156 60.646C62.876 72.4926 47.7294 76.5511 35.8828 69.7115C24.0361 62.8718 19.9776 47.7252 26.8173 35.8786C33.6569 24.032 48.8035 19.9734 60.6501 26.8131C72.4968 33.6527 76.5553 48.7993 69.7156 60.646Z" fill="#898989" stroke="#6F5524" stroke-width="0.75" stroke-miterlimit="10"/>
<path opacity="0.3" d="M69.7231 60.6502C76.5624 48.8042 72.5037 33.6567 60.6576 26.8174C48.8115 19.978 33.6641 24.0368 26.8247 35.8828C19.9854 47.7289 24.0442 62.8764 35.8902 69.7157C47.7363 76.555 62.8838 72.4963 69.7231 60.6502Z" fill="#BFD9DD" stroke="#6F5524" stroke-width="0.75" stroke-miterlimit="10"/>
</g>
<defs>
<clipPath id="clip0_323_1155">
<rect width="70.6693" height="134.262" fill="white" transform="translate(0 61.2014) rotate(-60)"/>
</clipPath>
</defs>
</svg>
