<svg width="314" height="501" viewBox="0 0 314 501" fill="none" xmlns="http://www.w3.org/2000/svg">
<rect x="0.5" y="1.49805" width="312.333" height="499.002" rx="24.5" fill="#F7B182" stroke="#72550B"/>
<path d="M52 17.72C52 16.9733 51.7467 16.3333 51.24 15.8C50.7333 15.24 50.1067 14.96 49.36 14.96C48.6133 14.96 47.9733 15.24 47.44 15.8C46.9067 16.3333 46.64 16.9733 46.64 17.72C46.64 18.44 46.9067 19.0667 47.44 19.6C47.9733 20.1333 48.6133 20.4 49.36 20.4C50.08 20.4 50.6933 20.1333 51.2 19.6C51.7333 19.0667 52 18.44 52 17.72ZM51.44 39.64C51.44 39.8267 51.3467 40.08 51.16 40.4C51 40.6933 50.8667 40.9067 50.76 41.04C50.3867 41.5733 49.9067 42.08 49.32 42.56C48.7333 43.0133 48.16 43.4133 47.6 43.76C45.7067 44.9067 43.76 45.6667 41.76 46.04C39.76 46.44 37.6667 46.64 35.48 46.64C32.12 46.64 29.5733 45.8933 27.84 44.4C26.1067 42.9067 25.24 40.48 25.24 37.12V18.8H30.08C30.0533 21.7867 30.0133 24.7867 29.96 27.8C29.9067 30.7867 29.88 33.7867 29.88 36.8C29.88 38.48 30.1067 39.8 30.56 40.76C31.0133 41.6933 31.7467 42.36 32.76 42.76C33.7733 43.1333 35.1067 43.32 36.76 43.32C38.3333 43.32 39.9067 43.16 41.48 42.84C43.08 42.4933 44.6267 42.0533 46.12 41.52C46.7067 41.3067 47.2933 41.08 47.88 40.84C48.4667 40.6 49.04 40.3467 49.6 40.08C49.6533 40.0533 49.7867 39.9867 50 39.88C50.24 39.7733 50.48 39.6667 50.72 39.56C50.96 39.4267 51.0933 39.36 51.12 39.36C51.3333 39.36 51.44 39.4533 51.44 39.64ZM47.88 26.44C47.88 26.6267 47.7733 26.7733 47.56 26.88C47.3733 26.96 47.2 27.0267 47.04 27.08C44.5333 28.0667 41.9467 28.9333 39.28 29.68C36.6133 30.4 33.9333 30.76 31.24 30.76C31.1067 30.76 30.9333 30.7467 30.72 30.72C30.5333 30.6933 30.44 30.5867 30.44 30.4C30.44 30.24 30.5067 30.1333 30.64 30.08C30.7733 30 30.8933 29.9467 31 29.92C33.48 28.96 35.7733 27.88 37.88 26.68C39.9867 25.48 42.0933 24.0667 44.2 22.44C44.3067 22.5467 44.5467 22.8 44.92 23.2C45.32 23.5733 45.7467 24 46.2 24.48C46.6533 24.96 47.04 25.3867 47.36 25.76C47.7067 26.1333 47.88 26.36 47.88 26.44ZM53.44 17.72C53.44 18.84 53.04 19.8133 52.24 20.64C51.4667 21.4667 50.5067 21.88 49.36 21.88C48.2133 21.88 47.2267 21.48 46.4 20.68C45.6 19.8533 45.2 18.8667 45.2 17.72C45.2 16.5467 45.6 15.56 46.4 14.76C47.2 13.9333 48.1867 13.52 49.36 13.52C50.5067 13.52 51.4667 13.9333 52.24 14.76C53.04 15.5867 53.44 16.5733 53.44 17.72ZM92.88 29.32L91.32 32.72H62.32L62.36 29.32H92.88ZM132 17.72C132 16.9733 131.747 16.3333 131.24 15.8C130.733 15.24 130.107 14.96 129.36 14.96C128.613 14.96 127.973 15.24 127.44 15.8C126.907 16.3333 126.64 16.9733 126.64 17.72C126.64 18.44 126.907 19.0667 127.44 19.6C127.973 20.1333 128.613 20.4 129.36 20.4C130.08 20.4 130.693 20.1333 131.2 19.6C131.733 19.0667 132 18.44 132 17.72ZM131.44 39.64C131.44 39.8267 131.347 40.08 131.16 40.4C131 40.6933 130.867 40.9067 130.76 41.04C130.387 41.5733 129.907 42.08 129.32 42.56C128.733 43.0133 128.16 43.4133 127.6 43.76C125.707 44.9067 123.76 45.6667 121.76 46.04C119.76 46.44 117.667 46.64 115.48 46.64C112.12 46.64 109.573 45.8933 107.84 44.4C106.107 42.9067 105.24 40.48 105.24 37.12V18.8H110.08C110.053 21.7867 110.013 24.7867 109.96 27.8C109.907 30.7867 109.88 33.7867 109.88 36.8C109.88 38.48 110.107 39.8 110.56 40.76C111.013 41.6933 111.747 42.36 112.76 42.76C113.773 43.1333 115.107 43.32 116.76 43.32C118.333 43.32 119.907 43.16 121.48 42.84C123.08 42.4933 124.627 42.0533 126.12 41.52C126.707 41.3067 127.293 41.08 127.88 40.84C128.467 40.6 129.04 40.3467 129.6 40.08C129.653 40.0533 129.787 39.9867 130 39.88C130.24 39.7733 130.48 39.6667 130.72 39.56C130.96 39.4267 131.093 39.36 131.12 39.36C131.333 39.36 131.44 39.4533 131.44 39.64ZM127.88 26.44C127.88 26.6267 127.773 26.7733 127.56 26.88C127.373 26.96 127.2 27.0267 127.04 27.08C124.533 28.0667 121.947 28.9333 119.28 29.68C116.613 30.4 113.933 30.76 111.24 30.76C111.107 30.76 110.933 30.7467 110.72 30.72C110.533 30.6933 110.44 30.5867 110.44 30.4C110.44 30.24 110.507 30.1333 110.64 30.08C110.773 30 110.893 29.9467 111 29.92C113.48 28.96 115.773 27.88 117.88 26.68C119.987 25.48 122.093 24.0667 124.2 22.44C124.307 22.5467 124.547 22.8 124.92 23.2C125.32 23.5733 125.747 24 126.2 24.48C126.653 24.96 127.04 25.3867 127.36 25.76C127.707 26.1333 127.88 26.36 127.88 26.44ZM133.44 17.72C133.44 18.84 133.04 19.8133 132.24 20.64C131.467 21.4667 130.507 21.88 129.36 21.88C128.213 21.88 127.227 21.48 126.4 20.68C125.6 19.8533 125.2 18.8667 125.2 17.72C125.2 16.5467 125.6 15.56 126.4 14.76C127.2 13.9333 128.187 13.52 129.36 13.52C130.507 13.52 131.467 13.9333 132.24 14.76C133.04 15.5867 133.44 16.5733 133.44 17.72ZM172.88 29.32L171.32 32.72H142.32L142.36 29.32H172.88ZM210.4 26.48C210.4 26.96 210.347 27.4533 210.24 27.96C210.16 28.44 210.067 28.92 209.96 29.4C209.053 33.64 207.187 37.0933 204.36 39.76C201.533 42.4267 198.093 44.3733 194.04 45.6C193.24 45.84 192.413 46.0267 191.56 46.16C190.733 46.2933 189.893 46.4133 189.04 46.52C188.613 46.5733 188.187 46.6133 187.76 46.64C187.333 46.6933 186.893 46.72 186.44 46.72C186.2 46.72 186 46.6933 185.84 46.64C185.68 46.6133 185.6 46.4667 185.6 46.2C185.6 46.12 185.68 46.0533 185.84 46C186.027 45.9467 186.147 45.9067 186.2 45.88C187.533 45.5333 188.76 45.1867 189.88 44.84C191 44.4933 192.173 43.9867 193.4 43.32C195.56 42.12 197.493 40.68 199.2 39C200.933 37.2933 202.293 35.2933 203.28 33C203.573 32.3867 203.853 31.6267 204.12 30.72C204.413 29.8133 204.6 29.0133 204.68 28.32H183.6V26.48H210.4ZM208.24 18.44C208.24 19.1333 207.973 19.7067 207.44 20.16C206.907 20.5867 206.307 20.8 205.64 20.8H185.68V18.84H202.8C202.853 18.12 203.107 17.4533 203.56 16.84C204.013 16.2267 204.64 15.92 205.44 15.92C206.187 15.92 206.84 16.1467 207.4 16.6C207.96 17.0533 208.24 17.6667 208.24 18.44ZM252 42.88C252 43.1467 251.92 43.3867 251.76 43.6C251.627 43.7867 251.413 43.88 251.12 43.88C250.96 43.88 250.84 43.8533 250.76 43.8C250.68 43.72 250.6 43.6267 250.52 43.52C249.907 42.6133 249.293 41.72 248.68 40.84C248.093 39.9333 247.48 39.0533 246.84 38.2C246.787 38.2267 246.72 38.28 246.64 38.36C245.867 39.0267 245.133 39.6 244.44 40.08C243.747 40.5333 243.013 40.92 242.24 41.24C241.493 41.5333 240.6 41.7733 239.56 41.96C238.253 42.2 236.92 42.4 235.56 42.56C234.2 42.72 232.853 42.8667 231.52 43C230.213 43.1333 228.92 43.2667 227.64 43.4C226.36 43.5067 225.067 43.5867 223.76 43.64L222.76 40.56C223.667 40.4267 224.32 40.2 224.72 39.88C225.147 39.56 225.587 39.0267 226.04 38.28C226.627 37.32 227.173 36.2533 227.68 35.08C228.187 33.9067 228.653 32.72 229.08 31.52C229.533 30.2933 229.92 29.1467 230.24 28.08C230.773 26.4533 231.293 24.8267 231.8 23.2C232.307 21.5733 232.773 19.9467 233.2 18.32L238.44 19.68C237.667 21.9467 236.733 24.2533 235.64 26.6C234.573 28.9467 233.413 31.2533 232.16 33.52C230.933 35.7867 229.667 37.9467 228.36 40C230.253 39.9467 232.227 39.8667 234.28 39.76C236.36 39.6267 238.4 39.36 240.4 38.96C242.427 38.5333 244.293 37.8667 246 36.96C245.2 35.8667 244.36 34.8 243.48 33.76C242.6 32.6933 241.68 31.6933 240.72 30.76L244.44 28.28C245.293 29.1067 246.16 30.1067 247.04 31.28C247.947 32.4267 248.773 33.6667 249.52 35C250.267 36.3067 250.867 37.64 251.32 39C251.773 40.3333 252 41.6267 252 42.88ZM286.2 21.84C286.173 22.5867 285.893 23.4267 285.36 24.36C284.827 25.2667 284.173 26.1867 283.4 27.12C282.627 28.0533 281.84 28.9067 281.04 29.68C280.24 30.4533 279.56 31.0667 279 31.52L279.04 47.08H274.36L274.48 34.92C273.68 35.48 272.747 36.04 271.68 36.6C270.613 37.1333 269.493 37.64 268.32 38.12C267.147 38.5733 265.973 38.9467 264.8 39.24C263.653 39.5067 262.6 39.64 261.64 39.64C261.56 39.64 261.387 39.64 261.12 39.64C260.853 39.6133 260.72 39.5067 260.72 39.32C260.72 39.1867 260.827 39.0667 261.04 38.96C261.28 38.8533 261.533 38.76 261.8 38.68C262.067 38.5733 262.253 38.5067 262.36 38.48C263.32 38.0267 264.267 37.56 265.2 37.08C266.16 36.5733 267.08 36.0267 267.96 35.44C269.373 34.5067 270.853 33.4133 272.4 32.16C273.947 30.88 275.387 29.5067 276.72 28.04C278.08 26.5733 279.147 25.0667 279.92 23.52C275.12 23.6 270.333 23.64 265.56 23.64V21.84H274.36C274.253 20.6667 274.16 19.56 274.08 18.52C274 17.4533 273.907 16.3067 273.8 15.08C274.227 15.08 274.827 15.1067 275.6 15.16C276.373 15.2133 277.133 15.2933 277.88 15.4C278.653 15.48 279.213 15.56 279.56 15.64C279.747 15.6667 279.907 15.7333 280.04 15.84C280.2 15.92 280.28 16.08 280.28 16.32C280.28 16.56 280.16 16.9333 279.92 17.44C279.707 17.9467 279.427 18.4933 279.08 19.08C278.76 19.6667 278.44 20.2133 278.12 20.72C277.827 21.2267 277.6 21.6 277.44 21.84H286.2ZM292.64 38.28C292.64 38.52 292.427 38.6667 292 38.72C291.6 38.7467 291.307 38.76 291.12 38.76C289.093 38.76 287.147 38.2667 285.28 37.28C283.413 36.2933 281.747 35.12 280.28 33.76L283.68 30.72C284.347 31.52 285.133 32.3867 286.04 33.32C286.973 34.2267 287.947 35.0667 288.96 35.84C289.973 36.6133 290.947 37.2267 291.88 37.68C292.013 37.7333 292.173 37.8 292.36 37.88C292.547 37.96 292.64 38.0933 292.64 38.28Z" fill="#7495C3"/>
<path d="M97 58.3843C119.368 58.3843 137.5 76.4809 137.5 98.8022C137.5 121.124 119.368 139.221 97 139.221C74.6315 139.221 56.5 121.124 56.5 98.8022C56.5002 76.4809 74.6316 58.3843 97 58.3843Z" fill="#FBE6D1" stroke="#72550B"/>
<path d="M97 93.3149C100.039 93.3149 102.5 95.7732 102.5 98.8032C102.5 101.833 100.038 104.292 97 104.292C93.9616 104.292 91.5001 101.833 91.5 98.8032C91.5 95.7732 93.9615 93.3149 97 93.3149Z" fill="#F7B182" stroke="#72550B"/>
<path d="M217 58.3843C239.368 58.3843 257.5 76.4809 257.5 98.8022C257.5 121.124 239.368 139.221 217 139.221C194.632 139.221 176.5 121.124 176.5 98.8022C176.5 76.4809 194.632 58.3843 217 58.3843Z" fill="#FBE6D1" stroke="#72550B"/>
<path d="M217 93.3149C220.039 93.3149 222.5 95.7732 222.5 98.8032C222.5 101.833 220.038 104.292 217 104.292C213.962 104.292 211.5 101.833 211.5 98.8032C211.5 95.7732 213.961 93.3149 217 93.3149Z" fill="#F7B182" stroke="#72550B"/>
<path d="M97 145.211C119.368 145.211 137.5 163.308 137.5 185.629C137.5 207.95 119.368 226.048 97 226.048C74.6315 226.048 56.5 207.95 56.5 185.629C56.5002 163.308 74.6316 145.211 97 145.211Z" fill="#FBE6D1" stroke="#72550B"/>
<path d="M97 180.142C100.039 180.142 102.5 182.6 102.5 185.63C102.5 188.66 100.038 191.118 97 191.118C93.9616 191.118 91.5001 188.66 91.5 185.63C91.5 182.6 93.9615 180.142 97 180.142Z" fill="#F7B182" stroke="#72550B"/>
<path d="M217 145.211C239.368 145.211 257.5 163.308 257.5 185.629C257.5 207.95 239.368 226.048 217 226.048C194.632 226.048 176.5 207.95 176.5 185.629C176.5 163.308 194.632 145.211 217 145.211Z" fill="#FBE6D1" stroke="#72550B"/>
<path d="M217 180.142C220.039 180.142 222.5 182.6 222.5 185.63C222.5 188.66 220.038 191.118 217 191.118C213.962 191.118 211.5 188.66 211.5 185.63C211.5 182.6 213.961 180.142 217 180.142Z" fill="#F7B182" stroke="#72550B"/>
<path d="M97 232.038C119.368 232.038 137.5 250.135 137.5 272.456C137.5 294.778 119.368 312.875 97 312.875C74.6315 312.875 56.5 294.778 56.5 272.456C56.5002 250.135 74.6316 232.038 97 232.038Z" fill="#FBE6D1" stroke="#72550B"/>
<path d="M97 266.968C100.039 266.968 102.5 269.427 102.5 272.457C102.5 275.486 100.038 277.945 97 277.945C93.9616 277.945 91.5001 275.486 91.5 272.457C91.5 269.427 93.9615 266.968 97 266.968Z" fill="#F7B182" stroke="#72550B"/>
<path d="M217 232.038C239.368 232.038 257.5 250.135 257.5 272.456C257.5 294.778 239.368 312.875 217 312.875C194.632 312.875 176.5 294.778 176.5 272.456C176.5 250.135 194.632 232.038 217 232.038Z" fill="#FBE6D1" stroke="#72550B"/>
<path d="M217 266.968C220.039 266.968 222.5 269.427 222.5 272.457C222.5 275.486 220.038 277.945 217 277.945C213.962 277.945 211.5 275.486 211.5 272.457C211.5 269.427 213.961 266.968 217 266.968Z" fill="#F7B182" stroke="#72550B"/>
<path d="M97 318.865C119.368 318.865 137.5 336.961 137.5 359.283C137.5 381.604 119.368 399.702 97 399.702C74.6315 399.702 56.5 381.604 56.5 359.283C56.5002 336.961 74.6316 318.865 97 318.865Z" fill="#FBE6D1" stroke="#72550B"/>
<path d="M97 353.795C100.039 353.795 102.5 356.253 102.5 359.283C102.5 362.313 100.038 364.771 97 364.771C93.9616 364.771 91.5001 362.313 91.5 359.283C91.5 356.253 93.9615 353.795 97 353.795Z" fill="#F7B182" stroke="#72550B"/>
<path d="M217 318.865C239.368 318.865 257.5 336.961 257.5 359.283C257.5 381.604 239.368 399.702 217 399.702C194.632 399.702 176.5 381.604 176.5 359.283C176.5 336.961 194.632 318.865 217 318.865Z" fill="#FBE6D1" stroke="#72550B"/>
<path d="M217 353.795C220.039 353.795 222.5 356.253 222.5 359.283C222.5 362.313 220.038 364.771 217 364.771C213.962 364.771 211.5 362.313 211.5 359.283C211.5 356.253 213.961 353.795 217 353.795Z" fill="#F7B182" stroke="#72550B"/>
<path d="M97 405.691C119.368 405.691 137.5 423.788 137.5 446.109C137.5 468.431 119.368 486.528 97 486.528C74.6315 486.528 56.5 468.431 56.5 446.109C56.5002 423.788 74.6316 405.691 97 405.691Z" fill="#FBE6D1" stroke="#72550B"/>
<path d="M97 440.622C100.039 440.622 102.5 443.08 102.5 446.11C102.5 449.14 100.038 451.598 97 451.598C93.9616 451.598 91.5001 449.14 91.5 446.11C91.5 443.08 93.9615 440.622 97 440.622Z" fill="#F7B182" stroke="#72550B"/>
<path d="M217 405.691C239.368 405.691 257.5 423.788 257.5 446.109C257.5 468.431 239.368 486.528 217 486.528C194.632 486.528 176.5 468.431 176.5 446.109C176.5 423.788 194.632 405.691 217 405.691Z" fill="#FBE6D1" stroke="#72550B"/>
<path d="M217 440.622C220.039 440.622 222.5 443.08 222.5 446.11C222.5 449.14 220.038 451.598 217 451.598C213.962 451.598 211.5 449.14 211.5 446.11C211.5 443.08 213.961 440.622 217 440.622Z" fill="#F7B182" stroke="#72550B"/>
</svg>
