<svg width="390" height="818" viewBox="0 0 390 818" fill="none" xmlns="http://www.w3.org/2000/svg">
<path d="M0 0H390V678.276C390 698.599 360.805 701.817 356.379 681.982C352.095 662.784 324.069 664.955 322.793 684.583L319.415 736.559C317.457 766.687 273.343 767.247 270.622 737.178L268.507 713.818C266.832 695.311 242.847 689.153 232.464 704.565L227.57 711.827C222.053 720.016 209.991 719.986 204.514 711.771C196.979 700.468 179.371 705.603 179.092 719.184L178.881 729.455C178.445 750.673 147.414 752.267 144.806 731.206L141.5 704.5C140.375 696.141 128.259 696.222 127.246 704.595L115.683 800.197C112.856 823.568 78.7095 822.82 76.9081 799.348L70.4201 714.807C68.8133 693.87 38.5797 692.61 35.236 713.341C31.7612 734.885 0 732.34 0 710.517V0Z" fill="#815C41"/>
</svg>
