<svg width="407" height="471" viewBox="0 0 407 471" fill="none" xmlns="http://www.w3.org/2000/svg">
<g clip-path="url(#clip0_323_594)">
<path d="M369.288 51.847C371.677 46.711 367.021 41.0848 361.529 42.47L256.061 69.6059L234.921 87.0992L301.754 167.867L322.894 150.373L369.288 51.847Z" fill="#FCE1C7" stroke="#6F5524" stroke-width="0.75" stroke-miterlimit="10"/>
<path d="M293.555 156.431L297.304 137.531L278.037 137.677L282.114 117.136L261.173 117.297L265.156 97.1512L244.62 97.2931L248.931 75.5061L-116.964 378.275C-121.78 382.261 -122.451 389.345 -118.468 394.159L-66.0152 457.547C-62.0321 462.361 -54.9471 463.028 -50.131 459.043L315.764 156.273L293.555 156.431Z" fill="#5E7C54" stroke="#6F5524" stroke-width="0.75" stroke-miterlimit="10"/>
<path d="M229.465 109.413L-116.978 396.086" stroke="#6F5524" stroke-width="0.5" stroke-miterlimit="10"/>
<path d="M236.114 137.823L-62.1062 384.593" stroke="#6F5524" stroke-width="0.5" stroke-miterlimit="10"/>
<path d="M232.408 175.749L-65.812 422.519" stroke="#6F5524" stroke-width="0.5" stroke-miterlimit="10"/>
<path d="M287.861 161.774L-10.3589 408.544" stroke="#6F5524" stroke-width="0.5" stroke-miterlimit="10"/>
<path d="M369.288 51.8469C371.677 46.7109 367.021 41.0847 361.529 42.4699L321.293 52.8047L351.555 89.3751L369.288 51.8469Z" fill="#6F5524" stroke="#6F5524" stroke-width="0.75" stroke-miterlimit="10"/>
</g>
<defs>
<clipPath id="clip0_323_594">
<rect width="111" height="604" fill="white" transform="translate(335.343) rotate(50.3931)"/>
</clipPath>
</defs>
</svg>
