<svg width="249" height="182" viewBox="0 0 249 182" fill="none" xmlns="http://www.w3.org/2000/svg">
<g clip-path="url(#clip0_323_624)">
<path d="M246.735 112.414L37.4837 1.4939L1.49471 69.3874L210.746 180.307L246.735 112.414Z" fill="#76C4AE"/>
<mask id="mask0_323_624" style="mask-type:luminance" maskUnits="userSpaceOnUse" x="1" y="1" width="246" height="180">
<path d="M246.735 112.414L37.4837 1.4939L1.49471 69.3874L210.746 180.307L246.735 112.414Z" fill="white"/>
</mask>
<g mask="url(#mask0_323_624)">
<path d="M100.218 34.7481L66.1046 49.8448L74.6782 87.3739L38.7255 101.496L46.9488 139.686" stroke="#A578B3" stroke-width="1.84" stroke-linecap="round" stroke-linejoin="round"/>
<path d="M103.025 68.3411C105.246 68.4112 107.454 67.2699 108.572 65.1601C110.135 62.2115 109.001 58.5494 106.038 56.9788C105.272 56.5726 104.436 56.3578 103.624 56.2854C104.68 53.4913 103.549 50.2544 100.816 48.8056C98.0827 47.3568 94.5094 48.2955 92.862 50.9713C92.3474 50.2753 91.6634 49.6522 90.846 49.2189C87.883 47.6483 84.2153 48.7649 82.6524 51.7135C81.5879 53.7216 81.7956 56.0458 82.9709 57.841C80.8255 57.8759 78.7853 59.0087 77.7209 61.0167C76.1579 63.9653 77.2924 67.6275 80.2555 69.1981C81.0984 69.6449 81.9725 69.8478 82.8629 69.8964C81.6376 72.7635 82.7656 76.1292 85.5754 77.6186C88.3852 79.108 91.7513 78.1898 93.4485 75.6053C93.9644 76.237 94.5853 76.794 95.3771 77.2138C98.3402 78.7844 102.008 77.6678 103.571 74.7192C104.689 72.6095 104.406 70.1803 103.09 68.3428L103.025 68.3411Z" fill="#FDE7D0"/>
<path d="M90.5259 68.0324C93.2204 69.4607 96.5569 68.4449 97.9782 65.7636C99.3995 63.0823 98.3674 59.7508 95.673 58.3225C92.9785 56.8942 89.642 57.91 88.2207 60.5913C86.7993 63.2727 87.8314 66.6042 90.5259 68.0324Z" fill="#F2A0B5"/>
<path d="M82.4173 25.182C84.6379 25.252 86.8462 24.1107 87.9645 22.0009C89.5275 19.0524 88.393 15.3902 85.4299 13.8196C84.6636 13.4134 83.8286 13.1987 83.0162 13.1262C84.072 10.3321 82.9411 7.09518 80.208 5.6464C77.4748 4.19761 73.9015 5.13629 72.254 7.81215C71.7395 7.11613 71.0555 6.49304 70.2381 6.05976C67.2751 4.48912 63.6074 5.60572 62.0445 8.5543C60.98 10.5624 61.1877 12.8866 62.3629 14.6818C60.2176 14.7168 58.1774 15.8495 57.113 17.8576C55.55 20.8061 56.6845 24.4683 59.6475 26.0389C60.4905 26.4857 61.3646 26.6886 62.2549 26.7373C61.0296 29.6043 62.1577 32.97 64.9675 34.4594C67.7773 35.9488 71.1434 35.0306 72.8406 32.4462C73.3565 33.0778 73.9774 33.6349 74.7692 34.0546C77.7322 35.6252 81.3999 34.5086 82.9629 31.5601C84.0812 29.4503 83.7983 27.0211 82.4818 25.1836L82.4173 25.182Z" fill="#FDE7D0"/>
<path d="M69.8791 24.885C72.5735 26.3133 75.9101 25.2975 77.3314 22.6161C78.7527 19.9348 77.7206 16.6033 75.0261 15.175C72.3316 13.7467 68.9951 14.7625 67.5738 17.4439C66.1525 20.1252 67.1846 23.4567 69.8791 24.885Z" fill="#F2A0B5"/>
<path d="M151.716 61.9161C153.937 61.9861 156.145 60.8448 157.264 58.7351C158.827 55.7865 157.692 52.1244 154.729 50.5537C153.963 50.1475 153.128 49.9328 152.315 49.8604C153.371 47.0662 152.24 43.8293 149.507 42.3805C146.774 40.9317 143.201 41.8704 141.553 44.5463C141.039 43.8503 140.355 43.2272 139.537 42.7939C136.574 41.2232 132.907 42.3398 131.344 45.2884C130.279 47.2965 130.487 49.6207 131.662 51.4159C129.517 51.4509 127.477 52.5836 126.412 54.5917C124.849 57.5403 125.984 61.2024 128.947 62.773C129.79 63.2199 130.664 63.4227 131.554 63.4714C130.329 66.3385 131.457 69.7041 134.267 71.1935C137.076 72.6829 140.443 71.7647 142.14 69.1803C142.656 69.8119 143.277 70.369 144.068 70.7887C147.031 72.3594 150.699 71.2428 152.262 68.2942C153.38 66.1844 153.097 63.7552 151.781 61.9177L151.716 61.9161Z" fill="#FDE7D0"/>
<path d="M139.192 61.5937C141.886 63.022 145.223 62.0062 146.644 59.3249C148.065 56.6435 147.033 53.312 144.339 51.8838C141.644 50.4555 138.308 51.4713 136.886 54.1526C135.465 56.8339 136.497 60.1654 139.192 61.5937Z" fill="#F2A0B5"/>
<path d="M223.493 99.9635C225.714 100.033 227.922 98.8922 229.041 96.7824C230.604 93.8339 229.469 90.1717 226.506 88.6011C225.74 88.1949 224.905 87.9802 224.092 87.9077C225.148 85.1136 224.017 81.8767 221.284 80.4279C218.551 78.9791 214.978 79.9178 213.33 82.5936C212.816 81.8976 212.132 81.2745 211.314 80.8413C208.351 79.2706 204.683 80.3872 203.121 83.3358C202.056 85.3439 202.264 87.6681 203.439 89.4633C201.294 89.4983 199.253 90.631 198.189 92.6391C196.626 95.5876 197.761 99.2498 200.724 100.82C201.567 101.267 202.441 101.47 203.331 101.519C202.106 104.386 203.234 107.752 206.044 109.241C208.853 110.73 212.219 109.812 213.917 107.228C214.433 107.859 215.053 108.416 215.845 108.836C218.808 110.407 222.476 109.29 224.039 106.342C225.157 104.232 224.874 101.803 223.558 99.9651L223.493 99.9635Z" fill="#FDE7D0"/>
<path d="M210.955 99.6665C213.65 101.095 216.986 100.079 218.407 97.3976C219.829 94.7163 218.797 91.3848 216.102 89.9565C213.408 88.5282 210.071 89.544 208.65 92.2253C207.229 94.9067 208.261 98.2382 210.955 99.6665Z" fill="#F2A0B5"/>
<path d="M174.266 106.104C176.486 106.174 178.695 105.033 179.813 102.923C181.376 99.9747 180.241 96.3126 177.278 94.742C176.512 94.3358 175.677 94.121 174.865 94.0486C175.92 91.2544 174.789 88.0175 172.056 86.5688C169.323 85.12 165.75 86.0586 164.102 88.7345C163.588 88.0385 162.904 87.4154 162.086 86.9821C159.123 85.4115 155.456 86.5281 153.893 89.4767C152.828 91.4847 153.036 93.809 154.211 95.6042C152.066 95.6391 150.026 96.7718 148.961 98.7799C147.398 101.729 148.533 105.391 151.496 106.961C152.339 107.408 153.213 107.611 154.103 107.66C152.878 110.527 154.006 113.892 156.816 115.382C159.626 116.871 162.992 115.953 164.689 113.369C165.205 114 165.826 114.557 166.618 114.977C169.581 116.548 173.248 115.431 174.811 112.482C175.93 110.373 175.647 107.943 174.33 106.106L174.266 106.104Z" fill="#FDE7D0"/>
<path d="M161.741 105.782C164.435 107.21 167.772 106.194 169.193 103.513C170.615 100.832 169.582 97.5003 166.888 96.072C164.193 94.6437 160.857 95.6595 159.436 98.3408C158.014 101.022 159.046 104.354 161.741 105.782Z" fill="#F2A0B5"/>
<path d="M124.43 114.072C126.65 114.142 128.859 113.001 129.977 110.891C131.54 107.942 130.405 104.28 127.442 102.709C126.676 102.303 125.841 102.089 125.029 102.016C126.084 99.222 124.953 95.9851 122.22 94.5363C119.487 93.0875 115.914 94.0262 114.266 96.702C113.752 96.006 113.068 95.3829 112.25 94.9497C109.287 93.379 105.62 94.4956 104.057 97.4442C102.992 99.4523 103.2 101.777 104.375 103.572C102.23 103.607 100.19 104.739 99.1253 106.747C97.5623 109.696 98.6969 113.358 101.66 114.929C102.503 115.376 103.377 115.578 104.267 115.627C103.042 118.494 104.17 121.86 106.98 123.349C109.79 124.839 113.156 123.92 114.853 121.336C115.369 121.968 115.99 122.525 116.782 122.944C119.745 124.515 123.412 123.399 124.975 120.45C126.094 118.34 125.811 115.911 124.494 114.074L124.43 114.072Z" fill="#FDE7D0"/>
<path d="M111.905 113.749C114.599 115.178 117.936 114.162 119.357 111.481C120.779 108.799 119.746 105.468 117.052 104.04C114.358 102.611 111.021 103.627 109.6 106.308C108.178 108.99 109.21 112.321 111.905 113.749Z" fill="#F2A0B5"/>
<path d="M54.8495 77.1888C57.0701 77.2588 59.2784 76.1175 60.3968 74.0078C61.9597 71.0592 60.8252 67.3971 57.8622 65.8264C57.0959 65.4202 56.2608 65.2055 55.4485 65.1331C56.5042 62.3389 55.3734 59.102 52.6402 57.6532C49.9071 56.2044 46.3338 57.1431 44.6863 59.819C44.1718 59.123 43.4877 58.4999 42.6703 58.0666C39.7073 56.496 36.0397 57.6126 34.4767 60.5611C33.4123 62.5692 33.6199 64.8935 34.7952 66.6886C32.6498 66.7236 30.6097 67.8563 29.5452 69.8644C27.9822 72.813 29.1168 76.4751 32.0798 78.0458C32.9227 78.4926 33.7968 78.6954 34.6872 78.7441C33.4619 81.6112 34.59 84.9768 37.3997 86.4662C40.2095 87.9556 43.5757 87.0374 45.2728 84.453C45.7887 85.0846 46.4096 85.6417 47.2015 86.0614C50.1645 87.6321 53.8321 86.5155 55.3951 83.5669C56.5134 81.4571 56.2305 79.0279 54.9141 77.1905L54.8495 77.1888Z" fill="#FDE7D0"/>
<path d="M42.3248 76.8664C45.0193 78.2947 48.3558 77.2789 49.7771 74.5976C51.1984 71.9162 50.1663 68.5847 47.4719 67.1565C44.7774 65.7282 41.4409 66.744 40.0195 69.4253C38.5982 72.1066 39.6303 75.4381 42.3248 76.8664Z" fill="#F2A0B5"/>
<path d="M33.3685 31.4175C35.5891 31.4876 37.7973 30.3463 38.9157 28.2365C40.4787 25.288 39.3441 21.6258 36.3811 20.0552C35.6148 19.649 34.7797 19.4343 33.9674 19.3618C35.0232 16.5677 33.8923 13.3308 31.1591 11.882C28.426 10.4332 24.8527 11.3719 23.2052 14.0477C22.6907 13.3517 22.0067 12.7286 21.1893 12.2954C18.2262 10.7247 14.5586 11.8413 12.9956 14.7899C11.9312 16.798 12.1389 19.1222 13.3141 20.9174C11.1687 20.9524 9.12859 22.0851 8.06415 24.0932C6.50117 27.0417 7.63569 30.7039 10.5987 32.2745C11.4416 32.7213 12.3157 32.9242 13.2061 32.9729C11.9808 35.8399 13.1089 39.2056 15.9187 40.695C18.7284 42.1844 22.0946 41.2662 23.7917 38.6818C24.3076 39.3134 24.9285 39.8705 25.7204 40.2902C28.6834 41.8608 32.351 40.7442 33.914 37.7957C35.0324 35.6859 34.7495 33.2567 33.433 31.4192L33.3685 31.4175Z" fill="#FDE7D0"/>
<path d="M20.8437 31.0952C23.5381 32.5235 26.8746 31.5077 28.296 28.8263C29.7173 26.145 28.6852 22.8135 25.9907 21.3852C23.2962 19.9569 19.9597 20.9727 18.5384 23.6541C17.1171 26.3354 18.1492 29.6669 20.8437 31.0952Z" fill="#F2A0B5"/>
<path d="M5.65246 83.7039C7.87307 83.7739 10.0813 82.6327 11.1997 80.5229C12.7627 77.5743 11.6281 73.9122 8.66511 72.3416C7.89881 71.9354 7.06373 71.7206 6.25139 71.6482C7.30715 68.8541 6.17627 65.6172 3.44313 64.1684C0.709989 62.7196 -2.86332 63.6583 -4.51079 66.3341C-5.0253 65.6381 -5.70935 65.015 -6.52674 64.5817C-9.48977 63.0111 -13.1574 64.1277 -14.7204 67.0763C-15.7848 69.0844 -15.5771 71.4086 -14.4019 73.2038C-16.5473 73.2387 -18.5874 74.3715 -19.6519 76.3795C-21.2148 79.3281 -20.0803 82.9902 -17.1173 84.5609C-16.2744 85.0077 -15.4003 85.2106 -14.5099 85.2592C-15.7352 88.1263 -14.6071 91.492 -11.7973 92.9814C-8.98757 94.4708 -5.62142 93.5525 -3.92427 90.9681C-3.40835 91.5998 -2.78746 92.1568 -1.99561 92.5766C0.967417 94.1472 4.63504 93.0306 6.19803 90.082C7.31637 87.9723 7.03347 85.543 5.71702 83.7056L5.65246 83.7039Z" fill="#FDE7D0"/>
<path d="M76.1521 121.075C78.3728 121.145 80.581 120.003 81.6994 117.894C83.2624 114.945 82.1278 111.283 79.1648 109.712C78.3985 109.306 77.5634 109.091 76.7511 109.019C77.8068 106.225 76.676 102.988 73.9428 101.539C71.2097 100.09 67.6364 101.029 65.9889 103.705C65.4744 103.009 64.7903 102.386 63.973 101.952C61.0099 100.382 57.3423 101.498 55.7793 104.447C54.7149 106.455 54.9225 108.779 56.0978 110.574C53.9524 110.609 51.9123 111.742 50.8478 113.75C49.2849 116.699 50.4194 120.361 53.3824 121.931C54.2253 122.378 55.0994 122.581 55.9898 122.63C54.7645 125.497 55.8926 128.863 58.7024 130.352C61.5121 131.841 64.8783 130.923 66.5754 128.339C67.0913 128.97 67.7122 129.527 68.5041 129.947C71.4671 131.518 75.1347 130.401 76.6977 127.453C77.8161 125.343 77.5332 122.914 76.2167 121.076L76.1521 121.075Z" fill="#FDE7D0"/>
<path d="M146.55 158.391C148.77 158.461 150.978 157.319 152.097 155.21C153.66 152.261 152.525 148.599 149.562 147.028C148.796 146.622 147.961 146.407 147.149 146.335C148.204 143.541 147.073 140.304 144.34 138.855C141.607 137.406 138.034 138.345 136.386 141.021C135.872 140.325 135.188 139.702 134.37 139.268C131.407 137.698 127.74 138.814 126.177 141.763C125.112 143.771 125.32 146.095 126.495 147.891C124.35 147.926 122.31 149.058 121.245 151.066C119.682 154.015 120.817 157.677 123.78 159.248C124.623 159.694 125.497 159.897 126.387 159.946C125.162 162.813 126.29 166.179 129.1 167.668C131.91 169.158 135.276 168.239 136.973 165.655C137.489 166.287 138.11 166.844 138.902 167.263C141.865 168.834 145.532 167.717 147.095 164.769C148.214 162.659 147.931 160.23 146.614 158.392L146.55 158.391Z" fill="#FDE7D0"/>
<path d="M194.725 151.334C196.946 151.404 199.154 150.263 200.272 148.153C201.835 145.204 200.701 141.542 197.738 139.971C196.971 139.565 196.136 139.351 195.324 139.278C196.38 136.484 195.249 133.247 192.516 131.798C189.783 130.349 186.209 131.288 184.562 133.964C184.047 133.268 183.363 132.645 182.546 132.212C179.583 130.641 175.915 131.758 174.352 134.706C173.288 136.714 173.495 139.038 174.671 140.834C172.525 140.869 170.485 142.001 169.421 144.009C167.858 146.958 168.992 150.62 171.955 152.191C172.798 152.638 173.672 152.84 174.563 152.889C173.337 155.756 174.465 159.122 177.275 160.611C180.085 162.101 183.451 161.182 185.148 158.598C185.664 159.23 186.285 159.787 187.077 160.206C190.04 161.777 193.708 160.66 195.271 157.712C196.389 155.602 196.106 153.173 194.79 151.335L194.725 151.334Z" fill="#FDE7D0"/>
<path d="M182.226 151.025C184.92 152.453 188.257 151.438 189.678 148.756C191.099 146.075 190.067 142.743 187.373 141.315C184.678 139.887 181.342 140.903 179.92 143.584C178.499 146.265 179.531 149.597 182.226 151.025Z" fill="#F2A0B5"/>
<path d="M243.36 142.73C245.581 142.8 247.789 141.659 248.908 139.549C250.471 136.6 249.336 132.938 246.373 131.368C245.607 130.961 244.772 130.747 243.959 130.674C245.015 127.88 243.884 124.643 241.151 123.194C238.418 121.746 234.845 122.684 233.197 125.36C232.683 124.664 231.999 124.041 231.181 123.608C228.218 122.037 224.551 123.154 222.988 126.102C221.923 128.11 222.131 130.435 223.306 132.23C221.161 132.265 219.121 133.398 218.056 135.406C216.493 138.354 217.628 142.016 220.591 143.587C221.434 144.034 222.308 144.237 223.198 144.285C221.973 147.152 223.101 150.518 225.911 152.008C228.72 153.497 232.087 152.579 233.784 149.994C234.3 150.626 234.92 151.183 235.712 151.603C238.675 153.173 242.343 152.057 243.906 149.108C245.024 146.998 244.741 144.569 243.425 142.732L243.36 142.73Z" fill="#FDE7D0"/>
<path d="M230.861 142.421C233.556 143.85 236.892 142.834 238.314 140.153C239.735 137.471 238.703 134.14 236.008 132.711C233.314 131.283 229.977 132.299 228.556 134.98C227.135 137.662 228.167 140.993 230.861 142.421Z" fill="#F2A0B5"/>
<path d="M218.275 196.411C220.496 196.481 222.704 195.34 223.823 193.23C225.386 190.282 224.251 186.619 221.288 185.049C220.522 184.643 219.687 184.428 218.874 184.355C219.93 181.561 218.799 178.324 216.066 176.876C213.333 175.427 209.76 176.366 208.112 179.041C207.598 178.345 206.914 177.722 206.096 177.289C203.133 175.718 199.466 176.835 197.903 179.784C196.838 181.792 197.046 184.116 198.221 185.911C196.076 185.946 194.036 187.079 192.971 189.087C191.408 192.035 192.543 195.698 195.506 197.268C196.349 197.715 197.223 197.918 198.113 197.967C196.888 200.834 198.016 204.199 200.826 205.689C203.635 207.178 207.002 206.26 208.699 203.675C209.215 204.307 209.836 204.864 210.627 205.284C213.59 206.854 217.258 205.738 218.821 202.789C219.939 200.68 219.656 198.25 218.34 196.413L218.275 196.411Z" fill="#FDE7D0"/>
<path d="M96.2845 32.6628L62.171 47.7596L70.7445 85.2887L34.7918 99.4106L43.0151 137.601" stroke="#F09495" stroke-width="1.38" stroke-linecap="round" stroke-linejoin="round"/>
<path d="M113.961 42.0325L120.614 78.7392L84.7423 92.7086L93.2351 130.39L57.0129 145.02" stroke="#A578B3" stroke-width="1.84" stroke-linecap="round" stroke-linejoin="round"/>
<path d="M117.869 44.1042L124.548 80.8244L88.6759 94.7938L97.1687 132.475L60.9465 147.106" stroke="#F09495" stroke-width="1.38" stroke-linecap="round" stroke-linejoin="round"/>
<path d="M184.371 79.3235L191.012 116.056L155.14 130.025L163.633 167.707L127.41 182.337" stroke="#A578B3" stroke-width="1.84" stroke-linecap="round" stroke-linejoin="round"/>
<path d="M188.292 81.4341L194.945 118.141L159.074 132.11L167.566 169.792L131.344 184.422" stroke="#F09495" stroke-width="1.38" stroke-linecap="round" stroke-linejoin="round"/>
<path d="M43.9597 4.89396L50.6254 41.6396L14.7535 55.609L23.2463 93.2905L-12.9759 107.921" stroke="#A578B3" stroke-width="1.84" stroke-linecap="round" stroke-linejoin="round"/>
<path d="M47.8799 7.00467L54.5335 43.7113L18.6616 57.6807L27.1544 95.3623L-9.06779 109.993" stroke="#F09495" stroke-width="1.38" stroke-linecap="round" stroke-linejoin="round"/>
<path d="M171.038 72.2556L136.911 87.3778L145.484 124.907L109.532 139.029L117.755 177.219" stroke="#A578B3" stroke-width="1.84" stroke-linecap="round" stroke-linejoin="round"/>
<path d="M167.116 70.2095L133.003 85.3063L141.576 122.835L105.624 136.957L113.847 175.147" stroke="#F09495" stroke-width="1.38" stroke-linecap="round" stroke-linejoin="round"/>
<path d="M241.538 109.626L207.41 124.748L215.984 162.277L180.031 176.399L188.255 214.589" stroke="#A578B3" stroke-width="1.84" stroke-linecap="round" stroke-linejoin="round"/>
<path d="M237.616 107.58L203.502 122.677L212.076 160.206L176.123 174.328L184.347 212.517" stroke="#F09495" stroke-width="1.38" stroke-linecap="round" stroke-linejoin="round"/>
</g>
<path d="M246.709 112.4L37.4581 1.48047L1.46913 69.374L210.72 180.294L246.709 112.4Z" stroke="#6D5424" stroke-width="0.75" stroke-miterlimit="10"/>
</g>
<defs>
<clipPath id="clip0_323_624">
<rect width="239" height="79" fill="white" transform="translate(36.9995) rotate(27.9272)"/>
</clipPath>
</defs>
</svg>
