<svg width="482" height="366" viewBox="0 0 482 366" fill="none" xmlns="http://www.w3.org/2000/svg">
<path d="M233.04 257.762C303.516 257.762 360.648 200.588 360.648 130.059C360.648 59.5304 303.516 2.35571 233.04 2.35571C162.564 2.35571 105.432 59.5304 105.432 130.059C105.432 200.588 162.564 257.762 233.04 257.762Z" fill="#E4B271" stroke="#6B5324" stroke-width="0.75" stroke-miterlimit="10"/>
<path d="M228.208 249.517C294.784 249.517 348.755 195.507 348.755 128.881C348.755 62.2556 294.784 8.24493 228.208 8.24493C161.632 8.24493 107.662 62.2556 107.662 128.881C107.662 195.507 161.632 249.517 228.208 249.517Z" fill="#EBC27E"/>
<path d="M175.554 56.7846C175.554 56.7846 171.714 62.8598 166.634 63.1078C161.555 63.3557 168.678 49.9035 171.094 49.2836C173.51 48.6637 182.059 39.9228 189.988 39.1169C197.917 38.311 209.501 42.5885 203.182 45.4401C196.864 48.2917 186.705 48.1677 183.669 51.0813C180.634 53.995 175.554 56.8466 175.554 56.8466V56.7846Z" fill="#E4B271"/>
<path d="M249.827 45.3161C249.827 45.3161 240.597 47.0518 241.341 43.1463C242.084 39.2408 258.871 30.314 262.65 37.0711C262.65 37.0711 273.305 34.4675 274.172 37.815C275.039 41.1626 271.88 42.5884 269.154 44.2622C266.429 45.936 251.438 54.9248 249.579 51.0193C247.721 47.1138 249.889 45.2541 249.889 45.2541L249.827 45.3161Z" fill="#E4B271"/>
<path d="M149.227 95.7774C149.227 95.7774 140.183 96.2114 140.183 94.0417C140.183 91.872 158.767 81.9533 161.678 87.2846C161.678 87.2846 174.191 84.3709 174.006 87.9665C173.82 91.562 163.785 95.1575 163.785 95.1575C163.785 95.1575 146.688 104.456 149.289 95.7154L149.227 95.7774Z" fill="#E4B271"/>
<path d="M227.589 78.2957C227.589 78.2957 215.261 68.253 213.651 70.9187C212.04 73.5843 219.164 82.5112 221.642 83.689C224.12 84.8669 234.279 87.3465 237.872 86.4167C241.465 85.4868 247.907 83.1311 245.429 80.8994C242.951 78.6677 227.589 78.2957 227.589 78.2957Z" fill="#E4B271"/>
<path d="M137.21 131.299C137.21 131.299 120.918 122.992 125.378 134.15C129.838 145.309 126.679 144.689 137.21 146.611C147.741 148.533 160.44 142.705 161.183 142.147C162.855 140.908 169.484 137.684 175.245 137.684C178.218 137.684 188.997 136.072 179.085 132.911C169.174 129.749 151.272 137.684 151.272 137.684L137.21 131.299Z" fill="#E4B271"/>
<path d="M173.944 169.796C173.944 169.796 165.147 172.151 169.546 173.887C173.944 175.623 177.66 173.887 177.66 173.887C177.66 173.887 187.82 171.718 187.943 168.928C188.067 166.138 183.236 168.122 183.236 168.122C183.236 168.122 183.669 159.071 173.944 169.796Z" fill="#E4B271"/>
<path d="M162.979 194.469C162.979 194.469 151.581 189.261 152.511 194.469C153.44 199.676 165.581 197.568 173.944 209.533C182.306 221.497 197.731 227.696 218.049 224.597C229.943 222.799 234.774 217.653 236.695 213.748C237.872 211.33 236.261 208.541 233.598 208.231C225.483 207.363 208.262 205.813 200.704 207.115C197.421 207.673 194.076 207.425 190.979 206.185L162.917 194.407L162.979 194.469Z" fill="#E4B271"/>
<path d="M233.597 157.831C233.597 157.831 220.961 161.489 225.111 164.588C229.261 167.688 234.093 163.535 236.137 164.588C238.181 165.642 252.677 164.712 255.65 159.877C258.624 155.042 253.606 155.972 249.208 156.22C249.208 156.22 251.995 150.702 245.987 152.066C239.978 153.43 233.597 157.831 233.597 157.831Z" fill="#E4B271"/>
<path d="M295.357 181.326C295.357 181.326 257.013 185.852 276.464 190.377C276.464 190.377 286.004 198.808 299.384 192.175C312.764 185.542 315.8 181.326 315.8 181.326C315.8 181.326 326.516 166.572 321.499 166.572C316.481 166.572 295.357 181.326 295.357 181.326Z" fill="#E4B271"/>
<path d="M288.358 100.179C288.358 100.179 261.783 110.594 270.269 117.165C278.756 123.736 288.915 111.647 292.88 106.378C296.844 101.109 305.083 98.5671 305.578 97.6372C306.074 96.7073 310.472 80.1555 307.127 80.1555C303.782 80.1555 293.375 93.7937 293.003 94.5376C292.632 95.2815 286.809 95.7155 288.358 100.179Z" fill="#E4B271"/>
<path d="M305.764 140.288C305.764 140.288 291.826 142.023 294.428 144.255C297.03 146.487 299.941 145.619 299.941 145.619C299.941 145.619 298.393 150.764 307.747 145.805C307.747 145.805 313.693 143.325 313.569 140.969C313.446 138.614 305.826 140.35 305.826 140.35L305.764 140.288Z" fill="#E4B271"/>
<path d="M221.828 114.871C221.828 114.871 211.111 113.507 209.315 118.281C207.518 123.054 214.766 119.83 214.766 119.83C214.766 119.83 215.076 125.72 223.748 120.388C223.748 120.388 231.244 118.219 228.828 115.119C226.412 112.019 221.828 114.809 221.828 114.809V114.871Z" fill="#E4B271"/>
<path d="M352.038 310.579C422.514 310.579 479.646 253.405 479.646 182.876C479.646 112.347 422.514 55.1728 352.038 55.1728C281.562 55.1728 224.429 112.347 224.429 182.876C224.429 253.405 281.562 310.579 352.038 310.579Z" fill="#E4B271" stroke="#6B5324" stroke-width="0.75" stroke-miterlimit="10"/>
<path d="M347.206 302.334C413.782 302.334 467.752 248.324 467.752 181.698C467.752 115.073 413.782 61.062 347.206 61.062C280.63 61.062 226.66 115.073 226.66 181.698C226.66 248.324 280.63 302.334 347.206 302.334Z" fill="#EBC27E"/>
<path d="M294.552 109.664C294.552 109.664 290.711 115.739 285.632 115.987C280.552 116.235 287.676 102.783 290.092 102.163C292.508 101.543 301.056 92.8018 308.985 91.9959C316.914 91.1901 328.498 95.4675 322.18 98.3191C315.861 101.171 305.702 101.047 302.667 103.96C299.632 106.874 294.552 109.726 294.552 109.726V109.664Z" fill="#E4B271"/>
<path d="M368.763 98.1331C368.763 98.1331 359.533 99.8689 360.276 95.9634C361.02 92.0579 377.807 83.1311 381.586 89.8882C381.586 89.8882 392.241 87.2846 393.108 90.6321C393.975 93.9797 390.816 95.4055 388.09 97.0793C385.365 98.753 370.374 107.742 368.515 103.836C366.657 99.9309 368.825 98.0711 368.825 98.0711L368.763 98.1331Z" fill="#E4B271"/>
<path d="M268.225 148.595C268.225 148.595 259.181 149.028 259.181 146.859C259.181 144.689 277.765 134.77 280.676 140.102C280.676 140.102 293.189 137.188 293.003 140.784C292.818 144.379 282.782 147.975 282.782 147.975C282.782 147.975 265.685 157.273 268.287 148.533L268.225 148.595Z" fill="#E4B271"/>
<path d="M346.587 131.175C346.587 131.175 334.259 121.132 332.649 123.798C331.038 126.463 338.162 135.39 340.64 136.568C343.118 137.746 353.277 140.226 356.87 139.296C360.462 138.366 366.905 136.01 364.427 133.779C361.949 131.547 346.587 131.175 346.587 131.175Z" fill="#E4B271"/>
<path d="M256.208 184.116C256.208 184.116 239.916 175.809 244.376 186.968C248.836 198.126 245.677 197.506 256.208 199.428C266.738 201.35 279.437 195.522 280.181 194.964C281.853 193.725 288.481 190.501 294.242 190.501C297.216 190.501 307.994 188.889 298.083 185.728C288.172 182.566 270.269 190.501 270.269 190.501L256.208 184.116Z" fill="#E4B271"/>
<path d="M292.942 222.613C292.942 222.613 284.145 224.968 288.543 226.704C292.942 228.44 296.658 226.704 296.658 226.704C296.658 226.704 306.817 224.535 306.941 221.745C307.065 218.955 302.233 220.939 302.233 220.939C302.233 220.939 302.667 211.888 292.942 222.613Z" fill="#E4B271"/>
<path d="M281.915 247.286C281.915 247.286 270.517 242.078 271.446 247.286C272.376 252.493 284.517 250.385 292.88 262.35C301.242 274.314 316.667 280.513 336.985 277.414C348.879 275.616 353.71 270.471 355.631 266.565C356.808 264.147 355.197 261.358 352.533 261.048C344.418 260.18 327.198 258.63 319.64 259.932C316.357 260.49 313.012 260.242 309.915 259.002L281.853 247.224L281.915 247.286Z" fill="#E4B271"/>
<path d="M352.595 210.648C352.595 210.648 339.958 214.306 344.109 217.406C348.259 220.505 353.091 216.352 355.135 217.406C357.179 218.459 371.675 217.53 374.648 212.694C377.621 207.859 372.604 208.789 368.206 209.037C368.206 209.037 370.993 203.519 364.984 204.883C358.976 206.247 352.595 210.648 352.595 210.648Z" fill="#E4B271"/>
<path d="M414.355 234.143C414.355 234.143 376.011 238.669 395.462 243.194C395.462 243.194 405.001 251.625 418.382 244.992C431.762 238.359 434.797 234.143 434.797 234.143C434.797 234.143 445.514 219.389 440.496 219.389C435.479 219.389 414.355 234.143 414.355 234.143Z" fill="#E4B271"/>
<path d="M407.355 152.996C407.355 152.996 380.781 163.411 389.267 169.982C397.754 176.553 407.913 164.465 411.877 159.195C415.842 153.926 424.081 151.384 424.576 150.454C425.072 149.524 429.47 132.973 426.125 132.973C422.78 132.973 412.373 146.611 412.001 147.355C411.63 148.099 405.807 148.533 407.355 152.996Z" fill="#E4B271"/>
<path d="M424.7 193.105C424.7 193.105 410.762 194.84 413.364 197.072C415.966 199.304 418.877 198.436 418.877 198.436C418.877 198.436 417.329 203.581 426.682 198.622C426.682 198.622 432.629 196.142 432.505 193.787C432.381 191.431 424.762 193.167 424.762 193.167L424.7 193.105Z" fill="#E4B271"/>
<path d="M340.825 167.688C340.825 167.688 330.109 166.324 328.312 171.098C326.516 175.871 333.764 172.647 333.764 172.647C333.764 172.647 334.073 178.537 342.746 173.205C342.746 173.205 350.241 171.036 347.825 167.936C345.409 164.836 340.825 167.626 340.825 167.626V167.688Z" fill="#E4B271"/>
<path d="M129.962 363.644C200.438 363.644 257.571 306.47 257.571 235.941C257.571 165.412 200.438 108.238 129.962 108.238C59.4861 108.238 2.35394 165.412 2.35394 235.941C2.35394 306.47 59.4861 363.644 129.962 363.644Z" fill="#E4B271" stroke="#6B5324" stroke-width="0.75" stroke-miterlimit="10"/>
<path d="M125.069 355.461C191.644 355.461 245.615 301.451 245.615 234.825C245.615 168.2 191.644 114.189 125.069 114.189C58.4925 114.189 4.52203 168.2 4.52203 234.825C4.52203 301.451 58.4925 355.461 125.069 355.461Z" fill="#EBC27E"/>
<path d="M72.4765 162.729C72.4765 162.729 68.6359 168.804 63.5563 169.052C58.4768 169.3 65.6005 155.848 68.0164 155.228C70.4323 154.608 78.9808 145.867 86.9099 145.061C94.839 144.255 106.423 148.533 100.104 151.384C93.7859 154.236 83.6268 154.112 80.5914 157.025C77.5561 159.939 72.4765 162.791 72.4765 162.791V162.729Z" fill="#E4B271"/>
<path d="M146.688 151.26C146.688 151.26 137.458 152.996 138.201 149.09C138.944 145.185 155.732 136.258 159.51 143.015C159.51 143.015 170.165 140.412 171.032 143.759C171.9 147.107 168.74 148.533 166.015 150.206C163.289 151.88 148.298 160.869 146.44 156.963C144.581 153.058 146.75 151.198 146.75 151.198L146.688 151.26Z" fill="#E4B271"/>
<path d="M46.1496 201.722C46.1496 201.722 37.1055 202.156 37.1055 199.986C37.1055 197.816 55.6893 187.897 58.6007 193.229C58.6007 193.229 71.1138 190.315 70.9279 193.911C70.7421 197.506 60.7069 201.102 60.7069 201.102C60.7069 201.102 43.6098 210.4 46.2116 201.66L46.1496 201.722Z" fill="#E4B271"/>
<path d="M124.511 184.24C124.511 184.24 112.184 174.197 110.573 176.863C108.963 179.528 116.086 188.455 118.564 189.633C121.042 190.811 131.201 193.291 134.794 192.361C138.387 191.431 144.829 189.075 142.351 186.843C139.874 184.612 124.511 184.24 124.511 184.24Z" fill="#E4B271"/>
<path d="M34.1321 237.243C34.1321 237.243 17.8404 228.936 22.3005 240.094C26.7606 251.253 23.6013 250.633 34.1321 252.555C44.6629 254.477 57.3618 248.649 58.1051 248.091C59.7776 246.852 66.4058 243.628 72.1668 243.628C75.1402 243.628 85.9188 242.016 76.0074 238.855C66.0961 235.693 48.1938 243.628 48.1938 243.628L34.1321 237.243Z" fill="#E4B271"/>
<path d="M70.866 275.74C70.866 275.74 62.0697 278.096 66.4678 279.831C70.866 281.567 74.5827 279.831 74.5827 279.831C74.5827 279.831 84.7418 277.662 84.8657 274.872C84.9896 272.082 80.1578 274.066 80.1578 274.066C80.1578 274.066 80.5914 265.015 70.866 275.74Z" fill="#E4B271"/>
<path d="M59.8396 300.413C59.8396 300.413 48.4416 295.205 49.3708 300.413C50.3 305.62 62.4413 303.512 70.804 315.477C79.1667 327.441 94.5912 333.64 114.909 330.541C126.803 328.743 131.635 323.598 133.555 319.692C134.732 317.274 133.121 314.485 130.458 314.175C122.343 313.307 105.122 311.757 97.5646 313.059C94.2815 313.617 90.9364 313.369 87.8391 312.129L59.7777 300.351L59.8396 300.413Z" fill="#E4B271"/>
<path d="M130.52 263.713C130.52 263.713 117.883 267.371 122.033 270.471C126.183 273.57 131.015 269.417 133.059 270.471C135.104 271.524 149.599 270.595 152.572 265.759C155.546 260.924 150.528 261.854 146.13 262.102C146.13 262.102 148.918 256.584 142.909 257.948C136.9 259.312 130.52 263.713 130.52 263.713Z" fill="#E4B271"/>
<path d="M192.28 287.208C192.28 287.208 153.935 291.734 173.386 296.259C173.386 296.259 182.926 304.69 196.306 298.057C209.686 291.424 212.722 287.208 212.722 287.208C212.722 287.208 223.438 272.454 218.421 272.454C213.403 272.454 192.28 287.208 192.28 287.208Z" fill="#E4B271"/>
<path d="M185.28 206.061C185.28 206.061 158.705 216.476 167.192 223.047C175.678 229.618 185.837 217.529 189.802 212.26C193.766 206.991 202.005 204.449 202.501 203.519C202.996 202.589 207.394 186.038 204.049 186.038C200.704 186.038 190.297 199.676 189.926 200.42C189.554 201.164 183.731 201.598 185.28 206.061Z" fill="#E4B271"/>
<path d="M202.625 246.232C202.625 246.232 188.687 247.967 191.289 250.199C193.89 252.431 196.802 251.563 196.802 251.563C196.802 251.563 195.253 256.708 204.607 251.749C204.607 251.749 210.554 249.269 210.43 246.914C210.306 244.558 202.687 246.294 202.687 246.294L202.625 246.232Z" fill="#E4B271"/>
<path d="M118.75 220.815C118.75 220.815 108.033 219.451 106.237 224.225C104.441 228.998 111.688 225.774 111.688 225.774C111.688 225.774 111.998 231.664 120.67 226.332C120.67 226.332 128.166 224.163 125.75 221.063C123.334 217.963 118.75 220.753 118.75 220.753V220.815Z" fill="#E4B271"/>
</svg>
