<?xml version="1.0" encoding="UTF-8"?>
<svg id="_レイヤー_2" data-name="レイヤー_2" xmlns="http://www.w3.org/2000/svg" xmlns:xlink="http://www.w3.org/1999/xlink" viewBox="0 0 1280 259.76">
  <defs>
    <style>
      .cls-1 {
        fill: none;
      }

      .cls-2 {
        fill: #dd7e7e;
        stroke: #72550b;
        stroke-width: 2px;
      }

      .cls-3 {
        fill: #c7686a;
      }

      .cls-4 {
        clip-path: url(#clippath);
      }
    </style>
    <clipPath id="clippath">
      <rect class="cls-1" width="1280" height="259.76"/>
    </clipPath>
  </defs>
  <g id="_レイヤー_1-2" data-name="レイヤー_1">
    <g class="cls-4">
      <path class="cls-2" d="M1289.31,1.84s.11.04.17.07c.23.09.57.22,1.02.4.89.35,2.21.88,3.91,1.56,3.4,1.37,8.32,3.38,14.4,5.94,12.16,5.12,28.97,12.43,47.55,21.21,37.18,17.57,81.36,40.95,109.61,64.29,14.15,11.69,24.14,23.25,27.38,33.93,1.62,5.3,1.56,10.37-.46,15.15-2.02,4.8-6.05,9.42-12.57,13.74-13.06,8.66-35.87,15.96-71.44,21.07-35.53,5.12-83.69,8.04-147.36,8.04-254.7,0-448.96-59.56-642.62-89.38-193.63-29.82-386.34-29.82-637.38,89.48-62.69,29.79-109.67,49.19-143.9,60.34-17.12,5.58-31.02,9.08-42.09,10.8-11.09,1.72-19.25,1.63-24.93.08-5.63-1.53-8.74-4.46-9.96-8.45-1.25-4.08-.6-9.49,1.82-16.07,4.84-13.14,16.5-30.33,32.17-49.49,31.31-38.27,78.29-84,117.47-120.19,19.59-18.09,37.22-33.79,49.95-44.96,6.37-5.59,11.51-10.04,15.06-13.1,1.77-1.53,3.15-2.71,4.08-3.51.47-.4.82-.7,1.06-.91.03-.02.06-.05.08-.07h1307Z"/>
      <path class="cls-3" d="M-16.02,172.11c-5.06,2.21-7.37,8.1-5.16,13.17,2.21,5.06,8.1,7.37,13.17,5.16l-8-18.33ZM618.21,93.16l-1.38,9.9,1.38-9.9ZM-12.02,181.28l4,9.16c53.53-23.38,111.82-58.28,206.3-81.12,94.16-22.77,224.21-33.38,418.55-6.26l1.38-9.9,1.38-9.9c-196.31-27.39-328.94-16.84-426.01,6.63-96.75,23.39-158.26,59.81-209.6,82.23l4,9.17ZM618.21,93.16l-1.38,9.9c148.13,20.67,258.2,46.73,366.63,65.82,108.18,19.04,213.32,30.84,349.14,22.38l-.62-9.98-.62-9.98c-133.78,8.33-237.26-3.25-344.43-22.12-106.92-18.82-218.93-45.22-367.33-65.93l-1.38,9.9Z"/>
    </g>
  </g>
</svg>