<?xml version="1.0" encoding="UTF-8"?>
<svg id="_レイヤー_2" data-name="レイヤー_2" xmlns="http://www.w3.org/2000/svg" xmlns:xlink="http://www.w3.org/1999/xlink" viewBox="0 0 1280.77 170.26">
  <defs>
    <style>
      .cls-1, .cls-2 {
        fill: none;
      }

      .cls-3 {
        fill: #dd7e7e;
        stroke: #72550b;
        stroke-width: 2px;
      }

      .cls-2 {
        stroke: #c7686a;
        stroke-linecap: round;
        stroke-width: 20px;
      }

      .cls-4 {
        clip-path: url(#clippath);
      }
    </style>
    <clipPath id="clippath">
      <rect class="cls-1" width="1280.77" height="170.26"/>
    </clipPath>
  </defs>
  <g id="_レイヤー_1-2" data-name="レイヤー_1">
    <g class="cls-4">
      <g>
        <path class="cls-3" d="M.17,171.95c0-.97,0-1-.01-1H.04c-.08,0-.21,0-.37,0-.32,0-.81,0-1.44,0-1.27,0-3.14,0-5.54,0-4.82,0-11.79-.02-20.4-.08-17.22-.13-41.01-.45-67.29-1.23-52.57-1.56-115-4.94-154.64-12.21-9.91-1.82-18.36-3.87-24.86-6.19-6.56-2.34-10.94-4.88-12.95-7.55-.97-1.3-1.36-2.59-1.2-3.92.16-1.35.89-2.87,2.4-4.57,3.06-3.42,9.05-7.27,18.65-11.56,38.37-17.13,132.21-40.3,314.38-71.56,364.1-62.5,568.31-20.76,739.31,15.73,85.51,18.25,162.81,35.22,247.64,37.16,84.85,1.94,177.19-11.14,292.86-52.94,57.77-20.87,100.35-34.63,130.64-42.74,15.15-4.05,27.2-6.68,36.54-8.09,9.36-1.41,15.89-1.56,20.04-.72,2.07.42,3.46,1.07,4.31,1.84.81.74,1.2,1.65,1.19,2.78,0,1.17-.42,2.62-1.33,4.36-.91,1.73-2.27,3.67-4.05,5.82-7.15,8.61-20.8,20.01-38.14,32.78-34.66,25.51-83.77,56.26-124.23,80.63-20.23,12.18-38.29,22.77-51.29,30.32-6.5,3.77-11.74,6.78-15.35,8.85-1.81,1.03-3.21,1.83-4.15,2.37-.48.27-.84.48-1.08.61-.05.03-.1.06-.14.08H.17v1Z"/>
        <path class="cls-2" d="M-98.39,92.26C5.48,64.51,293.99-3.77,620.61,41.61c306.01,42.51,463.49,94.74,667.99,21.21"/>
      </g>
    </g>
  </g>
</svg>