<svg width="1280" height="45" viewBox="0 0 1280 45" fill="none" xmlns="http://www.w3.org/2000/svg">
<path d="M479.5 44.3438H448.5V0.908203L463.733 10.54L464 10.709L464.268 10.54L479.5 0.908203V44.3438Z" fill="#DD7E7E" stroke="#72550B"/>
<path d="M223.5 44.3438H192.5V0.908203L207.733 10.54L208 10.709L208.268 10.54L223.5 0.908203V44.3438Z" fill="#DD7E7E" stroke="#72550B"/>
<path d="M735.5 44.3438H704.5V0.908203L719.733 10.54L720 10.709L720.268 10.54L735.5 0.908203V44.3438Z" fill="#DD7E7E" stroke="#72550B"/>
<path d="M991.5 44.3438H960.5V0.908203L975.733 10.54L976 10.709L976.268 10.54L991.5 0.908203V44.3438Z" fill="#DD7E7E" stroke="#72550B"/>
<path d="M95.5001 44.3438H64.5001V0.908203L79.7325 10.54L80.0001 10.709L80.2677 10.54L95.5001 0.908203V44.3438Z" fill="#DD7E7E" stroke="#72550B"/>
<path d="M31.5001 44.3438H0.500122V0.908203L15.7325 10.54L16.0001 10.709L16.2677 10.54L31.5001 0.908203V44.3438Z" fill="#DD7E7E" stroke="#72550B"/>
<path d="M607.5 44.3438H576.5V0.908203L591.733 10.54L592 10.709L592.268 10.54L607.5 0.908203V44.3438Z" fill="#DD7E7E" stroke="#72550B"/>
<path d="M351.5 44.3438H320.5V0.908203L335.733 10.54L336 10.709L336.268 10.54L351.5 0.908203V44.3438Z" fill="#DD7E7E" stroke="#72550B"/>
<path d="M863.5 44.3438H832.5V0.908203L847.733 10.54L848 10.709L848.268 10.54L863.5 0.908203V44.3438Z" fill="#DD7E7E" stroke="#72550B"/>
<path d="M1119.5 44.3438H1088.5V0.908203L1103.73 10.54L1104 10.709L1104.27 10.54L1119.5 0.908203V44.3438Z" fill="#DD7E7E" stroke="#72550B"/>
<path d="M543.5 44.3438H512.5V0.908203L527.733 10.54L528 10.709L528.268 10.54L543.5 0.908203V44.3438Z" fill="#DD7E7E" stroke="#72550B"/>
<path d="M287.5 44.3438H256.5V0.908203L271.733 10.54L272 10.709L272.268 10.54L287.5 0.908203V44.3438Z" fill="#DD7E7E" stroke="#72550B"/>
<path d="M799.5 44.3438H768.5V0.908203L783.733 10.54L784 10.709L784.268 10.54L799.5 0.908203V44.3438Z" fill="#DD7E7E" stroke="#72550B"/>
<path d="M1055.5 44.3438H1024.5V0.908203L1039.73 10.54L1040 10.709L1040.27 10.54L1055.5 0.908203V44.3438Z" fill="#DD7E7E" stroke="#72550B"/>
<path d="M159.5 44.3438H128.5V0.908203L143.733 10.54L144 10.709L144.268 10.54L159.5 0.908203V44.3438Z" fill="#DD7E7E" stroke="#72550B"/>
<path d="M671.5 44.3438H640.5V0.908203L655.733 10.54L656 10.709L656.268 10.54L671.5 0.908203V44.3438Z" fill="#DD7E7E" stroke="#72550B"/>
<path d="M415.5 44.3438H384.5V0.908203L399.733 10.54L400 10.709L400.268 10.54L415.5 0.908203V44.3438Z" fill="#DD7E7E" stroke="#72550B"/>
<path d="M927.5 44.3438H896.5V0.908203L911.733 10.54L912 10.709L912.268 10.54L927.5 0.908203V44.3438Z" fill="#DD7E7E" stroke="#72550B"/>
<path d="M1183.5 44.3438H1152.5V0.908203L1167.73 10.54L1168 10.709L1168.27 10.54L1183.5 0.908203V44.3438Z" fill="#DD7E7E" stroke="#72550B"/>
<path d="M1247.5 44.3438H1216.5V0.908203L1231.73 10.54L1232 10.709L1232.27 10.54L1247.5 0.908203V44.3438Z" fill="#DD7E7E" stroke="#72550B"/>
<path d="M511.5 44.3438H480.5V0.908203L495.733 10.54L496 10.709L496.268 10.54L511.5 0.908203V44.3438Z" fill="white" stroke="#72550B"/>
<path d="M255.5 44.3438H224.5V0.908203L239.733 10.54L240 10.709L240.268 10.54L255.5 0.908203V44.3438Z" fill="white" stroke="#72550B"/>
<path d="M767.5 44.3438H736.5V0.908203L751.733 10.54L752 10.709L752.268 10.54L767.5 0.908203V44.3438Z" fill="white" stroke="#72550B"/>
<path d="M1023.5 44.3438H992.5V0.908203L1007.73 10.54L1008 10.709L1008.27 10.54L1023.5 0.908203V44.3438Z" fill="white" stroke="#72550B"/>
<path d="M127.5 44.3438H96.5001V0.908203L111.733 10.54L112 10.709L112.268 10.54L127.5 0.908203V44.3438Z" fill="white" stroke="#72550B"/>
<path d="M63.5001 44.3438H32.5001V0.908203L47.7325 10.54L48.0001 10.709L48.2677 10.54L63.5001 0.908203V44.3438Z" fill="white" stroke="#72550B"/>
<path d="M639.5 44.3438H608.5V0.908203L623.733 10.54L624 10.709L624.268 10.54L639.5 0.908203V44.3438Z" fill="white" stroke="#72550B"/>
<path d="M383.5 44.3438H352.5V0.908203L367.733 10.54L368 10.709L368.268 10.54L383.5 0.908203V44.3438Z" fill="white" stroke="#72550B"/>
<path d="M895.5 44.3438H864.5V0.908203L879.733 10.54L880 10.709L880.268 10.54L895.5 0.908203V44.3438Z" fill="white" stroke="#72550B"/>
<path d="M1151.5 44.3438H1120.5V0.908203L1135.73 10.54L1136 10.709L1136.27 10.54L1151.5 0.908203V44.3438Z" fill="white" stroke="#72550B"/>
<path d="M575.5 44.3438H544.5V0.908203L559.733 10.54L560 10.709L560.268 10.54L575.5 0.908203V44.3438Z" fill="white" stroke="#72550B"/>
<path d="M319.5 44.3438H288.5V0.908203L303.733 10.54L304 10.709L304.268 10.54L319.5 0.908203V44.3438Z" fill="white" stroke="#72550B"/>
<path d="M831.5 44.3438H800.5V0.908203L815.733 10.54L816 10.709L816.268 10.54L831.5 0.908203V44.3438Z" fill="white" stroke="#72550B"/>
<path d="M1087.5 44.3438H1056.5V0.908203L1071.73 10.54L1072 10.709L1072.27 10.54L1087.5 0.908203V44.3438Z" fill="white" stroke="#72550B"/>
<path d="M191.5 44.3438H160.5V0.908203L175.733 10.54L176 10.709L176.268 10.54L191.5 0.908203V44.3438Z" fill="white" stroke="#72550B"/>
<path d="M703.5 44.3438H672.5V0.908203L687.733 10.54L688 10.709L688.268 10.54L703.5 0.908203V44.3438Z" fill="white" stroke="#72550B"/>
<path d="M447.5 44.3438H416.5V0.908203L431.733 10.54L432 10.709L432.268 10.54L447.5 0.908203V44.3438Z" fill="white" stroke="#72550B"/>
<path d="M959.5 44.3438H928.5V0.908203L943.733 10.54L944 10.709L944.268 10.54L959.5 0.908203V44.3438Z" fill="white" stroke="#72550B"/>
<path d="M1215.5 44.3438H1184.5V0.908203L1199.73 10.54L1200 10.709L1200.27 10.54L1215.5 0.908203V44.3438Z" fill="white" stroke="#72550B"/>
<path d="M1279.5 44.3438H1248.5V0.908203L1263.73 10.54L1264 10.709L1264.27 10.54L1279.5 0.908203V44.3438Z" fill="white" stroke="#72550B"/>
</svg>
